<svg xmlns="http://www.w3.org/2000/svg" width="1030" height="829" viewBox="0 0 1030 829">
  <g id="Grupo_149702" data-name="Grupo 149702" transform="translate(-285 -8930)">
    <rect id="Rectángulo_90205" data-name="Rectángulo 90205" width="678" height="59" transform="translate(637 8938)" fill="#fec0c2" opacity="0.616"/>
    <rect id="Rectángulo_90206" data-name="Rectángulo 90206" width="400" height="74" rx="24" transform="translate(285 8930)" fill="#fc4b52"/>
    <text id="Quien_no_actúa_correctamente_no_inspira_confianza." data-name="Quien no actúa correctamente, no inspira confianza." transform="translate(705 8954)" fill="#12263f" font-size="17" font-family="Roboto-Regular, Roboto"><tspan x="0" y="18">Quien no actúa correctamente, no inspira confianza.</tspan></text>
    <path id="Trazado_262559" data-name="Trazado 262559" d="M118.764,27h-3.992V18.729h-8.107V27h-3.992V7.094h3.992v8.559h8.107V7.094h3.992Zm2.748-7.533a7.939,7.939,0,0,1,1.846-5.421,6.434,6.434,0,0,1,5.113-2.112,6.5,6.5,0,0,1,5.141,2.105,7.9,7.9,0,0,1,1.859,5.428v.287a7.908,7.908,0,0,1-1.853,5.435,7.312,7.312,0,0,1-10.254,0,7.908,7.908,0,0,1-1.853-5.435Zm3.979.287A6.436,6.436,0,0,0,126.2,23a2.731,2.731,0,0,0,4.56-.007,6.393,6.393,0,0,0,.718-3.24v-.287a6.328,6.328,0,0,0-.725-3.213,2.452,2.452,0,0,0-2.283-1.244,2.422,2.422,0,0,0-2.263,1.251,6.385,6.385,0,0,0-.718,3.206Zm16.092-7.547.178,2.119a5.411,5.411,0,0,1,1.818-1.764,4.72,4.72,0,0,1,2.42-.629,4.4,4.4,0,0,1,3.5,1.442,6.838,6.838,0,0,1,1.258,4.56V27H146.75V17.949A3.541,3.541,0,0,0,146.2,15.7a2.041,2.041,0,0,0-1.661-.663,3.486,3.486,0,0,0-1.565.335,3.056,3.056,0,0,0-1.114.923V27h-3.992V12.207Zm18.566,15.08a6.656,6.656,0,0,1-5.168-2.03,7.441,7.441,0,0,1-1.859-5.229V19.48a8.1,8.1,0,0,1,1.8-5.441,6.135,6.135,0,0,1,4.963-2.105,5.744,5.744,0,0,1,4.573,1.825,7.213,7.213,0,0,1,1.593,4.915v2.064h-8.818l-.041.082a4,4,0,0,0,.923,2.461,3.09,3.09,0,0,0,2.454.943,8.212,8.212,0,0,0,2.276-.273,9.288,9.288,0,0,0,1.935-.834l1.08,2.461a7.41,7.41,0,0,1-2.406,1.217A10.671,10.671,0,0,1,160.148,27.287Zm-.26-12.277a2.217,2.217,0,0,0-1.853.827,4.149,4.149,0,0,0-.786,2.194l.027.068h4.867v-.3a3.455,3.455,0,0,0-.533-2.044A1.972,1.972,0,0,0,159.889,15.01ZM176.377,22.9a1.377,1.377,0,0,0-.636-1.128,6.457,6.457,0,0,0-2.358-.827,9.407,9.407,0,0,1-3.944-1.572,3.434,3.434,0,0,1-1.347-2.857,4.076,4.076,0,0,1,1.613-3.24A6.5,6.5,0,0,1,174,11.934a7.02,7.02,0,0,1,4.491,1.34,3.915,3.915,0,0,1,1.62,3.336l-.027.082h-3.855a1.936,1.936,0,0,0-.574-1.449,2.685,2.685,0,0,0-3.172-.082,1.488,1.488,0,0,0-.561,1.176,1.328,1.328,0,0,0,.581,1.114,6.467,6.467,0,0,0,2.358.772,9.6,9.6,0,0,1,4.054,1.606,3.524,3.524,0,0,1,1.333,2.919,3.9,3.9,0,0,1-1.709,3.268,7.376,7.376,0,0,1-4.512,1.271,6.857,6.857,0,0,1-4.669-1.5,4.185,4.185,0,0,1-1.634-3.411l.027-.082h3.65a2.075,2.075,0,0,0,.779,1.723,3.217,3.217,0,0,0,1.928.533,2.742,2.742,0,0,0,1.688-.444A1.442,1.442,0,0,0,176.377,22.9ZM187.6,8.584v3.623h2.5v2.8h-2.5v7.533a1.719,1.719,0,0,0,.362,1.23,1.272,1.272,0,0,0,.95.369,3.811,3.811,0,0,0,.547-.034,4.606,4.606,0,0,0,.533-.116l.328,2.885a8.082,8.082,0,0,1-1.169.308,6.969,6.969,0,0,1-1.237.1,4.255,4.255,0,0,1-3.179-1.135,4.976,4.976,0,0,1-1.114-3.6V15.01h-2.16v-2.8h2.16V8.584ZM196.762,27H192.77V12.207h3.992Zm0-18.334H192.77V5.672h3.992Zm2.666,11.061a9.613,9.613,0,0,1,1.511-5.646,4.906,4.906,0,0,1,4.259-2.146,4.142,4.142,0,0,1,2,.479,4.8,4.8,0,0,1,1.559,1.367V5.672h4.006V27h-3.4l-.342-1.818a4.945,4.945,0,0,1-1.654,1.565,4.374,4.374,0,0,1-2.187.54,5,5,0,0,1-4.231-2,8.524,8.524,0,0,1-1.511-5.277Zm3.979.287a6.025,6.025,0,0,0,.656,3.056,2.285,2.285,0,0,0,2.133,1.114,3.106,3.106,0,0,0,1.5-.349,2.781,2.781,0,0,0,1.053-1.019v-6.3a3.072,3.072,0,0,0-1.046-1.087,2.781,2.781,0,0,0-1.483-.39,2.253,2.253,0,0,0-2.14,1.3,7.34,7.34,0,0,0-.677,3.391ZM224.57,27a8.4,8.4,0,0,1-.376-1.066,7.419,7.419,0,0,1-.226-1.148,5.472,5.472,0,0,1-1.627,1.791,4.078,4.078,0,0,1-2.406.711,5,5,0,0,1-3.582-1.2A4.286,4.286,0,0,1,215.1,22.83a3.9,3.9,0,0,1,1.675-3.37,8.364,8.364,0,0,1,4.888-1.2H223.9V17.088a2.3,2.3,0,0,0-.561-1.654,2.2,2.2,0,0,0-1.668-.588,2.168,2.168,0,0,0-1.5.472,1.647,1.647,0,0,0-.526,1.292h-3.842l-.027-.082a3.752,3.752,0,0,1,1.634-3.233,7.1,7.1,0,0,1,4.519-1.36,6.622,6.622,0,0,1,4.313,1.34,4.667,4.667,0,0,1,1.647,3.842v6.111a11.559,11.559,0,0,0,.157,1.955,9.811,9.811,0,0,0,.5,1.818Zm-3.65-2.666a3.4,3.4,0,0,0,1.859-.52,2.8,2.8,0,0,0,1.121-1.2V20.52h-2.242a2.658,2.658,0,0,0-1.921.629,2.067,2.067,0,0,0-.649,1.545,1.542,1.542,0,0,0,.485,1.2A1.92,1.92,0,0,0,220.92,24.334Zm9.352-4.607a9.613,9.613,0,0,1,1.511-5.646,4.906,4.906,0,0,1,4.259-2.146,4.142,4.142,0,0,1,2,.479,4.8,4.8,0,0,1,1.559,1.367V5.672H243.6V27h-3.4l-.342-1.818a4.945,4.945,0,0,1-1.654,1.565,4.374,4.374,0,0,1-2.187.54,5,5,0,0,1-4.231-2,8.524,8.524,0,0,1-1.511-5.277Zm3.979.287a6.025,6.025,0,0,0,.656,3.056,2.285,2.285,0,0,0,2.133,1.114,3.106,3.106,0,0,0,1.5-.349,2.781,2.781,0,0,0,1.053-1.019v-6.3a3.072,3.072,0,0,0-1.046-1.087,2.781,2.781,0,0,0-1.483-.39,2.253,2.253,0,0,0-2.14,1.3,7.34,7.34,0,0,0-.677,3.391Z" transform="translate(312 8949)" fill="#fff"/>
    <rect id="Rectángulo_90207" data-name="Rectángulo 90207" width="678" height="59" transform="translate(637 9021)" fill="#fec0c2" opacity="0.616"/>
    <rect id="Rectángulo_90208" data-name="Rectángulo 90208" width="400" height="74" rx="24" transform="translate(285 9014)" fill="#fc4b52"/>
    <text id="Hace_alusión_a_reconocer_al_individuo_como_entidad_única." data-name="Hace alusión a reconocer al individuo como entidad única." transform="translate(705 9037)" fill="#12263f" font-size="17" font-family="Roboto-Regular, Roboto"><tspan x="0" y="18">Hace alusión a reconocer al individuo como entidad única.</tspan></text>
    <path id="Trazado_262560" data-name="Trazado 262560" d="M127.363,19.043V27h-3.992V7.094h6.891a8.253,8.253,0,0,1,5.325,1.552,5.252,5.252,0,0,1,1.921,4.327,4.365,4.365,0,0,1-.813,2.646,5.666,5.666,0,0,1-2.372,1.8,4.284,4.284,0,0,1,2.536,1.736,5.505,5.505,0,0,1,.772,3.008v1.463a7.237,7.237,0,0,0,.226,1.743,2.4,2.4,0,0,0,.772,1.347V27h-4.115a2.21,2.21,0,0,1-.7-1.449,12.732,12.732,0,0,1-.157-1.955V22.188a3.164,3.164,0,0,0-.813-2.317,3.086,3.086,0,0,0-2.3-.827Zm0-3.076h2.83a3.743,3.743,0,0,0,2.5-.711,2.635,2.635,0,0,0,.82-2.105,2.9,2.9,0,0,0-.827-2.174,3.34,3.34,0,0,0-2.427-.807h-2.9Zm19.961,11.32a6.656,6.656,0,0,1-5.168-2.03,7.441,7.441,0,0,1-1.859-5.229V19.48a8.1,8.1,0,0,1,1.8-5.441,6.135,6.135,0,0,1,4.963-2.105,5.744,5.744,0,0,1,4.573,1.825,7.213,7.213,0,0,1,1.593,4.915v2.064h-8.818l-.041.082a4,4,0,0,0,.923,2.461,3.09,3.09,0,0,0,2.454.943,8.212,8.212,0,0,0,2.276-.273,9.288,9.288,0,0,0,1.935-.834l1.08,2.461a7.41,7.41,0,0,1-2.406,1.217A10.671,10.671,0,0,1,147.324,27.287Zm-.26-12.277a2.217,2.217,0,0,0-1.853.827,4.149,4.149,0,0,0-.786,2.194l.027.068h4.867v-.3a3.455,3.455,0,0,0-.533-2.044A1.972,1.972,0,0,0,147.064,15.01ZM163.553,22.9a1.377,1.377,0,0,0-.636-1.128,6.457,6.457,0,0,0-2.358-.827,9.407,9.407,0,0,1-3.944-1.572,3.434,3.434,0,0,1-1.347-2.857,4.076,4.076,0,0,1,1.613-3.24,6.5,6.5,0,0,1,4.293-1.34,7.02,7.02,0,0,1,4.491,1.34,3.915,3.915,0,0,1,1.62,3.336l-.027.082H163.4a1.936,1.936,0,0,0-.574-1.449,2.685,2.685,0,0,0-3.172-.082,1.488,1.488,0,0,0-.561,1.176,1.328,1.328,0,0,0,.581,1.114,6.467,6.467,0,0,0,2.358.772,9.6,9.6,0,0,1,4.054,1.606,3.524,3.524,0,0,1,1.333,2.919,3.9,3.9,0,0,1-1.709,3.268,7.376,7.376,0,0,1-4.512,1.271,6.857,6.857,0,0,1-4.669-1.5,4.185,4.185,0,0,1-1.634-3.411l.027-.082h3.65a2.075,2.075,0,0,0,.779,1.723,3.217,3.217,0,0,0,1.928.533,2.742,2.742,0,0,0,1.688-.444A1.442,1.442,0,0,0,163.553,22.9Zm19.783-2.885a8.5,8.5,0,0,1-1.518,5.277,5.02,5.02,0,0,1-4.238,2,4.737,4.737,0,0,1-2.064-.431,4.24,4.24,0,0,1-1.545-1.265v7.1h-3.979V12.207h3.6l.232,1.75a4.74,4.74,0,0,1,1.579-1.5,4.271,4.271,0,0,1,2.153-.526,4.923,4.923,0,0,1,4.266,2.146,9.58,9.58,0,0,1,1.518,5.646Zm-3.992-.287a7.157,7.157,0,0,0-.7-3.391,2.274,2.274,0,0,0-2.133-1.3,3.014,3.014,0,0,0-1.538.369,2.634,2.634,0,0,0-1,1.053v6.48a2.447,2.447,0,0,0,1,.957,3.386,3.386,0,0,0,1.565.328,2.3,2.3,0,0,0,2.126-1.135,5.99,5.99,0,0,0,.677-3.076Zm12.865,7.561a6.656,6.656,0,0,1-5.168-2.03,7.441,7.441,0,0,1-1.859-5.229V19.48a8.1,8.1,0,0,1,1.8-5.441,6.135,6.135,0,0,1,4.963-2.105,5.744,5.744,0,0,1,4.573,1.825,7.213,7.213,0,0,1,1.593,4.915v2.064H189.3l-.041.082a4,4,0,0,0,.923,2.461,3.09,3.09,0,0,0,2.454.943,8.212,8.212,0,0,0,2.276-.273,9.288,9.288,0,0,0,1.935-.834l1.08,2.461a7.41,7.41,0,0,1-2.406,1.217A10.671,10.671,0,0,1,192.209,27.287Zm-.26-12.277a2.217,2.217,0,0,0-1.853.827,4.149,4.149,0,0,0-.786,2.194l.027.068h4.867v-.3a3.455,3.455,0,0,0-.533-2.044A1.972,1.972,0,0,0,191.949,15.01Zm13.275-6.426v3.623h2.5v2.8h-2.5v7.533a1.719,1.719,0,0,0,.362,1.23,1.272,1.272,0,0,0,.95.369,3.811,3.811,0,0,0,.547-.034,4.606,4.606,0,0,0,.533-.116l.328,2.885a8.082,8.082,0,0,1-1.169.308,6.969,6.969,0,0,1-1.237.1,4.255,4.255,0,0,1-3.179-1.135,4.976,4.976,0,0,1-1.114-3.6V15.01h-2.16v-2.8h2.16V8.584Zm4.348,10.883a7.939,7.939,0,0,1,1.846-5.421,6.434,6.434,0,0,1,5.113-2.112,6.5,6.5,0,0,1,5.141,2.105,7.9,7.9,0,0,1,1.859,5.428v.287a7.908,7.908,0,0,1-1.853,5.435,7.312,7.312,0,0,1-10.254,0,7.908,7.908,0,0,1-1.853-5.435Zm3.979.287A6.436,6.436,0,0,0,214.262,23a2.731,2.731,0,0,0,4.56-.007,6.393,6.393,0,0,0,.718-3.24v-.287a6.328,6.328,0,0,0-.725-3.213,2.452,2.452,0,0,0-2.283-1.244,2.422,2.422,0,0,0-2.263,1.251,6.385,6.385,0,0,0-.718,3.206Z" transform="translate(312 9032)" fill="#fff"/>
    <rect id="Rectángulo_90209" data-name="Rectángulo 90209" width="678" height="59" transform="translate(637 9105)" fill="#fec0c2" opacity="0.616"/>
    <rect id="Rectángulo_90210" data-name="Rectángulo 90210" width="400" height="74" rx="24" transform="translate(285 9097)" fill="#fc4b52"/>
    <text id="Cumplir_la_hora_acordada_y_aplicar_este_criterio_en_todo_reuniones_eventos_entregas_etc._." data-name="Cumplir la hora acordada y aplicar este criterio en todo (reuniones, eventos, entregas, etc.)." transform="translate(705 9109)" fill="#12263f" font-size="17" font-family="Roboto-Regular, Roboto"><tspan x="0" y="18">Cumplir la hora acordada y aplicar este criterio en todo (reuniones, </tspan><tspan x="0" y="42">eventos, entregas, etc.).</tspan></text>
    <path id="Trazado_262561" data-name="Trazado 262561" d="M103,19.781V27H99.008V7.094h7.615a7.84,7.84,0,0,1,5.4,1.75,5.867,5.867,0,0,1,1.969,4.607,5.826,5.826,0,0,1-1.969,4.594,7.88,7.88,0,0,1-5.4,1.736Zm0-3.076h3.623a3.321,3.321,0,0,0,2.529-.909,3.234,3.234,0,0,0,.861-2.317,3.384,3.384,0,0,0-.854-2.372,3.262,3.262,0,0,0-2.536-.937H103Zm22.613,8.107a5.022,5.022,0,0,1-1.736,1.832,4.6,4.6,0,0,1-2.447.643,4.5,4.5,0,0,1-3.657-1.586,7.607,7.607,0,0,1-1.319-4.922V12.207h3.979v8.6a4.775,4.775,0,0,0,.526,2.659,1.891,1.891,0,0,0,1.634.718,3.978,3.978,0,0,0,1.641-.308,2.766,2.766,0,0,0,1.121-.909V12.207h3.992V27h-3.309ZM136,12.207l.178,2.119A5.411,5.411,0,0,1,138,12.563a4.72,4.72,0,0,1,2.42-.629,4.4,4.4,0,0,1,3.5,1.442,6.838,6.838,0,0,1,1.258,4.56V27h-4.006V17.949a3.541,3.541,0,0,0-.554-2.249,2.041,2.041,0,0,0-1.661-.663,3.486,3.486,0,0,0-1.565.335,3.056,3.056,0,0,0-1.114.923V27h-3.992V12.207Zm16.939-3.623v3.623h2.5v2.8h-2.5v7.533a1.719,1.719,0,0,0,.362,1.23,1.272,1.272,0,0,0,.95.369,3.811,3.811,0,0,0,.547-.034,4.606,4.606,0,0,0,.533-.116l.328,2.885a8.082,8.082,0,0,1-1.169.308,6.969,6.969,0,0,1-1.237.1,4.255,4.255,0,0,1-3.179-1.135,4.976,4.976,0,0,1-1.114-3.6V15.01H146.8v-2.8h2.16V8.584Zm14.027,16.229a5.022,5.022,0,0,1-1.736,1.832,4.6,4.6,0,0,1-2.447.643A4.5,4.5,0,0,1,159.13,25.7a7.607,7.607,0,0,1-1.319-4.922V12.207h3.979v8.6a4.775,4.775,0,0,0,.526,2.659,1.891,1.891,0,0,0,1.634.718,3.978,3.978,0,0,0,1.641-.308,2.766,2.766,0,0,0,1.121-.909V12.207H170.7V27h-3.309ZM182.434,27a8.4,8.4,0,0,1-.376-1.066,7.419,7.419,0,0,1-.226-1.148,5.472,5.472,0,0,1-1.627,1.791,4.078,4.078,0,0,1-2.406.711,5,5,0,0,1-3.582-1.2,4.286,4.286,0,0,1-1.258-3.261,3.9,3.9,0,0,1,1.675-3.37,8.364,8.364,0,0,1,4.888-1.2h2.242V17.088a2.3,2.3,0,0,0-.561-1.654,2.2,2.2,0,0,0-1.668-.588,2.168,2.168,0,0,0-1.5.472,1.647,1.647,0,0,0-.526,1.292H173.67l-.027-.082a3.752,3.752,0,0,1,1.634-3.233,7.1,7.1,0,0,1,4.519-1.36,6.622,6.622,0,0,1,4.313,1.34,4.667,4.667,0,0,1,1.647,3.842v6.111a11.559,11.559,0,0,0,.157,1.955,9.811,9.811,0,0,0,.5,1.818Zm-3.65-2.666a3.4,3.4,0,0,0,1.859-.52,2.8,2.8,0,0,0,1.121-1.2V20.52h-2.242a2.658,2.658,0,0,0-1.921.629,2.067,2.067,0,0,0-.649,1.545,1.542,1.542,0,0,0,.485,1.2A1.92,1.92,0,0,0,178.783,24.334ZM192.947,27h-3.992V5.672h3.992Zm7.479,0h-3.992V12.207h3.992Zm0-18.334h-3.992V5.672h3.992Zm2.666,11.061A9.613,9.613,0,0,1,204.6,14.08a4.906,4.906,0,0,1,4.259-2.146,4.142,4.142,0,0,1,2,.479,4.8,4.8,0,0,1,1.559,1.367V5.672h4.006V27h-3.4l-.342-1.818a4.945,4.945,0,0,1-1.654,1.565,4.374,4.374,0,0,1-2.187.54,5,5,0,0,1-4.231-2,8.524,8.524,0,0,1-1.511-5.277Zm3.979.287a6.025,6.025,0,0,0,.656,3.056,2.285,2.285,0,0,0,2.133,1.114,3.106,3.106,0,0,0,1.5-.349,2.781,2.781,0,0,0,1.053-1.019v-6.3a3.072,3.072,0,0,0-1.046-1.087,2.781,2.781,0,0,0-1.483-.39,2.253,2.253,0,0,0-2.14,1.3,7.34,7.34,0,0,0-.677,3.391ZM228.234,27a8.4,8.4,0,0,1-.376-1.066,7.419,7.419,0,0,1-.226-1.148,5.472,5.472,0,0,1-1.627,1.791,4.078,4.078,0,0,1-2.406.711,5,5,0,0,1-3.582-1.2,4.286,4.286,0,0,1-1.258-3.261,3.9,3.9,0,0,1,1.675-3.37,8.364,8.364,0,0,1,4.888-1.2h2.242V17.088A2.3,2.3,0,0,0,227,15.434a2.2,2.2,0,0,0-1.668-.588,2.168,2.168,0,0,0-1.5.472,1.647,1.647,0,0,0-.526,1.292h-3.842l-.027-.082a3.752,3.752,0,0,1,1.634-3.233,7.1,7.1,0,0,1,4.519-1.36,6.622,6.622,0,0,1,4.313,1.34,4.667,4.667,0,0,1,1.647,3.842v6.111a11.559,11.559,0,0,0,.157,1.955,9.811,9.811,0,0,0,.5,1.818Zm-3.65-2.666a3.4,3.4,0,0,0,1.859-.52,2.8,2.8,0,0,0,1.121-1.2V20.52h-2.242a2.658,2.658,0,0,0-1.921.629,2.067,2.067,0,0,0-.649,1.545,1.542,1.542,0,0,0,.485,1.2A1.92,1.92,0,0,0,224.584,24.334Zm9.352-4.607a9.613,9.613,0,0,1,1.511-5.646,4.906,4.906,0,0,1,4.259-2.146,4.142,4.142,0,0,1,2,.479,4.8,4.8,0,0,1,1.559,1.367V5.672h4.006V27h-3.4l-.342-1.818a4.945,4.945,0,0,1-1.654,1.565,4.374,4.374,0,0,1-2.187.54,5,5,0,0,1-4.231-2,8.524,8.524,0,0,1-1.511-5.277Zm3.979.287a6.025,6.025,0,0,0,.656,3.056,2.285,2.285,0,0,0,2.133,1.114,3.106,3.106,0,0,0,1.5-.349,2.781,2.781,0,0,0,1.053-1.019v-6.3a3.072,3.072,0,0,0-1.046-1.087,2.781,2.781,0,0,0-1.483-.39,2.253,2.253,0,0,0-2.14,1.3,7.34,7.34,0,0,0-.677,3.391Z" transform="translate(312 9116)" fill="#fff"/>
    <rect id="Rectángulo_90211" data-name="Rectángulo 90211" width="678" height="59" transform="translate(637 9189)" fill="#fec0c2" opacity="0.616"/>
    <rect id="Rectángulo_90212" data-name="Rectángulo 90212" width="400" height="74" rx="24" transform="translate(285 9181)" fill="#fc4b52"/>
    <text id="Implica_saber_guardar_la_información_de_la_empresa_y_de_asuntos_de_orden_personal." data-name="Implica saber guardar la información de la empresa y de asuntos de orden personal." transform="translate(705 9193)" fill="#12263f" font-size="17" font-family="Roboto-Regular, Roboto"><tspan x="0" y="18">Implica saber guardar la información de la empresa y de asuntos de </tspan><tspan x="0" y="42">orden personal.</tspan></text>
    <path id="Trazado_262562" data-name="Trazado 262562" d="M108.51,27V7.094h6.945a8.213,8.213,0,0,1,6.016,2.331,8.035,8.035,0,0,1,2.365,5.981V18.7a8.007,8.007,0,0,1-2.365,5.981A8.24,8.24,0,0,1,115.455,27ZM112.5,10.17V23.938h2.953a3.9,3.9,0,0,0,3.172-1.47,5.753,5.753,0,0,0,1.2-3.767V15.379a5.7,5.7,0,0,0-1.2-3.746,3.905,3.905,0,0,0-3.172-1.463ZM130.932,27h-3.992V12.207h3.992Zm0-18.334h-3.992V5.672h3.992ZM142.211,22.9a1.377,1.377,0,0,0-.636-1.128,6.457,6.457,0,0,0-2.358-.827,9.407,9.407,0,0,1-3.944-1.572,3.434,3.434,0,0,1-1.347-2.857,4.076,4.076,0,0,1,1.613-3.24,6.5,6.5,0,0,1,4.293-1.34,7.02,7.02,0,0,1,4.491,1.34,3.915,3.915,0,0,1,1.62,3.336l-.027.082h-3.855a1.936,1.936,0,0,0-.574-1.449,2.685,2.685,0,0,0-3.172-.082,1.488,1.488,0,0,0-.561,1.176,1.328,1.328,0,0,0,.581,1.114,6.467,6.467,0,0,0,2.358.772,9.6,9.6,0,0,1,4.054,1.606,3.524,3.524,0,0,1,1.333,2.919,3.9,3.9,0,0,1-1.709,3.268,7.376,7.376,0,0,1-4.512,1.271,6.857,6.857,0,0,1-4.669-1.5,4.185,4.185,0,0,1-1.634-3.411l.027-.082h3.65a2.075,2.075,0,0,0,.779,1.723,3.217,3.217,0,0,0,1.928.533,2.742,2.742,0,0,0,1.688-.444A1.442,1.442,0,0,0,142.211,22.9Zm12.619,1.326a2.222,2.222,0,0,0,1.654-.622,2.259,2.259,0,0,0,.615-1.661h3.637l.027.082a4.63,4.63,0,0,1-1.668,3.753,6.238,6.238,0,0,1-4.266,1.511,6.3,6.3,0,0,1-5.072-2.1,7.976,7.976,0,0,1-1.791-5.366v-.41a8.029,8.029,0,0,1,1.784-5.366,6.248,6.248,0,0,1,5.052-2.112,6.1,6.1,0,0,1,4.361,1.559,5.209,5.209,0,0,1,1.6,4.1l-.027.082H157.1a2.952,2.952,0,0,0-.608-1.907,2.044,2.044,0,0,0-1.688-.759,2.278,2.278,0,0,0-2.194,1.237,6.786,6.786,0,0,0-.649,3.165v.41a6.761,6.761,0,0,0,.649,3.186A2.309,2.309,0,0,0,154.83,24.225Zm16.037-8.586L169.4,15.6a2.659,2.659,0,0,0-1.463.369,2.339,2.339,0,0,0-.875,1.039V27h-3.979V12.207h3.705l.178,2.188a4.667,4.667,0,0,1,1.347-1.812,3.146,3.146,0,0,1,2.461-.6q.253.048.513.116Zm8.23,11.648a6.656,6.656,0,0,1-5.168-2.03,7.441,7.441,0,0,1-1.859-5.229V19.48a8.1,8.1,0,0,1,1.8-5.441,6.135,6.135,0,0,1,4.963-2.105,5.744,5.744,0,0,1,4.573,1.825A7.213,7.213,0,0,1,185,18.674v2.064h-8.818l-.041.082a4,4,0,0,0,.923,2.461,3.09,3.09,0,0,0,2.454.943,8.212,8.212,0,0,0,2.276-.273,9.288,9.288,0,0,0,1.935-.834l1.08,2.461a7.41,7.41,0,0,1-2.406,1.217A10.671,10.671,0,0,1,179.1,27.287Zm-.26-12.277a2.217,2.217,0,0,0-1.853.827,4.149,4.149,0,0,0-.786,2.194l.027.068h4.867v-.3a3.455,3.455,0,0,0-.533-2.044A1.972,1.972,0,0,0,178.838,15.01Zm14.67,9.215a2.222,2.222,0,0,0,1.654-.622,2.259,2.259,0,0,0,.615-1.661h3.637l.027.082a4.63,4.63,0,0,1-1.668,3.753,6.238,6.238,0,0,1-4.266,1.511,6.3,6.3,0,0,1-5.072-2.1,7.976,7.976,0,0,1-1.791-5.366v-.41a8.029,8.029,0,0,1,1.784-5.366,6.248,6.248,0,0,1,5.052-2.112,6.1,6.1,0,0,1,4.361,1.559,5.209,5.209,0,0,1,1.6,4.1l-.027.082h-3.637a2.952,2.952,0,0,0-.608-1.907,2.044,2.044,0,0,0-1.688-.759,2.278,2.278,0,0,0-2.194,1.237,6.786,6.786,0,0,0-.649,3.165v.41a6.761,6.761,0,0,0,.649,3.186A2.309,2.309,0,0,0,193.508,24.225ZM205.963,27h-3.992V12.207h3.992Zm0-18.334h-3.992V5.672h3.992Zm2.666,10.8a7.939,7.939,0,0,1,1.846-5.421,6.434,6.434,0,0,1,5.113-2.112,6.5,6.5,0,0,1,5.141,2.105,7.9,7.9,0,0,1,1.859,5.428v.287a7.908,7.908,0,0,1-1.853,5.435,7.312,7.312,0,0,1-10.254,0,7.908,7.908,0,0,1-1.853-5.435Zm3.979.287A6.436,6.436,0,0,0,213.318,23a2.731,2.731,0,0,0,4.56-.007,6.393,6.393,0,0,0,.718-3.24v-.287a6.328,6.328,0,0,0-.725-3.213,2.452,2.452,0,0,0-2.283-1.244,2.422,2.422,0,0,0-2.263,1.251,6.385,6.385,0,0,0-.718,3.206Zm3.787-13.863h4.443l.027.082-3.787,3.555h-3.4Zm12.3,6.316.178,2.119a5.411,5.411,0,0,1,1.818-1.764,4.72,4.72,0,0,1,2.42-.629,4.4,4.4,0,0,1,3.5,1.442,6.838,6.838,0,0,1,1.258,4.56V27h-4.006V17.949a3.541,3.541,0,0,0-.554-2.249,2.041,2.041,0,0,0-1.661-.663,3.486,3.486,0,0,0-1.565.335,3.056,3.056,0,0,0-1.114.923V27H224.98V12.207Z" transform="translate(312 9200)" fill="#fff"/>
    <rect id="Rectángulo_90213" data-name="Rectángulo 90213" width="678" height="59" transform="translate(637 9273)" fill="#fec0c2" opacity="0.616"/>
    <rect id="Rectángulo_90214" data-name="Rectángulo 90214" width="400" height="74" rx="24" transform="translate(285 9265)" fill="#fc4b52"/>
    <text id="Ser_cortés_y_optimista._Una_sonrisa_siempre_es_bien_recibida." data-name="Ser cortés y optimista. Una sonrisa siempre es bien recibida." transform="translate(705 9289)" fill="#12263f" font-size="17" font-family="Roboto-Regular, Roboto"><tspan x="0" y="18">Ser cortés y optimista. Una sonrisa siempre es bien recibida.</tspan></text>
    <path id="Trazado_262563" data-name="Trazado 262563" d="M114.553,22.707H108.1L106.76,27h-4.17L109.3,7.094h4.088L120.076,27h-4.17Zm-5.469-3.131h4.5l-2.2-7.014H111.3Zm15.654-7.369.164,1.955a4.97,4.97,0,0,1,1.784-1.647,5.131,5.131,0,0,1,2.481-.581,4.519,4.519,0,0,1,2.434.629,3.88,3.88,0,0,1,1.531,1.9A5.127,5.127,0,0,1,134.91,12.6a4.823,4.823,0,0,1,2.57-.67,4.215,4.215,0,0,1,3.452,1.552,7.408,7.408,0,0,1,1.265,4.737V27h-3.992V18.209a4.146,4.146,0,0,0-.547-2.475,1.941,1.941,0,0,0-1.627-.7,2.787,2.787,0,0,0-1.47.376,2.739,2.739,0,0,0-.991,1.046q0,.26.014.444t.014.376V27h-3.979V18.209a4.158,4.158,0,0,0-.547-2.454,1.933,1.933,0,0,0-1.641-.718,3.1,3.1,0,0,0-1.415.308,2.714,2.714,0,0,0-1,.868V27h-3.979V12.207ZM153.982,27a8.4,8.4,0,0,1-.376-1.066,7.419,7.419,0,0,1-.226-1.148,5.472,5.472,0,0,1-1.627,1.791,4.078,4.078,0,0,1-2.406.711,5,5,0,0,1-3.582-1.2,4.286,4.286,0,0,1-1.258-3.261,3.9,3.9,0,0,1,1.675-3.37,8.364,8.364,0,0,1,4.888-1.2h2.242V17.088a2.3,2.3,0,0,0-.561-1.654,2.2,2.2,0,0,0-1.668-.588,2.168,2.168,0,0,0-1.5.472,1.647,1.647,0,0,0-.526,1.292h-3.842l-.027-.082a3.752,3.752,0,0,1,1.634-3.233,7.1,7.1,0,0,1,4.519-1.36,6.622,6.622,0,0,1,4.313,1.34,4.667,4.667,0,0,1,1.647,3.842v6.111a11.559,11.559,0,0,0,.157,1.955,9.811,9.811,0,0,0,.5,1.818Zm-3.65-2.666a3.4,3.4,0,0,0,1.859-.52,2.8,2.8,0,0,0,1.121-1.2V20.52H151.07a2.658,2.658,0,0,0-1.921.629,2.067,2.067,0,0,0-.649,1.545,1.542,1.542,0,0,0,.485,1.2A1.92,1.92,0,0,0,150.332,24.334Zm23.311-4.32a8.653,8.653,0,0,1-1.477,5.291,4.994,4.994,0,0,1-4.266,1.982,4.508,4.508,0,0,1-2.263-.547,4.676,4.676,0,0,1-1.634-1.6L163.676,27H160.3V5.672h3.979v8.107a4.519,4.519,0,0,1,1.538-1.367,4.3,4.3,0,0,1,2.058-.479,4.9,4.9,0,0,1,4.293,2.126,9.76,9.76,0,0,1,1.477,5.667Zm-3.979-.287a7.7,7.7,0,0,0-.636-3.425,2.231,2.231,0,0,0-2.167-1.265,2.98,2.98,0,0,0-1.572.39,2.7,2.7,0,0,0-1.012,1.114V22.8a2.536,2.536,0,0,0,1.019,1.025,3.279,3.279,0,0,0,1.593.355,2.27,2.27,0,0,0,2.16-1.087,6.331,6.331,0,0,0,.615-3.083ZM180.3,27h-3.992V12.207H180.3Zm0-18.334h-3.992V5.672H180.3ZM187.779,27h-3.992V5.672h3.992Zm7.479,0h-3.992V12.207h3.992Zm0-18.334h-3.992V5.672h3.992Zm2.666,11.061a9.613,9.613,0,0,1,1.511-5.646,4.906,4.906,0,0,1,4.259-2.146,4.142,4.142,0,0,1,2,.479,4.8,4.8,0,0,1,1.559,1.367V5.672h4.006V27h-3.4l-.342-1.818a4.945,4.945,0,0,1-1.654,1.565,4.374,4.374,0,0,1-2.187.54,5,5,0,0,1-4.231-2,8.524,8.524,0,0,1-1.511-5.277Zm3.979.287a6.025,6.025,0,0,0,.656,3.056,2.285,2.285,0,0,0,2.133,1.114,3.106,3.106,0,0,0,1.5-.349,2.781,2.781,0,0,0,1.053-1.019v-6.3a3.072,3.072,0,0,0-1.046-1.087,2.781,2.781,0,0,0-1.483-.39,2.253,2.253,0,0,0-2.14,1.3,7.34,7.34,0,0,0-.677,3.391ZM223.066,27a8.4,8.4,0,0,1-.376-1.066,7.419,7.419,0,0,1-.226-1.148,5.472,5.472,0,0,1-1.627,1.791,4.078,4.078,0,0,1-2.406.711,5,5,0,0,1-3.582-1.2,4.286,4.286,0,0,1-1.258-3.261,3.9,3.9,0,0,1,1.675-3.37,8.364,8.364,0,0,1,4.888-1.2H222.4V17.088a2.3,2.3,0,0,0-.561-1.654,2.2,2.2,0,0,0-1.668-.588,2.168,2.168,0,0,0-1.5.472,1.647,1.647,0,0,0-.526,1.292H214.3l-.027-.082a3.752,3.752,0,0,1,1.634-3.233,7.1,7.1,0,0,1,4.519-1.36,6.622,6.622,0,0,1,4.313,1.34,4.667,4.667,0,0,1,1.647,3.842v6.111a11.559,11.559,0,0,0,.157,1.955,9.811,9.811,0,0,0,.5,1.818Zm-3.65-2.666a3.4,3.4,0,0,0,1.859-.52,2.8,2.8,0,0,0,1.121-1.2V20.52h-2.242a2.658,2.658,0,0,0-1.921.629,2.067,2.067,0,0,0-.649,1.545,1.542,1.542,0,0,0,.485,1.2A1.92,1.92,0,0,0,219.416,24.334Zm9.352-4.607a9.613,9.613,0,0,1,1.511-5.646,4.906,4.906,0,0,1,4.259-2.146,4.142,4.142,0,0,1,2,.479,4.8,4.8,0,0,1,1.559,1.367V5.672H242.1V27h-3.4l-.342-1.818a4.945,4.945,0,0,1-1.654,1.565,4.374,4.374,0,0,1-2.187.54,5,5,0,0,1-4.231-2,8.524,8.524,0,0,1-1.511-5.277Zm3.979.287a6.025,6.025,0,0,0,.656,3.056,2.285,2.285,0,0,0,2.133,1.114,3.106,3.106,0,0,0,1.5-.349,2.781,2.781,0,0,0,1.053-1.019v-6.3a3.072,3.072,0,0,0-1.046-1.087,2.781,2.781,0,0,0-1.483-.39,2.253,2.253,0,0,0-2.14,1.3,7.34,7.34,0,0,0-.677,3.391Z" transform="translate(312 9284)" fill="#fff"/>
    <rect id="Rectángulo_90215" data-name="Rectángulo 90215" width="678" height="59" transform="translate(637 9357)" fill="#fec0c2" opacity="0.616"/>
    <rect id="Rectángulo_90216" data-name="Rectángulo 90216" width="400" height="74" rx="24" transform="translate(285 9349)" fill="#fc4b52"/>
    <text id="Es_definitiva_a_la_hora_de_interactuar_con_clientes." data-name="Es definitiva a la hora de interactuar con clientes." transform="translate(705 9373)" fill="#12263f" font-size="17" font-family="Roboto-Regular, Roboto"><tspan x="0" y="18">Es definitiva a la hora de interactuar con clientes.</tspan></text>
    <path id="Trazado_262564" data-name="Trazado 262564" d="M86.361,22.707H79.908L78.568,27H74.4L81.111,7.094H85.2L91.885,27h-4.17Zm-5.469-3.131h4.5l-2.2-7.014h-.082Zm18.785,4.648a2.222,2.222,0,0,0,1.654-.622,2.259,2.259,0,0,0,.615-1.661h3.637l.027.082a4.63,4.63,0,0,1-1.668,3.753,6.238,6.238,0,0,1-4.266,1.511,6.3,6.3,0,0,1-5.072-2.1,7.976,7.976,0,0,1-1.791-5.366v-.41A8.029,8.029,0,0,1,94.6,14.046a6.248,6.248,0,0,1,5.052-2.112,6.1,6.1,0,0,1,4.361,1.559,5.209,5.209,0,0,1,1.6,4.1l-.027.082h-3.637a2.952,2.952,0,0,0-.608-1.907,2.044,2.044,0,0,0-1.688-.759,2.278,2.278,0,0,0-2.194,1.237,6.786,6.786,0,0,0-.649,3.165v.41a6.76,6.76,0,0,0,.649,3.186A2.309,2.309,0,0,0,99.678,24.225ZM112.721,8.584v3.623h2.5v2.8h-2.5v7.533a1.719,1.719,0,0,0,.362,1.23,1.272,1.272,0,0,0,.95.369,3.811,3.811,0,0,0,.547-.034,4.606,4.606,0,0,0,.533-.116l.328,2.885a8.082,8.082,0,0,1-1.169.308,6.969,6.969,0,0,1-1.237.1,4.255,4.255,0,0,1-3.179-1.135,4.976,4.976,0,0,1-1.114-3.6V15.01h-2.16v-2.8h2.16V8.584ZM121.881,27h-3.992V12.207h3.992Zm0-18.334h-3.992V5.672h3.992Zm8.066-.082v3.623h2.5v2.8h-2.5v7.533a1.719,1.719,0,0,0,.362,1.23,1.272,1.272,0,0,0,.95.369,3.811,3.811,0,0,0,.547-.034,4.606,4.606,0,0,0,.533-.116l.328,2.885a8.082,8.082,0,0,1-1.169.308,6.969,6.969,0,0,1-1.237.1,4.255,4.255,0,0,1-3.179-1.135,4.976,4.976,0,0,1-1.114-3.6V15.01h-2.16v-2.8h2.16V8.584Zm14.027,16.229a5.022,5.022,0,0,1-1.736,1.832,4.6,4.6,0,0,1-2.447.643,4.5,4.5,0,0,1-3.657-1.586,7.607,7.607,0,0,1-1.319-4.922V12.207h3.979v8.6a4.775,4.775,0,0,0,.526,2.659,1.891,1.891,0,0,0,1.634.718,3.978,3.978,0,0,0,1.641-.308,2.766,2.766,0,0,0,1.121-.909V12.207h3.992V27H144.4Zm6.125-5.086a9.613,9.613,0,0,1,1.511-5.646,4.906,4.906,0,0,1,4.259-2.146,4.142,4.142,0,0,1,2,.479,4.8,4.8,0,0,1,1.559,1.367V5.672h4.006V27h-3.4l-.342-1.818a4.945,4.945,0,0,1-1.654,1.565,4.374,4.374,0,0,1-2.187.54,5,5,0,0,1-4.231-2,8.524,8.524,0,0,1-1.511-5.277Zm3.979.287a6.025,6.025,0,0,0,.656,3.056,2.285,2.285,0,0,0,2.133,1.114,3.106,3.106,0,0,0,1.5-.349,2.781,2.781,0,0,0,1.053-1.019v-6.3a3.072,3.072,0,0,0-1.046-1.087,2.781,2.781,0,0,0-1.483-.39,2.253,2.253,0,0,0-2.14,1.3,7.34,7.34,0,0,0-.677,3.391Zm32.758,0a8.5,8.5,0,0,1-1.518,5.277,5.02,5.02,0,0,1-4.238,2,4.737,4.737,0,0,1-2.064-.431,4.24,4.24,0,0,1-1.545-1.265v7.1h-3.979V12.207h3.6l.232,1.75a4.74,4.74,0,0,1,1.579-1.5,4.271,4.271,0,0,1,2.153-.526,4.923,4.923,0,0,1,4.266,2.146,9.58,9.58,0,0,1,1.518,5.646Zm-3.992-.287a7.157,7.157,0,0,0-.7-3.391,2.274,2.274,0,0,0-2.133-1.3,3.014,3.014,0,0,0-1.538.369,2.634,2.634,0,0,0-1,1.053v6.48a2.447,2.447,0,0,0,1,.957,3.386,3.386,0,0,0,1.565.328,2.3,2.3,0,0,0,2.126-1.135,5.99,5.99,0,0,0,.677-3.076Zm5.838-.26a7.939,7.939,0,0,1,1.846-5.421,6.434,6.434,0,0,1,5.113-2.112,6.5,6.5,0,0,1,5.141,2.105,7.9,7.9,0,0,1,1.859,5.428v.287a7.908,7.908,0,0,1-1.853,5.435,7.312,7.312,0,0,1-10.254,0,7.908,7.908,0,0,1-1.853-5.435Zm3.979.287A6.436,6.436,0,0,0,193.371,23a2.731,2.731,0,0,0,4.56-.007,6.393,6.393,0,0,0,.718-3.24v-.287a6.328,6.328,0,0,0-.725-3.213,2.452,2.452,0,0,0-2.283-1.244,2.422,2.422,0,0,0-2.263,1.251,6.385,6.385,0,0,0-.718,3.206ZM213.1,22.9a1.377,1.377,0,0,0-.636-1.128,6.457,6.457,0,0,0-2.358-.827,9.407,9.407,0,0,1-3.944-1.572,3.434,3.434,0,0,1-1.347-2.857,4.076,4.076,0,0,1,1.613-3.24,6.5,6.5,0,0,1,4.293-1.34,7.02,7.02,0,0,1,4.491,1.34,3.915,3.915,0,0,1,1.62,3.336l-.027.082h-3.855a1.936,1.936,0,0,0-.574-1.449,2.685,2.685,0,0,0-3.172-.082,1.488,1.488,0,0,0-.561,1.176,1.328,1.328,0,0,0,.581,1.114,6.467,6.467,0,0,0,2.358.772,9.6,9.6,0,0,1,4.054,1.606,3.524,3.524,0,0,1,1.333,2.919,3.9,3.9,0,0,1-1.709,3.268,7.376,7.376,0,0,1-4.512,1.271,6.857,6.857,0,0,1-4.669-1.5,4.185,4.185,0,0,1-1.634-3.411l.027-.082h3.65a2.075,2.075,0,0,0,.779,1.723,3.217,3.217,0,0,0,1.928.533,2.742,2.742,0,0,0,1.688-.444A1.442,1.442,0,0,0,213.1,22.9ZM223.736,27h-3.992V12.207h3.992Zm0-18.334h-3.992V5.672h3.992Zm8.066-.082v3.623h2.5v2.8h-2.5v7.533a1.719,1.719,0,0,0,.362,1.23,1.272,1.272,0,0,0,.95.369,3.811,3.811,0,0,0,.547-.034,4.606,4.606,0,0,0,.533-.116l.328,2.885a8.082,8.082,0,0,1-1.169.308,6.969,6.969,0,0,1-1.237.1,4.255,4.255,0,0,1-3.179-1.135,4.976,4.976,0,0,1-1.114-3.6V15.01h-2.16v-2.8h2.16V8.584ZM240.963,27h-3.992V12.207h3.992Zm0-18.334h-3.992V5.672h3.992ZM249.59,21.49l.26,1.367h.082l.273-1.367,2.434-9.283h4.17L251.777,27h-3.814l-5.031-14.793h4.17ZM267.063,27a8.4,8.4,0,0,1-.376-1.066,7.416,7.416,0,0,1-.226-1.148,5.472,5.472,0,0,1-1.627,1.791,4.078,4.078,0,0,1-2.406.711,5,5,0,0,1-3.582-1.2,4.286,4.286,0,0,1-1.258-3.261,3.9,3.9,0,0,1,1.675-3.37,8.364,8.364,0,0,1,4.888-1.2h2.242V17.088a2.3,2.3,0,0,0-.561-1.654,2.2,2.2,0,0,0-1.668-.588,2.169,2.169,0,0,0-1.5.472,1.647,1.647,0,0,0-.526,1.292H258.3l-.027-.082a3.752,3.752,0,0,1,1.634-3.233,7.1,7.1,0,0,1,4.519-1.36,6.622,6.622,0,0,1,4.313,1.34,4.667,4.667,0,0,1,1.647,3.842v6.111a11.558,11.558,0,0,0,.157,1.955,9.811,9.811,0,0,0,.5,1.818Zm-3.65-2.666a3.4,3.4,0,0,0,1.859-.52,2.8,2.8,0,0,0,1.121-1.2V20.52H264.15a2.658,2.658,0,0,0-1.921.629,2.067,2.067,0,0,0-.649,1.545,1.542,1.542,0,0,0,.485,1.2A1.92,1.92,0,0,0,263.412,24.334Z" transform="translate(312 9368)" fill="#fff"/>
    <rect id="Rectángulo_90217" data-name="Rectángulo 90217" width="678" height="59" transform="translate(637 9441)" fill="#fec0c2" opacity="0.616"/>
    <rect id="Rectángulo_90218" data-name="Rectángulo 90218" width="400" height="74" rx="24" transform="translate(285 9433)" fill="#fc4b52"/>
    <text id="La_imagen_de_la_empresa_depende_en_gran_medida_de_la_buena_impresión_que_causen_los_colaboradores_en_los_clientes." data-name="La imagen de la empresa depende en gran medida de la buena impresión que causen los colaboradores en los clientes." transform="translate(705 9445)" fill="#12263f" font-size="17" font-family="Roboto-Regular, Roboto"><tspan x="0" y="18">La imagen de la empresa depende en gran medida de la buena </tspan><tspan x="0" y="42">impresión que causen los colaboradores en los clientes.</tspan></text>
    <path id="Trazado_262565" data-name="Trazado 262565" d="M132.23,27h-3.992V7.094h3.992Zm7.355-14.793.164,1.955a4.97,4.97,0,0,1,1.784-1.647,5.131,5.131,0,0,1,2.481-.581,4.519,4.519,0,0,1,2.434.629,3.88,3.88,0,0,1,1.531,1.9,5.127,5.127,0,0,1,1.777-1.859,4.823,4.823,0,0,1,2.57-.67,4.215,4.215,0,0,1,3.452,1.552,7.408,7.408,0,0,1,1.265,4.737V27h-3.992V18.209a4.146,4.146,0,0,0-.547-2.475,1.941,1.941,0,0,0-1.627-.7,2.787,2.787,0,0,0-1.47.376,2.739,2.739,0,0,0-.991,1.046q0,.26.014.444t.014.376V27h-3.979V18.209a4.158,4.158,0,0,0-.547-2.454,1.933,1.933,0,0,0-1.641-.718,3.1,3.1,0,0,0-1.415.308,2.714,2.714,0,0,0-1,.868V27h-3.979V12.207ZM168.83,27a8.4,8.4,0,0,1-.376-1.066,7.419,7.419,0,0,1-.226-1.148,5.472,5.472,0,0,1-1.627,1.791,4.078,4.078,0,0,1-2.406.711,5,5,0,0,1-3.582-1.2,4.286,4.286,0,0,1-1.258-3.261,3.9,3.9,0,0,1,1.675-3.37,8.364,8.364,0,0,1,4.888-1.2h2.242V17.088a2.3,2.3,0,0,0-.561-1.654,2.2,2.2,0,0,0-1.668-.588,2.168,2.168,0,0,0-1.5.472,1.647,1.647,0,0,0-.526,1.292h-3.842l-.027-.082a3.752,3.752,0,0,1,1.634-3.233,7.1,7.1,0,0,1,4.519-1.36,6.622,6.622,0,0,1,4.313,1.34,4.667,4.667,0,0,1,1.647,3.842v6.111a11.559,11.559,0,0,0,.157,1.955,9.811,9.811,0,0,0,.5,1.818Zm-3.65-2.666a3.4,3.4,0,0,0,1.859-.52,2.8,2.8,0,0,0,1.121-1.2V20.52h-2.242a2.658,2.658,0,0,0-1.921.629,2.067,2.067,0,0,0-.649,1.545,1.542,1.542,0,0,0,.485,1.2A1.92,1.92,0,0,0,165.18,24.334Zm9.379-4.607a9.58,9.58,0,0,1,1.518-5.646,4.923,4.923,0,0,1,4.266-2.146,4.2,4.2,0,0,1,2.188.561,4.91,4.91,0,0,1,1.613,1.6l.314-1.887h3.432V26.932A5.5,5.5,0,0,1,186,31.4a7.966,7.966,0,0,1-5.264,1.579,10.028,10.028,0,0,1-2.379-.308,11.047,11.047,0,0,1-2.324-.841l.67-2.98a9.162,9.162,0,0,0,1.894.663,9.383,9.383,0,0,0,2.112.226,3.573,3.573,0,0,0,2.413-.684,2.706,2.706,0,0,0,.772-2.133v-1.34a4.466,4.466,0,0,1-1.545,1.271,4.554,4.554,0,0,1-2.037.438,5.02,5.02,0,0,1-4.238-2,8.5,8.5,0,0,1-1.518-5.277Zm3.992.287a6.078,6.078,0,0,0,.649,3.056,2.269,2.269,0,0,0,2.126,1.114,3.3,3.3,0,0,0,1.552-.335,2.559,2.559,0,0,0,1.019-.978V16.459a2.729,2.729,0,0,0-1.019-1.053,2.986,2.986,0,0,0-1.524-.369,2.239,2.239,0,0,0-2.133,1.3,7.4,7.4,0,0,0-.67,3.391Zm18.813,7.273a6.656,6.656,0,0,1-5.168-2.03,7.441,7.441,0,0,1-1.859-5.229V19.48a8.1,8.1,0,0,1,1.8-5.441,6.135,6.135,0,0,1,4.963-2.105,5.744,5.744,0,0,1,4.573,1.825,7.213,7.213,0,0,1,1.593,4.915v2.064h-8.818l-.041.082a4,4,0,0,0,.923,2.461,3.09,3.09,0,0,0,2.454.943,8.212,8.212,0,0,0,2.276-.273A9.288,9.288,0,0,0,202,23.117l1.08,2.461a7.41,7.41,0,0,1-2.406,1.217A10.671,10.671,0,0,1,197.363,27.287ZM197.1,15.01a2.217,2.217,0,0,0-1.853.827,4.149,4.149,0,0,0-.786,2.194l.027.068h4.867v-.3a3.455,3.455,0,0,0-.533-2.044A1.972,1.972,0,0,0,197.1,15.01Zm12.141-2.8.178,2.119a5.411,5.411,0,0,1,1.818-1.764,4.72,4.72,0,0,1,2.42-.629,4.4,4.4,0,0,1,3.5,1.442,6.838,6.838,0,0,1,1.258,4.56V27h-4.006V17.949a3.541,3.541,0,0,0-.554-2.249,2.041,2.041,0,0,0-1.661-.663,3.486,3.486,0,0,0-1.565.335,3.056,3.056,0,0,0-1.114.923V27h-3.992V12.207Z" transform="translate(312 9452)" fill="#fff"/>
    <rect id="Rectángulo_90219" data-name="Rectángulo 90219" width="678" height="59" transform="translate(637 9525)" fill="#fec0c2" opacity="0.616"/>
    <rect id="Rectángulo_90220" data-name="Rectángulo 90220" width="400" height="74" rx="24" transform="translate(285 9517)" fill="#fc4b52"/>
    <text id="La_buena_comunicación_reúne_todas_sus_manifestaciones:_escrita_oral_e_interpersonal." data-name="La buena comunicación reúne todas sus manifestaciones: escrita, oral e interpersonal." transform="translate(705 9529)" fill="#12263f" font-size="17" font-family="Roboto-Regular, Roboto"><tspan x="0" y="18">La buena comunicación reúne todas sus manifestaciones: escrita, </tspan><tspan x="0" y="42">oral e interpersonal.</tspan></text>
    <path id="Trazado_262566" data-name="Trazado 262566" d="M99.794,20.41l.027.082a6.231,6.231,0,0,1-1.941,4.99,7.916,7.916,0,0,1-5.51,1.8,7.632,7.632,0,0,1-5.783-2.3,8.264,8.264,0,0,1-2.2-5.954V15.078a8.416,8.416,0,0,1,2.146-5.954,7.318,7.318,0,0,1,5.633-2.317,8.4,8.4,0,0,1,5.688,1.777,6.119,6.119,0,0,1,2,5l-.027.082H95.938a3.914,3.914,0,0,0-.923-2.851,3.849,3.849,0,0,0-2.851-.937,3.219,3.219,0,0,0-2.8,1.442,6.379,6.379,0,0,0-1,3.726v3.979a6.191,6.191,0,0,0,1.06,3.746,3.444,3.444,0,0,0,2.946,1.449,3.5,3.5,0,0,0,2.673-.937,4.074,4.074,0,0,0,.882-2.878Zm1.969-.943a7.939,7.939,0,0,1,1.846-5.421,6.434,6.434,0,0,1,5.113-2.112,6.5,6.5,0,0,1,5.141,2.105,7.9,7.9,0,0,1,1.859,5.428v.287a7.908,7.908,0,0,1-1.853,5.435,7.312,7.312,0,0,1-10.254,0,7.908,7.908,0,0,1-1.853-5.435Zm3.979.287A6.436,6.436,0,0,0,106.452,23a2.731,2.731,0,0,0,4.56-.007,6.393,6.393,0,0,0,.718-3.24v-.287A6.328,6.328,0,0,0,111,16.254a2.452,2.452,0,0,0-2.283-1.244,2.422,2.422,0,0,0-2.263,1.251,6.385,6.385,0,0,0-.718,3.206Zm16.146-7.547.164,1.955a4.97,4.97,0,0,1,1.784-1.647,5.131,5.131,0,0,1,2.481-.581,4.519,4.519,0,0,1,2.434.629,3.88,3.88,0,0,1,1.531,1.9A5.127,5.127,0,0,1,132.06,12.6a4.823,4.823,0,0,1,2.57-.67,4.215,4.215,0,0,1,3.452,1.552,7.408,7.408,0,0,1,1.265,4.737V27h-3.992V18.209a4.146,4.146,0,0,0-.547-2.475,1.941,1.941,0,0,0-1.627-.7,2.787,2.787,0,0,0-1.47.376,2.739,2.739,0,0,0-.991,1.046q0,.26.014.444t.014.376V27h-3.979V18.209a4.158,4.158,0,0,0-.547-2.454,1.933,1.933,0,0,0-1.641-.718,3.1,3.1,0,0,0-1.415.308,2.714,2.714,0,0,0-1,.868V27h-3.979V12.207Zm29.586,12.605a5.022,5.022,0,0,1-1.736,1.832,4.6,4.6,0,0,1-2.447.643,4.5,4.5,0,0,1-3.657-1.586,7.607,7.607,0,0,1-1.319-4.922V12.207h3.979v8.6a4.775,4.775,0,0,0,.526,2.659,1.891,1.891,0,0,0,1.634.718,3.978,3.978,0,0,0,1.641-.308,2.766,2.766,0,0,0,1.121-.909V12.207h3.992V27H151.9Zm10.391-12.605.178,2.119a5.411,5.411,0,0,1,1.818-1.764,4.72,4.72,0,0,1,2.42-.629,4.4,4.4,0,0,1,3.5,1.442,6.838,6.838,0,0,1,1.258,4.56V27h-4.006V17.949a3.541,3.541,0,0,0-.554-2.249,2.041,2.041,0,0,0-1.661-.663,3.486,3.486,0,0,0-1.565.335,3.056,3.056,0,0,0-1.114.923V27h-3.992V12.207ZM178.216,27h-3.992V12.207h3.992Zm0-18.334h-3.992V5.672h3.992Zm9.461,15.559a2.222,2.222,0,0,0,1.654-.622,2.259,2.259,0,0,0,.615-1.661h3.637l.027.082a4.63,4.63,0,0,1-1.668,3.753,6.238,6.238,0,0,1-4.266,1.511,6.3,6.3,0,0,1-5.072-2.1,7.976,7.976,0,0,1-1.791-5.366v-.41a8.029,8.029,0,0,1,1.784-5.366,6.248,6.248,0,0,1,5.052-2.112,6.1,6.1,0,0,1,4.361,1.559,5.209,5.209,0,0,1,1.6,4.1l-.027.082h-3.637a2.952,2.952,0,0,0-.608-1.907,2.044,2.044,0,0,0-1.688-.759,2.278,2.278,0,0,0-2.194,1.237,6.786,6.786,0,0,0-.649,3.165v.41a6.761,6.761,0,0,0,.649,3.186A2.309,2.309,0,0,0,187.677,24.225ZM204.657,27a8.4,8.4,0,0,1-.376-1.066,7.419,7.419,0,0,1-.226-1.148,5.472,5.472,0,0,1-1.627,1.791,4.078,4.078,0,0,1-2.406.711,5,5,0,0,1-3.582-1.2,4.286,4.286,0,0,1-1.258-3.261,3.9,3.9,0,0,1,1.675-3.37,8.364,8.364,0,0,1,4.888-1.2h2.242V17.088a2.3,2.3,0,0,0-.561-1.654,2.2,2.2,0,0,0-1.668-.588,2.168,2.168,0,0,0-1.5.472,1.647,1.647,0,0,0-.526,1.292h-3.842l-.027-.082a3.752,3.752,0,0,1,1.634-3.233,7.1,7.1,0,0,1,4.519-1.36,6.622,6.622,0,0,1,4.313,1.34,4.667,4.667,0,0,1,1.647,3.842v6.111a11.559,11.559,0,0,0,.157,1.955,9.811,9.811,0,0,0,.5,1.818Zm-3.65-2.666a3.4,3.4,0,0,0,1.859-.52,2.8,2.8,0,0,0,1.121-1.2V20.52h-2.242a2.658,2.658,0,0,0-1.921.629,2.067,2.067,0,0,0-.649,1.545,1.542,1.542,0,0,0,.485,1.2A1.92,1.92,0,0,0,201.007,24.334Zm16.146-.109a2.222,2.222,0,0,0,1.654-.622,2.259,2.259,0,0,0,.615-1.661h3.637l.027.082a4.63,4.63,0,0,1-1.668,3.753,6.238,6.238,0,0,1-4.266,1.511,6.3,6.3,0,0,1-5.072-2.1,7.976,7.976,0,0,1-1.791-5.366v-.41a8.029,8.029,0,0,1,1.784-5.366,6.248,6.248,0,0,1,5.052-2.112,6.1,6.1,0,0,1,4.361,1.559,5.209,5.209,0,0,1,1.6,4.1l-.027.082h-3.637a2.952,2.952,0,0,0-.608-1.907,2.044,2.044,0,0,0-1.688-.759,2.278,2.278,0,0,0-2.194,1.237,6.786,6.786,0,0,0-.649,3.165v.41a6.761,6.761,0,0,0,.649,3.186A2.309,2.309,0,0,0,217.153,24.225ZM229.608,27h-3.992V12.207h3.992Zm0-18.334h-3.992V5.672h3.992Zm2.666,10.8a7.939,7.939,0,0,1,1.846-5.421,6.434,6.434,0,0,1,5.113-2.112,6.5,6.5,0,0,1,5.141,2.105,7.9,7.9,0,0,1,1.859,5.428v.287a7.908,7.908,0,0,1-1.853,5.435,7.312,7.312,0,0,1-10.254,0,7.908,7.908,0,0,1-1.853-5.435Zm3.979.287A6.436,6.436,0,0,0,236.964,23a2.731,2.731,0,0,0,4.56-.007,6.393,6.393,0,0,0,.718-3.24v-.287a6.328,6.328,0,0,0-.725-3.213,2.452,2.452,0,0,0-2.283-1.244,2.422,2.422,0,0,0-2.263,1.251,6.385,6.385,0,0,0-.718,3.206ZM240.04,5.891h4.443l.027.082-3.787,3.555h-3.4Zm12.3,6.316.178,2.119a5.411,5.411,0,0,1,1.818-1.764,4.72,4.72,0,0,1,2.42-.629,4.4,4.4,0,0,1,3.5,1.442,6.838,6.838,0,0,1,1.258,4.56V27h-4.006V17.949a3.541,3.541,0,0,0-.554-2.249,2.041,2.041,0,0,0-1.661-.663,3.486,3.486,0,0,0-1.565.335,3.056,3.056,0,0,0-1.114.923V27h-3.992V12.207Z" transform="translate(312 9536)" fill="#fff"/>
    <rect id="Rectángulo_90221" data-name="Rectángulo 90221" width="678" height="59" transform="translate(637 9609)" fill="#fec0c2" opacity="0.616"/>
    <rect id="Rectángulo_90222" data-name="Rectángulo 90222" width="400" height="74" rx="24" transform="translate(285 9601)" fill="#fc4b52"/>
    <text id="La_clave_de_la_elegancia_es_adaptar_las_tendencias_de_la_moda_al_estilo_personal_incluyendo_el_comportamiento_en_diferentes_escenarios." data-name="La clave de la elegancia es adaptar las tendencias de la moda al estilo personal, incluyendo el comportamiento en diferentes escenarios." transform="translate(705 9613)" fill="#12263f" font-size="17" font-family="Roboto-Regular, Roboto"><tspan x="0" y="18">La clave de la elegancia es adaptar las tendencias de la moda al estilo </tspan><tspan x="0" y="42">personal, incluyendo el comportamiento en diferentes escenarios.</tspan></text>
    <path id="Trazado_262567" data-name="Trazado 262567" d="M125.559,18.25h-7.383v5.688h8.777V27h-12.77V7.094h12.742V10.17h-8.75v5h7.383ZM133.652,27H129.66V5.672h3.992Zm9.693.287a6.656,6.656,0,0,1-5.168-2.03,7.441,7.441,0,0,1-1.859-5.229V19.48a8.1,8.1,0,0,1,1.8-5.441,6.135,6.135,0,0,1,4.963-2.105,5.744,5.744,0,0,1,4.573,1.825,7.213,7.213,0,0,1,1.593,4.915v2.064h-8.818l-.041.082a4,4,0,0,0,.923,2.461,3.09,3.09,0,0,0,2.454.943,8.212,8.212,0,0,0,2.276-.273,9.288,9.288,0,0,0,1.935-.834l1.08,2.461a7.41,7.41,0,0,1-2.406,1.217A10.671,10.671,0,0,1,143.346,27.287Zm-.26-12.277a2.217,2.217,0,0,0-1.853.827,4.149,4.149,0,0,0-.786,2.194l.027.068h4.867v-.3a3.455,3.455,0,0,0-.533-2.044A1.972,1.972,0,0,0,143.086,15.01Zm7.9,4.717a9.58,9.58,0,0,1,1.518-5.646,4.923,4.923,0,0,1,4.266-2.146,4.2,4.2,0,0,1,2.188.561,4.91,4.91,0,0,1,1.613,1.6l.314-1.887h3.432V26.932a5.5,5.5,0,0,1-1.887,4.464,7.966,7.966,0,0,1-5.264,1.579,10.028,10.028,0,0,1-2.379-.308,11.047,11.047,0,0,1-2.324-.841l.67-2.98a9.162,9.162,0,0,0,1.894.663,9.383,9.383,0,0,0,2.112.226,3.573,3.573,0,0,0,2.413-.684,2.706,2.706,0,0,0,.772-2.133v-1.34a4.466,4.466,0,0,1-1.545,1.271,4.554,4.554,0,0,1-2.037.438,5.02,5.02,0,0,1-4.238-2,8.5,8.5,0,0,1-1.518-5.277Zm3.992.287a6.078,6.078,0,0,0,.649,3.056,2.269,2.269,0,0,0,2.126,1.114,3.3,3.3,0,0,0,1.552-.335,2.559,2.559,0,0,0,1.019-.978V16.459a2.729,2.729,0,0,0-1.019-1.053,2.986,2.986,0,0,0-1.524-.369,2.239,2.239,0,0,0-2.133,1.3,7.4,7.4,0,0,0-.67,3.391ZM176.1,27a8.4,8.4,0,0,1-.376-1.066,7.419,7.419,0,0,1-.226-1.148,5.472,5.472,0,0,1-1.627,1.791,4.078,4.078,0,0,1-2.406.711,5,5,0,0,1-3.582-1.2,4.286,4.286,0,0,1-1.258-3.261,3.9,3.9,0,0,1,1.675-3.37,8.364,8.364,0,0,1,4.888-1.2h2.242V17.088a2.3,2.3,0,0,0-.561-1.654,2.2,2.2,0,0,0-1.668-.588,2.168,2.168,0,0,0-1.5.472,1.647,1.647,0,0,0-.526,1.292H167.34l-.027-.082a3.752,3.752,0,0,1,1.634-3.233,7.1,7.1,0,0,1,4.519-1.36,6.622,6.622,0,0,1,4.313,1.34,4.667,4.667,0,0,1,1.647,3.842v6.111a11.559,11.559,0,0,0,.157,1.955,9.811,9.811,0,0,0,.5,1.818Zm-3.65-2.666a3.4,3.4,0,0,0,1.859-.52,2.8,2.8,0,0,0,1.121-1.2V20.52h-2.242a2.658,2.658,0,0,0-1.921.629,2.067,2.067,0,0,0-.649,1.545,1.542,1.542,0,0,0,.485,1.2A1.92,1.92,0,0,0,172.453,24.334ZM186.07,12.207l.178,2.119a5.411,5.411,0,0,1,1.818-1.764,4.72,4.72,0,0,1,2.42-.629,4.4,4.4,0,0,1,3.5,1.442,6.838,6.838,0,0,1,1.258,4.56V27h-4.006V17.949a3.541,3.541,0,0,0-.554-2.249,2.041,2.041,0,0,0-1.661-.663,3.486,3.486,0,0,0-1.565.335,3.056,3.056,0,0,0-1.114.923V27h-3.992V12.207ZM204.4,24.225a2.222,2.222,0,0,0,1.654-.622,2.259,2.259,0,0,0,.615-1.661h3.637l.027.082a4.63,4.63,0,0,1-1.668,3.753,6.238,6.238,0,0,1-4.266,1.511,6.3,6.3,0,0,1-5.072-2.1,7.976,7.976,0,0,1-1.791-5.366v-.41a8.029,8.029,0,0,1,1.784-5.366,6.248,6.248,0,0,1,5.052-2.112,6.1,6.1,0,0,1,4.361,1.559,5.209,5.209,0,0,1,1.6,4.1l-.027.082h-3.637a2.952,2.952,0,0,0-.608-1.907,2.044,2.044,0,0,0-1.688-.759,2.278,2.278,0,0,0-2.194,1.237,6.786,6.786,0,0,0-.649,3.165v.41a6.761,6.761,0,0,0,.649,3.186A2.309,2.309,0,0,0,204.4,24.225ZM216.859,27h-3.992V12.207h3.992Zm0-18.334h-3.992V5.672h3.992Zm12,18.334a8.4,8.4,0,0,1-.376-1.066,7.419,7.419,0,0,1-.226-1.148,5.472,5.472,0,0,1-1.627,1.791,4.078,4.078,0,0,1-2.406.711,5,5,0,0,1-3.582-1.2,4.286,4.286,0,0,1-1.258-3.261,3.9,3.9,0,0,1,1.675-3.37,8.364,8.364,0,0,1,4.888-1.2h2.242V17.088a2.3,2.3,0,0,0-.561-1.654,2.2,2.2,0,0,0-1.668-.588,2.168,2.168,0,0,0-1.5.472,1.647,1.647,0,0,0-.526,1.292H220.1l-.027-.082a3.752,3.752,0,0,1,1.634-3.233,7.1,7.1,0,0,1,4.519-1.36,6.622,6.622,0,0,1,4.313,1.34,4.667,4.667,0,0,1,1.647,3.842v6.111a11.559,11.559,0,0,0,.157,1.955,9.811,9.811,0,0,0,.5,1.818Zm-3.65-2.666a3.4,3.4,0,0,0,1.859-.52,2.8,2.8,0,0,0,1.121-1.2V20.52h-2.242a2.658,2.658,0,0,0-1.921.629,2.067,2.067,0,0,0-.649,1.545,1.542,1.542,0,0,0,.485,1.2A1.92,1.92,0,0,0,225.213,24.334Z" transform="translate(312 9620)" fill="#fff"/>
    <rect id="Rectángulo_90223" data-name="Rectángulo 90223" width="678" height="59" transform="translate(637 9693)" fill="#fec0c2" opacity="0.616"/>
    <rect id="Rectángulo_90224" data-name="Rectángulo 90224" width="400" height="74" rx="24" transform="translate(285 9685)" fill="#fc4b52"/>
    <text id="Reflejar_el_comportamiento_la_filosofía_de_la_organización_para_ofrecer_credibilidad_y_potenciar_la_imagen_corporativa." data-name="Reflejar el comportamiento la filosofía de la organización para ofrecer credibilidad y potenciar la imagen corporativa." transform="translate(705 9697)" fill="#12263f" font-size="17" font-family="Roboto-Regular, Roboto"><tspan x="0" y="18">Reflejar el comportamiento la filosofía de la organización para </tspan><tspan x="0" y="42">ofrecer credibilidad y potenciar la imagen corporativa.</tspan></text>
    <path id="Trazado_262568" data-name="Trazado 262568" d="M119.229,20.41l.027.082a6.231,6.231,0,0,1-1.941,4.99,7.916,7.916,0,0,1-5.51,1.8,7.632,7.632,0,0,1-5.783-2.3,8.264,8.264,0,0,1-2.2-5.954V15.078a8.416,8.416,0,0,1,2.146-5.954A7.318,7.318,0,0,1,111.6,6.807a8.4,8.4,0,0,1,5.688,1.777,6.119,6.119,0,0,1,2,5l-.027.082h-3.883a3.914,3.914,0,0,0-.923-2.851,3.849,3.849,0,0,0-2.851-.937,3.219,3.219,0,0,0-2.8,1.442,6.379,6.379,0,0,0-1,3.726v3.979a6.191,6.191,0,0,0,1.06,3.746,3.444,3.444,0,0,0,2.946,1.449,3.5,3.5,0,0,0,2.673-.937,4.074,4.074,0,0,0,.882-2.878Zm1.969-.943a7.939,7.939,0,0,1,1.846-5.421,6.434,6.434,0,0,1,5.113-2.112,6.5,6.5,0,0,1,5.141,2.105,7.9,7.9,0,0,1,1.859,5.428v.287a7.908,7.908,0,0,1-1.853,5.435,7.312,7.312,0,0,1-10.254,0,7.908,7.908,0,0,1-1.853-5.435Zm3.979.287A6.436,6.436,0,0,0,125.887,23a2.731,2.731,0,0,0,4.56-.007,6.393,6.393,0,0,0,.718-3.24v-.287a6.328,6.328,0,0,0-.725-3.213,2.452,2.452,0,0,0-2.283-1.244,2.422,2.422,0,0,0-2.263,1.251,6.385,6.385,0,0,0-.718,3.206Zm16.338-5.674a5.082,5.082,0,0,1,1.709-1.579,4.926,4.926,0,0,1,5.872.971,7.176,7.176,0,0,1,1.319,4.751V27h-3.992V18.2a4.088,4.088,0,0,0-.554-2.44,1.967,1.967,0,0,0-1.661-.718,3.974,3.974,0,0,0-1.593.294,2.749,2.749,0,0,0-1.1.841V27h-3.992V5.672h3.992Zm18.32,13.207a6.656,6.656,0,0,1-5.168-2.03,7.441,7.441,0,0,1-1.859-5.229V19.48a8.1,8.1,0,0,1,1.8-5.441,6.135,6.135,0,0,1,4.963-2.105,5.744,5.744,0,0,1,4.573,1.825,7.213,7.213,0,0,1,1.593,4.915v2.064h-8.818l-.041.082a4,4,0,0,0,.923,2.461,3.09,3.09,0,0,0,2.454.943,8.212,8.212,0,0,0,2.276-.273,9.288,9.288,0,0,0,1.935-.834l1.08,2.461a7.41,7.41,0,0,1-2.406,1.217A10.671,10.671,0,0,1,159.834,27.287Zm-.26-12.277a2.217,2.217,0,0,0-1.853.827,4.149,4.149,0,0,0-.786,2.194l.027.068h4.867v-.3a3.455,3.455,0,0,0-.533-2.044A1.972,1.972,0,0,0,159.574,15.01Zm16.27.629-1.463-.041a2.659,2.659,0,0,0-1.463.369,2.339,2.339,0,0,0-.875,1.039V27h-3.979V12.207h3.705l.178,2.188a4.667,4.667,0,0,1,1.347-1.812,3.146,3.146,0,0,1,2.461-.6q.253.048.513.116Zm8.23,11.648a6.656,6.656,0,0,1-5.168-2.03,7.441,7.441,0,0,1-1.859-5.229V19.48a8.1,8.1,0,0,1,1.8-5.441,6.135,6.135,0,0,1,4.963-2.105,5.744,5.744,0,0,1,4.573,1.825,7.213,7.213,0,0,1,1.593,4.915v2.064h-8.818l-.041.082a4,4,0,0,0,.923,2.461,3.09,3.09,0,0,0,2.454.943,8.212,8.212,0,0,0,2.276-.273,9.288,9.288,0,0,0,1.935-.834l1.08,2.461a7.41,7.41,0,0,1-2.406,1.217A10.671,10.671,0,0,1,184.074,27.287Zm-.26-12.277a2.217,2.217,0,0,0-1.853.827,4.149,4.149,0,0,0-.786,2.194l.027.068h4.867v-.3a3.455,3.455,0,0,0-.533-2.044A1.972,1.972,0,0,0,183.814,15.01Zm12.141-2.8.178,2.119a5.411,5.411,0,0,1,1.818-1.764,4.72,4.72,0,0,1,2.42-.629,4.4,4.4,0,0,1,3.5,1.442,6.838,6.838,0,0,1,1.258,4.56V27h-4.006V17.949a3.541,3.541,0,0,0-.554-2.249,2.041,2.041,0,0,0-1.661-.663,3.486,3.486,0,0,0-1.565.335,3.056,3.056,0,0,0-1.114.923V27h-3.992V12.207Zm18.334,12.018a2.222,2.222,0,0,0,1.654-.622,2.259,2.259,0,0,0,.615-1.661H220.2l.027.082a4.63,4.63,0,0,1-1.668,3.753,6.238,6.238,0,0,1-4.266,1.511,6.3,6.3,0,0,1-5.072-2.1,7.976,7.976,0,0,1-1.791-5.366v-.41a8.029,8.029,0,0,1,1.784-5.366,6.248,6.248,0,0,1,5.052-2.112,6.1,6.1,0,0,1,4.361,1.559,5.209,5.209,0,0,1,1.6,4.1l-.027.082h-3.637a2.952,2.952,0,0,0-.608-1.907,2.044,2.044,0,0,0-1.688-.759,2.278,2.278,0,0,0-2.194,1.237,6.786,6.786,0,0,0-.649,3.165v.41a6.761,6.761,0,0,0,.649,3.186A2.309,2.309,0,0,0,214.289,24.225ZM226.744,27h-3.992V12.207h3.992Zm0-18.334h-3.992V5.672h3.992Zm12,18.334a8.4,8.4,0,0,1-.376-1.066,7.419,7.419,0,0,1-.226-1.148,5.472,5.472,0,0,1-1.627,1.791,4.078,4.078,0,0,1-2.406.711,5,5,0,0,1-3.582-1.2,4.286,4.286,0,0,1-1.258-3.261,3.9,3.9,0,0,1,1.675-3.37,8.364,8.364,0,0,1,4.888-1.2h2.242V17.088a2.3,2.3,0,0,0-.561-1.654,2.2,2.2,0,0,0-1.668-.588,2.168,2.168,0,0,0-1.5.472,1.647,1.647,0,0,0-.526,1.292h-3.842l-.027-.082a3.752,3.752,0,0,1,1.634-3.233,7.1,7.1,0,0,1,4.519-1.36,6.622,6.622,0,0,1,4.313,1.34,4.667,4.667,0,0,1,1.647,3.842v6.111a11.559,11.559,0,0,0,.157,1.955,9.811,9.811,0,0,0,.5,1.818Zm-3.65-2.666a3.4,3.4,0,0,0,1.859-.52,2.8,2.8,0,0,0,1.121-1.2V20.52h-2.242a2.658,2.658,0,0,0-1.921.629,2.067,2.067,0,0,0-.649,1.545,1.542,1.542,0,0,0,.485,1.2A1.92,1.92,0,0,0,235.1,24.334Z" transform="translate(312 9704)" fill="#fff"/>
  </g>
</svg>
