<svg xmlns="http://www.w3.org/2000/svg" xmlns:xlink="http://www.w3.org/1999/xlink" width="190" height="104" viewBox="0 0 190 104">
  <defs>
    <clipPath id="clip-path">
      <rect id="Rect치ngulo_90318" data-name="Rect치ngulo 90318" width="67.099" height="66.537" fill="none"/>
    </clipPath>
  </defs>
  <g id="Grupo_146850" data-name="Grupo 146850" transform="translate(-285.049 -411)">
    <rect id="Rect치ngulo_41122" data-name="Rect치ngulo 41122" width="190" height="104" transform="translate(285.049 411)" fill="none"/>
    <g id="Grupo_117447" data-name="Grupo 117447" transform="translate(-3337.23 1038.208)" opacity="0.3">
      <path id="Trazado_158283" data-name="Trazado 158283" d="M3677.784-530.075h0a16.354,16.354,0,0,0,23.129,0l67.216-67.214a16.357,16.357,0,0,0,0-23.129,16.355,16.355,0,0,0-23.129,0L3677.784-553.2A16.353,16.353,0,0,0,3677.784-530.075Z" transform="translate(14.296)" fill="#fc4b52"/>
      <path id="Trazado_158284" data-name="Trazado 158284" d="M3652.069-530.075h0a16.354,16.354,0,0,0,23.129,0l67.216-67.214a16.358,16.358,0,0,0,0-23.129,16.355,16.355,0,0,0-23.129,0L3652.069-553.2A16.354,16.354,0,0,0,3652.069-530.075Z" transform="translate(0)" fill="#feca2e"/>
    </g>
    <g id="Grupo_149088" data-name="Grupo 149088" transform="translate(346.049 430)">
      <g id="Grupo_149088-2" data-name="Grupo 149088" clip-path="url(#clip-path)">
        <path id="Trazado_249304" data-name="Trazado 249304" d="M8.7,120.606c.582.463,1.09.291,1.656-.1a9.14,9.14,0,0,1,8.827-1.083,2.3,2.3,0,0,1,.285.153,9.605,9.605,0,0,1,4.5,7.162,8.874,8.874,0,0,1-.054,2.988,3.857,3.857,0,0,0,.693,3.088,3.623,3.623,0,0,1,.383,3.666,1.479,1.479,0,0,1-.926,1.028h-2.1c.892-1.651.767-3.41.765-5.153,0-1.136.016-2.272-.005-3.408a3.545,3.545,0,0,0-2.927-3.52c-.375-.076-.605-.133-.58-.616a.834.834,0,0,0-.824-.861.9.9,0,0,0-1.022.636,7.3,7.3,0,0,0-.179.83c-.573,2.469-2.3,3.637-4.641,4.111a12.322,12.322,0,0,1-3.523.136c-.572-.049-1.057.045-1.25.673-.169.551.041.946.748,1.234.333.136.256.354.264.575a18.322,18.322,0,0,0,.18,3.785c.129.524.321,1.032.5,1.588a16.423,16.423,0,0,1-2.144-.016,2.491,2.491,0,0,1-1.735-3.853,5.565,5.565,0,0,0,.95-4.445,8.216,8.216,0,0,1,.775-5.037,1.2,1.2,0,0,0-.218-1.591,6.947,6.947,0,0,1,1.6-1.971" transform="translate(-3.251 -74.843)" fill="#fc4b52"/>
        <path id="Trazado_249305" data-name="Trazado 249305" d="M155.573,6.8a2.81,2.81,0,0,1,1.093.415,1.244,1.244,0,0,0,1.662-.164A7.83,7.83,0,0,1,159.9,8.306c.151.144.262.361.528.316-.643.541-.717.906-.22,1.621a9.16,9.16,0,0,1,1.657,6.048,8.83,8.83,0,0,1-1.443,4.281,1.1,1.1,0,0,1-.207.251c-.175.143-.312.452-.575.323-.217-.106-.1-.4-.1-.6-.008-1.525,0-3.051,0-4.576.206.014.243.18.249.326a12.906,12.906,0,0,1,0,2.286,9.957,9.957,0,0,0-1.135-8.4,9.789,9.789,0,0,0-2.624-2.8c-.2-.146-.481-.25-.451-.583" transform="translate(-98.044 -4.284)" fill="#636363"/>
        <path id="Trazado_249306" data-name="Trazado 249306" d="M66.216,57.481a3.045,3.045,0,0,1-.567-2.385,11.177,11.177,0,0,0-6.225-12.015c-.354-.178-.405-.327-.274-.68a25.343,25.343,0,0,0,1.509-7.011,27.051,27.051,0,0,0-1.7-11.823.53.53,0,0,1,.15-.723,6.518,6.518,0,0,0,2.118-3.31.7.7,0,0,1,.571-.524,4.082,4.082,0,0,0,2.263-1.686,11.289,11.289,0,0,0-.37-12.62.948.948,0,0,0-1.306-.367A.893.893,0,0,0,61.8,5.621a6.41,6.41,0,0,0,.546.965,8.985,8.985,0,0,1,.14,9.161,1.441,1.441,0,0,1-.8.829c-.074-1.665-.028-3.268-.043-4.87a3.547,3.547,0,0,0-2.666-3.141c-.431-.138-.723-.294-.83-.785A.99.99,0,0,0,57.1,7.038a1.036,1.036,0,0,0-1.036.66,4.578,4.578,0,0,0-.24.883,4.774,4.774,0,0,1-3.257,3.625,9.646,9.646,0,0,1-4.312.53,1.253,1.253,0,0,0-1.352.591,1.121,1.121,0,0,0,.206,1.38c.45.54.267,1.157.222,1.843-1.884-1.707-2.71-6.3-.745-9.769a9.187,9.187,0,0,1,10.9-4.128,11.018,11.018,0,0,1,1.38.554,1,1,0,0,0,1.417-.444c.2-.913.07-1.168-.789-1.6a11.216,11.216,0,0,0-15.5,6.222c-.19.52-.33.616-.884.412a26.853,26.853,0,0,0-19.08-.03c-.554.2-.761.209-.992-.413A11.257,11.257,0,1,0,2.757,16.934,4.261,4.261,0,0,0,5.265,19a.75.75,0,0,1,.586.591,6.3,6.3,0,0,0,2.007,3.156.69.69,0,0,1,.209.939,25.564,25.564,0,0,0-1.681,7.7,26.712,26.712,0,0,0,1.547,11.07c.11.3.065.449-.247.584a9.13,9.13,0,0,0-1.853,1.1c-.689.518-.76.815-.382,1.616.417.567.945.6,1.685.1a9.042,9.042,0,0,1,9-1,8.4,8.4,0,0,1,3.393,2.583,8.4,8.4,0,0,1,2.028,6.483,6.669,6.669,0,0,0,1.008,5.088A2.3,2.3,0,0,1,20.742,62.5c-.393.008-.788-.015-1.179.012-.42.029-.559-.067-.377-.506a6.394,6.394,0,0,0,.491-2.426c.01-1.77.014-3.54,0-5.309a3.788,3.788,0,0,0-2.892-3.816.835.835,0,0,1-.7-.672,1.035,1.035,0,0,0-.969-.846,1.128,1.128,0,0,0-1.132.737A5.117,5.117,0,0,0,13.7,50.75a4.511,4.511,0,0,1-2.449,3.072,8.157,8.157,0,0,1-3.279.826c-.852.039-1.7-.051-2.554.013a1.036,1.036,0,0,0-1.024.773,1.013,1.013,0,0,0,.412,1.215,1.337,1.337,0,0,1,.617,1.326,17.093,17.093,0,0,0,.1,3.138c.085.443.6.963.191,1.3-.344.289-.967.084-1.468.07a.918.918,0,0,1-.13-.017A2.343,2.343,0,0,1,2.493,58.9c.124-.206.27-.4.393-.6a4.448,4.448,0,0,0,.688-3.124,10.8,10.8,0,0,1-.052-3.456,12.217,12.217,0,0,1,.795-2.558.988.988,0,0,0-.466-1.423c-.868-.234-1.159-.1-1.549.723a10.972,10.972,0,0,0-.888,6.7,2.777,2.777,0,0,1-.576,2.322,4.517,4.517,0,0,0-.564,4.24A4.306,4.306,0,0,0,4.364,64.66q1.409.032,2.819,0a1.543,1.543,0,0,1,1.067.365,6.58,6.58,0,0,0,7.6.55,5.752,5.752,0,0,1,3.725-.912c.37.024.743.007,1.114,0a4.536,4.536,0,0,0,4.195-3.277,6.822,6.822,0,0,0,.1-2.28,27.581,27.581,0,0,0,17.1,0c-.02.255-.034.4-.044.554a4.494,4.494,0,0,0,4.622,5.007q1.344.013,2.688,0a1.207,1.207,0,0,1,.832.272,6.875,6.875,0,0,0,8.7.034,1.331,1.331,0,0,1,.888-.309,23.889,23.889,0,0,0,3.469-.059,4.487,4.487,0,0,0,2.971-7.122M57.3,41.775c-.116.333-.2.469-.625.388a11.246,11.246,0,0,0-13.209,13c.029.172.029.348.055.521.082.557-.135.839-.687,1.049a25.346,25.346,0,0,1-18.783-.068c-.613-.237-.55-.663-.49-1.1a16,16,0,0,0,.156-3.522A11.391,11.391,0,0,0,14.359,42.1a11.31,11.31,0,0,0-3.909.057c-.413.084-.551.011-.692-.383a25.855,25.855,0,0,1-1.462-9,24.869,24.869,0,0,1,1.488-8.13c.165-.468.333-.51.782-.379a6.906,6.906,0,0,0,8.574-4.6.878.878,0,0,1,.665-.675,4.048,4.048,0,0,0,2.342-1.883,10.982,10.982,0,0,0,1.579-6.633.535.535,0,0,1,.419-.654,25.128,25.128,0,0,1,18.773,0,.534.534,0,0,1,.42.654,10.908,10.908,0,0,0,1.543,6.576,4.144,4.144,0,0,0,2.441,1.957.768.768,0,0,1,.576.6,6.918,6.918,0,0,0,8.664,4.64c.422-.123.556-.049.692.34a25.308,25.308,0,0,1,.043,17.19" transform="translate(0 0)"/>
        <path id="Trazado_249307" data-name="Trazado 249307" d="M137.859,137.48h-2.075c1.147-2.7.567-5.533.66-8.314a3.469,3.469,0,0,0-3.047-3.8c-.332-.068-.408-.168-.4-.489a.919.919,0,0,0-.882-.963.992.992,0,0,0-1.063.862c-.077.34-.122.689-.222,1.021-.68,2.263-2.391,3.271-4.559,3.708a12.152,12.152,0,0,1-3.523.128c-.592-.054-1.069.1-1.229.711a.907.907,0,0,0,.725,1.191c.346.095.277.327.284.556.033,1.046-.061,2.095.071,3.141a8.372,8.372,0,0,0,.667,2.251,8.731,8.731,0,0,1-2.352-.039,2.52,2.52,0,0,1-1.483-3.977,5.073,5.073,0,0,0,.9-3.949,9.3,9.3,0,0,1,12.614-10.115,4.345,4.345,0,0,1,.461.234,9.794,9.794,0,0,1,4.292,6.969,10.03,10.03,0,0,1-.082,3.39,3.34,3.34,0,0,0,.684,2.7,3.577,3.577,0,0,1,.469,3.71,1.881,1.881,0,0,1-.91,1.069" transform="translate(-74.947 -74.818)" fill="#feca2e"/>
        <path id="Trazado_249308" data-name="Trazado 249308" d="M25,18.465q-.013-1.376-.025-2.751a3.556,3.556,0,0,0-3.027-3.7c-.373-.075-.489-.2-.484-.589a.826.826,0,0,0-.814-.863.892.892,0,0,0-1.051.674c-.078.248-.1.513-.16.767a4.961,4.961,0,0,1-3.561,3.832,9.877,9.877,0,0,1-4.135.453,1.12,1.12,0,0,0-1.29.539.927.927,0,0,0,.408,1.29.466.466,0,0,1,.182.458c0,.371.014.744-.007,1.113-.012.2.138.5-.129.571-.2.056-.39-.175-.523-.343a7.927,7.927,0,0,1-1.64-4.347,9.267,9.267,0,0,1,9.763-10.2,6.306,6.306,0,0,1,2.415.505,8.132,8.132,0,0,1,3.688,3.671,10.029,10.029,0,0,1,.816,8.337c-.076.229-.085.536-.427.581" transform="translate(-5.487 -3.38)" fill="#98791b"/>
        <path id="Trazado_249309" data-name="Trazado 249309" d="M134.635,5.862a11.521,11.521,0,0,0,1.26,1.02,9.776,9.776,0,0,1,3.463,6.643,8.851,8.851,0,0,1-.651,4.77c0-.95.006-1.761,0-2.572,0-.233.073-.484-.105-.692a3.525,3.525,0,0,0-2.98-3.061c-.255-.052-.491-.074-.471-.47a.893.893,0,0,0-.918-.982c-.533-.053-.926.318-1.033.963a5.454,5.454,0,0,1-1.049,2.575,6.292,6.292,0,0,1-4.408,2.147,9.165,9.165,0,0,1-2.543.047.965.965,0,0,0-1.113.616.912.912,0,0,0,.348,1.154.55.55,0,0,1,.251.493c-.01.565,0,1.13,0,1.753a2.029,2.029,0,0,1-1.153-1.128,9.305,9.305,0,0,1,5.9-13.539,8.469,8.469,0,0,1,5.2.265" transform="translate(-77.106 -3.348)" fill="#afafaf"/>
        <path id="Trazado_249310" data-name="Trazado 249310" d="M30.3,33.16a26.617,26.617,0,0,1-.091,3.186,4.981,4.981,0,0,1-9.884-.485c-.047-.827.006-1.66-.038-2.488-.024-.447.159-.557.555-.576a10.04,10.04,0,0,0,4.093-1.022,6.513,6.513,0,0,0,3.005-2.9.675.675,0,0,1,.771-.419,1.636,1.636,0,0,1,1.583,1.677c.025.938.006,1.878.006,3.029" transform="translate(-12.78 -17.928)" fill="#fcd0a6"/>
        <path id="Trazado_249311" data-name="Trazado 249311" d="M30.3,146.571a26.891,26.891,0,0,1-.092,3.2,4.98,4.98,0,0,1-9.885-.491c-.047-.828,0-1.661-.038-2.489-.023-.444.147-.557.557-.571a10.146,10.146,0,0,0,3.619-.8,6.539,6.539,0,0,0,3.447-3.066.762.762,0,0,1,.929-.462,1.651,1.651,0,0,1,1.459,1.662c0,.044,0,.087,0,.131v2.885" transform="translate(-12.782 -89.413)" fill="#fcd0a6"/>
        <path id="Trazado_249312" data-name="Trazado 249312" d="M143.954,146.464c0,.9.036,1.793-.007,2.688a4.955,4.955,0,0,1-5.059,4.788,5.008,5.008,0,0,1-4.916-4.891c-.025-.764.019-1.531-.018-2.294-.02-.421.151-.517.525-.53a10.388,10.388,0,0,0,3.624-.789,6.733,6.733,0,0,0,3.541-3.154.634.634,0,0,1,.7-.406,1.623,1.623,0,0,1,1.611,1.573c.005.065.009.131.009.2q0,1.409,0,2.819h-.014" transform="translate(-84.42 -89.411)" fill="#fcd0a6"/>
        <path id="Trazado_249313" data-name="Trazado 249313" d="M143.95,33.02c0,.917.039,1.837-.007,2.753a4.935,4.935,0,0,1-5.035,4.734,4.99,4.99,0,0,1-4.931-4.8c-.035-.763.017-1.531-.023-2.293-.023-.45.124-.6.57-.621a9.918,9.918,0,0,0,4.1-1.021,6.547,6.547,0,0,0,3.007-2.906.673.673,0,0,1,.768-.416,1.628,1.628,0,0,1,1.567,1.62c0,.044.005.088.005.131q0,1.409,0,2.818h-.017" transform="translate(-84.418 -17.926)" fill="#fcd0a6"/>
        <path id="Trazado_249314" data-name="Trazado 249314" d="M45.812,19.341a9.486,9.486,0,0,0,.422-6.486,10.545,10.545,0,0,0-4.5-6.1,8.6,8.6,0,0,1,5.1,4.139,9.024,9.024,0,0,1-.012,9.344,1.992,1.992,0,0,1-1.015.971Z" transform="translate(-26.303 -4.256)" fill="#7b6112"/>
        <path id="Trazado_249315" data-name="Trazado 249315" d="M48.458,138.911a3.338,3.338,0,0,0,.609-4.226,5.171,5.171,0,0,1-.856-4.434,7.986,7.986,0,0,0-.369-3.646,9.6,9.6,0,0,0-3.814-5.429,1,1,0,0,1-.167-.2,9.09,9.09,0,0,1,5.509,7.333,8.926,8.926,0,0,1-.095,2.93,4.567,4.567,0,0,0,.927,3.625,2.514,2.514,0,0,1-1.745,4.044" transform="translate(-27.642 -76.243)" fill="#c93c41"/>
        <path id="Trazado_249316" data-name="Trazado 249316" d="M162.542,139.054a3.589,3.589,0,0,0,.134-4.917,3.625,3.625,0,0,1-.515-3.046,9.728,9.728,0,0,0-1.4-6.875,10.876,10.876,0,0,0-2.535-2.786.758.758,0,0,1-.134-.217,9.3,9.3,0,0,1,5.219,10.266,4.285,4.285,0,0,0,.877,3.44,2.515,2.515,0,0,1-.3,3.535,2.246,2.246,0,0,1-1.347.6" transform="translate(-99.63 -76.392)" fill="#cba124"/>
        <path id="Trazado_249317" data-name="Trazado 249317" d="M65.39,77.668c-.186.761-.454.989-1.215,1.005-.5.01-1.005.011-1.508,0a2.369,2.369,0,0,1-2.5-2.522c-.019-2.185,0-4.37-.007-6.556,0-.95.105-.822-.843-.829-.765-.006-1.531.013-2.295-.008a2.247,2.247,0,0,1-2.343-2.237q-.072-3.931,0-7.866a2.256,2.256,0,0,1,2.347-2.241q6.95-.022,13.9,0a2.348,2.348,0,0,1,2.374,2.506c.018,1.857.02,3.715-.006,5.572-.006.447.092.589.562.58,1.617-.031,3.234-.016,4.852-.011a2.344,2.344,0,0,1,2.563,2.507q.031,4.294,0,8.588a2.222,2.222,0,0,1-2.368,2.471,4.729,4.729,0,0,0-4.322,1.815,2.2,2.2,0,0,1-2.142.714,2.238,2.238,0,0,1-1.87-1.934c-.064-.512-.283-.6-.711-.552a5.327,5.327,0,0,1-.721,0c-.761-.021-1.03-.247-1.214-1.006-.073-.635.171-1.016.8-1.074a16.2,16.2,0,0,1,2.934,0c.6.054.872.453.943,1.142.04.391-.194.962.26,1.118.391.135.686-.378,1-.631.5-.411.925-.92,1.457-1.306a1.439,1.439,0,0,1,.755-.358c.762-.015,1.525-.02,2.287-.031.46-.007.679-.21.68-.673q.011-3.987,0-7.974c0-.477-.236-.662-.689-.649a5.749,5.749,0,0,1-.718-.014c-1.178,0-2.358.007-3.537-.007a1.051,1.051,0,0,0-1.028.54,2.379,2.379,0,0,1-2.138,1.168c-.393,0-.786,0-1.179,0-.755.008-.8.032-.924.789a2.451,2.451,0,0,1-1.719,2.039,2.367,2.367,0,0,1-2.537-.592c-.608-.564-1.271-1.068-1.837-1.678-.1-.105-.215-.262-.382-.168-.121.068-.1.234-.1.363,0,2.03-.018,4.061.008,6.091.007.595.192.745.817.776.48.024.963-.029,1.44.033a.862.862,0,0,1,.867,1.1" transform="translate(-34.44 -35.546)"/>
        <path id="Trazado_249318" data-name="Trazado 249318" d="M78.146,95.763c-.21-.782-.426-.951-1.235-.959q-.72-.006-1.44,0c-.368,0-.583-.157-.582-.541q0-3.6.014-7.2c0-.035.045-.069.111-.163.757.692,1.521,1.364,2.255,2.067a2.361,2.361,0,0,0,2.68.653,2.235,2.235,0,0,0,1.489-2.242c0-.467.194-.54.587-.524.567.023,1.134.01,1.7,0a2.241,2.241,0,0,0,2.085-1.332c.129-.263.236-.41.562-.4,1.308.027,2.617.023,3.926.03a1.117,1.117,0,0,1,.21.863q.009,3.889,0,7.779c0,.946-.04.969-1,.975a2.742,2.742,0,0,0-.779.037,13.689,13.689,0,0,0-2.24,1.873c-.186.149-.346.332-.534.477-.377.29-.67.179-.721-.288-.038-.344,0-.7-.018-1.042A.933.933,0,0,0,84.2,94.809c-.782-.017-1.566.008-2.348-.009a1.02,1.02,0,0,0-1.163.963H78.146" transform="translate(-47.196 -53.641)" fill="#a7e446"/>
        <path id="Trazado_249319" data-name="Trazado 249319" d="M72.767,70.112c-.523.011-1.046.015-1.568.037a1,1,0,0,0-1.1,1.1c-.017.414,0,.829-.009,1.244,0,.216,0,.447-.258.548s-.41-.072-.57-.218c-.788-.723-1.583-1.438-2.357-2.177a1.722,1.722,0,0,0-1.292-.505c-1.615.02-3.23-.009-4.845.016-.547.009-.79-.142-.784-.734.023-2.335.014-4.67.006-7,0-.436.1-.7.617-.7q6.023.026,12.046.026c.325.177.325.5.327.8.013,2.28.01,4.561,0,6.842a.985.985,0,0,1-.217.73" transform="translate(-37.804 -38.895)" fill="#85b638"/>
        <path id="Trazado_249320" data-name="Trazado 249320" d="M112.322,94.806a1.2,1.2,0,0,1,.883-.1c.54.045.7-.14.7-.689-.027-2.956-.014-5.913-.015-8.87,2.114-.055,1.744-.191,1.761,1.673.021,2.4-.009,4.8.014,7.193.006.592-.192.828-.793.8-.849-.036-1.7-.012-2.55-.014" transform="translate(-70.788 -53.648)" fill="#85b638"/>
        <path id="Trazado_249321" data-name="Trazado 249321" d="M94.359,70.115q0-3.868.009-7.736a1.161,1.161,0,0,0-.122-.633c.479-.007.958,0,1.435-.023.456-.019.621.212.621.636q-.006,3.592,0,7.184c0,.39-.143.624-.574.607-.456-.018-.912-.024-1.368-.035" transform="translate(-59.396 -38.898)" fill="#64892a"/>
        <path id="Trazado_249322" data-name="Trazado 249322" d="M100,97.465c-.742,0-1.484.013-2.225,0a.975.975,0,0,1-1.049-.935.96.96,0,0,1,.983-1.011c1.548-.03,3.1-.032,4.646,0a.97.97,0,1,1-.064,1.938c-.763.02-1.527,0-2.291.006" transform="translate(-60.957 -60.182)" fill="#000101"/>
        <path id="Trazado_249323" data-name="Trazado 249323" d="M71.471,70.507c.786,0,1.573-.013,2.359,0a.939.939,0,0,1,1.049.925.958.958,0,0,1-1.029,1.027q-2.391.036-4.783,0a.979.979,0,1,1,.046-1.951c.786-.015,1.573,0,2.359,0" transform="translate(-42.876 -44.432)" fill="#010100"/>
      </g>
    </g>
  </g>
</svg>
