<svg xmlns="http://www.w3.org/2000/svg" xmlns:xlink="http://www.w3.org/1999/xlink" width="400" height="315" viewBox="0 0 400 315">
  <defs>
    <clipPath id="clip-path">
      <rect id="Rect치ngulo_90322" data-name="Rect치ngulo 90322" width="286.246" height="315" fill="none"/>
    </clipPath>
  </defs>
  <g id="Grupo_149096" data-name="Grupo 149096" transform="translate(-600 -2105)">
    <rect id="Rect치ngulo_90260" data-name="Rect치ngulo 90260" width="400" height="315" transform="translate(600 2105)" fill="none"/>
    <g id="Grupo_149095" data-name="Grupo 149095" transform="translate(657 2105)">
      <g id="Grupo_149094" data-name="Grupo 149094" clip-path="url(#clip-path)">
        <path id="Trazado_249601" data-name="Trazado 249601" d="M38.863,143.752c.812-3.766.592-7.587.592-11.394.005-29.652.1-59.306-.061-88.957-.045-8.288,8.02-14.95,14.864-14.761,7.221.2,14.452.044,21.678.044,1.27,0,2.564.141,3.694-.652a11.445,11.445,0,0,1,3.783-.386q39.527.022,79.053-.036c2.648-.007,5.219.772,7.864.466a20.614,20.614,0,0,0,5.646.626q24.364-.041,48.728,0a7.867,7.867,0,0,1,2.21,3.8c1.717,4.589,3.052,9.3,4.329,14.017,1.186,4.385.4,5.4-4.123,5.4q-29.032.047-58.064.021a18.67,18.67,0,0,0-4.436.2c-1.407.5-2.381,1.375-2.22,3,.163,1.651,1.484,2.134,2.83,2.542,13.612.292,27.213.055,40.813.117,7.758.036,15.516-.026,23.274.022,3.74.024,4.535.659,5.223,4.156a140.377,140.377,0,0,1,2.226,18.658,3.726,3.726,0,0,1-.436,2.459c-1.593,1.186-3.459.883-5.238.885q-30.638.038-61.276.02a16,16,0,0,0-4.754.353c-1.151.353-2.237.936-2.2,2.375.042,1.494,1.2,1.868,2.4,2.078a24.043,24.043,0,0,0,4.14.177Q200.2,88.994,231,89c1.785,0,3.64-.272,5.275.807a3.536,3.536,0,0,1,.831,2.336c.2,7.161.306,14.322-.751,21.44a3.221,3.221,0,0,1-.615,1.437c-1.7,1.24-3.671.895-5.554.9q-30.158.04-60.314.019a35.351,35.351,0,0,0-4.145.116c-1.338.158-2.663.527-2.78,2.1-.132,1.788,1.328,2.253,2.711,2.556a20.772,20.772,0,0,0,4.455.216q29.519.008,59.038.017c1.781,0,3.643-.289,5.254.858.827,1.158.593,2.442.4,3.7q-.992,6.475-2.51,12.848c-.856,3.606-1.753,4.264-5.589,4.283-9.154.046-18.308.015-27.463.016q-66.1,0-132.207,0c-1.7,0-3.406-.056-5.094.086-1.5.443-3.2.832-3.29,2.767-.08,1.736,1.332,2.425,2.781,2.911a44.374,44.374,0,0,0,4.8.091q78.057.008,156.115.006c6.73,0,7.019.458,4.927,6.961-1.567,4.87-3.636,9.546-5.394,14.339-1.275,3.478-3.438,4.873-7.218,4.837-15.961-.149-31.925-.064-47.887-.063q-50.442,0-100.884,0a36.646,36.646,0,0,0-4.451.109c-1.41.482-2.848,1.122-2.8,2.847.05,1.9,1.708,2.364,3.221,2.821,1.711.151,3.415.082,5.116.082q71.348.006,142.7.005c6.423,0,6.893.774,3.747,6.355-1.986,3.522-4.206,6.908-6.277,10.379a6.836,6.836,0,0,1-6.542,3.62c-12.556-.082-25.113-.046-37.669-.024-1.346,0-2.816-.331-3.819,1.008a10.232,10.232,0,0,0-.456,4.39q-.02,18.093-.014,36.186a16.384,16.384,0,0,1-.4,5.039,6.192,6.192,0,0,1-2.546,2.762,180,180,0,0,1-21.83,13.124,18.349,18.349,0,0,1-8.554,2.015c-19.759-.07-39.517-.038-59.276-.032a34.294,34.294,0,0,0-4.445.123c-1.445.473-2.976,1-2.984,2.831-.007,1.608,1.273,2.332,2.642,2.83,14.588.252,29.166.005,43.742.142,1.791.017,4.65-.883,5.043,1.192.318,1.68-2.642,1.985-4.286,2.509a188.969,188.969,0,0,1-43.122,8.432,154.075,154.075,0,0,1-22.6.243c-1.289-4.778-.207-9.65-.57-14.463-.133-1.764.452-3.621-.659-5.263-.532-5.937-.3-11.9-.322-17.838-.1-31.68-.023-63.359-.093-95.039-.005-2.44.768-4.791.482-7.226" transform="translate(-5.62 -4.043)" fill="#e7f0f7"/>
        <path id="Trazado_249602" data-name="Trazado 249602" d="M158.033,200.865c.859-1.49,2.3-.8,3.455-.8,13.292-.054,26.585-.09,39.876.016a4.943,4.943,0,0,0,5.032-2.938c2.373-4.375,5.017-8.607,7.643-12.84,1.531-2.468.673-2.825-1.849-2.822q-63.165.092-126.33.044c-7.231,0-14.462.015-21.693-.017-1.131-.005-2.358.37-3.361-.533,1.681-1.617,3.809-1.091,5.767-1.093q53.131-.053,106.262-.026,29.676,0,59.353,0a19.967,19.967,0,0,0,4.45-.271,1.97,1.97,0,0,0,1.8-1.917c.025-1.188-.825-1.654-1.816-1.866a24.107,24.107,0,0,0-5.089-.258q-82.647-.005-165.3-.031c-2.055,0-4.3.591-6.074-1.111,1.206-1.036,2.655-.56,3.988-.561q75.664-.04,151.33.061c3.136.007,4.626-1.058,5.6-3.829,1.961-5.606,4.147-11.133,6.153-16.724,1.32-3.676,1.251-3.706-2.809-3.706q-26.977,0-53.955,0-53.157,0-106.314-.023c-1.332,0-2.782.478-3.987-.562,1.669-1.643,3.8-1.111,5.756-1.113q48.344-.053,96.689-.025,34.781,0,69.564,0a20.5,20.5,0,0,0,4.451-.258c.99-.218,1.84-.679,1.816-1.867a1.965,1.965,0,0,0-1.8-1.916,23.275,23.275,0,0,0-5.087-.271q-82.329-.005-164.657-.03c-2.059,0-4.3.579-6.087-1.09,1.223-.991,2.667-.528,4-.529q80.92-.038,161.84.052c3.135.006,4.62-.8,5.1-3.973.8-5.323,2.272-10.536,2.806-15.912a1.2,1.2,0,0,1,.462-.423c5.263-2.314,5.372-3.227.8-6.692.57-8.239.859-16.485.641-24.744,3.13-3.116,3.13-3.116.021-7.082-1-6.776-1.3-13.63-2.466-20.4-.512-2.963-1.463-3.991-4.6-3.968-20.486.151-40.972.085-61.459.058-1.23,0-2.563.419-3.675-.528,1.565-1.577,3.585-1.089,5.436-1.093q31.254-.059,62.507-.027a19.488,19.488,0,0,0,4.445-.271c1.015-.236,1.783-.782,1.821-1.907.04-1.173-.788-1.664-1.785-1.9a19.343,19.343,0,0,0-4.446-.271q-31.571-.006-63.144-.026c-1.858,0-3.868.463-5.465-1.045,1.076-1.038,2.425-.6,3.652-.6,20.221-.027,40.442-.063,60.663.031,2.847.014,3.885-.467,2.848-3.547-2.094-6.218-3.9-12.536-5.819-18.813,6.164-.008,12.329.092,18.489-.052,6.834-.16,15.078,6.4,14.768,14.86-.153,4.139-.014,8.288-.028,12.433a6.313,6.313,0,0,0,.609,3.4,10.239,10.239,0,0,1,.4,3.778c.013,36.752-.242,73.5-.118,110.255.007,2.025-.434,4.013-.306,6.034-.748,3.243-.575,6.54-.575,9.826,0,29.809-.21,59.62.125,89.424.1,8.91-8.127,16.35-15.917,15.862-6.893-.433-13.833-.09-20.752-.09-1.271,0-2.568-.148-3.7.643a10.9,10.9,0,0,1-3.778.382q-39.311-.02-78.622.035c-2.763.008-5.447-.668-8.2-.54a12.339,12.339,0,0,0-4.392-.528q-33.647.018-67.294.005c-7.878,0-12.684-3.4-15.387-10.846.722-.888,1.734-.632,2.667-.662,6.465-.209,12.918,0,19.4-.515a197.754,197.754,0,0,0,37.412-6.612,59.61,59.61,0,0,0,10.114-3.7H85.853c-7.447,0-14.895.015-22.342-.017-1.128-.005-2.364.376-3.342-.581,1.579-1.543,3.594-1.07,5.448-1.074q31.566-.056,63.132-.026a18.811,18.811,0,0,0,4.444-.278,1.919,1.919,0,0,0-.025-3.786,18.726,18.726,0,0,0-4.445-.274q-31.247-.006-62.494-.027c-1.851,0-3.873.487-5.428-1.109,1.121-.931,2.456-.514,3.69-.516q31.135-.041,62.269.009a12.75,12.75,0,0,0,5.8-1.351,204.3,204.3,0,0,0,25.35-15.273c1.174,1.207.988,2.756,1,4.223.052,5.32-.031,10.642.04,15.962.044,3.295.379,3.663,3.724,3.67,23.09.043,46.181.007,69.272.047,2.665,0,3.5-1.13,3.5-3.646-.029-20.965,0-41.929-.042-62.894-.007-3.315-.4-3.591-4.457-3.594q-33.839-.029-67.676-.026c-1.775,0-3.646.347-5.247-.84" transform="translate(-5.902 -4.22)" fill="#ccd4da"/>
        <path id="Trazado_249603" data-name="Trazado 249603" d="M303.3,67.749c5.315,1.833,10.694,3.5,15.93,5.536,8.493,3.3,12.342,11.644,9.316,20.289q-15.571,44.489-31.307,88.919a8.853,8.853,0,0,1-.408.865c-1.389-.143-.871-1.245-.872-1.94q-.045-32.031.008-64.062a52.282,52.282,0,0,1,1.415-9.751,174.876,174.876,0,0,0,3.687-35.749c-.021-1.5-1.041-4.144,2.232-4.107" transform="translate(-43.322 -9.92)" fill="#d2e1f1"/>
        <path id="Trazado_249604" data-name="Trazado 249604" d="M33.248,163.675c.974.981.529,2.219.53,3.333q.051,56.568.027,113.135c0,1.221.448,2.574-.625,3.633l.052-.223c-1.689-2.527-.79-5.364-.868-8.052-.154-5.258-.056-5.229-5.283-6.386A176.435,176.435,0,0,1,2.471,261.5a6.322,6.322,0,0,1-2.437-1.452c.3-4.857,2.5-9.175,4.041-13.649,6.191-17.927,12.585-35.784,18.9-53.667l10.27-29.062" transform="translate(-0.005 -23.966)" fill="#dee4f0"/>
        <path id="Trazado_249605" data-name="Trazado 249605" d="M177.408,24.033c-.843.976-1.983.57-2.99.571q-42.357.033-84.717.005c-1.02,0-2.153.332-2.993-.621q2.216-6.312,4.432-12.625c3.333-9.53,11.895-13.556,21.366-10.192q31.525,11.2,63.09,22.278c.6.211,1.208.389,1.812.583" transform="translate(-12.696 0)" fill="#dee4f0"/>
        <path id="Trazado_249606" data-name="Trazado 249606" d="M142.319,340.705c1-.922,2.236-.49,3.356-.491q41.8-.04,83.608,0c1.218,0,2.575-.48,3.632.614-1.555,4.513-3.011,9.063-4.686,13.533-3.246,8.663-11.819,12.5-20.77,9.346q-32.579-11.477-65.14-23" transform="translate(-20.839 -49.801)" fill="#d2e1f1"/>
        <path id="Trazado_249607" data-name="Trazado 249607" d="M.03,276.585c2.952.125,5.43,1.743,8.131,2.644a175.415,175.415,0,0,0,22.334,6.23c2.112.4,2.806,1.377,2.739,3.454-.12,3.721-.016,7.449-.005,11.174a233.143,233.143,0,0,1-24.455-8.671c-6.182-2.683-9.1-7.954-8.744-14.831" transform="translate(0 -40.499)" fill="#d2e1f1"/>
        <path id="Trazado_249608" data-name="Trazado 249608" d="M303.242,67.315c-1.544.233-1.317,1.431-1.3,2.462a170.732,170.732,0,0,1-5.614,46.105,11.7,11.7,0,0,0-.143,2.854q-.012,30.593.007,61.185c0,1.016-.371,2.15.576,3l-.609,1.925c-1.034-.95-.592-2.2-.593-3.311q-.031-56.721.008-113.444c0-1.117-.415-2.363.611-3.312a37.635,37.635,0,0,1,7.053,2.533" transform="translate(-43.265 -9.486)" fill="#d2e1f1"/>
        <path id="Trazado_249609" data-name="Trazado 249609" d="M104.343,54.284c11.918,0,23.836.11,35.751-.079,2.936-.046,3.457.872,3.443,3.579q-.165,32.722-.009,65.445c.01,2.516-.455,3.488-3.259,3.474q-36.07-.17-72.142-.017c-2.4.009-3.27-.494-3.257-3.118q.163-33.2,0-66.4c-.012-2.5.807-2.951,3.082-2.931,12.129.1,24.26.05,36.39.05" transform="translate(-9.498 -7.937)" fill="#fc4b52"/>
        <path id="Trazado_249610" data-name="Trazado 249610" d="M178.208,230.317c1.057-.08,2.113-.229,3.169-.23,23.935-.034,47.87-.013,71.8-.126,2.647-.013,3.661.446,3.642,3.426-.139,21.916-.108,43.833-.028,65.749.009,2.384-.464,3.279-3.106,3.267q-36.221-.161-72.444,0c-2.69.013-3.128-.932-3.1-3.292.1-7.231-.023-14.464-.06-21.7q.059-23.55.118-47.1" transform="translate(-26.077 -33.672)" fill="#a7e446"/>
        <path id="Trazado_249611" data-name="Trazado 249611" d="M63.825,161.981c.743.031,1.486.088,2.23.088q84.768-.022,169.535-.052c1.383,0,2.769-.032,4.149.038a3.052,3.052,0,0,1,3.184,3.274,2.971,2.971,0,0,1-3.185,3.241c-3.829.062-7.661-.006-11.491-.007q-79.66,0-159.32,0c-1.915,0-3.83-.007-5.745-.01-3.209-2.609-3.007-4.674.643-6.571" transform="translate(-8.92 -23.718)" fill="#474747"/>
        <path id="Trazado_249612" data-name="Trazado 249612" d="M63.182,199.356q72.156-.005,144.312-.012,15.485,0,30.969-.079c2.224-.011,4.262.4,4.436,3,.18,2.7-1.583,3.659-4.116,3.639-7.13-.055-14.261-.065-21.391-.065q-75.988-.008-151.977,0c-.53,0-1.06.058-1.59.089-3.65-1.9-3.851-3.964-.643-6.574" transform="translate(-8.92 -29.177)" fill="#474747"/>
        <path id="Trazado_249613" data-name="Trazado 249613" d="M99.94,231.154q16.919,0,33.837.009a13.838,13.838,0,0,1,3.163.234,2.956,2.956,0,0,1,2.4,2.987,3.129,3.129,0,0,1-2.39,3.345,7.416,7.416,0,0,1-2.208.2q-34.475.014-68.95,0a9.006,9.006,0,0,1-2.219-.149,3.152,3.152,0,0,1-2.568-3.229,3.02,3.02,0,0,1,2.564-3.2,16.413,16.413,0,0,1,3.171-.193q16.6-.019,33.2-.008" transform="translate(-8.933 -33.846)" fill="#484848"/>
        <path id="Trazado_249614" data-name="Trazado 249614" d="M257.279,92.5c1.819.639,3.581,1.4,3.458,3.751-.112,2.126-1.58,2.992-3.479,3.332l-68.834-.1c-4.453-.006-6.02-.889-6.01-3.4.009-2.491,1.631-3.411,6.042-3.412q32.507,0,65.015-.009c1.27,0,2.539-.109,3.809-.168" transform="translate(-26.71 -13.545)" fill="#484848"/>
        <path id="Trazado_249615" data-name="Trazado 249615" d="M256.62,129.791c2.32.259,4.345,1.058,4.078,3.824-.31,3.2-3.034,3.025-5.336,3.291-9.79-.049-19.578-.12-29.367-.139-12.561-.025-25.122,0-37.684-.014a15.768,15.768,0,0,1-3.173-.188,3.076,3.076,0,0,1-2.707-3.4,3.149,3.149,0,0,1,2.99-3.169,18.231,18.231,0,0,1,2.868-.07q32.255,0,64.508-.008c1.274,0,2.548-.085,3.822-.131" transform="translate(-26.712 -19.005)" fill="#484848"/>
        <path id="Trazado_249616" data-name="Trazado 249616" d="M100.247,268.362q16.917,0,33.836.007a10.774,10.774,0,0,1,2.848.193,3.081,3.081,0,0,1,2.419,3.318,2.936,2.936,0,0,1-2.375,3,13.786,13.786,0,0,1-3.158.277q-33.676.022-67.352.011c-.213,0-.426,0-.638,0-2.44.038-4.756-.454-4.771-3.406s2.231-3.428,4.718-3.42c11.491.037,22.983.016,34.474.016" transform="translate(-8.94 -39.292)" fill="#484848"/>
        <path id="Trazado_249617" data-name="Trazado 249617" d="M63.821,305.628q34.164.036,68.328.07c1.17,0,2.341-.029,3.512-.022,2.282.014,3.7,1.047,3.631,3.446-.067,2.253-1.523,3.128-3.621,3.131q-9.1.014-18.2.011-27.141-.026-54.281-.061c-3.212-2.637-3.013-4.7.633-6.574" transform="translate(-8.921 -44.752)" fill="#474747"/>
        <path id="Trazado_249618" data-name="Trazado 249618" d="M184.435,55.737q35.586-.044,71.173-.084a13.277,13.277,0,0,1,2.544.125,3.242,3.242,0,0,1-.012,6.34,28.669,28.669,0,0,1-4.138.1q-34.469.033-68.936.058c-3.477-1.93-3.664-3.88-.63-6.538" transform="translate(-26.693 -8.148)" fill="#474747"/>
      </g>
    </g>
  </g>
</svg>
