<svg id="Grupo_149646" data-name="Grupo 149646" xmlns="http://www.w3.org/2000/svg" xmlns:xlink="http://www.w3.org/1999/xlink" width="98.738" height="105.419" viewBox="0 0 98.738 105.419">
  <defs>
    <clipPath id="clip-path">
      <rect id="Rectángulo_90499" data-name="Rectángulo 90499" width="98.738" height="105.419" fill="none"/>
    </clipPath>
  </defs>
  <g id="Grupo_149628" data-name="Grupo 149628" clip-path="url(#clip-path)">
    <path id="Trazado_262537" data-name="Trazado 262537" d="M71.785,61.557c.386-1.344.735-1.626,2.082-1.627,5.829,0,11.657-.016,17.486,0a7.153,7.153,0,0,1,7.371,7.325q.026,27.786,0,55.571a7.127,7.127,0,0,1-7.308,7.277q-13.629.03-27.258-.014c-.829,0-1.1.153-1.071,1.039.071,2.4.041,4.8.012,7.2a1.661,1.661,0,0,0,.556,1.35c.947.894,1.825,1.863,2.783,2.744a2.976,2.976,0,0,1,1.091,2.634,4.278,4.278,0,0,0,0,.925,2.6,2.6,0,0,1-1.495,2.857H32.5a2.967,2.967,0,0,1-1.537-2.852,4.4,4.4,0,0,1,1.8-4.2,6.223,6.223,0,0,0,2.694-6.44,23.429,23.429,0,0,1-.013-4.315c.039-.783-.192-.949-.953-.946-7.437.031-14.874.019-22.311.019-1.611,0-3.222.011-4.833,0a7.174,7.174,0,0,1-7.335-7.357C-.009,113.77,0,104.786,0,95.8q0-13.99,0-27.98c0-4.917,2.954-7.892,7.838-7.893q15.834,0,31.668-.01c.986,0,1.762.215,2.08,1.258a1.572,1.572,0,0,1-1.41,2.114,4.358,4.358,0,0,1-.716.046c-9.851,0-19.7.023-29.553-.009-.89,0-1.781-.024-2.67.025A3.8,3.8,0,0,0,3.42,67.148c-.026.376-.017.754-.017,1.131q0,23.649,0,47.3c0,.206,0,.412,0,.617.032,1.127.121,1.224,1.252,1.241,1.952.029,3.9-.05,5.855.069,1.261.409,1.462.694,1.461,2.073a1.8,1.8,0,0,1-1.194,1.378c-1.518.419-3.069.142-4.6.217-.41.02-.823,0-1.234,0-1.495.009-1.621.149-1.522,1.682a3.8,3.8,0,0,0,3.891,3.833c.411.021.823.012,1.234.012h81.67c.411,0,.823.009,1.234-.013a4.054,4.054,0,0,0,3.918-4.773.853.853,0,0,0-.345-.6,5.062,5.062,0,0,0-1.738-.125q-37.227-.005-74.455,0a10.815,10.815,0,0,1-1.848-.066,1.974,1.974,0,0,1-1.813-1.439c-.05-1.608.462-2.162,2.078-2.238.514-.024,1.028-.011,1.542-.011H93.235c2.093,0,2.094,0,2.094-2.059q0-23.4,0-46.81c0-.514.02-1.03-.028-1.542a3.824,3.824,0,0,0-3.659-3.651c-.445-.04-.89-.028-1.336-.028q-7.867,0-15.733,0a6.348,6.348,0,0,1-1.535-.1,1.457,1.457,0,0,1-1.252-1.683" transform="translate(0 -43.426)" fill="#cba124"/>
    <path id="Trazado_262538" data-name="Trazado 262538" d="M34.4,66.191q8-.017,16-.032,6.871-.008,13.742,0c1.45,0,1.909-.434,1.991-1.838.49.647,1.195.282,1.8.381.351.1.413.426.548.7a14.193,14.193,0,0,0,6.652,6.725,7.4,7.4,0,0,1,2.422,2.3,4.451,4.451,0,0,0,4.982,1.757,4.078,4.078,0,0,0,2.258-1.52,9.892,9.892,0,0,1,3.6-3.106,12.94,12.94,0,0,0,5.147-5.167c.7-1.191.7-1.19-.532-1.645-.094-.224-.078-.4.19-.486a7.837,7.837,0,0,0,3.131.445,1.869,1.869,0,0,0,2.131,1.475c5.691-.034,11.382-.017,17.074-.015,3.013,0,4.657,1.626,4.657,4.617q0,24.491.024,48.982c0,.919-.229,1.119-1.128,1.118q-38.519-.04-77.037-.021c-1.677,0-2.093.362-2.172,1.865a14.643,14.643,0,0,0-3.533,0,1.644,1.644,0,0,0-1.126-1.856c-1.294-.152-1.345-.2-1.346-1.717q-.009-18.3,0-36.6c0-4.9-.008-9.8.009-14.7,0-.592-.147-1.267.527-1.661" transform="translate(-24.543 -46.567)" fill="#feca2e"/>
    <path id="Trazado_262539" data-name="Trazado 262539" d="M184.269,17.686c-.183.1-.169.28-.177.451a8.326,8.326,0,0,1-2.675,4.147,12.022,12.022,0,0,1-3.811,2.567c-1.061.432-1.551,1.414-2.215,2.222a3.817,3.817,0,0,1-3.246,1.634,3.231,3.231,0,0,1-2.349-1.075,7.107,7.107,0,0,1-.718-.871,7.188,7.188,0,0,0-2.942-2.446,12.206,12.206,0,0,1-5.392-5.458,2,2,0,0,1-.257-1.08c-1.939-5.516-1.012-10.444,3.345-14.42a12.188,12.188,0,0,1,12.9-2.539c1.44.49,1.7.989,1.417,2.46-.462.865-.944,1.077-2.019.821-.765-.182-1.5-.446-2.288-.574a9.319,9.319,0,0,0-10.854,9.226,8.936,8.936,0,0,0,5.824,8.834,7.469,7.469,0,0,1,2.708,2.441c.824,1,.894,1.036,1.628.036a8.86,8.86,0,0,1,3.432-2.8,9.351,9.351,0,0,0,4.056-12.97,4.426,4.426,0,0,1-.558-1.208c-.146-.735-.047-1.374.772-1.672,1.31-.472,1.811-.307,2.523.923a12.587,12.587,0,0,1,1.22,10.272l-.32,1.078" transform="translate(-115.615 -0.001)" fill="#cba124"/>
    <path id="Trazado_262540" data-name="Trazado 262540" d="M188.976,13.654a1.812,1.812,0,0,0-.19,2.415,9.658,9.658,0,0,1-4.958,14.153c-1.211.469-1.691,1.55-2.439,2.407-.955,1.095-.938,1.139-1.794,0a9.015,9.015,0,0,0-3.468-2.893,9.689,9.689,0,0,1,7.537-17.813,2.124,2.124,0,0,0,2.612-.407,9.617,9.617,0,0,1,2.7,2.135" transform="translate(-123.745 -8.241)" fill="#feca2e"/>
    <path id="Trazado_262541" data-name="Trazado 262541" d="M159.123,64.587a13.067,13.067,0,0,0,7.034,6.941,1.876,1.876,0,0,1,.77.647c.525.675,1.043,1.358,1.6,2a3.052,3.052,0,0,0,4.762.1A14.515,14.515,0,0,1,178,70.34a12.164,12.164,0,0,0,4.725-5.394c1.714.022,1.742.058.877,1.575a14.119,14.119,0,0,1-6.622,6.162,5.664,5.664,0,0,0-2.115,2.183,4.753,4.753,0,0,1-7.844-.087,8.673,8.673,0,0,0-2.966-2.55,13.875,13.875,0,0,1-6.416-7.288c.43-.385,1.06.069,1.481-.354" transform="translate(-114.251 -46.809)" fill="#feca2e"/>
    <path id="Trazado_262542" data-name="Trazado 262542" d="M103.585,280.847a4.461,4.461,0,0,1-4.338,6.168q-37.131,0-74.262,0-4.629,0-9.257,0a4.131,4.131,0,0,1-4.507-4.453c-.011-1.772-.01-1.747,1.757-1.778a55.922,55.922,0,0,0,6.056-.111,1.853,1.853,0,0,1,.886.5,5.412,5.412,0,0,0,3.952,1.412q38.826-.022,77.651.037c1.48,0,1.732-.768,2.063-1.77" transform="translate(-8.131 -203.417)" fill="#feca2e"/>
    <path id="Trazado_262543" data-name="Trazado 262543" d="M17.933,71.209a2.163,2.163,0,0,0-.193,1.3q0,25.96-.027,51.919c0,.854.2,1.314,1.033,1.458-2.158,0-4.318-.056-6.474.01-.893.027-1.137-.188-1.135-1.116q.051-21.081.024-42.161c0-2.365-.011-4.73,0-7.1a4.1,4.1,0,0,1,4.3-4.343c.821-.007,1.643.019,2.464.031" transform="translate(-8.072 -51.586)" fill="#feca2e"/>
    <path id="Trazado_262544" data-name="Trazado 262544" d="M124.161,276.875c-.006,2.054-.006,2.054-2.051,2.054q-38.853,0-77.706.02A5.6,5.6,0,0,1,39.61,276.7a2.041,2.041,0,0,0,.9-1.1,4.04,4.04,0,0,1,3.533,0c.349,1.027,1.146,1.231,2.118,1.229q9.25-.021,18.5-.007,29.138,0,58.276,0c.409,0,.818.035,1.227.054" transform="translate(-28.707 -199.445)" fill="#feca2e"/>
    <path id="Trazado_262545" data-name="Trazado 262545" d="M144.01,349.261a1.687,1.687,0,0,0,1.977,1.486c1.334-.045,2.67,0,4.005-.017a1.25,1.25,0,0,1,1.008.376c.928.96,1.866,1.91,2.83,2.834a1,1,0,0,1,.323,1.015c-.122.506-.57.255-.857.255q-14.276.021-28.552,0c-.295,0-.736.245-.88-.221a.924.924,0,0,1,.373-1.086,1.239,1.239,0,0,0,.143-.147c1-.982,1.847-2.336,3.049-2.84s2.754-.17,4.153-.176c2.773-.011,5.547-.024,8.319.009a1.816,1.816,0,0,0,1.9-1.081c.466-.815,1.089-.93,2.208-.407" transform="translate(-89.733 -252.896)" fill="#feca2e"/>
    <path id="Trazado_262546" data-name="Trazado 262546" d="M162.965,330.253c-.738.125-1.585-.344-2.208.407-.012-1.531-.478-1.994-2.027-2q-4.349-.028-8.7-.051a12.047,12.047,0,0,1,.353-4.326,2.038,2.038,0,0,1,1.467-1.33,4.875,4.875,0,0,1,1.517-.222q6.978-.017,13.956,0c1.253.005,1.346.107,1.319,1.354a35.3,35.3,0,0,1-.1,4.495l-3.635.076c-1.241.026-1.641.354-1.946,1.6" transform="translate(-108.688 -233.889)" fill="#feca2e"/>
    <path id="Trazado_262547" data-name="Trazado 262547" d="M161.216,322.914c0-1.573-.029-3.146,0-4.719.013-.631-.211-.825-.83-.823-4.921.019-9.844-.01-14.765.022-1.754.012-2.536.864-2.5,2.628a12.068,12.068,0,0,1-.422,2.918c-2.838.217-2.838.217-2.838-2.608,0-1.577.021-3.155-.011-4.732-.011-.539.154-.7.694-.7q10.076.024,20.152.011c.337,0,.694-.073.69.481-.018,2.468-.012,4.937-.022,7.405,0,.039-.1.077-.149.116" transform="translate(-101.357 -228.224)" fill="#feca2e"/>
    <path id="Trazado_262548" data-name="Trazado 262548" d="M118.5,163.154l3.429,0a3.412,3.412,0,0,0,3.349,1.316,20.056,20.056,0,0,1,2.468.02,1.051,1.051,0,0,1,1.1,1.1c.02.343.027.686.027,1.029q0,8.851,0,17.7c0,.274,0,.549-.012.823-.069,1.084-.294,1.312-1.366,1.376-.342.021-.685.012-1.028.012H69.893c-2.321,0-2.376-.054-2.377-2.342q0-8.7,0-17.394c0-.137,0,.034,0-.1.006-2.135.105-2.233,2.287-2.238,1.2,0,2.4,0,3.6,0q20.831,0,41.663.013c1.349,0,2.607-.052,3.438-1.317" transform="translate(-48.931 -118.244)" fill="#feca2e"/>
    <path id="Trazado_262549" data-name="Trazado 262549" d="M111.189,159.178c-.322,1.3-.715,1.586-2.208,1.586q-12.853,0-25.706,0c-7.232,0-14.464.022-21.7-.027-.947-.006-1.093.273-1.088,1.133q.056,9.67,0,19.34c0,.813.211,1.006,1.012,1.006q29.356-.035,58.712,0c.865,0,1.062-.219,1.057-1.067q-.057-9.721,0-19.443c0-.746-.143-1.015-.94-.965-1.229.077-2.467.03-3.7.017-1.277-.013-1.669-.333-2.013-1.586a1.7,1.7,0,0,1,1.967-1.509c1.644.04,3.29-.01,4.935.018a2.619,2.619,0,0,1,2.813,2.838q.02,10.955,0,21.911a2.685,2.685,0,0,1-2.734,2.846c-.239.014-.48.006-.72.006q-30.022,0-60.045.006a3.34,3.34,0,0,1-2.723-.924,2.831,2.831,0,0,1-.689-1.986c.009-7.269,0-14.538.01-21.808,0-1.94,1.063-2.893,3.172-2.894q21.951-.006,43.9,0c1.611,0,3.222.019,4.832-.006a1.627,1.627,0,0,1,1.851,1.506" transform="translate(-41.617 -114.269)" fill="#cba124"/>
    <path id="Trazado_262550" data-name="Trazado 262550" d="M68.379,111.32a4.93,4.93,0,0,1,4.421,2.937,1,1,0,0,0,1.072.674c1.885-.034,3.772-.028,5.657,0a1,1,0,0,0,1.092-.642,5.142,5.142,0,0,1,9.316.037.928.928,0,0,0,1.014.605c1.92-.024,3.84-.027,5.76,0a.935.935,0,0,0,1-.627,5.153,5.153,0,0,1,9.329,0,.934.934,0,0,0,1,.627c1.851-.026,3.7-.042,5.554.006a1.211,1.211,0,0,0,1.314-.8,5.1,5.1,0,0,1,6.276-2.536,5.219,5.219,0,0,1,3.393,5.794,5.166,5.166,0,0,1-5.389,4.25,4.861,4.861,0,0,1-4.311-2.87,1.186,1.186,0,0,0-1.317-.778q-2.725.054-5.451,0a1,1,0,0,0-1.078.679,5.136,5.136,0,0,1-9.319-.011.985.985,0,0,0-1.075-.667q-2.776.051-5.554,0a1.076,1.076,0,0,0-1.176.693,5.122,5.122,0,0,1-9.263.042,1.131,1.131,0,0,0-1.244-.737c-1.782.037-3.566.046-5.348,0a1.19,1.19,0,0,0-1.3.818,5.062,5.062,0,0,1-5.662,2.726,5.16,5.16,0,0,1-.3-10.032,6.927,6.927,0,0,1,1.586-.18" transform="translate(-45.647 -80.67)" fill="#cba124"/>
    <path id="Trazado_262551" data-name="Trazado 262551" d="M188.507,22.4a6.7,6.7,0,0,1-.159,13.409,6.7,6.7,0,1,1,.159-13.409" transform="translate(-131.673 -16.232)" fill="#cba124"/>
    <path id="Trazado_262552" data-name="Trazado 262552" d="M159.528,181.738a7.093,7.093,0,0,1,5.375,2.369.947.947,0,0,0,1.506.18c.652-.436,1.343-.817,2.036-1.186a1.551,1.551,0,0,1,2.213.533,1.589,1.589,0,0,1-.656,2.118,3.593,3.593,0,0,1-.439.264c-1.641.783-2.708,1.58-2.722,3.9a7.108,7.108,0,0,1-7.367,6.891,7.534,7.534,0,1,1,.054-15.067" transform="translate(-110.081 -131.714)" fill="#cba124"/>
    <path id="Trazado_262553" data-name="Trazado 262553" d="M262.83,122.637a2.034,2.034,0,0,1,2.067,2.09,2.092,2.092,0,0,1-2.13,2.051,2.063,2.063,0,0,1-2-2.062,2.009,2.009,0,0,1,2.067-2.078" transform="translate(-188.987 -88.881)" fill="#feca2e"/>
    <path id="Trazado_262554" data-name="Trazado 262554" d="M198.638,124.707a2,2,0,0,1,2.072-2.07,2.058,2.058,0,0,1,2.069,2.1,2.125,2.125,0,0,1-2.048,2.04,2.045,2.045,0,0,1-2.093-2.069" transform="translate(-143.963 -88.881)" fill="#feca2e"/>
    <path id="Trazado_262555" data-name="Trazado 262555" d="M140.622,124.695a2.137,2.137,0,0,1-2.121,2.078,2.067,2.067,0,0,1-2.032-2.137,2.021,2.021,0,0,1,2.042-2.007,2.08,2.08,0,0,1,2.111,2.066" transform="translate(-98.905 -88.875)" fill="#feca2e"/>
    <path id="Trazado_262556" data-name="Trazado 262556" d="M78.394,124.663a2.09,2.09,0,1,1-4.18.011,2.091,2.091,0,0,1,4.18-.011" transform="translate(-53.786 -88.879)" fill="#feca2e"/>
    <path id="Trazado_262557" data-name="Trazado 262557" d="M196.553,33.594a3.564,3.564,0,0,1,3.578,3.59,3.626,3.626,0,0,1-3.645,3.65,3.669,3.669,0,0,1-3.6-3.612,3.627,3.627,0,0,1,3.668-3.628" transform="translate(-139.793 -24.347)" fill="#feca2e"/>
    <path id="Trazado_262558" data-name="Trazado 262558" d="M172,197.431a4.365,4.365,0,0,1-3.7,4.339,4.466,4.466,0,0,1-2.791-8.352,4.269,4.269,0,0,1,5.386,1.063c-.885.516-1.775,1.011-2.638,1.549-.339.212-.507.087-.78-.125a1.451,1.451,0,0,0-2.184.063,1.515,1.515,0,0,0,.052,2.136c.239.291.492.57.746.848.876.96,1.392,1.053,2.511.423s2.234-1.279,3.395-1.945" transform="translate(-118.247 -139.799)" fill="#feca2e"/>
  </g>
</svg>
