<svg id="Grupo_149630" data-name="Grupo 149630" xmlns="http://www.w3.org/2000/svg" xmlns:xlink="http://www.w3.org/1999/xlink" width="110.164" height="106.419" viewBox="0 0 110.164 106.419">
  <defs>
    <clipPath id="clip-path">
      <rect id="Rectángulo_90495" data-name="Rectángulo 90495" width="110.164" height="106.419" fill="#fc4b52"/>
    </clipPath>
  </defs>
  <g id="Grupo_149620" data-name="Grupo 149620" clip-path="url(#clip-path)">
    <path id="Trazado_262419" data-name="Trazado 262419" d="M54.6,106.419h-.43c-.137-.143-.319-.1-.487-.107h-.394c-.21.025-.442-.069-.624.107h-1.29a2.273,2.273,0,0,0-1.5,0H48.794c-.237-.2-.522-.07-.782-.107-.174.013-.365-.044-.508.107H46.43a55.386,55.386,0,0,1-7.705-1.1A50.876,50.876,0,0,1,17.39,94.674,48.446,48.446,0,0,1,.715,67.213C.326,65.422.3,63.6,0,61.8V60.765c.141-.124.1-.29.111-.444v-.358c-.008-.154.03-.32-.111-.443v-2.7c.225-.335.06-.708.111-1.06C.055,55.356.233,54.93,0,54.539V53.086a46.621,46.621,0,0,1,1.376-8.145A48.042,48.042,0,0,1,12.04,25.38a50.481,50.481,0,0,1,16.075-12.1,52.955,52.955,0,0,1,45.308.053,39.549,39.549,0,0,1,6.463,3.7c.352.253.733.733,1.214.391.449-.319.166-.834.072-1.261-.371-1.691-.7-3.391-1.11-5.075a2.691,2.691,0,0,1,.773-2.677c2.147-2.133,4.292-4.27,6.543-6.3,3.656-3.3,10.586-2.8,13.258,1.971a8.266,8.266,0,0,1,1.01,3.043,1.155,1.155,0,0,0,1.195,1.16,8.467,8.467,0,0,1,6.218,3.823,8.394,8.394,0,0,1,1.077,5.392,7.52,7.52,0,0,1-2.523,5.011c-1.895,1.887-3.849,3.718-5.765,5.586a3.374,3.374,0,0,1-3.41.977c-1.7-.432-3.437-.685-5.148-1.066-.376-.084-.825-.257-1.1.1-.338.438.094.771.326,1.094a47.2,47.2,0,0,1,8.953,23.279A46.9,46.9,0,0,1,90.1,88.726a50.494,50.494,0,0,1-30.612,17.257c-1.615.285-3.266.192-4.886.436" transform="translate(0 -0.001)" fill="#cba124"/>
    <path id="Trazado_262420" data-name="Trazado 262420" d="M173.585,383.068a1.277,1.277,0,0,1,1.5,0Z" transform="translate(-123.716 -276.65)" fill="#0e0e0e"/>
    <path id="Trazado_262421" data-name="Trazado 262421" d="M0,196.646c.433.356.132.819.191,1.229q-.081.161-.191.016Z" transform="translate(0 -142.107)" fill="#414141"/>
    <path id="Trazado_262422" data-name="Trazado 262422" d="M0,201.093q.1,0,.191-.016c-.007.361.154.75-.191,1.054Z" transform="translate(0 -145.309)" fill="#242424"/>
    <path id="Trazado_262423" data-name="Trazado 262423" d="M166.643,382.973c.306-.006.639-.132.873.182h-.86q-.1-.054-.073-.117c.019-.043.038-.065.059-.065" transform="translate(-118.722 -276.736)" fill="#4c4c4c"/>
    <path id="Trazado_262424" data-name="Trazado 262424" d="M183.312,383.182c.159-.272.415-.2.658-.174q.09.065.054.121c-.023.035-.045.054-.067.054Z" transform="translate(-130.649 -276.763)" fill="#474747"/>
    <path id="Trazado_262425" data-name="Trazado 262425" d="M0,214.6c.2.088.211.25.179.428-.066.081-.126.072-.179-.013Z" transform="translate(0 -155.085)" fill="#434343"/>
    <path id="Trazado_262426" data-name="Trazado 262426" d="M0,216.1c.06.006.119.01.179.013q0,.207,0,.414-.1.121-.182-.012Z" transform="translate(0 -156.166)" fill="#5f5f5f"/>
    <path id="Trazado_262427" data-name="Trazado 262427" d="M0,217.6l.182.012c.025.171.085.356-.182.4Z" transform="translate(0 -157.247)" fill="#848484"/>
    <path id="Trazado_262428" data-name="Trazado 262428" d="M165.77,383.014a.769.769,0,0,1,.014.182h-.43c.053-.243.241-.2.416-.182" transform="translate(-117.85 -276.777)" fill="#787878"/>
    <path id="Trazado_262429" data-name="Trazado 262429" d="M185.556,383.25c0-.058.006-.117.013-.174H186c.061.043.08.083.056.121s-.045.055-.068.055Z" transform="translate(-132.248 -276.831)" fill="#666"/>
    <path id="Trazado_262430" data-name="Trazado 262430" d="M187.053,383.187a1.2,1.2,0,0,1,.011-.176c.177-.025.37-.085.419.176Z" transform="translate(-133.315 -276.768)" fill="#8a8a8a"/>
    <path id="Trazado_262431" data-name="Trazado 262431" d="M42.632,118.307c-.609,1.59-.288,2.394,1.286,3.215,21.431,11.179,48.409-.8,53.542-23.83a33.929,33.929,0,0,0-4.767-26.559.934.934,0,0,1,.179-1.461q2.786-2.59,5.473-5.278c.5-.5.73-.525,1.162.085A43.53,43.53,0,0,1,107.38,84.3a42.3,42.3,0,0,1-8.414,31.933,45.322,45.322,0,0,1-31.817,18.241c-23.164,2.848-44.866-11.4-50.727-33.207S22.4,56.7,44.221,48.463c15.1-5.7,29.6-4.05,43.215,4.492,1.172.735,1.153.762.186,1.7-1.748,1.687-3.515,3.356-5.23,5.073-.473.474-.784.464-1.346.129-21.378-12.747-48.881-2.289-55.4,21.122a33.69,33.69,0,0,0,3.182,26.005c.789,1.446,1.651,1.731,3.268,1.152a25.667,25.667,0,0,1,3.218,4.13,1.78,1.78,0,0,1-.249.875,1.681,1.681,0,0,0,.4,1.981,1.827,1.827,0,0,0,1.972.335,2.152,2.152,0,0,1,.907-.251,25.091,25.091,0,0,1,4.293,3.1" transform="translate(-10.64 -32.606)" fill="#feca2e"/>
    <path id="Trazado_262432" data-name="Trazado 262432" d="M76.792,152.906a31.536,31.536,0,0,1-4.3-3c-.184-.324.052-.6.115-.893.346-1.613-.648-2.57-2.321-2.232-.3.061-.59.29-.924.1a29.63,29.63,0,0,1-3.106-4.156c1.14-1.134,1.23-1.785.448-3.233A30.815,30.815,0,0,1,79.668,97.133c10.682-5.674,21.546-5.422,32.266.219.761.4.843.65.178,1.262-1.917,1.767-3.778,3.59-5.624,5.425a1.031,1.031,0,0,1-1.371.222c-14-6.122-30.145,2.3-32.547,16.957-2.044,12.469,7.28,24.275,20.272,25.669,14.331,1.538,26.517-9.465,25.867-23.388a20.185,20.185,0,0,0-2.063-8.091.945.945,0,0,1,.225-1.329q2.895-2.706,5.7-5.5c.55-.549.763-.544,1.174.141a29.734,29.734,0,0,1,4.39,17.663,30.039,30.039,0,0,1-13.787,23.951c-10.742,7.178-22.172,7.755-33.923,2.274-1.851-.863-2.4-.868-3.632.3" transform="translate(-44.8 -67.205)" fill="#feca2e"/>
    <path id="Trazado_262433" data-name="Trazado 262433" d="M147.113,152.7a17.778,17.778,0,0,1-6.543,21.737,19.379,19.379,0,0,1-24.055-1.757,17.75,17.75,0,0,1-2.617-23.231,19.256,19.256,0,0,1,22.907-6.766c-.9.832-1.69,1.663-2.585,2.374a3.788,3.788,0,0,0-1.562,3.637,14.075,14.075,0,0,1-.057,2.058c-.656-.1-1.311-.215-1.97-.291a9.445,9.445,0,0,0-10.383,7.989c-.69,4.53,2.757,9.153,7.479,10.029,6.9,1.279,12.672-4.524,11.09-11.152-.047-.2-.093-.4-.163-.7,1.088,0,2.12-.022,3.151.007a2.828,2.828,0,0,0,2.2-.879c1.011-1.019,2.046-2.015,3.108-3.056" transform="translate(-78.917 -102.103)" fill="#feca2e"/>
    <path id="Trazado_262434" data-name="Trazado 262434" d="M248.718,80.844c-.08,2.689,1.309,3.982,4.008,3.925-.046.5-.354.65-.562.851q-7.356,7.117-14.712,14.234c-.494.481-.776.619-1.317.045-1.035-1.1-2.157-2.118-3.25-3.163-.271-.259-.477-.44-.084-.816q7.811-7.481,15.592-14.989a1.7,1.7,0,0,1,.325-.086" transform="translate(-165.765 -58.422)" fill="#feca2e"/>
    <path id="Trazado_262435" data-name="Trazado 262435" d="M312.24,55.612c3.234-3.117,6.279-6.09,9.37-9.016a3.965,3.965,0,0,1,5.505-.019,3.648,3.648,0,0,1,.084,5.316c-1.751,1.778-3.583,3.482-5.375,5.222a.816.816,0,0,1-.836.286c-2.854-.6-5.715-1.173-8.749-1.789" transform="translate(-222.537 -32.863)" fill="#feca2e"/>
    <path id="Trazado_262436" data-name="Trazado 262436" d="M297,31.057c-.652-2.98-1.254-5.768-1.88-8.552-.077-.344.1-.514.307-.709,1.825-1.757,3.615-3.55,5.487-5.259a3.94,3.94,0,0,1,5.345.049,3.667,3.667,0,0,1,.367,5.077,10.138,10.138,0,0,1-.8.833c-2.9,2.812-5.793,5.621-8.823,8.56" transform="translate(-210.321 -11.213)" fill="#feca2e"/>
    <path id="Trazado_262437" data-name="Trazado 262437" d="M165.6,189.657c-.846.805-1.592,1.488-2.306,2.2a2.055,2.055,0,0,0-.2,3.117,2.232,2.232,0,0,0,3.23-.181c.739-.689,1.442-1.412,2.2-2.162a4.78,4.78,0,0,1-1.882,5.817,5.268,5.268,0,0,1-6.338-.437,4.81,4.81,0,0,1-1.08-6.042c1.182-2.116,3.534-3.026,6.366-2.312" transform="translate(-113.044 -136.883)" fill="#feca2e"/>
    <path id="Trazado_262438" data-name="Trazado 262438" d="M204.4,157.113c-2.43,0-2.322-.007-2.469-2.126a3.889,3.889,0,0,1,1.555-3.574c1.272-1.053,2.407-2.262,3.576-3.427.347-.346.563-.393.935-.018,1.113,1.121,2.256,2.215,3.41,3.3.34.319.448.524.045.9-1.615,1.515-3.2,3.063-4.785,4.605-.735.713-1.653.113-2.267.341" transform="translate(-143.91 -106.741)" fill="#feca2e"/>
    <path id="Trazado_262439" data-name="Trazado 262439" d="M84.033,285.984c1.324-.707,2.318-.672,3.092.109.736.742.748,1.664.038,2.912-1.811,1.021-3.534.408-3.71-1.308a2.718,2.718,0,0,1,.58-1.713" transform="translate(-59.471 -206.304)" fill="#cba124"/>
  </g>
</svg>
