<svg id="Grupo_149641" data-name="Grupo 149641" xmlns="http://www.w3.org/2000/svg" xmlns:xlink="http://www.w3.org/1999/xlink" width="110.164" height="109.948" viewBox="0 0 110.164 109.948">
  <defs>
    <clipPath id="clip-path">
      <rect id="Rectángulo_90496" data-name="Rectángulo 90496" width="110.164" height="109.948" fill="none"/>
    </clipPath>
  </defs>
  <g id="Grupo_149622" data-name="Grupo 149622" clip-path="url(#clip-path)">
    <path id="Trazado_262440" data-name="Trazado 262440" d="M19.216,91.553a13.871,13.871,0,0,1-4.257-2.519,12.333,12.333,0,0,1-4.27-9.38q-.056-9.305.007-18.611c0-.855-.129-1-1.013-.818A5.234,5.234,0,0,1,3.6,55.285c-.078-2.546-.072-5.1,0-7.643a5.207,5.207,0,0,1,2.936-4.5,16.009,16.009,0,1,1,20.6-24.419A16.1,16.1,0,0,1,25.5,43.134c2.159,1.314,3.3,3.187,2.831,5.73a5.081,5.081,0,0,1-4.271,4.245c-.491.105-.757.138-.517.792,1.3,3.56,2.544,7.142,3.811,10.715a2.981,2.981,0,0,0,.255.431A38.1,38.1,0,0,1,35.2,57.884,36.309,36.309,0,0,1,49.22,51.859c.748-.146,1.816-2.293,1.422-2.915-.118-.187-.424-.263-.652-.371a12.3,12.3,0,0,1-7.039-8.708c-.142-.612-.306-.8-.951-.866a7.04,7.04,0,0,1-5.6-10.347,1.844,1.844,0,0,0,.121-1.468c-1.6-5.547-1.365-10.978,1.46-16.085A20.2,20.2,0,0,1,56.062.076,36.145,36.145,0,0,1,65.887.64a20.736,20.736,0,0,1,15.292,24.8,11.966,11.966,0,0,1-.352,1.392,2.643,2.643,0,0,0,.216,2.194A7.033,7.033,0,0,1,75.291,39c-.608.066-.83.187-.979.835a12.122,12.122,0,0,1-7.126,8.747c-.55.248-.634.522-.546,1.084a2.687,2.687,0,0,0,2.421,2.516A29.592,29.592,0,0,1,85.977,63.2a1.551,1.551,0,0,0,1.362.683,23.034,23.034,0,0,1,4.547,45.56,20.923,20.923,0,0,1-4.511.506q-40.07,0-80.139,0a7.077,7.077,0,0,1-2.321-13.81,6.759,6.759,0,0,1,6.036.807.811.811,0,0,0,1.133.009c2.227-1.709,4.487-3.375,6.734-5.056.088-.066.167-.143.4-.341" transform="translate(0 0)" fill="#cba124"/>
    <path id="Trazado_262441" data-name="Trazado 262441" d="M300.094,39.33c-3.847,0-7.7-.018-11.542.017-.679.006-.927-.149-.849-.847.1-.87-.358-2.02.173-2.552s1.681-.155,2.557-.156c7.066-.012,14.132.006,21.2-.026.773,0,.981.174.97.959-.038,2.6,0,2.605-2.629,2.605Z" transform="translate(-202.442 -25.102)" fill="#cba124"/>
    <path id="Trazado_262442" data-name="Trazado 262442" d="M300.24,63.518c-3.81,0-7.621-.017-11.431.015-.694.006-.932-.134-.927-.887.02-2.673-.014-2.673,2.673-2.673,7.066,0,14.132.014,21.2-.019.8,0,1.06.139,1.042,1-.057,2.561-.012,2.562-2.565,2.562Z" transform="translate(-202.631 -42.2)" fill="#cba124"/>
    <path id="Trazado_262443" data-name="Trazado 262443" d="M330.938,87.461c-2.071,0-4.144-.034-6.214.019-.705.018-.844-.192-.844-.86,0-2.7-.025-2.7,2.637-2.7,3.588,0,7.177.022,10.764-.019.7-.008.843.192.843.859,0,2.7.025,2.7-2.637,2.7Z" transform="translate(-227.969 -59.053)" fill="#cba124"/>
    <path id="Trazado_262444" data-name="Trazado 262444" d="M291.381,87.474c-.85,0-1.707-.062-2.55.017-.821.077-.95-.246-.941-.984.033-2.578,0-2.578,2.542-2.578,1.257,0,2.515.027,3.772-.012.584-.018.821.084.829.757.037,2.8.064,2.8-2.764,2.8Z" transform="translate(-202.636 -59.065)" fill="#cba124"/>
    <path id="Trazado_262445" data-name="Trazado 262445" d="M349.808,111.45c-1.878,0-1.878,0-1.878-1.893,0-1.653,0-1.653,1.675-1.653,1.878,0,1.878,0,1.878,1.893,0,1.653,0,1.653-1.675,1.653" transform="translate(-244.896 -75.951)" fill="#cba124"/>
    <path id="Trazado_262446" data-name="Trazado 262446" d="M325.81,107.905c1.682,0,1.682,0,1.682,1.645,0,1.9,0,1.9-1.87,1.9-1.682,0-1.682,0-1.682-1.645,0-1.9,0-1.9,1.87-1.9" transform="translate(-228.011 -75.951)" fill="#cba124"/>
    <path id="Trazado_262447" data-name="Trazado 262447" d="M301.771,107.905c1.731,0,1.731,0,1.731,1.707,0,1.838,0,1.838-1.822,1.838-1.73,0-1.73,0-1.73-1.708,0-1.838,0-1.838,1.822-1.838" transform="translate(-211.124 -75.951)" fill="#cba124"/>
    <path id="Trazado_262448" data-name="Trazado 262448" d="M182.379,58.526c-1.545.071-1.545.071-1.545,1.593,0,4.649.007,9.3,0,13.947-.011,5.527-3.795,9.326-9.337,9.3-2.767-.015-5.556.293-8.3-.183a8.693,8.693,0,0,1-7.209-8.469c-.052-4.8-.036-9.593-.006-14.39a5.219,5.219,0,0,1,2.739-4.628c.552-.336.878-.283,1.226.307a13.026,13.026,0,0,0,3.355,3.644c.414.32.659.318.943-.158.434-.727,1.2-1.369,1.335-2.134.163-.893-1.052-1.107-1.534-1.753a16.071,16.071,0,0,1-1.527-2.164.661.661,0,0,1,.284-.18c.826-.158,1.666-.012,2.494-.114a1.01,1.01,0,0,1,.322.01c.342.141.455.46.582.765a13.739,13.739,0,0,0,3.568,4.849c.953.864,1.156.842,1.861-.192.894-1.311.89-1.307-.274-2.372a9.915,9.915,0,0,1-1.566-1.989.8.8,0,0,1-.046-1.021,5.02,5.02,0,0,1,2.61-.214c.554.086.777.5.967.961a13.592,13.592,0,0,0,3.594,4.859c.9.81,1.129.779,1.8-.2.147-.213.274-.44.433-.644a.837.837,0,0,0-.241-1.389,7.606,7.606,0,0,1-1.831-2.06,1.2,1.2,0,0,1-.349-1.114c.166-.285.432-.247.68-.181a7.013,7.013,0,0,1,5.043,4.6.625.625,0,0,1-.07.718" transform="translate(-109.77 -37.24)" fill="#feca2e"/>
    <path id="Trazado_262449" data-name="Trazado 262449" d="M100.455,210.545c-.763-2.14-1.471-4.152-2.2-6.157a1.106,1.106,0,0,1,.272-1.113,33.35,33.35,0,0,1,15.418-11.838c.642-.247.876-.1,1.11.517.839,2.2,1.762,4.375,2.6,6.579.244.643.459.8,1.077.393,1.047-.691,2.158-1.284,3.215-1.959.511-.327.86-.419.986.318a.353.353,0,0,0,.049.1,7.255,7.255,0,0,1,.379,5.914c-1.677,5.573-3.153,11.207-4.632,16.838-.258.98-.577.912-1.292.536-1.665-.876-3.355-1.708-5.048-2.53A.965.965,0,0,1,111.7,217a6.779,6.779,0,0,0-2.9-6.435,1.238,1.238,0,0,1-.6-1.173c.038-1.032-.016-2.068.022-3.1.02-.538-.171-.663-.692-.686-2.82-.124-2.844-.139-2.853,2.71,0,.66-.161.862-.838.911a6.947,6.947,0,0,0-3.382,1.32" transform="translate(-69.114 -134.667)" fill="#feca2e"/>
    <path id="Trazado_262450" data-name="Trazado 262450" d="M165.55,29.3c-.5-2.75-3.6-5.2-5.6-5.054-.538-.089-.654-.558-.818-.953a9,9,0,0,1-.745-3.221c-.021-.824-.383-1.132-1.166-1.066a4.72,4.72,0,0,1-.776,0c-.79-.065-1.057.327-1.007,1.065a21.6,21.6,0,0,0,.4,2.625c.082.425.289.855,0,1.282-.993.2-2.044-.261-3.008.267-.521-.112-.644-.572-.807-.969a9.386,9.386,0,0,1-.741-3.216c-.027-.73-.292-1.041-1.058-1.064-1.918-.056-2.037.1-1.806,2.066.113.963.687,1.889.291,2.9a.094.094,0,0,1-.038.128,18.4,18.4,0,0,0-2.82.15l-.089.027-.072-.06a9.62,9.62,0,0,1-1.209-4.754c.006-.558-.137-.834-.74-.762a7.569,7.569,0,0,1-.887.006c-2.187,0-2.266.015-1.838,2.2a2.138,2.138,0,0,1-1.221,2.787,8.066,8.066,0,0,0-4.174,7.663c.029,1.124-.231,1.572-1.391,1.729-1.688.228-1.675.327-1.942-1.305-1.519-9.274,4.188-17.994,13.448-19.7,5.822-1.073,11.791-1.224,17.208,2.1a17.229,17.229,0,0,1,7.713,18.564c-.127.512-.256.784-.877.551-.7-.265-1.755-.188-2.1-.663-.374-.509-.166-1.493-.1-2.26.069-.817-.176-1.167-1.028-1.038a5.524,5.524,0,0,1-.995-.023" transform="translate(-92.941 -8.01)" fill="#feca2e"/>
    <path id="Trazado_262451" data-name="Trazado 262451" d="M315.818,255.66c-5.165-2.973-10.28-5.924-15.4-8.856a.961.961,0,0,1-.511-.983c.012-5.649.021-11.3-.009-16.948,0-.725.28-.713.843-.663,7.042.629,13.812,6.314,16.045,13.515a19.165,19.165,0,0,1-.475,12.9c-.131.34-.31.66-.488,1.033" transform="translate(-211.085 -160.616)" fill="#feca2e"/>
    <path id="Trazado_262452" data-name="Trazado 262452" d="M256.673,318.3a19.606,19.606,0,0,1-15.251-7.431c-.588-.716-.443-1.006.3-1.43q7.119-4.04,14.189-8.167a1.384,1.384,0,0,1,1.6-.013q7.12,4.15,14.283,8.225c.779.441.779.718.248,1.363a19.673,19.673,0,0,1-15.375,7.453" transform="translate(-169.674 -211.872)" fill="#feca2e"/>
    <path id="Trazado_262453" data-name="Trazado 262453" d="M231.3,254.737a7.443,7.443,0,0,0-2.871-4.165c-.329-.226-.3-.559-.351-.881-1.32-8.334,4.076-17.26,12.325-20.383a19.928,19.928,0,0,1,4.6-1.159c.574-.072.677.086.675.616q-.024,8.522-.007,17.044a.864.864,0,0,1-.433.908c-4.634,2.649-9.256,5.321-13.94,8.02" transform="translate(-160.398 -160.575)" fill="#feca2e"/>
    <path id="Trazado_262454" data-name="Trazado 262454" d="M48.083,203.086c4.258.44,6.41-1.05,7.1-5.018.135.283.247.471.319.674q3.4,9.628,6.8,19.256a2.113,2.113,0,0,1,.147,1.384,6.014,6.014,0,0,0,.107,3.7.762.762,0,0,1-.311,1.02q-2.46,1.793-4.876,3.646a1.482,1.482,0,0,1-1.131.295,9.056,9.056,0,0,1-8.193-8.6c-.093-5.346-.027-10.695-.027-16.042a1.586,1.586,0,0,1,.065-.318" transform="translate(-33.782 -139.414)" fill="#feca2e"/>
    <path id="Trazado_262455" data-name="Trazado 262455" d="M36.934,72.432a12.429,12.429,0,1,1-12.4-12.4,12.457,12.457,0,0,1,12.4,12.4" transform="translate(-8.5 -42.252)" fill="#feca2e"/>
    <path id="Trazado_262456" data-name="Trazado 262456" d="M230.556,199.218a23.679,23.679,0,0,0-16.7,13.828c-1.134-4.163-2.228-8.08-3.253-12.016-.267-1.026.484-1.886.793-2.81.476-1.423.517-1.41,1.835-.62.886.53,1.787,1.038,2.651,1.6.541.353.774.285,1.014-.347.835-2.2,1.734-4.378,2.612-6.563.148-.368.228-.784.835-.524a27.633,27.633,0,0,1,10.212,7.45" transform="translate(-148.198 -134.923)" fill="#feca2e"/>
    <path id="Trazado_262457" data-name="Trazado 262457" d="M189.159,247.058a2.528,2.528,0,0,0,0,.416c.2,1-.08,1.472-1.227,1.543a5.7,5.7,0,0,0-3.6,1.791.809.809,0,0,1-1.12.22c-1.6-.84-3.219-1.639-4.847-2.422-.492-.237-.59-.49-.441-1.028,1.774-6.422,3.516-12.854,5.278-19.279.086-.313.064-.739.635-.726s.521.455.606.761c1.544,5.608,3.064,11.222,4.611,16.829a9.112,9.112,0,0,1,.1,1.895" transform="translate(-125.195 -160.181)" fill="#feca2e"/>
    <path id="Trazado_262458" data-name="Trazado 262458" d="M108.117,296.4a6.937,6.937,0,0,0,6.848,0,1.58,1.58,0,0,1,.131,1.007c.008,5.535-.012,11.07.025,16.6.005.8-.145,1.076-1.009,1.039-1.808-.078-3.623-.041-5.434-.013-.518.008-.694-.123-.693-.669.021-5.9.016-11.808.022-17.712,0-.061.049-.121.11-.261" transform="translate(-76.008 -208.624)" fill="#feca2e"/>
    <path id="Trazado_262459" data-name="Trazado 262459" d="M143.981,294.17c2.29,1.144,4.388,2.214,6.508,3.236a.955.955,0,0,1,.606,1.023c-.017,4.757-.023,9.515.005,14.272,0,.654-.215.785-.815.774-1.847-.036-3.695-.015-5.542-.011-.41,0-.777.078-.775-.578.022-6.187.013-12.375.013-18.715" transform="translate(-101.334 -207.057)" fill="#feca2e"/>
    <path id="Trazado_262460" data-name="Trazado 262460" d="M79.116,300.969c0,5.68-.006,11.138.01,16.6,0,.513-.116.7-.668.694-1.922-.032-3.845-.029-5.768,0-.521.007-.694-.129-.691-.672q.035-5.369,0-10.738a1.022,1.022,0,0,1,.469-.918c2.16-1.6,4.309-3.214,6.645-4.961" transform="translate(-50.678 -211.842)" fill="#feca2e"/>
    <path id="Trazado_262461" data-name="Trazado 262461" d="M179.971,312.189c.51.248.829.433,1.169.563,1.6.611,2.7,1.3,2.511,3.478-.178,2.04,1.134,3.763,2.848,4.977a1.207,1.207,0,0,1,.587,1.173c-.037,1.031-.039,2.066,0,3.1.02.535-.153.687-.683.679-1.921-.029-3.843-.018-5.765-.006-.413,0-.681-.014-.679-.566.02-4.418.011-8.836.011-13.395" transform="translate(-126.668 -219.74)" fill="#feca2e"/>
    <path id="Trazado_262462" data-name="Trazado 262462" d="M51.564,162.2c0,1.806.009,3.612,0,5.418-.008,1.316-.666,2.1-1.741,2.122-1.112.022-1.8-.79-1.806-2.167-.008-3.723.016-7.446-.019-11.168-.007-.734.192-.956.93-.874.832.092,1.97-.275,2.446.15.575.512.161,1.665.183,2.539.034,1.326.009,2.653.009,3.98" transform="translate(-33.782 -109.429)" fill="#feca2e"/>
    <path id="Trazado_262463" data-name="Trazado 262463" d="M19.17,338.97a3.549,3.549,0,1,1-3.472-3.591,3.575,3.575,0,0,1,3.472,3.591" transform="translate(-8.498 -236.062)" fill="#feca2e"/>
    <path id="Trazado_262464" data-name="Trazado 262464" d="M211.095,315.025a3.549,3.549,0,1,1-3.474-3.589,3.575,3.575,0,0,1,3.474,3.589" transform="translate(-143.587 -219.209)" fill="#feca2e"/>
    <path id="Trazado_262465" data-name="Trazado 262465" d="M115.135,267.046a3.549,3.549,0,1,1-3.566-3.5,3.575,3.575,0,0,1,3.566,3.5" transform="translate(-76.044 -185.503)" fill="#feca2e"/>
    <path id="Trazado_262466" data-name="Trazado 262466" d="M186.4,167.691c1.147,0,2.3.064,3.438-.022.774-.059,1,.276,1.148.931.392,1.68.419,1.681-1.111,2.433-1.188.583-2.382,1.583-3.579,1.593-1.152.009-2.312-1.014-3.467-1.588-1.487-.739-1.718-1.566-.941-3.073.2-.392.478-.268.74-.271,1.257-.013,2.515-.006,3.772-.006Z" transform="translate(-127.72 -118.011)" fill="#feca2e"/>
    <path id="Trazado_262467" data-name="Trazado 262467" d="M24.044,161.12c0-1.141-.022-2.282.006-3.422a1.764,1.764,0,0,1,1.744-1.885,1.745,1.745,0,0,1,1.789,1.838q.046,3.476,0,6.953a1.746,1.746,0,0,1-1.8,1.831,1.771,1.771,0,0,1-1.736-1.894c-.027-1.14-.006-2.281-.006-3.422" transform="translate(-16.918 -109.672)" fill="#feca2e"/>
    <path id="Trazado_262468" data-name="Trazado 262468" d="M226.6,346.752c-3.615,0-6.9-.008-10.178.009-.467,0-.7-.109-.629-.611a2.285,2.285,0,0,0,0-.332,6.185,6.185,0,0,1,.066-2.3c.318-.726,1.36-.339,2.045-.631a8.123,8.123,0,0,0,2.221-1.209c.372-.322.576-.272.875.1a23.585,23.585,0,0,0,5.6,4.972" transform="translate(-151.833 -240.347)" fill="#feca2e"/>
    <path id="Trazado_262469" data-name="Trazado 262469" d="M44.854,337.422a7.094,7.094,0,0,0,.537-5.846c-.155-.415.12-.593.4-.8,1.127-.832,2.246-1.673,3.443-2.567a3.266,3.266,0,0,1,.117,1.418c.011,2.288-.034,4.577.026,6.863.021.8-.232.99-.987.946-1.133-.066-2.273-.017-3.533-.017" transform="translate(-31.571 -231.017)" fill="#feca2e"/>
    <path id="Trazado_262470" data-name="Trazado 262470" d="M251.941,99.518c0-.994.027-1.989-.011-2.981-.021-.548.218-.6.662-.521a3.563,3.563,0,0,1,0,7c-.444.076-.684.031-.663-.518.038-.992.011-1.987.011-2.981" transform="translate(-177.324 -67.563)" fill="#feca2e"/>
    <path id="Trazado_262471" data-name="Trazado 262471" d="M135.576,99.567c0,.957-.03,1.916.011,2.871.025.584-.2.673-.712.569a3.561,3.561,0,0,1-.013-6.975c.492-.1.751-.055.725.553-.043.992-.012,1.988-.012,2.982" transform="translate(-92.929 -67.565)" fill="#feca2e"/>
    <path id="Trazado_262472" data-name="Trazado 262472" d="M210.486,187.993l3.2-1.607a1.5,1.5,0,0,1,.845-.155c1.9.162,1.943.2,1.223,1.922-.321.77-.389,2-1.051,2.171-.587.151-1.437-.685-2.161-1.1-.634-.364-1.255-.75-2.054-1.23" transform="translate(-148.154 -131.076)" fill="#feca2e"/>
    <path id="Trazado_262473" data-name="Trazado 262473" d="M171.742,187.883c-1.362.821-2.559,1.532-3.744,2.265-.4.246-.63.258-.8-.257-.2-.627-.523-1.216-.716-1.844-.16-.52-.829-1.249-.361-1.522a2.568,2.568,0,0,1,2.423-.243c1.02.5,2.034,1.02,3.193,1.6" transform="translate(-116.816 -130.97)" fill="#feca2e"/>
    <path id="Trazado_262474" data-name="Trazado 262474" d="M193.418,198.722c.538.318,1.04.617,1.544.911.8.465.112.964-.008,1.406-.2.74-.558,1.436-.785,2.171-.138.445-.388.536-.807.539s-.572-.181-.692-.541c-.245-.73-.563-1.435-.8-2.168-.127-.395-.606-.86-.248-1.2a10.22,10.22,0,0,1,1.794-1.12" transform="translate(-134.786 -139.874)" fill="#feca2e"/>
    <path id="Trazado_262475" data-name="Trazado 262475" d="M75.6,157.58a1.77,1.77,0,1,1-1.74-1.77,1.786,1.786,0,0,1,1.74,1.77" transform="translate(-50.72 -109.67)" fill="#feca2e"/>
    <path id="Trazado_262476" data-name="Trazado 262476" d="M186.648,41.173a22.387,22.387,0,0,1-.7-4.456c0-.609.149-.865.8-.821a7.824,7.824,0,0,1,2.41.086c.859.376.248,1.436.453,2.181a12.556,12.556,0,0,0,1.162,3.292,7.907,7.907,0,0,0,2.53,3.018c.733.5.674.9.182,1.462a6.083,6.083,0,0,0-.435.638c-1.041,1.561-1.025,1.542-2.5.264a16.045,16.045,0,0,1-3.9-5.664" transform="translate(-130.881 -25.225)" fill="#cba124"/>
    <path id="Trazado_262477" data-name="Trazado 262477" d="M210.666,41.188a20.129,20.129,0,0,1-.725-4.463c0-.6.136-.872.792-.829a7.836,7.836,0,0,1,2.415.086c.861.376.246,1.439.455,2.185a11.635,11.635,0,0,0,1.178,3.29,7.59,7.59,0,0,0,2.512,3.016c.725.5.678.892.185,1.46a6.967,6.967,0,0,0-.5.728c-.975,1.461-.963,1.448-2.345.259a15.4,15.4,0,0,1-3.972-5.731" transform="translate(-147.771 -25.224)" fill="#cba124"/>
    <path id="Trazado_262478" data-name="Trazado 262478" d="M178.667,54.186a5.649,5.649,0,0,1,2.82-.15,11.856,11.856,0,0,1-2.82.15" transform="translate(-125.758 -37.959)" fill="#efd3bb"/>
    <path id="Trazado_262479" data-name="Trazado 262479" d="M24.07,80.852a8.877,8.877,0,1,1,8.9,8.869,8.889,8.889,0,0,1-8.9-8.869" transform="translate(-16.942 -50.679)" fill="#cba124"/>
    <path id="Trazado_262480" data-name="Trazado 262480" d="M41.356,83.973a5.315,5.315,0,1,1-5.29,5.292,5.339,5.339,0,0,1,5.29-5.292" transform="translate(-25.386 -59.106)" fill="#feca2e"/>
  </g>
</svg>
