<svg xmlns="http://www.w3.org/2000/svg" xmlns:xlink="http://www.w3.org/1999/xlink" width="190" height="104" viewBox="0 0 190 104">
  <defs>
    <clipPath id="clip-path">
      <rect id="Rect치ngulo_90323" data-name="Rect치ngulo 90323" width="77.491" height="77.465" fill="none"/>
    </clipPath>
  </defs>
  <g id="Grupo_149025" data-name="Grupo 149025" transform="translate(-285.049 -411)">
    <rect id="Rect치ngulo_41122" data-name="Rect치ngulo 41122" width="190" height="104" transform="translate(285.049 411)" fill="none"/>
    <g id="Grupo_117447" data-name="Grupo 117447" transform="translate(-3337.23 1038.208)" opacity="0.3">
      <path id="Trazado_158283" data-name="Trazado 158283" d="M3677.784-530.075h0a16.354,16.354,0,0,0,23.129,0l67.216-67.214a16.357,16.357,0,0,0,0-23.129,16.355,16.355,0,0,0-23.129,0L3677.784-553.2A16.353,16.353,0,0,0,3677.784-530.075Z" transform="translate(14.296)" fill="#fc4b52"/>
      <path id="Trazado_158284" data-name="Trazado 158284" d="M3652.069-530.075h0a16.354,16.354,0,0,0,23.129,0l67.216-67.214a16.358,16.358,0,0,0,0-23.129,16.355,16.355,0,0,0-23.129,0L3652.069-553.2A16.354,16.354,0,0,0,3652.069-530.075Z" transform="translate(0)" fill="#feca2e"/>
    </g>
    <g id="Grupo_149098" data-name="Grupo 149098" transform="translate(341.049 424.231)">
      <g id="Grupo_149097" data-name="Grupo 149097" clip-path="url(#clip-path)">
        <path id="Trazado_249619" data-name="Trazado 249619" d="M62.6,23.1c.175-.643.321-1.3.53-1.928a7.463,7.463,0,0,1,7.355-5.083,7.269,7.269,0,0,1,6.757,5.2,6.446,6.446,0,0,1,.02,3.466Q71.842,45.22,66.422,65.689a4.572,4.572,0,0,1-1.247,2.116c-2.232,2.221-4.429,4.479-6.7,6.66a2.475,2.475,0,0,0-.978,2.351c.087.488-.085.649-.614.648q-22.76-.024-45.52-.014a3.725,3.725,0,0,1-3.1-1.524q-1.282-1.671-2.526-3.37a3.805,3.805,0,0,1-.716-2.341c.01-2.342-.024-4.685.021-7.026.012-.64-.192-.787-.775-.74a15.4,15.4,0,0,1-1.795.005A2.488,2.488,0,0,1,.035,60.008Q0,58.721.034,57.432a2.483,2.483,0,0,1,2.5-2.462c.65-.016,1.3-.034,1.951.007.461.029.543-.145.548-.569.02-1.94.033-1.94-1.9-1.94-2.238,0-3.109-.873-3.11-3.116,0-.547,0-1.093,0-1.639a2.523,2.523,0,0,1,2.7-2.739c.6,0,1.2-.03,1.8.009.432.028.5-.141.508-.528.041-1.979.052-1.979-1.936-1.98-2.183,0-3.071-.89-3.071-3.077q0-.664,0-1.327c0-2.187.893-3.091,3.054-3.091.494,0,.991-.025,1.483.008.392.027.457-.129.47-.487.071-2.02.081-2.019-1.9-2.02C.9,32.48.029,31.608.028,29.365c0-.364.03-.732,0-1.092-.21-2.151,1-3.509,3.332-3.293.387.036.783-.025,1.17.013.429.042.5-.135.51-.525.041-1.981.052-1.98-1.935-1.981-2.184,0-3.072-.89-3.072-3.075,0-.572,0-1.145,0-1.718a2.523,2.523,0,0,1,2.739-2.7c.573,0,1.147-.031,1.717.009.456.032.556-.135.551-.565-.023-1.8-.013-3.591-.009-5.387A3.714,3.714,0,0,1,9.056,5.02c.828.018,1-.219.988-1.01A3.71,3.71,0,0,1,14.018,0Q36.271,0,58.523,0a3.738,3.738,0,0,1,3.971,3.953q.011,9.134,0,18.268v.857l.1.02" transform="translate(0 0)"/>
        <path id="Trazado_249620" data-name="Trazado 249620" d="M82.253,98.387h-.886q-22.291,0-44.582.017c-.707,0-.9-.169-.879-.879.052-2,.037-4.007.005-6.01-.008-.519.141-.667.645-.634a18.2,18.2,0,0,0,1.951,0,2.48,2.48,0,0,0,2.4-2.4c.032-.884.03-1.77,0-2.654A2.483,2.483,0,0,0,38.455,83.4c-.676-.021-1.355-.032-2.029,0-.427.023-.5-.136-.512-.528-.044-1.98-.055-1.98,1.938-1.98,2.18,0,3.069-.893,3.069-3.08,0-.6.007-1.2,0-1.8A2.5,2.5,0,0,0,38.33,73.4c-.6-.01-1.2-.027-1.8.006-.443.025-.626-.053-.627-.574,0-1.932-.027-1.932,1.914-1.933,2.227,0,3.1-.88,3.1-3.128,0-.625.013-1.25,0-1.874a2.492,2.492,0,0,0-2.479-2.49c-.65-.019-1.3-.028-1.951,0-.423.021-.57-.083-.576-.544-.027-1.963-.044-1.963,1.88-1.963,2.248,0,3.13-.873,3.13-3.1,0-.651.017-1.3-.006-1.952a2.487,2.487,0,0,0-2.446-2.441c-.7-.023-1.406-.021-2.108,0-.335.01-.428-.088-.448-.433-.118-2.072-.129-2.072,1.925-2.072,2.189,0,3.082-.889,3.083-3.067,0-.65.015-1.3,0-1.952a2.491,2.491,0,0,0-2.5-2.473c-.676-.017-1.354-.025-2.03,0-.382.016-.479-.113-.476-.483.017-1.9,0-3.8.015-5.7a1.237,1.237,0,0,1,1.321-1.32c.182-.009.364,0,.546,0q22.369,0,44.738-.017c.7,0,.881.167.88.876q-.034,22.132-.011,44.264a23.241,23.241,0,0,1-.99,4.866c-.357,1.674-.8,3.331-1.242,4.986a4.98,4.98,0,0,0-.032,2.463c.38,1.643.731,3.293,1.111,5.021" transform="translate(-28.399 -28.429)" fill="#e5e8ec"/>
        <path id="Trazado_249621" data-name="Trazado 249621" d="M306.329,93.8a29.614,29.614,0,0,1-.987,4.092c-1.327,5.094-2.692,10.179-4.028,15.271-.137.52-.257.758-.909.567-2.513-.738-5.046-1.407-7.579-2.073-.532-.14-.746-.268-.58-.918,1.5-5.855,2.941-11.724,4.415-17.585a4.862,4.862,0,0,1,3.8-3.809,4.7,4.7,0,0,1,4.84,1.6,4.2,4.2,0,0,1,1.029,2.855" transform="translate(-231.33 -70.614)" fill="#feca2e"/>
        <path id="Trazado_249622" data-name="Trazado 249622" d="M105.012,52.581v-.934q0-18.15.017-36.3c0-.71-.176-.88-.881-.879q-21.509.033-43.018-.009c-.34,0-1,.458-1.09-.372-.134-1.268.236-1.958,1.092-2.086a4.259,4.259,0,0,1,.624-.015h44.034c1.332,0,1.722.387,1.722,1.71q0,14.4-.009,28.806a18.524,18.524,0,0,1-.908,4.171c-.464,1.966-.968,3.924-1.454,5.885l-.127.023" transform="translate(-47.512 -9.487)" fill="#efcfb3"/>
        <path id="Trazado_249623" data-name="Trazado 249623" d="M280.176,210.836c-.61,2.32-1.235,4.706-1.865,7.09-.923,3.488-1.865,6.97-2.763,10.465-.146.567-.338.652-.882.5-2.471-.706-4.953-1.369-7.434-2.038-.381-.1-.611-.169-.476-.7q2.242-8.832,4.416-17.681c.107-.432.257-.5.685-.381,2.622.741,5.254,1.449,7.884,2.163.279.076.607.086.435.587" transform="translate(-211.162 -164.702)" fill="#feca2e"/>
        <path id="Trazado_249624" data-name="Trazado 249624" d="M42.17,347.8h.909q21.935,0,43.871-.015c.667,0,.99.148,1.046.85a13.022,13.022,0,0,0,.352,1.664h-.966q-20.96,0-41.919.019a2.3,2.3,0,0,1-2.277-1.135A16.254,16.254,0,0,0,42.17,347.8" transform="translate(-33.386 -275.345)" fill="#efcfb3"/>
        <path id="Trazado_249625" data-name="Trazado 249625" d="M265.043,309.616l7.488,2.046-5.754,5.75-1.734-7.8" transform="translate(-209.837 -245.126)" fill="#a9b1bc"/>
        <path id="Trazado_249626" data-name="Trazado 249626" d="M15.735,86.421c-1.063,0-2.127-.018-3.19.009-.414.011-.512-.122-.524-.526-.056-1.982-.069-1.982,1.937-1.982,1.66,0,3.32.019,4.979-.012.486-.009.6.131.6.606.009,1.9.027,1.9-1.861,1.9H15.735" transform="translate(-9.505 -66.432)" fill="#fc4b52"/>
        <path id="Trazado_249627" data-name="Trazado 249627" d="M15.735,134.4c-1.063,0-2.127-.018-3.19.009-.409.01-.515-.115-.527-.523-.056-1.985-.07-1.985,1.935-1.985,1.66,0,3.32.019,4.979-.011.48-.009.6.123.607.6.009,1.907.027,1.906-1.859,1.906H15.735" transform="translate(-9.502 -104.419)" fill="#fc4b52"/>
        <path id="Trazado_249628" data-name="Trazado 249628" d="M15.734,182.386c-1.063,0-2.127-.016-3.19.008-.394.009-.524-.091-.537-.512-.061-1.995-.076-1.994,1.926-1.994,1.66,0,3.32.016,4.979-.01.463-.007.615.1.617.593.009,1.916.03,1.916-1.85,1.916H15.734" transform="translate(-9.492 -142.41)" fill="#fc4b52"/>
        <path id="Trazado_249629" data-name="Trazado 249629" d="M15.882,227.88c1.063,0,2.127.014,3.19-.007.369-.007.472.107.489.479.1,2.027.109,2.026-1.893,2.026-1.686,0-3.372-.014-5.057.01-.438.006-.561-.115-.569-.56-.034-1.949-.05-1.948,1.894-1.948h1.945" transform="translate(-9.528 -180.409)" fill="#fc4b52"/>
        <path id="Trazado_249630" data-name="Trazado 249630" d="M15.711,278.352c-1.089,0-2.179-.013-3.268.007-.362.007-.476-.095-.495-.474-.1-2.032-.114-2.031,1.888-2.031,1.686,0,3.372.013,5.057-.009.428-.005.566.1.574.554.037,1.954.053,1.953-1.889,1.953H15.711" transform="translate(-9.432 -218.388)" fill="#fc4b52"/>
        <path id="Trazado_249631" data-name="Trazado 249631" d="M156.041,68.678c0-2.706.014-5.412-.012-8.117,0-.508.128-.642.638-.64q8.119.029,16.237,0c.508,0,.642.127.64.638q-.029,8.117,0,16.235c0,.508-.127.642-.638.64q-8.118-.029-16.237,0c-.508,0-.645-.127-.64-.638.026-2.706.012-5.412.012-8.117" transform="translate(-123.529 -47.44)"/>
        <path id="Trazado_249632" data-name="Trazado 249632" d="M89.554,236.639c0,2.68-.017,5.36.014,8.039.006.546-.129.684-.679.681q-8.079-.034-16.159,0c-.546,0-.683-.128-.681-.678q.034-8.078,0-16.157c0-.545.128-.683.678-.681q8.079.034,16.159,0c.545,0,.688.127.682.678-.031,2.705-.014,5.412-.014,8.118" transform="translate(-57.042 -180.385)"/>
        <path id="Trazado_249633" data-name="Trazado 249633" d="M89.53,155.884c5.595,0,11.189.009,16.784-.014.576,0,.738.123.726.716-.036,1.8-.007,1.8-1.815,1.8q-16.2,0-32.4.016c-.642,0-.824-.136-.805-.8.05-1.718.015-1.719,1.738-1.719Z" transform="translate(-57.02 -123.404)"/>
        <path id="Trazado_249634" data-name="Trazado 249634" d="M89.5,182.364c-5.569,0-11.137-.01-16.706.014-.6,0-.781-.13-.766-.753.043-1.759.012-1.759,1.774-1.759q16.2,0,32.4-.016c.671,0,.872.133.847.834-.059,1.68-.018,1.681-1.7,1.681Z" transform="translate(-57.027 -142.388)"/>
        <path id="Trazado_249635" data-name="Trazado 249635" d="M89.462,206.354c-5.569,0-11.137-.01-16.706.015-.587,0-.73-.14-.719-.722.034-1.791.007-1.792,1.819-1.792q16.2,0,32.4-.016c.652,0,.818.153.8.8-.049,1.712-.015,1.713-1.743,1.713Z" transform="translate(-57.032 -161.381)"/>
        <path id="Trazado_249636" data-name="Trazado 249636" d="M79.492,86.388c-2.263,0-4.527-.011-6.79.009-.466,0-.671-.056-.667-.612.014-1.9-.013-1.9,1.871-1.9,4.11,0,8.221.022,12.33-.021.72-.007.841.207.823.858-.046,1.66-.015,1.661-1.714,1.661Z" transform="translate(-57.031 -66.399)"/>
        <path id="Trazado_249637" data-name="Trazado 249637" d="M79.516,110.4c-2.289,0-4.579-.016-6.868.013-.491.006-.6-.131-.6-.6,0-1.907-.019-1.907,1.857-1.907,4.162,0,8.325.012,12.487-.014.554,0,.683.143.676.684-.025,1.828,0,1.828-1.858,1.828h-5.7" transform="translate(-57.044 -85.418)"/>
        <path id="Trazado_249638" data-name="Trazado 249638" d="M79.628,131.9c2.263,0,4.527.016,6.789-.012.51-.006.643.13.64.639-.01,1.871.01,1.872-1.892,1.872-4.136,0-8.272-.013-12.408.015-.584,0-.732-.135-.721-.72.035-1.793.007-1.793,1.817-1.793h5.775" transform="translate(-57.031 -104.417)"/>
        <path id="Trazado_249639" data-name="Trazado 249639" d="M175.529,254.338c-2.289,0-4.579-.016-6.868.012-.511.006-.642-.132-.639-.64.01-1.871-.01-1.871,1.893-1.871,4.136,0,8.272.013,12.408-.015.585,0,.731.138.72.721-.035,1.792-.007,1.793-1.818,1.793Z" transform="translate(-133.024 -199.372)"/>
        <path id="Trazado_249640" data-name="Trazado 249640" d="M175.529,278.33c-2.289,0-4.579-.016-6.868.012-.506.006-.646-.123-.643-.637.011-1.874-.01-1.874,1.891-1.874,4.136,0,8.272.013,12.408-.015.579,0,.735.129.723.718-.036,1.795-.007,1.8-1.815,1.8Z" transform="translate(-133.022 -218.367)"/>
        <path id="Trazado_249641" data-name="Trazado 249641" d="M111.786,59.947c1.092,0,2.185.015,3.276-.008.372-.008.468.1.483.476.081,2.031.093,2.03-1.886,2.03-1.69,0-3.381-.015-5.07.01-.438.006-.557-.115-.563-.557-.025-1.952-.04-1.952,1.887-1.952h1.872" transform="translate(-85.521 -47.454)"/>
        <path id="Trazado_249642" data-name="Trazado 249642" d="M74.277,62.455h-.624c-2.074,0-2.065,0-1.879-2.113.027-.305.112-.393.408-.39q2.106.018,4.211,0c.31,0,.428.1.388.4a.442.442,0,0,0,0,.078c.1,2.024.1,2.024-1.88,2.024Z" transform="translate(-56.763 -47.464)"/>
        <path id="Trazado_249643" data-name="Trazado 249643" d="M168.037,78.1c0-1.846.019-3.693-.012-5.538-.009-.512.136-.644.643-.641q5.617.032,11.234,0c.512,0,.643.135.64.643q-.033,5.616,0,11.232c0,.512-.135.644-.643.64q-5.617-.032-11.234,0c-.512,0-.649-.135-.641-.643.03-1.9.012-3.8.012-5.694" transform="translate(-133.026 -56.937)" fill="#a7e446"/>
        <path id="Trazado_249644" data-name="Trazado 249644" d="M90.391,239.854c1.846,0,3.693.02,5.539-.012.515-.009.641.14.639.644q-.032,5.617,0,11.233c0,.514-.14.641-.644.638q-5.617-.032-11.235,0c-.514,0-.641-.139-.639-.644q.032-5.617,0-11.234c0-.514.139-.647.645-.639,1.9.03,3.8.012,5.7.012" transform="translate(-66.544 -189.884)" fill="#feca2e"/>
      </g>
    </g>
  </g>
</svg>
