<svg id="Grupo_149103" data-name="Grupo 149103" xmlns="http://www.w3.org/2000/svg" xmlns:xlink="http://www.w3.org/1999/xlink" width="73.54" height="70.631" viewBox="0 0 73.54 70.631">
  <defs>
    <clipPath id="clip-path">
      <rect id="Rectángulo_90327" data-name="Rectángulo 90327" width="73.54" height="70.631" fill="none"/>
    </clipPath>
  </defs>
  <g id="Grupo_149103-2" data-name="Grupo 149103" clip-path="url(#clip-path)">
    <path id="Trazado_249702" data-name="Trazado 249702" d="M20.707,62.626a1.153,1.153,0,0,1,.477,1.649c-.616,1.444-1.194,2.9-1.807,4.349a3,3,0,1,1-5.541-2.293q2.938-7.125,5.9-14.241c.071-.172.137-.346.236-.6h-.9c-4.95,0-9.9-.059-14.848.028C2.15,51.559.713,50.884,0,48.9V10.049c.471-1.975,1.524-2.8,3.615-2.8q14.36,0,28.72,0c1.345,0,1.344,0,1.346-1.345,0-.955-.016-1.911.006-2.866a3.083,3.083,0,0,1,6.165-.046c.033,1.122,0,2.245.013,3.368.011.782.1.882.864.885,2.489.01,4.978,0,7.467.011a.827.827,0,0,0,.937-.739,3.507,3.507,0,0,1,3.3-2.911,40.342,40.342,0,0,1,6.88.039,3.266,3.266,0,0,1,3.007,2.747.957.957,0,0,0,1.132.867c2.273-.024,4.547-.006,6.821-.01A3.431,3.431,0,0,1,73.007,8.6a3.777,3.777,0,0,1,.533,1.453V48.9a9.841,9.841,0,0,1-.683,1.3,3.2,3.2,0,0,1-2.513,1.289c-1.618.018-3.237,0-4.855.013a1.161,1.161,0,0,1-1.178-.743,1.173,1.173,0,0,1,1.2-1.623c.875-.064,1.755-.034,2.633-.016.621-.039,1.244,0,1.865-.034.775-.048,1.067-.34,1.134-1.1.027-.309.016-.62.016-.931q0-17.584.009-35.168c0-2.166-.4-2.066-2.3-2.019-.424.011-.6.22-.578.633.011.238,0,.477,0,.716q0,15.829,0,31.658a3.6,3.6,0,0,1-3.708,3.664q-8.831.05-17.663,0a3.68,3.68,0,0,1-3.674-3.108,8.263,8.263,0,0,1-.094-1.571q0-15.335,0-30.67c0-1.336,0-1.337-1.348-1.337H4.174c-1.642,0-1.788.147-1.788,1.821q0,17.807,0,35.615c0,.191,0,.382.007.573.046.881.347,1.182,1.238,1.23.335.018.67.008,1.005.008H58.916a6.4,6.4,0,0,1,1.36.061,1.09,1.09,0,0,1,.99,1.29c-.219.86-.459,1.044-1.4,1.045-2.057,0-4.115,0-6.2,0-.075.337.137.59.245.853q2.887,7,5.793,13.985a3,3,0,0,1-4.6,3.612,3.475,3.475,0,0,1-.993-1.46c-2.227-5.389-4.476-10.769-6.68-16.167a1.088,1.088,0,0,0-1.218-.841c-1.936.055-3.876.041-5.813.005-.565-.011-.715.141-.712.708q.034,7.629.011,15.258a2.925,2.925,0,0,1-5.81.662,8.587,8.587,0,0,1-.039-1c0-4.943-.011-9.885.011-14.828,0-.593-.086-.823-.764-.8-2.032.055-4.067.033-6.1.008a.653.653,0,0,0-.724.491c-.948,2.338-1.924,4.664-2.882,7-.261.637-.643,1.061-1.4.932a1.071,1.071,0,0,1-.861-1.54,18.629,18.629,0,0,1,.772-1.928q.833-1.982,1.636-3.976c.092-.228.414-.492.092-.753A1.234,1.234,0,0,0,22.327,52a6.514,6.514,0,0,0-.359.781c-1.9,4.668-3.858,9.312-5.77,13.975-.064.155-.123.311-.18.468-.139.379-.128.728.3.9a.652.652,0,0,0,.912-.443c.2-.462.411-.916.592-1.383.372-.958.786-1.9,1.173-2.849a1.642,1.642,0,0,1,.754-.922c.335-.169.678-.273.962.1" transform="translate(0 0)"/>
    <path id="Trazado_249703" data-name="Trazado 249703" d="M77.174,89.57l-2.4.03c-1.04.012-1.394.378-1.368,1.412a.692.692,0,0,0-.677-.289c-.789.009-1.578-.01-2.367-.019-.2-.879-.487-1.1-1.458-1.1q-6.247,0-12.494,0H13.035c-1.509,0-1.789-.28-1.789-1.794V51.543c0-1.419.308-1.732,1.717-1.732q19.388,0,38.775-.017c.639,0,.774.161.773.781Q52.48,66.665,52.5,82.753a3.484,3.484,0,0,0,2.767,3.738,4.742,4.742,0,0,0,1,.077q8.581.006,17.162,0a3.475,3.475,0,0,0,3.78-3.448,2.821,2.821,0,0,0,.043-.854q0-15.545.005-31.091a1.939,1.939,0,0,1,.062-.836c.255-.052.271.151.317.294a2.509,2.509,0,0,1,.065.782q0,18.3,0,36.607a4.456,4.456,0,0,1-.049.786.937.937,0,0,1-.471.759" transform="translate(-9.091 -40.255)" fill="#e9f5fe"/>
    <path id="Trazado_249704" data-name="Trazado 249704" d="M86.95,279.79c-.8-.149-1.171.025-1.476.742-.623,1.469-1.231,2.945-1.84,4.42-.145.351-.33.635-.762.646a.877.877,0,0,1-.8-.38c-.245-.352-.091-.678.048-1.013q2.721-6.568,5.439-13.139c.237-.572.507-1.133.7-1.719.175-.525.439-.8,1.03-.7a7.385,7.385,0,0,0,1.09.009l-1.824,4.415c-.318.771-.644,1.538-.953,2.313-.337.847-.183,1.246.622,1.684a11.919,11.919,0,0,0-1.275,2.722" transform="translate(-66.244 -217.164)" fill="#678c97"/>
    <path id="Trazado_249705" data-name="Trazado 249705" d="M254.509,84.378q-7.716.012-15.432.018a1.275,1.275,0,0,1-1.327-1.236,5.092,5.092,0,0,1-.011-.573q0-16.013-.016-32.026c0-.637.154-.83.789-.783.785.059,1.578.027,2.368.008.36-.008.531.045.581.482a3.332,3.332,0,0,0,3.47,3.117q3.015.028,6.03,0a3.352,3.352,0,0,0,3.447-2.994c.035-.215-.134-.66.4-.554a1.012,1.012,0,0,1,.22.665c.013,2.144.027,4.287-.008,6.431a1.086,1.086,0,0,1-.092.415c-.236.369-.622.3-.968.3-1.407.014-2.814,0-4.221.006-.238,0-.477-.005-.715.014a1.017,1.017,0,0,0-1.028.735c-.145.553.215.83.66,1.031a1.89,1.89,0,0,0,.847.1c1.482,0,2.963-.005,4.445,0,.936.006,1.09.136,1.074,1.085a10.123,10.123,0,0,1-.132,2.842,1.274,1.274,0,0,1-.412.376c-.756.564-.761,1.122-.018,1.7a2.627,2.627,0,0,1,.331.268,1.426,1.426,0,0,1,.238.954c.01.621.009,1.242,0,1.862-.012,1.091-.116,1.2-1.185,1.2-1.412.005-2.823,0-4.235,0a2.111,2.111,0,0,0-.848.093c-.484.169-.9.419-.784,1.017s.607.753,1.139.762c1.6.029,3.194,0,4.791.016.347,0,.727-.066,1,.263a3.409,3.409,0,0,1,.127,1.409c.007,1.188.026,2.377-.009,3.565-.021.719-.19.858-.9.9a9.519,9.519,0,0,0-1.847.081.856.856,0,0,0-.683,1.009c.073.522.479.661.914.747a10.436,10.436,0,0,0,1.559.065c.3.014.627-.038.845.259a13.667,13.667,0,0,1,.048,3.579,1.006,1.006,0,0,1-.442.774" transform="translate(-192.18 -40.237)" fill="#fef8de"/>
    <path id="Trazado_249706" data-name="Trazado 249706" d="M355.308,89.545a2.82,2.82,0,0,0,.292-1.237q-.009-18.659-.006-37.319c0-.185-.016-.371-.028-.643a1.381,1.381,0,0,0-.112.836q-.007,15.544-.008,31.087c0,.277.1.576-.109.829-.009-.214-.025-.428-.025-.643q0-15.941-.018-31.882c0-.679.2-.865.831-.8.449.049.91-.008,1.362.027a1.128,1.128,0,0,1,1.121,1.159c.013.19,0,.382,0,.573q0,18.162,0,36.324c0,1.406-.31,1.715-1.726,1.712-.526,0-1.051-.018-1.577-.028" transform="translate(-287.225 -40.23)" fill="#c7eefd"/>
    <path id="Trazado_249707" data-name="Trazado 249707" d="M294.082,69.827c.229-.194.5-.108.757-.109,1.6-.008,3.2-.017,4.8,0,.459.006.64-.127.622-.605-.031-.856-.018-1.714,0-2.571a.712.712,0,0,0-.283-.68c.114-.192.323-.177.5-.228a.886.886,0,0,0,.7-.8.869.869,0,0,0-.583-.891c-.167-.081-.377-.091-.478-.282a16.144,16.144,0,0,0,.116-3.541c.009-.4-.368-.291-.605-.292-1.644-.008-3.289,0-4.933-.008-.253,0-.528.087-.753-.117.255-.3.609-.228.932-.23,1.548-.011,3.1,0,4.643-.005a4.766,4.766,0,0,0,.784-.036.756.756,0,0,0,.672-.556.827.827,0,0,0-.221-.852c-.166-.167-.4-.271-.5-.5q0-3.806,0-7.612c.978-.015,1.957-.024,2.935-.048.27-.007.407.07.376.36a4.16,4.16,0,0,0,0,.429q0,16,0,32c0,1.451-.372,1.826-1.814,1.824-.6,0-1.194-.016-1.791-.024.55-1.45.195-2.959.29-4.439.016-.273.273-.3.436-.423a.832.832,0,0,0,.316-.95.72.72,0,0,0-.752-.542c-.644-.034-1.289,0-1.933-.02-.277-.009-.584.052-.784-.232a4.895,4.895,0,0,1,1.964-.1c.576.007.785-.135.77-.747-.042-1.659-.015-3.319-.016-4.979.087-.211.285-.314.443-.455a.833.833,0,0,0,.26-.967.807.807,0,0,0-.786-.514c-.357-.032-.715-.018-1.072-.018-1.359,0-2.718.006-4.077-.005-.323,0-.678.068-.932-.232" transform="translate(-237.625 -40.31)" fill="#feefac"/>
    <path id="Trazado_249708" data-name="Trazado 249708" d="M259.559,268.585c.578-.181.833.2,1.07.783q3.015,7.374,6.083,14.727c.172.414.331.8-.048,1.185-.471.474-1.159.284-1.457-.429q-1.424-3.393-2.827-6.795-1.778-4.29-3.55-8.583c-.368-.889-.37-.888.729-.888" transform="translate(-209.065 -217.093)" fill="#678c97"/>
    <path id="Trazado_249709" data-name="Trazado 249709" d="M269.259,36.068a1.077,1.077,0,0,1-.974-1.186c-.011-.851-.017-1.7,0-2.554a1.071,1.071,0,0,1,.986-1.173c1.6-.119,3.2-.025,4.795-.051a.58.58,0,0,1,.586.528,8.809,8.809,0,0,1,0,3.965.611.611,0,0,1-.667.52c-1.575-.036-3.151.057-4.726-.049" transform="translate(-216.878 -25.137)" fill="#7ba0b0"/>
    <path id="Trazado_249710" data-name="Trazado 249710" d="M189.42,276.984q0,3.649,0,7.3c0,.191,0,.382,0,.572a.756.756,0,0,1-1.511.025c-.009-.405-.006-.811-.006-1.216,0-4.746.011-9.492-.014-14.238,0-.6.173-.764.763-.754.55.01.8.087.789.729-.038,2.528-.016,5.056-.016,7.584" transform="translate(-151.889 -217.198)" fill="#678c97"/>
    <path id="Trazado_249711" data-name="Trazado 249711" d="M273.411,35.877c1.454-.011,2.908-.047,4.362-.019.568.011.818-.174.891-.735a11.916,11.916,0,0,0-.023-3.537c-.08-.481-.323-.608-.781-.6-1.478.014-2.956-.009-4.434-.018a40.17,40.17,0,0,1,4.425-.088c.644-.019,1.291-.014,1.935.015a1.242,1.242,0,0,1,1.372,1.323c.036.809.029,1.622,0,2.432-.024.66-.327,1.223-1.034,1.253a52.645,52.645,0,0,1-6.713-.022" transform="translate(-221.03 -24.945)" fill="#668c97"/>
    <path id="Trazado_249712" data-name="Trazado 249712" d="M189.481,15.381q0,.677,0,1.354c0,.822-.536,1.175-1.305.878-.247-.1-.214-.285-.215-.466,0-1.236,0-2.471,0-3.706,0-.512.229-.817.767-.814s.754.323.752.83c0,.641,0,1.283,0,1.924" transform="translate(-151.951 -10.208)" fill="#668c97"/>
    <path id="Trazado_249713" data-name="Trazado 249713" d="M49.261,75.355l4.447.026a3.3,3.3,0,0,1,3.571,3.574c0,.907.008,1.814,0,2.721a3.243,3.243,0,0,1-3.455,3.45q-3.121.012-6.243,0a3.2,3.2,0,0,1-3.412-2.809c-.078-.438-.227-.513-.625-.509-1.961.02-3.922.016-5.884.007a3.9,3.9,0,0,1-4.067-4.048c-.012-1.409-.018-2.817,0-4.225a3.874,3.874,0,0,1,3.975-3.917c2.918-.011,5.836,0,8.754,0a3.881,3.881,0,0,1,2.73,1.072c.8.741.806,1.277.04,2.047a.816.816,0,0,1-1.17.035c-.961-.943-2.136-.8-3.3-.8-2.178.022-4.355,0-6.533.012-1.582.009-2.112.541-2.115,2.111,0,1.194-.015,2.388,0,3.582a1.59,1.59,0,0,0,1.67,1.747c1.842.043,3.685,0,5.527.018.54,0,.7-.253.71-.745a3.662,3.662,0,0,1,1.257-2.717,4.978,4.978,0,0,1,3.657-.817.74.74,0,0,1,.454.181" transform="translate(-27.148 -56.283)"/>
    <path id="Trazado_249714" data-name="Trazado 249714" d="M47.123,187.7q-5.637,0-11.274,0c-1.156,0-1.481-.328-1.482-1.493q0-4.658,0-9.317c0-.935.622-1.471,1.4-1.21.623.209.758.72.757,1.316-.008,2.341,0,4.682,0,7.023,0,1.531,0,1.531,1.569,1.531H58.2a5.624,5.624,0,0,1,.717.013.991.991,0,0,1,.945.992,1.013,1.013,0,0,1-.821,1.106,2.658,2.658,0,0,1-.714.038q-5.6,0-11.2,0" transform="translate(-27.781 -141.973)"/>
    <path id="Trazado_249715" data-name="Trazado 249715" d="M76.109,147.371a4.857,4.857,0,0,0-.574,0,5.486,5.486,0,0,1-4.044-1.044.679.679,0,0,0-1.074.122c-.547.63-1.191,1.174-1.759,1.788a1.644,1.644,0,0,1-1.517.63,3.86,3.86,0,0,0-3.893,1.6,35.534,35.534,0,0,1-2.872,2.9,1.091,1.091,0,1,1-1.528-1.506c1.551-1.558,3.116-3.1,4.66-4.667a1.319,1.319,0,0,1,1.213-.47c1.788.33,3.025-.433,4.191-1.746,1.63-1.835,1.484-1.836,3.6-.5,1.291.815,2.624.648,3.985.759a3.131,3.131,0,0,0,2.791-1.152c1.519-1.652,3.158-3.194,4.751-4.778.636-.633,1.263-.692,1.745-.182s.4,1.066-.219,1.689c-1.992,2-4,3.977-5.98,5.984a1.717,1.717,0,0,1-1.394.573c-.692-.032-1.387-.008-2.081-.008" transform="translate(-47.201 -112.201)"/>
    <path id="Trazado_249716" data-name="Trazado 249716" d="M142.5,79.382q-2.62,0-5.241,0c-.946,0-1.471-.4-1.455-1.091.016-.674.526-1.057,1.427-1.058q5.277,0,10.553,0c.908,0,1.38.388,1.368,1.1-.012.676-.472,1.045-1.339,1.048-1.771.006-3.542,0-5.313,0" transform="translate(-109.783 -62.434)"/>
    <path id="Trazado_249717" data-name="Trazado 249717" d="M91.142,80.892c.566-.008,1.132-.019,1.7-.025a1.512,1.512,0,0,1,1.205.5,1.389,1.389,0,0,0,1.523.467,9.987,9.987,0,0,1,.166,2.612c-.55.008-1.1.036-1.65.02a4.032,4.032,0,0,0-2.353.74.92.92,0,0,1-.219-.787,7.51,7.51,0,0,0-.418-3.193.323.323,0,0,1,.047-.333" transform="translate(-73.621 -65.375)" fill="#4278c2"/>
    <path id="Trazado_249718" data-name="Trazado 249718" d="M176.914,105.874c-.6,0-1.192.017-1.786,0-.806-.029-1.239-.419-1.24-1.077s.43-1.056,1.237-1.065q1.787-.02,3.573,0c.807.009,1.24.4,1.24,1.061s-.434,1.051-1.237,1.08c-.595.021-1.191,0-1.786,0" transform="translate(-140.573 -83.848)" fill="#010101"/>
    <path id="Trazado_249719" data-name="Trazado 249719" d="M256.418,147.359c0,.573.01,1.146,0,1.718a1.079,1.079,0,0,1-1.19,1.21c-1.147.024-2.3.021-3.443,0a1.1,1.1,0,0,1-1.226-1.19q-.038-1.753,0-3.508a1.059,1.059,0,0,1,1.168-1.156q1.757-.024,3.515,0c.785.01,1.16.4,1.176,1.208.011.572,0,1.145,0,1.718" transform="translate(-202.539 -116.753)"/>
    <path id="Trazado_249720" data-name="Trazado 249720" d="M256.415,83.246c0,.62.017,1.241,0,1.861a1.011,1.011,0,0,1-1.078,1.076q-1.828.03-3.657,0a1.013,1.013,0,0,1-1.112-1.055q-.054-1.859,0-3.721a1.033,1.033,0,0,1,1.123-1.058c1.195-.021,2.391-.025,3.585,0,.758.017,1.112.414,1.142,1.177,0,.024,0,.048,0,.072v1.646Z" transform="translate(-202.539 -64.942)"/>
    <path id="Trazado_249721" data-name="Trazado 249721" d="M256.417,189.018c0,.6.013,1.193,0,1.789-.02.7-.362,1.107-1.029,1.124-1.265.034-2.533.028-3.8,0a.994.994,0,0,1-1.023-1.07q-.05-1.823,0-3.648a1.031,1.031,0,0,1,1.15-1.1c1.194-.022,2.39-.025,3.584,0,.752.016,1.1.412,1.121,1.184.013.572,0,1.145,0,1.717" transform="translate(-202.539 -150.446)"/>
    <path id="Trazado_249722" data-name="Trazado 249722" d="M256.629,122.055c1.507,0,3.014-.006,4.521,0,.819,0,1.313.438,1.294,1.107-.019.645-.488,1.038-1.281,1.04q-4.628.007-9.256,0c-.776,0-1.262-.424-1.267-1.062a1.113,1.113,0,0,1,1.254-1.083c1.579-.011,3.157,0,4.736,0" transform="translate(-202.621 -98.669)"/>
    <path id="Trazado_249723" data-name="Trazado 249723" d="M290.622,154.069l5.8.021c.9,0,1.307.256,1.4.881.1.646-.2,1.016-1.035,1.29-1.955-.008-3.911-.007-5.866-.029-.968-.011-1.524-.79-1.14-1.562a1.142,1.142,0,0,1,.841-.6" transform="translate(-234.165 -124.552)"/>
    <path id="Trazado_249724" data-name="Trazado 249724" d="M296.863,89.847c.471.138.9.316,1.024.87.161.751-.32,1.3-1.177,1.3-2.052.009-4.1.006-6.157.008a1.061,1.061,0,0,1-.772-1.272c.143-.684.657-.875,1.287-.878q2.9-.012,5.795-.028" transform="translate(-234.24 -72.634)" fill="#010100"/>
    <path id="Trazado_249725" data-name="Trazado 249725" d="M309.416,195.854c.787-.005,1.573-.016,2.36-.015.9,0,1.307.27,1.4.894s-.2,1-1.041,1.288c-.738-.014-1.477-.031-2.215-.04-.6-.007-1.1-.179-1.241-.836a1.052,1.052,0,0,1,.74-1.291" transform="translate(-249.513 -158.32)" fill="#010101"/>
    <path id="Trazado_249726" data-name="Trazado 249726" d="M322.127,121.884c.834.092,1.29.505,1.267,1.149-.024.674-.517,1.043-1.41,1.056a1.132,1.132,0,0,1,.143-2.2" transform="translate(-259.638 -98.533)" fill="#030202"/>
    <path id="Trazado_249727" data-name="Trazado 249727" d="M290.61,197.661a1.114,1.114,0,1,1,1.077-1.114,1.141,1.141,0,0,1-1.077,1.114" transform="translate(-234.003 -157.992)" fill="#030303"/>
    <path id="Trazado_249728" data-name="Trazado 249728" d="M53.767,80.9c.81,1.354.512,2.86.59,4.314a3.668,3.668,0,0,0-1.145,3.037c.035.406-.107.53-.518.526-2.008-.02-4.017,0-6.025-.015a1.724,1.724,0,0,1-1.818-1.794q-.032-2.147,0-4.295A1.706,1.706,0,0,1,46.6,80.887c2.39-.016,4.78.009,7.171.017" transform="translate(-36.247 -65.386)" fill="#5985ca"/>
    <path id="Trazado_249729" data-name="Trazado 249729" d="M106.314,116.514l-5.371.026a1,1,0,0,1-.849-.449c-.343-.476-.266-.648.313-.726a4.021,4.021,0,0,0,3.455-3.655c.021-.165.038-.33.057-.495a13.316,13.316,0,0,1,2.139-.057c.4-.013.557.285.578.6a33.975,33.975,0,0,1,0,4.216.764.764,0,0,1-.326.536" transform="translate(-80.752 -89.85)" fill="#fef8de"/>
    <path id="Trazado_249730" data-name="Trazado 249730" d="M123.318,116.2a25.687,25.687,0,0,0,.122-4.824c0-.32-.237-.48-.589-.471-.642.016-1.285,0-1.928,0,.335-.25.718-.107,1.076-.116.832-.023,1.666-.018,2.5,0a1.111,1.111,0,0,1,1.227,1.182c.027,1.044.03,2.09,0,3.134a1.063,1.063,0,0,1-1.194,1.122c-.4.009-.807-.017-1.21-.027" transform="translate(-97.756 -89.532)" fill="#fdeeac"/>
    <path id="Trazado_249731" data-name="Trazado 249731" d="M101.123,110.792c.434-.107.535.134.432.554a1.877,1.877,0,0,1-1.244,1.523c-.39.124-.6.1-.6-.421.006-1.182.357-1.652,1.408-1.656" transform="translate(-80.611 -89.546)" fill="#faf4db"/>
    <path id="Trazado_249732" data-name="Trazado 249732" d="M263.257,156.318c.185.659-.077.848-.755.835-.6-.011-.827-.117-.811-.779.015-.626.133-.866.817-.836.581.025.941.08.749.78" transform="translate(-211.555 -125.738)" fill="#f9cb62"/>
    <path id="Trazado_249733" data-name="Trazado 249733" d="M262.408,92.994c-.529.117-.739-.092-.74-.747s.2-.821.846-.838c.682-.018.793.24.759.824-.045.758-.012.761-.865.761" transform="translate(-211.537 -73.896)" fill="#4074bd"/>
    <path id="Trazado_249734" data-name="Trazado 249734" d="M262.433,198.785c-.735.19-.707-.262-.751-.8-.061-.738.349-.677.859-.729.724-.074.709.3.747.831.05.716-.3.8-.854.695" transform="translate(-211.544 -159.46)" fill="#4176c0"/>
  </g>
</svg>
