<svg xmlns="http://www.w3.org/2000/svg" xmlns:xlink="http://www.w3.org/1999/xlink" width="152" height="152" viewBox="0 0 152 152">
  <defs>
    <clipPath id="clip-path">
      <rect id="Rectángulo_90319" data-name="Rectángulo 90319" width="133.686" height="133.843" fill="none"/>
    </clipPath>
  </defs>
  <g id="Grupo_149660" data-name="Grupo 149660" transform="translate(-308 -5719)">
    <g id="Elipse_5604" data-name="Elipse 5604" transform="translate(308 5719)" fill="#fff" stroke="#fec0c2" stroke-width="6">
      <circle cx="76" cy="76" r="76" stroke="none"/>
      <circle cx="76" cy="76" r="73" fill="none"/>
    </g>
    <g id="Grupo_149090" data-name="Grupo 149090" transform="translate(317.157 5731.157)">
      <g id="Grupo_149090-2" data-name="Grupo 149090" clip-path="url(#clip-path)">
        <path id="Trazado_249324" data-name="Trazado 249324" d="M257.826,129.645v5.228a3.406,3.406,0,0,0,0,2.091v.784a68.14,68.14,0,0,1-1.2,8.883A68.695,68.695,0,0,1,250.562,163a2,2,0,0,1-1.15,1.181,5.252,5.252,0,0,1-1.424.127q-17.9.012-35.793.005c-.26,0-.52-.023-.779-.038-6.332.067-12.664.022-19,.023a3.177,3.177,0,0,1-1.153-.163.935.935,0,0,1-.393-.313,3.612,3.612,0,0,1-.256-1.782q-.01-6.117-.006-12.234a1.252,1.252,0,0,1,.19-.864,11.563,11.563,0,0,0,3.852-6.875A10.647,10.647,0,0,0,192,133.064c-.374-.419-.811-.78-1.159-1.228a1.257,1.257,0,0,1-.231-.825c.045-2.725.035-5.45,0-8.173a.907.907,0,0,1,.161-.595c2.2-1.989,2.293-3.927.275-6.052a1.084,1.084,0,0,1-.421-.962c-.018-4.174-.009-8.347,0-12.52a3.4,3.4,0,0,1,.2-1.411.817.817,0,0,1,.356-.354,2.684,2.684,0,0,1,1.142-.2c6.355,0,12.711-.052,19.066.021,5.772-.083,11.545-.023,17.318-.034q9.31-.017,18.621,0a8.7,8.7,0,0,1,2.073.119,1.807,1.807,0,0,1,1.095,1.046,64.251,64.251,0,0,1,7.019,21.619,21.825,21.825,0,0,1,.183,4.034,6.9,6.9,0,0,0,.135,2.1" transform="translate(-124.14 -65.599)" fill="#efdad7"/>
        <path id="Trazado_249325" data-name="Trazado 249325" d="M23.523,35.492C33.531,17.548,48.437,6.1,68.482,1.467a63.814,63.814,0,0,1,7.7-1.2c.284-.03.626.086.8-.269h2.61c.229.164.459.327.231.653C74.094,3.731,71.3,9.14,68.77,14.729a99.025,99.025,0,0,0-6.189,19.225c-.166.74-.206,1.6-1.144,1.9a7.565,7.565,0,0,1-1.818.12q-16.94,0-33.881-.007c-.759,0-1.585.182-2.215-.477" transform="translate(-15.321)" fill="#a7e446"/>
        <path id="Trazado_249326" data-name="Trazado 249326" d="M76.722,316.647c-1.315-.641-2.772-.509-4.158-.719A65.809,65.809,0,0,1,40.84,302a66.969,66.969,0,0,1-17.319-20.841,1.825,1.825,0,0,1,1.563-.476q17.713-.019,35.426,0a3.791,3.791,0,0,1,.9.1c.828.228.914.951,1.072,1.629a106.11,106.11,0,0,0,6.3,19.57c1.9,4.214,4.021,8.284,7.458,11.511a14.885,14.885,0,0,0,3.078,2.157c.531.293.887.66.01,1Z" transform="translate(-15.32 -182.804)" fill="#a7e446"/>
        <path id="Trazado_249327" data-name="Trazado 249327" d="M255.353,35.5c-4.69.016-9.381.046-14.072.044q-12.118,0-24.236-.041a2.308,2.308,0,0,1-.616-1.4,110.465,110.465,0,0,0-5.422-17.564,45.89,45.89,0,0,0-6.654-11.769,16.539,16.539,0,0,0-4.245-3.613C199.733.927,198.85.8,199.554,0H201.9a71.529,71.529,0,0,1,8.861,1.184A66.78,66.78,0,0,1,240.05,15.9a66.089,66.089,0,0,1,14.933,18.29c.223.405.6.779.37,1.316" transform="translate(-129.801)" fill="#a7e446"/>
        <path id="Trazado_249328" data-name="Trazado 249328" d="M216.935,281.943q13.224-.022,26.449-.041c3.952,0,7.9.03,11.855.047.218.48-.1.833-.3,1.2a67.483,67.483,0,0,1-47.355,33.721c-1.92.341-3.875.248-5.792.577h-2.349c-.151-.118-.365-.192-.316-.451a.814.814,0,0,1,.331-.392c4.423-2.344,6.913-6.386,9.091-10.623a96.616,96.616,0,0,0,7.746-22.513,2.514,2.514,0,0,1,.64-1.529" transform="translate(-129.69 -183.608)" fill="#a7e446"/>
        <path id="Trazado_249329" data-name="Trazado 249329" d="M193.887,0c-.12.259-.153.454.184.615,3.778,1.817,6.044,5.09,8.036,8.566,4.478,7.814,7.033,16.337,9.008,25.062.1.42.176.843.263,1.265l-20.368,0a2.238,2.238,0,0,1-.412-1.723q-.017-16.028,0-32.055A2.384,2.384,0,0,1,191.017,0Z" transform="translate(-124.134)" fill="#e0f6be"/>
        <path id="Trazado_249330" data-name="Trazado 249330" d="M211.379,282.019a104.653,104.653,0,0,1-6.53,20.908,39.377,39.377,0,0,1-7.125,11.4,20.555,20.555,0,0,1-4.1,2.931c-.3.294-.75-.032-1.045.267h-1.566a2.386,2.386,0,0,1-.421-1.728q-.013-16.027,0-32.055a2.238,2.238,0,0,1,.412-1.723l20.368,0" transform="translate(-124.134 -183.684)" fill="#e0f6be"/>
        <path id="Trazado_249331" data-name="Trazado 249331" d="M153.776,281.138l.006,35.506h-2.871c.249-.259.476-.442-.068-.7-4.09-1.961-6.5-5.535-8.556-9.331a91.567,91.567,0,0,1-8.638-24.725c-.054-.253-.151-.5-.227-.746.46-.535,1.1-.462,1.695-.463q8.529-.024,17.06,0a2.424,2.424,0,0,1,1.616.372Z" transform="translate(-86.9 -182.801)" fill="#f2fbe3"/>
        <path id="Trazado_249332" data-name="Trazado 249332" d="M153.783,0q0,17.753-.006,35.506l.016.1a2.618,2.618,0,0,1-1.746.373q-8.4.012-16.8,0c-.635,0-1.322.1-1.825-.464a126.758,126.758,0,0,1,3.672-13.392A62,62,0,0,1,143.881,7.38c1.927-2.877,4.026-5.688,7.547-6.862.263-.615.93-.2,1.31-.518Z" transform="translate(-86.9)" fill="#f2fbe3"/>
        <path id="Trazado_249333" data-name="Trazado 249333" d="M382.616,177.664q.127.005.254.006v2.091c-.516-.647-.155-1.4-.254-2.1" transform="translate(-249.184 -115.716)" fill="#f6ecea"/>
        <path id="Trazado_249334" data-name="Trazado 249334" d="M382.839,200.765a1.957,1.957,0,0,1,0-2.091Z" transform="translate(-249.153 -129.4)" fill="#f3e5e2"/>
        <path id="Trazado_249335" data-name="Trazado 249335" d="M185.9,0c-.342.414-.931.2-1.31.518L184.331,0Z" transform="translate(-120.058)" fill="#67b9fe"/>
        <path id="Trazado_249336" data-name="Trazado 249336" d="M196.3,383.356c.274-.382.685-.222,1.045-.267l.26.267Z" transform="translate(-127.857 -249.513)" fill="#6a9cfe"/>
        <path id="Trazado_249337" data-name="Trazado 249337" d="M46.522,101.8q9.213.023,18.426.048c.648,0,1.3.031,1.944.047,0,4.331,0,8.661-.017,12.992,0,.454.175.965-.262,1.342-.693.139-1.123-.382-1.63-.678a11.4,11.4,0,1,0-6.231,21.227,4.558,4.558,0,0,1,4.388,2.706,3.721,3.721,0,0,1-1.073,4.381,4.357,4.357,0,0,1-4.96.764c-.585-.295-1.073-.741-1.652-1.046a3.4,3.4,0,0,0-4.631.962,3.327,3.327,0,0,0,.472,4.59,11.038,11.038,0,0,0,13.871,1.6c.429-.279.81-.688,1.4-.554.512.4.3.963.3,1.456.02,4.3.016,8.6.019,12.9q-8.889.025-17.777.051c-.864,0-1.729.029-2.593.044q-11.731-.023-23.462-.042c-4.953,0-9.905.037-14.858.057A68.982,68.982,0,0,1,.949,143.741a57.606,57.606,0,0,1-.836-13.849,68.261,68.261,0,0,1,8.089-28.1c.911.02,1.823.057,2.734.058q17.012.006,34.024,0c.52,0,1.041-.029,1.561-.044" transform="translate(0 -66.296)" fill="#f8f4f2"/>
        <path id="Trazado_249338" data-name="Trazado 249338" d="M226.01,155.179c0-2.873-.113-5.753.024-8.619a11.673,11.673,0,0,1,23.278-.128,170.967,170.967,0,0,1,0,17.755,11.672,11.672,0,0,1-23.277-.128c-.14-2.954-.024-5.92-.024-8.881" transform="translate(-147.175 -88.389)" fill="#64892a"/>
        <path id="Trazado_249339" data-name="Trazado 249339" d="M155.321,172.284a11.586,11.586,0,0,1-15.187-.389c-1.914-1.768-2.18-4.014-.653-5.77,1.466-1.688,3.776-1.779,5.724-.228a4.014,4.014,0,0,0,4.939.277,3.629,3.629,0,0,0,1.574-4.084,4.043,4.043,0,0,0-4.056-2.856,11.759,11.759,0,1,1,.745-23.505,11.848,11.848,0,0,1,6.958,2.606l.543.507c.077,2.087.482,4.187-.261,6.239l-.3.286a2.5,2.5,0,0,1-2.725.7,6.9,6.9,0,0,1-2.208-1.091,3.708,3.708,0,0,0-4.485-.144,3.21,3.21,0,0,0-1.283,3.785c.47,1.493,1.712,2.335,3.636,2.431a12.131,12.131,0,0,1,5.469,1.535c.625.355,1.333.672,1.576,1.462l.322.427a4.1,4.1,0,0,1,.416,2.023q-.009,6.666,0,13.331a4.1,4.1,0,0,1-.416,2.023l-.327.432" transform="translate(-88.753 -88.399)" fill="#85b638"/>
        <path id="Trazado_249340" data-name="Trazado 249340" d="M169.88,168.994a12.373,12.373,0,0,0-7.571-2.673,3.819,3.819,0,0,1-3.55-2.776,3.669,3.669,0,0,1,1.516-4.109,3.918,3.918,0,0,1,4.721.053,4.2,4.2,0,0,0,4.9.825c.341.242.287.607.287.95q0,3.395,0,6.791c0,.345.043.708-.307.94" transform="translate(-103.306 -103.346)" fill="#f8f4f2"/>
        <path id="Trazado_249341" data-name="Trazado 249341" d="M191.854,206.878V189.5c5.424,4.142,5.424,13.209,0,17.377" transform="translate(-124.958 -123.425)" fill="#64892a"/>
        <path id="Trazado_249342" data-name="Trazado 249342" d="M191.791,150.905c0-1.679-.018-3.359-.007-5.038,0-.411-.147-.875.268-1.2,2.13,2.024,2.009,4.909-.261,6.239" transform="translate(-124.897 -94.224)" fill="#64892a"/>
        <path id="Trazado_249343" data-name="Trazado 249343" d="M90.78,155.18q0-7.506,0-15.013c0-2.67,1.55-4.438,3.88-4.457s3.943,1.754,3.944,4.393q.008,15.208,0,30.417c0,2.638-1.609,4.413-3.945,4.393s-3.876-1.788-3.879-4.459q-.008-7.637,0-15.274" transform="translate(-59.126 -88.39)" fill="#85b638"/>
        <path id="Trazado_249344" data-name="Trazado 249344" d="M248.39,169.955c0-2.483-.016-4.966,0-7.449.021-2.564,1.617-4.312,3.891-4.309a3.945,3.945,0,0,1,3.916,4.182q.076,7.579,0,15.16a3.949,3.949,0,0,1-3.919,4.181c-2.272,0-3.867-1.749-3.887-4.315-.021-2.483,0-4.966,0-7.449" transform="translate(-161.777 -103.036)" fill="#efdad7"/>
      </g>
    </g>
  </g>
</svg>
