<svg id="Grupo_149101" data-name="Grupo 149101" xmlns="http://www.w3.org/2000/svg" xmlns:xlink="http://www.w3.org/1999/xlink" width="62.361" height="62.602" viewBox="0 0 62.361 62.602">
  <defs>
    <clipPath id="clip-path">
      <rect id="Rectángulo_90325" data-name="Rectángulo 90325" width="62.361" height="62.602" fill="none"/>
    </clipPath>
  </defs>
  <g id="Grupo_149101-2" data-name="Grupo 149101" clip-path="url(#clip-path)">
    <path id="Trazado_249669" data-name="Trazado 249669" d="M53.184,0a1.547,1.547,0,0,1,.907,1.451c.117,1.951.3,3.9.426,5.85.025.371.1.514.511.54,2.012.128,4.021.306,6.033.447a1.241,1.241,0,0,1,.826,2.21c-1.731,1.727-3.455,3.461-5.192,5.182A4.887,4.887,0,0,1,53,17.138c-1.194-.026-2.388-.005-3.636-.005,5.676,7.356,7.622,15.533,5.383,24.543A26.91,26.91,0,0,1,43.522,57.716a27.815,27.815,0,1,1,1.7-44.688c0-1.207.028-2.4-.007-3.59a5.035,5.035,0,0,1,1.574-3.892C48.43,3.925,50.049,2.288,51.681.664c.24-.238.512-.444.769-.664Z" transform="translate(0)"/>
    <path id="Trazado_249670" data-name="Trazado 249670" d="M24.671,70.116a1.274,1.274,0,0,0-1.847.464A21.363,21.363,0,1,0,61.131,87.359,20.661,20.661,0,0,0,56.459,69.11c-.323-.387-.331-.569.034-.9.736-.674,1.431-1.393,2.123-2.111.218-.226.329-.243.551.01a24.163,24.163,0,0,1,6.3,14.639c.686,10.794-3.753,18.984-13.05,24.449a23.429,23.429,0,0,1-14.152,3.064A25.361,25.361,0,1,1,56.7,63.679c.386.336.426.508.036.863-.737.672-1.429,1.394-2.122,2.113-.215.224-.344.225-.583.022a21.3,21.3,0,0,0-20.915-3.847c-.774.279-.968.659-.886,1.638a.352.352,0,0,1-.185.229A26.415,26.415,0,0,1,29.4,66.011a1.541,1.541,0,0,1-.491-.236,1.016,1.016,0,0,0-1.538,1.038,4.3,4.3,0,0,1,.062.545.64.64,0,0,1-.223.416c-.767.679-1.422,1.469-2.166,2.169a.473.473,0,0,1-.369.174" transform="translate(-12.414 -48.203)" fill="#e4ebeb"/>
    <path id="Trazado_249671" data-name="Trazado 249671" d="M57.67,103.047l2.708-2.711c.181-.029.3.1.443.172a.981.981,0,0,0,1.144-.047.958.958,0,0,0,.426-1.112c-.046-.15-.121-.31.009-.461.919-.539,1.858-1.041,2.825-1.489.578.808.948.891,1.994.569a18.759,18.759,0,0,1,17.909,3.22c.435.335.4.516.027.856-.676.619-1.325,1.27-1.945,1.944-.321.349-.516.391-.927.077a14.718,14.718,0,0,0-18.425.259c-4.853,4.061-6.659,9.337-5,15.445,1.674,6.172,5.923,9.812,12.246,10.894a14.063,14.063,0,0,0,8.613-1.316,1.286,1.286,0,0,0,.8-1.866c.161-.4.572-.5.87-.735a15.242,15.242,0,0,1,1.474-1.18c.192-.035.349.08.525.118a1,1,0,0,0,1.137-.347,1.058,1.058,0,0,0,.041-1.247.983.983,0,0,1-.2-.371,22.015,22.015,0,0,1,1.4-2.345,1.278,1.278,0,0,0,1.721-1.069,14.649,14.649,0,0,0-2.613-13.7c-.308-.4-.3-.585.06-.913.706-.645,1.371-1.337,2.033-2.028.257-.269.409-.349.7,0a18.174,18.174,0,0,1,4.3,9.619c.856,7.281-1.557,13.345-7.421,17.751a18.862,18.862,0,0,1-29.962-11.944A18.366,18.366,0,0,1,57.766,105a1.3,1.3,0,0,0-.1-1.955" transform="translate(-45.414 -81.134)" fill="#f4737e"/>
    <path id="Trazado_249672" data-name="Trazado 249672" d="M118.715,154.39a8.965,8.965,0,0,1-1.316,2.331c-.219.1-.441.01-.662.011A.991.991,0,0,0,115.7,158.1a1.063,1.063,0,0,1,.114.529,10.189,10.189,0,0,1-2.344,1.864,1.3,1.3,0,0,0-1.841-.346,12.476,12.476,0,1,1,1.94-21.294c.379.267.349.409.039.7-.741.7-1.46,1.422-2.161,2.16-.242.255-.4.269-.7.077a8.474,8.474,0,1,0,3.683,9.111,8.287,8.287,0,0,0-1.288-6.8c-.2-.3-.205-.456.06-.707.739-.7,1.468-1.415,2.157-2.163.32-.347.464-.27.708.062a12.366,12.366,0,0,1,2.069,11.2c-.284,1.011-.2,1.31.584,1.887" transform="translate(-78.359 -114.149)" fill="#e4ebeb"/>
    <path id="Trazado_249673" data-name="Trazado 249673" d="M145.233,181.73a6.05,6.05,0,0,1-12.071.74,6.063,6.063,0,0,1,8.817-5.909c.353.171.333.292.075.546q-1.786,1.757-3.541,3.544a1.2,1.2,0,0,0-.23,1.508,1.19,1.19,0,0,0,1.366.561,1.526,1.526,0,0,0,.749-.5c1.123-1.124,2.258-2.236,3.363-3.377.327-.337.471-.3.684.1a6.251,6.251,0,0,1,.788,2.792" transform="translate(-111.372 -147.144)" fill="#f4737e"/>
    <path id="Trazado_249674" data-name="Trazado 249674" d="M296,24.526c.108,1.458.206,2.815.312,4.171a.506.506,0,0,1-.131.445c-1.4,1.39-2.792,2.784-4.3,4.292,0-1.515-.025-2.888.015-4.259a1.735,1.735,0,0,1,.564-1.127c1.15-1.151,2.307-2.295,3.543-3.522" transform="translate(-244.173 -20.518)" fill="#feca7b"/>
    <path id="Trazado_249675" data-name="Trazado 249675" d="M312.336,62.886c-1.224,1.247-2.378,2.448-3.563,3.617a2.016,2.016,0,0,1-1.451.547c-1.221,0-2.441,0-3.651,0-.09-.263.108-.329.208-.43,1.232-1.245,2.476-2.477,3.7-3.728a.893.893,0,0,1,.8-.3c1.3.114,2.594.193,3.954.289" transform="translate(-254.028 -52.363)" fill="#fed79d"/>
    <path id="Trazado_249676" data-name="Trazado 249676" d="M92.611,106.076c.315.805.209,1.347-.338,1.725-.524.362-1.08.271-1.684-.277-.328-.76-.238-1.322.275-1.7.54-.4,1.092-.32,1.748.252" transform="translate(-75.624 -88.322)" fill="#010101"/>
    <path id="Trazado_249677" data-name="Trazado 249677" d="M227.4,261.492c-.437-.693-.459-1.207-.073-1.677s.916-.541,1.662-.235a1.268,1.268,0,0,1,.206,1.782c-.439.523-1.034.566-1.8.13" transform="translate(-189.951 -217.009)" fill="#010101"/>
  </g>
</svg>
