<svg id="Grupo_149104" data-name="Grupo 149104" xmlns="http://www.w3.org/2000/svg" xmlns:xlink="http://www.w3.org/1999/xlink" width="64.87" height="64.87" viewBox="0 0 64.87 64.87">
  <defs>
    <clipPath id="clip-path">
      <rect id="Rectángulo_90328" data-name="Rectángulo 90328" width="64.87" height="64.87" fill="none"/>
    </clipPath>
  </defs>
  <g id="Grupo_149104-2" data-name="Grupo 149104" clip-path="url(#clip-path)">
    <path id="Trazado_249735" data-name="Trazado 249735" d="M58.587,17.006a4.622,4.622,0,0,1,4.575.861,4.7,4.7,0,0,1,.282,7c-1.7,1.746-3.44,3.463-5.179,5.175a.565.565,0,0,0-.119.813,31.1,31.1,0,0,1,3.61,13.817,42.059,42.059,0,0,0,.809,5.284c.448,2.7.888,5.41,1.377,8.107.121.667-.27.524-.613.524q-19.807,0-39.613-.011c-.549,0-.719.094-.714.69a5.219,5.219,0,0,1-5.577,5.6q-6.014,0-12.028,0A5.22,5.22,0,0,1,.008,59.46Q0,42.791.011,26.122A11.437,11.437,0,0,1,10,14.782c.41-.055.483-.21.476-.579-.066-3.373.007-3.134,2.271-5.4,2.542-2.542,5.093-5.076,7.621-7.632A3.71,3.71,0,0,1,23.157,0Q39.139.023,55.122.01a3.165,3.165,0,0,1,3.464,3.5q0,6.373,0,12.747v.749" transform="translate(0 -0.001)"/>
    <path id="Trazado_249736" data-name="Trazado 249736" d="M98.734,11.965h15.623c1.115,0,1.442.324,1.442,1.43q0,7.158.007,14.315a1.152,1.152,0,0,1-.356.916q-3.024,2.984-6.009,6.007a1.074,1.074,0,0,1-.852.352c-1.416-.018-2.833-.014-4.249-.005a6.031,6.031,0,0,0-4.406,1.806,1.074,1.074,0,0,1-.88.285c-4.663,0-9.326.01-13.988-.016-.554,0-.664.144-.663.676q.028,12.943,0,25.885c0,.551.139.666.674.665,7.234-.02,14.468-.006,21.7-.027.55,0,.682.135.667.674-.04,1.432-.012,1.433-1.462,1.433q-11.5,0-23.009.014c-.554,0-.664-.143-.663-.676q.026-14.74.011-29.48a11.494,11.494,0,0,0-9.437-11.51c-1.022-.205-1.022-.205-1.022-1.264,0-1.02,0-1.02,1.01-1.02,2.026,0,4.053,0,6.079,0a3.153,3.153,0,0,0,3.371-3.4c0-2.157.018-4.314-.012-6.471-.007-.49.116-.6.6-.6,5.273.02,10.546.012,15.819.012" transform="translate(-59.306 -9.864)" fill="#e5e8ec"/>
    <path id="Trazado_249737" data-name="Trazado 249737" d="M21.433,95.831a9.414,9.414,0,1,1-9.425,9.369,9.432,9.432,0,0,1,9.425-9.369" transform="translate(-9.909 -79.084)" fill="#fbd670"/>
    <path id="Trazado_249738" data-name="Trazado 249738" d="M30.832,187.587v.811q0,12.815,0,25.629a3.185,3.185,0,0,1-3.549,3.553q-5.917,0-11.834,0A3.162,3.162,0,0,1,12,214.122q0-12.945,0-25.891v-.622a19.481,19.481,0,0,0,2.028,2.207c.106.1.062.373.062.566,0,2.027,0,4.054,0,6.08a2.1,2.1,0,0,0,2.272,2.286q5.067.008,10.134,0a2.09,2.09,0,0,0,2.236-2.257c.008-2.048.009-4.1-.005-6.146a.95.95,0,0,1,.37-.838,11.648,11.648,0,0,0,1.729-1.92" transform="translate(-9.904 -154.806)" fill="#959ea9"/>
    <path id="Trazado_249739" data-name="Trazado 249739" d="M257.383,184.8c0-1.547.017-3.093-.011-4.64-.008-.456.143-.5.526-.4a2.122,2.122,0,0,1,1.574,2.142c.008,2.178.03,4.357-.015,6.535-.013.608.181.769.722.676a.385.385,0,0,1,.065,0c1.278,0,1.287,0,1.316-1.3a.831.831,0,0,1,.269-.624q3.311-3.3,6.6-6.61c.269-.272.372-.246.539.085a27.888,27.888,0,0,1,2.925,10.15c.006.065.007.13.011.2.09,1.5.089,1.5-1.4,1.9-2.747.746-5.494,1.49-8.234,2.258a.791.791,0,0,1-.825-.16c-.683-.574-1.4-1.112-2.086-1.679a5.185,5.185,0,0,1-1.979-4.154c-.008-1.459,0-2.919,0-4.378" transform="translate(-212.396 -148.312)" fill="#efcfb3"/>
    <path id="Trazado_249740" data-name="Trazado 249740" d="M274.554,125.14c0-.965-.012-1.739,0-2.513a4.109,4.109,0,0,0-1.267-3.174c-.268-.257-.216-.376.011-.6,3.455-3.442,6.892-6.9,10.355-10.334a2.642,2.642,0,1,1,3.676,3.8q-5.548,5.58-11.124,11.135c-.515.516-1.02,1.042-1.654,1.691" transform="translate(-225.382 -88.915)" fill="#fe816e"/>
    <path id="Trazado_249741" data-name="Trazado 249741" d="M292.938,275.527c-1.7,0-3.395-.012-5.092.009-.4,0-.559-.073-.554-.524q.038-3.3,0-6.593c0-.406.17-.51.494-.6q4.307-1.165,8.608-2.351c.367-.1.543-.128.621.368.477,3.026.993,6.046,1.521,9.064.092.527-.055.647-.571.637-1.675-.032-3.351-.012-5.026-.012" transform="translate(-237.086 -219.029)" fill="#b3dc7f"/>
    <path id="Trazado_249742" data-name="Trazado 249742" d="M167.446,167.632a9.076,9.076,0,0,0-.2,4.184h-.589c-3.486,0-6.973-.01-10.46.012-.475,0-.633-.092-.612-.6.045-1.066.025-2.135.007-3.2-.005-.312.084-.4.4-.4,3.79.01,7.581.007,11.457.007" transform="translate(-128.392 -138.332)" fill="#fee9a6"/>
    <path id="Trazado_249743" data-name="Trazado 249743" d="M35.917,208.364a11.583,11.583,0,0,0,10.461,0v2.052c0,.957-.014,1.914.007,2.871.008.362-.035.532-.478.529-3.175-.021-6.351-.011-9.527-.012-.23,0-.474.068-.47-.329.016-1.67.007-3.341.007-5.107" transform="translate(-29.634 -171.948)" fill="#69d5f3"/>
    <path id="Trazado_249744" data-name="Trazado 249744" d="M167.76,203.549c-1.411,1.405-2.708,2.688-3.993,3.984a.728.728,0,0,1-.584.2c-2.372,0-4.745-.008-7.117,0-.324,0-.456-.058-.449-.422.024-1.131.016-2.263,0-3.4,0-.268.053-.381.355-.38,3.87.009,7.739.006,11.784.006" transform="translate(-128.423 -167.973)" fill="#fee9a6"/>
    <path id="Trazado_249745" data-name="Trazado 249745" d="M213.49,206.211a22.035,22.035,0,0,0,.109,3.192.529.529,0,0,1-.186.517q-1.391,1.376-2.763,2.77c-.207.212-.344.257-.576.02q-1.574-1.607-3.183-3.181c-.265-.258-.2-.4.028-.621q2.893-2.872,5.767-5.762c.193-.193.422-.394.676-.3.277.1.114.418.119.631.02.847.008,1.7.008,2.734" transform="translate(-170.595 -167.378)" fill="#fe816e"/>
    <path id="Trazado_249746" data-name="Trazado 249746" d="M166.1,276.3c0,1.026-.01,1.961.006,2.9.005.287-.084.368-.369.367q-4.866-.013-9.731,0c-.278,0-.377-.069-.373-.362q.024-1.73,0-3.461c0-.28.072-.376.364-.372q1.8.023,3.592,0c.273,0,.363.12.465.334a2.745,2.745,0,0,0,3.781,1.5c.726-.28,1.448-.573,2.265-.9" transform="translate(-128.435 -227.246)" fill="#fee9a6"/>
    <path id="Trazado_249747" data-name="Trazado 249747" d="M231.653,254.83c0,2.1,0,4.091,0,6.084,0,.54.188,1.262-.085,1.573-.317.363-1.057.1-1.613.119-.695.019-1.391-.009-2.086.011-.306.009-.412-.074-.406-.4.019-1.13.006-2.26.008-3.39,0-.125-.037-.279.1-.356,1.531-.887,2.5-2.384,3.81-3.509a1.859,1.859,0,0,1,.278-.138" transform="translate(-187.711 -210.298)" fill="#fee9a6"/>
    <path id="Trazado_249748" data-name="Trazado 249748" d="M80.641,28l6.743-6.748c.186.146.085.356.086.531q.014,2.511,0,5.023c0,.7-.342,1.172-.95,1.182-1.926.031-3.852.012-5.882.012" transform="translate(-66.549 -17.541)" fill="#b3dc7e"/>
    <path id="Trazado_249749" data-name="Trazado 249749" d="M161.832,239.466c-.545,1.358-1.067,2.638-1.567,3.927-.094.241-.24.259-.447.259-1.262,0-2.524-.012-3.786,0-.313,0-.407-.086-.4-.4.017-1.131.01-2.263,0-3.394,0-.24,0-.4.331-.4,1.929.013,3.857.007,5.867.007" transform="translate(-128.433 -197.613)" fill="#fee9a6"/>
    <path id="Trazado_249750" data-name="Trazado 249750" d="M239.812,155.789c-.361.346-.735.68-1.081,1.04a2.345,2.345,0,0,1-1.845.967,1.939,1.939,0,0,0-1.767,1.939c-.02.412.026.83-.021,1.238a1.039,1.039,0,0,1-2.045.138,4.472,4.472,0,0,1,3.09-5.323,11.847,11.847,0,0,1,3.67,0" transform="translate(-192.218 -128.439)" fill="#efcfb3"/>
    <path id="Trazado_249751" data-name="Trazado 249751" d="M192.361,255.127a.7.7,0,0,1-.693-.936c.392-1.057.836-2.094,1.245-3.145.124-.318.247-.21.409-.048q1.22,1.224,2.443,2.444c.127.127.284.26-.01.377q-1.632.647-3.266,1.292a.515.515,0,0,1-.129.016" transform="translate(-158.138 -207.006)" fill="#a9b1bc"/>
    <path id="Trazado_249752" data-name="Trazado 249752" d="M263.43,269.258a.972.972,0,0,0,.166.119c2.316,1,1.81,3.04,1.821,4.892,0,.15-.041.253-.215.247a1.124,1.124,0,0,0-.131,0c-1.747.139-1.747.139-1.747-1.591,0-1.045-.006-2.091.006-3.136,0-.173-.1-.385.1-.533" transform="translate(-217.291 -222.204)" fill="#fee9a6"/>
    <path id="Trazado_249753" data-name="Trazado 249753" d="M158.278,23.936c4.685,0,9.369.008,14.053-.012.482,0,.618.1.607.6-.035,1.721-.028,3.442,0,5.163.006.426-.107.536-.535.536q-14.119-.019-28.238,0c-.42,0-.546-.1-.539-.531.027-1.721.031-3.443,0-5.163-.009-.488.113-.606.6-.6,4.684.021,9.369.013,14.053.013" transform="translate(-118.523 -19.743)"/>
    <path id="Trazado_249754" data-name="Trazado 249754" d="M158.336,71.826c4.663,0,9.325.008,13.988-.012.489,0,.613.114.6.6-.029,1.5-.006,1.5-1.523,1.5q-13.563,0-27.126.014c-.544,0-.685-.125-.67-.67.041-1.435.012-1.436,1.459-1.436h13.269" transform="translate(-118.512 -59.264)"/>
    <path id="Trazado_249755" data-name="Trazado 249755" d="M158.276,97.858c-4.684,0-9.369-.008-14.053.012-.482,0-.617-.1-.607-.6.03-1.5.006-1.5,1.52-1.5q13.563,0,27.126-.013c.537,0,.69.115.674.666-.042,1.438-.013,1.439-1.455,1.439h-13.2" transform="translate(-118.518 -79.02)"/>
    <path id="Trazado_249756" data-name="Trazado 249756" d="M151.946,121.807c-2.592,0-5.185-.01-7.777.01-.428,0-.537-.111-.535-.536.009-1.566-.008-1.566,1.586-1.566,4.858,0,9.716.008,14.574-.013.49,0,.612.116.6.6-.029,1.5-.006,1.5-1.522,1.5h-6.927" transform="translate(-118.533 -98.784)"/>
    <path id="Trazado_249757" data-name="Trazado 249757" d="M52,109.011c-.151.6.081,1.02.787,1.4a3.253,3.253,0,0,1,1.309,3.394c-.041.164-.11.213-.258.21-.174,0-.349,0-.523,0-.411-.008-.914.122-1.208-.069s-.075-.724-.108-1.106a.893.893,0,0,0-.848-.909c-.546-.066-1.029.065-1.2.647a.893.893,0,0,0,.581,1.1c.622.311,1.246.617,1.863.935a2.877,2.877,0,0,1,1.687,2.729,2.821,2.821,0,0,1-1.72,2.636c-.292.141-.4.292-.362.588a1.555,1.555,0,0,1,0,.2c0,1.732,0,1.725-1.723,1.627-.273-.016-.409-.07-.372-.365.016-.129-.007-.262,0-.391a1.814,1.814,0,0,0-.934-2.053c-1.194-.682-1.233-2-1.159-3.261.01-.174.1-.215.253-.213.174,0,.349,0,.523,0,.412.008.914-.122,1.208.068s.075.724.108,1.105a.9.9,0,0,0,.848.91.972.972,0,0,0,1.2-.648.892.892,0,0,0-.582-1.1c-.6-.3-1.207-.6-1.808-.9a2.909,2.909,0,0,1-1.742-2.764,2.826,2.826,0,0,1,1.721-2.635c.292-.142.395-.293.362-.588a2.947,2.947,0,0,1,0-.326c0-1.491,0-1.468,1.462-1.5.5-.01.721.111.634.634a4.752,4.752,0,0,0,0,.651" transform="translate(-39.439 -88.901)"/>
    <path id="Trazado_249758" data-name="Trazado 249758" d="M38.607,270.777c0,1.678.006,3.356,0,5.034a2.091,2.091,0,0,1-2.238,2.255q-5.1.011-10.2,0a2.079,2.079,0,0,1-2.205-2.22q-.011-5.1,0-10.2a2.084,2.084,0,0,1,2.2-2.221q5.132-.012,10.264,0a2.072,2.072,0,0,1,2.173,2.186c.012,1.721,0,3.443,0,5.164" transform="translate(-19.772 -217.386)"/>
    <path id="Trazado_249759" data-name="Trazado 249759" d="M168.156,38c-3.984,0-7.969-.009-11.953.011-.477,0-.624-.1-.615-.6.028-1.5,0-1.5,1.528-1.5q11.463,0,22.926-.013c.533,0,.7.11.681.667C180.682,38,180.712,38,179.259,38Z" transform="translate(-128.398 -29.622)" fill="#fe816e"/>
    <path id="Trazado_249760" data-name="Trazado 249760" d="M83.8,302.353c0-.891.013-1.782-.007-2.672-.008-.333.08-.437.43-.447,1.67-.048,1.669-.061,1.669,1.614,0,1.39-.014,2.781.009,4.171.006.392-.085.512-.5.514-1.6.007-1.6.024-1.6-1.55v-1.629" transform="translate(-69.151 -246.931)" fill="#fe816e"/>
    <path id="Trazado_249761" data-name="Trazado 249761" d="M38.04,276.51c0,.994,0,.994-1.033.994-1.059,0-1.059,0-1.059-1.033,0-1.059,0-1.059,1.033-1.059,1.059,0,1.059,0,1.059,1.1" transform="translate(-29.666 -227.283)" fill="#fe816e"/>
    <path id="Trazado_249762" data-name="Trazado 249762" d="M59.892,276.415c0-1,0-1,1.024-1,1.068,0,1.068,0,1.068,1.09,0,1,0,1-1.025,1-1.068,0-1.068,0-1.068-1.09" transform="translate(-49.426 -227.283)" fill="#fe816e"/>
    <path id="Trazado_249763" data-name="Trazado 249763" d="M84.916,275.412c1.012,0,1.012,0,1.012,1.016,0,1.077,0,1.077-1.081,1.077-1.011,0-1.011,0-1.011-1.016,0-1.077,0-1.077,1.08-1.077" transform="translate(-69.185 -227.283)" fill="#fe816e"/>
    <path id="Trazado_249764" data-name="Trazado 249764" d="M38.04,300.408c0,1.041,0,1.041-1.051,1.041s-1.041,0-1.041-1.051,0-1.041,1.051-1.041,1.041,0,1.041,1.051" transform="translate(-29.666 -247.043)" fill="#fe816e"/>
    <path id="Trazado_249765" data-name="Trazado 249765" d="M60.96,299.357c1.025,0,1.025,0,1.025,1,0,1.089,0,1.089-1.068,1.089-1.024,0-1.024,0-1.024-1,0-1.09,0-1.09,1.068-1.09" transform="translate(-49.426 -247.043)" fill="#fe816e"/>
    <path id="Trazado_249766" data-name="Trazado 249766" d="M37.016,323.3c1.025,0,1.025,0,1.025,1,0,1.089,0,1.089-1.068,1.089-1.024,0-1.024,0-1.024-1,0-1.09,0-1.09,1.068-1.09" transform="translate(-29.666 -266.803)" fill="#fe816e"/>
    <path id="Trazado_249767" data-name="Trazado 249767" d="M61.984,324.37c0,1.025,0,1.025-1,1.025-1.089,0-1.089,0-1.089-1.068,0-1.024,0-1.024,1-1.024,1.09,0,1.09,0,1.09,1.068" transform="translate(-49.426 -266.804)" fill="#fe816e"/>
  </g>
</svg>
