<svg id="Grupo_149102" data-name="Grupo 149102" xmlns="http://www.w3.org/2000/svg" xmlns:xlink="http://www.w3.org/1999/xlink" width="75.529" height="80.5" viewBox="0 0 75.529 80.5">
  <defs>
    <clipPath id="clip-path">
      <rect id="Rectángulo_90326" data-name="Rectángulo 90326" width="75.529" height="80.5" fill="none"/>
    </clipPath>
  </defs>
  <g id="Grupo_149102-2" data-name="Grupo 149102" clip-path="url(#clip-path)">
    <path id="Trazado_249678" data-name="Trazado 249678" d="M72.3,80.5h-51a3.579,3.579,0,0,1-3.044-3.78c-.01-1.185-.01-1.185-1.244-1.189A17.041,17.041,0,0,1,.107,60.425,16.831,16.831,0,0,1,9.5,43.236a1.459,1.459,0,0,0,.923-1.521q-.028-9.742-.008-19.484c0-1.2.3-1.578,1.389-1.822a1.459,1.459,0,0,1,1.4,1.5c.029.34.016.681.016,1.021q0,8.761,0,17.522c0,.236.007.472,0,.707-.008.484.209.648.686.566a15.475,15.475,0,0,1,2.645-.3,16.9,16.9,0,0,1,14.314,7.251c.434.593.8.965,1.587.662a3.768,3.768,0,0,1,1.325-.053q4.157,0,8.313,0a7.03,7.03,0,0,1,.94.029,1.361,1.361,0,0,1,1.287,1.168A1.5,1.5,0,0,1,43.294,52a3.334,3.334,0,0,1-1.164.122c-2.823,0-5.646,0-8.47,0-.783,0-.823.071-.6.816a17,17,0,0,1-3.1,16.543.81.81,0,0,0-.283.557c10.945.017,21.882-.007,32.82.012.236-.006.47-.021.705-.027,1.327-.03,1.73-.424,1.778-1.733.012-.314.006-.628.006-.943q0-31.028,0-62.056c0-2.5-.1-2.606-2.571-2.7a12.314,12.314,0,0,1-1.253.021H15.62c-2.175,0-2.381.207-2.382,2.37,0,3.849.011,7.7-.007,11.545-.006,1.242-.354,1.681-1.413,1.9-1.033-.2-1.41-.6-1.415-1.63q-.032-6.541,0-13.083A3.964,3.964,0,0,1,12.143.463C12.637.087,13.237.186,13.769,0H64.611a3.82,3.82,0,0,1,3.214,3.947c.045.942.024,1.886.01,2.828-.009.6.237.85.834.842.967-.013,1.934-.019,2.9,0A3.851,3.851,0,0,1,75.524,11.6q.011,32.484,0,64.968a4.079,4.079,0,0,1-.2,1.47A3.385,3.385,0,0,1,72.3,80.5" transform="translate(0)"/>
    <path id="Trazado_249679" data-name="Trazado 249679" d="M55.918,29.46q0-1.157,0-2.315c.99-.237,1.238-.544,1.239-1.581q.005-6.286,0-12.572c0-1.23.495-1.745,1.686-1.745q23.723,0,47.445,0c.1,0,.208.016.312.025a1.329,1.329,0,0,1,.548,1.079c.029.34.023.68.023,1.02q0,31.852,0,63.7a8.93,8.93,0,0,1-.034,1.1,1.166,1.166,0,0,1-.535.993c-.182.013-.363.038-.545.038q-16.2,0-32.4,0h-.518c4.859-5.471,6-11.587,3.525-18.387.234-.151.5-.072.744-.072q4.589-.01,9.177,0c.183,0,.367.011.549,0a1.208,1.208,0,0,0,1.2-1.2A1.154,1.154,0,0,0,87.1,58.4c-1.464-.022-2.928-.009-4.392-.01H77.064c-.342,0-.724-.04-.963.229-.419.472-.538.125-.748-.19a16.6,16.6,0,0,0-14.885-7.846,17.583,17.583,0,0,0-3.308.457v-.9q0-9.549,0-19.1c0-1.038-.26-1.358-1.239-1.574" transform="translate(-44.191 -8.888)" fill="#ebeff8"/>
    <path id="Trazado_249680" data-name="Trazado 249680" d="M148.488,116.36c-.287.01-.574.028-.861.028q-23.3,0-46.6,0c-1.63,0-2.029-.4-2.033-2.04,0-1.211,0-1.216,1.14-1.559a12.87,12.87,0,0,0,3.155-1.354,3.681,3.681,0,0,1,2.069-.521q18.044.021,36.088.019a4.215,4.215,0,0,0,3.229-1.118,4.041,4.041,0,0,0,1.125-3q-.01-6.563,0-13.127,0-22.206-.014-44.411c0-.654.1-.959.832-.864a17.8,17.8,0,0,0,1.877.057,1.481,1.481,0,0,1,.522,1.021,6.871,6.871,0,0,1,.048,1.02q0,31.907,0,63.815c0,.721.1,1.492-.57,2.032" transform="translate(-78.233 -38.248)" fill="#d2e1ea"/>
    <path id="Trazado_249681" data-name="Trazado 249681" d="M30.524,238.206a13.672,13.672,0,0,1-12.066-2.011,14.441,14.441,0,0,1,5.886-26.113,12.691,12.691,0,0,1,6.184.394,15.264,15.264,0,0,1,8.2,11.984,15.022,15.022,0,0,1-2.383,10.415,13.985,13.985,0,0,1-5.819,5.332" transform="translate(-9.688 -165.861)" fill="#fee079"/>
    <path id="Trazado_249682" data-name="Trazado 249682" d="M297.6,79.166a3.537,3.537,0,0,0,.32-1.672q-.01-32.121,0-64.241a4.087,4.087,0,0,0-.32-1.981c2.488-.134,2.8.154,2.8,2.594q0,31.362.02,62.723c0,2.548-.682,2.765-2.816,2.578" transform="translate(-235.187 -8.886)" fill="#d7e3ef"/>
    <path id="Trazado_249683" data-name="Trazado 249683" d="M335,116.455a5.6,5.6,0,0,0,.325-2.15q-.013-31.715,0-63.429A6.26,6.26,0,0,0,335,48.567a1.717,1.717,0,0,1,.23-.039c2.188-.075,2.5.225,2.5,2.423q0,31.785,0,63.57c0,1.532-.431,1.963-1.949,1.962-.261,0-.521-.018-.782-.028" transform="translate(-264.741 -38.343)" fill="#afc3d7"/>
    <path id="Trazado_249684" data-name="Trazado 249684" d="M99.35,240.464a14.594,14.594,0,0,1,2.064-1.5,15.69,15.69,0,0,0,2.722-22.044,14.962,14.962,0,0,0-4.056-3.617,1.964,1.964,0,0,1-.726-.57,13.639,13.639,0,0,1,8.081,5.792,14.458,14.458,0,0,1-7.553,21.833,4.638,4.638,0,0,1-.532.105" transform="translate(-78.514 -168.119)" fill="#fecb66"/>
    <path id="Trazado_249685" data-name="Trazado 249685" d="M146.3,32.332c-2.091,0-4.182.007-6.273,0a2.428,2.428,0,0,1-2.661-2.68c0-.812-.014-1.624,0-2.436a2.386,2.386,0,0,1,2.362-2.432q6.587-.043,13.174,0a2.385,2.385,0,0,1,2.381,2.413q.032,1.374,0,2.75a2.356,2.356,0,0,1-2.4,2.379c-2.2.025-4.391.007-6.587.007Z" transform="translate(-108.555 -19.568)"/>
    <path id="Trazado_249686" data-name="Trazado 249686" d="M207.075,280.768c-1.672,0-3.343.01-5.015,0a2.469,2.469,0,0,1-2.71-2.729c-.006-.759-.012-1.518,0-2.277a2.414,2.414,0,0,1,2.545-2.568c1.358-.03,2.716-.007,4.074-.007,1.985,0,3.97-.008,5.955,0a2.481,2.481,0,0,1,2.758,2.763q.01,1.021,0,2.041a2.486,2.486,0,0,1-2.751,2.775c-1.619.01-3.239,0-4.858,0" transform="translate(-157.537 -215.886)"/>
    <path id="Trazado_249687" data-name="Trazado 249687" d="M162.576,89.308q-5.525,0-11.05,0a3.662,3.662,0,0,1-.781-.03,1.172,1.172,0,0,1,.1-2.32,3.437,3.437,0,0,1,.47-.008h22.648c.078,0,.157,0,.235,0,.8.024,1.294.456,1.308,1.147.015.72-.493,1.195-1.333,1.208-.966.015-1.933,0-2.9,0h-8.7" transform="translate(-118.372 -68.712)"/>
    <path id="Trazado_249688" data-name="Trazado 249688" d="M162.641,149.084h11.127a5.888,5.888,0,0,1,.7.014,1.16,1.16,0,0,1,.2,2.263,2.984,2.984,0,0,1-.85.078q-11.167.006-22.333,0a3.16,3.16,0,0,1-.778-.044,1.108,1.108,0,0,1-.923-1.194,1.086,1.086,0,0,1,1.1-1.109c.312-.022.627-.01.94-.01h10.814" transform="translate(-118.375 -117.816)"/>
    <path id="Trazado_249689" data-name="Trazado 249689" d="M162.652,211.164q5.523,0,11.047,0a5.352,5.352,0,0,1,.859.038,1.153,1.153,0,0,1,.107,2.243,3.415,3.415,0,0,1-.852.073q-11.165.005-22.329,0a3.433,3.433,0,0,1-.852-.076,1.15,1.15,0,0,1,.113-2.242,5.834,5.834,0,0,1,.859-.037q5.523,0,11.047,0" transform="translate(-118.375 -166.879)" fill="#010101"/>
    <path id="Trazado_249690" data-name="Trazado 249690" d="M107.581,90.732c0,.5.023,1,0,1.492a2.362,2.362,0,0,1-2.215,2.239c-1.017.047-2.039.045-3.056,0a2.391,2.391,0,0,1-2.25-2.3c-.043-.967-.042-1.938,0-2.905a2.419,2.419,0,0,1,2.39-2.33q1.371-.032,2.743,0a2.4,2.4,0,0,1,2.4,2.391c.016.471,0,.942,0,1.414h-.006" transform="translate(-79.046 -68.686)"/>
    <path id="Trazado_249691" data-name="Trazado 249691" d="M103.849,149.091c.47,0,.941-.015,1.411,0a2.362,2.362,0,0,1,2.317,2.3c.033.967.032,1.938,0,2.905a2.387,2.387,0,0,1-2.291,2.336c-.965.044-1.934.041-2.9,0a2.418,2.418,0,0,1-2.333-2.311c-.044-.967-.041-1.938,0-2.905a2.414,2.414,0,0,1,2.385-2.329c.47-.015.941,0,1.411,0" transform="translate(-79.046 -117.819)"/>
    <path id="Trazado_249692" data-name="Trazado 249692" d="M156.084,173.9c1.647,0,3.295,0,4.942,0,.914,0,1.457.447,1.458,1.171s-.552,1.183-1.455,1.184q-4.942.008-9.884,0c-.889,0-1.441-.494-1.415-1.22.025-.7.545-1.13,1.412-1.134,1.647-.007,3.295,0,4.942,0" transform="translate(-118.328 -137.426)"/>
    <path id="Trazado_249693" data-name="Trazado 249693" d="M156.1,111.755c1.647,0,3.295-.005,4.942,0,.9,0,1.449.476,1.434,1.2-.015.7-.538,1.151-1.4,1.153q-4.981.01-9.962,0c-.858,0-1.381-.451-1.394-1.154-.014-.726.536-1.2,1.435-1.2,1.647-.007,3.295,0,4.942,0" transform="translate(-118.325 -88.317)"/>
    <path id="Trazado_249694" data-name="Trazado 249694" d="M45.513,228.673c.96-.281,1.321-.141,1.81.7a11.577,11.577,0,1,1-12.06-5.69,11.3,11.3,0,0,1,7.85,1.421c.838.485.963.855.665,1.825-.434.738-.981.878-1.83.441a9.49,9.49,0,0,0-3.2-1.157A9.021,9.021,0,0,0,35.739,244a8.7,8.7,0,0,0,3.333-.073,8.983,8.983,0,0,0,6.246-12.822,3.621,3.621,0,0,1-.441-1.087c-.079-.58-.032-1.114.634-1.348" transform="translate(-20.286 -176.626)"/>
    <path id="Trazado_249695" data-name="Trazado 249695" d="M94.863,238.189a1.421,1.421,0,0,0-.189,1.965A9.227,9.227,0,0,1,89.121,253.5c-.224.062-.459.087-.689.129-.069-.482.366-.594.627-.8a10.14,10.14,0,0,0,3.876-5.922,9.989,9.989,0,0,0-2.027-8.705,10.536,10.536,0,0,0-2.363-2.161c-.185-.126-.439-.209-.43-.507a7.611,7.611,0,0,1,3.126,1.106,1.356,1.356,0,0,0,1.886-.2,14.946,14.946,0,0,1,1.736,1.742" transform="translate(-69.636 -186.143)" fill="#feb75b"/>
    <path id="Trazado_249696" data-name="Trazado 249696" d="M154.921,38.541c-1.933,0-3.866-.021-5.8.013-.584.01-.871-.1-.789-.759s-.275-1.542.144-1.964,1.289-.127,1.96-.129c3.474-.013,6.948,0,10.422-.018.528,0,.772.106.709.682-.076.695.282,1.587-.146,2.041-.4.423-1.286.119-1.957.127-1.515.019-3.03.006-4.545.006" transform="translate(-117.175 -28.137)" fill="#a7e446"/>
    <path id="Trazado_249697" data-name="Trazado 249697" d="M215.6,284.08c1.543,0,3.087.022,4.629-.012.559-.012.741.177.7.719a10.337,10.337,0,0,0,0,1.493c.032.49-.1.7-.645.691q-4.668-.034-9.337,0c-.531,0-.693-.174-.65-.679.06-.7-.282-1.6.133-2.056s1.337-.131,2.034-.149c1.045-.027,2.092-.007,3.138-.007" transform="translate(-166.132 -224.431)" fill="#a7e446"/>
    <path id="Trazado_249698" data-name="Trazado 249698" d="M112.682,101.053c-1.346,0-1.346,0-1.346-1.342,0-1.5,0-1.5,1.5-1.5,1.34,0,1.34,0,1.34,1.34,0,1.5,0,1.5-1.494,1.5" transform="translate(-87.987 -77.614)" fill="#ebeff8"/>
    <path id="Trazado_249699" data-name="Trazado 249699" d="M112.753,160.341c1.423,0,1.423,0,1.423,1.414,0,1.43,0,1.43-1.412,1.43-1.429,0-1.429,0-1.429-1.418s0-1.426,1.417-1.426" transform="translate(-87.987 -126.714)" fill="#ebeff8"/>
    <path id="Trazado_249700" data-name="Trazado 249700" d="M47.715,235.013a10.273,10.273,0,0,1,5.078,7.053,10.029,10.029,0,0,1-2.364,8.85c-.717.835-1.636,1.419-2.4,2.189-4.495,1.193-9.469-1.917-10.732-6.71a9.2,9.2,0,0,1,10.415-11.382" transform="translate(-29.236 -185.616)" fill="#feca5b"/>
    <path id="Trazado_249701" data-name="Trazado 249701" d="M70.528,247.157a1.226,1.226,0,0,1-1.034,1.33,1.174,1.174,0,0,1-1.279-1.007c-.04-.179-.053-.364-.1-.54a1.414,1.414,0,0,0-1.473-1.044,1.458,1.458,0,0,0-1.3,1.357,1.389,1.389,0,0,0,1.1,1.428c.459.1.94.1,1.389.229a3.776,3.776,0,0,1,.679,6.953c-.326.174-.578.3-.616.762a1.05,1.05,0,0,1-1.137.977,1.07,1.07,0,0,1-1.138-.981.824.824,0,0,0-.536-.735A3.668,3.668,0,0,1,63,252.86a1.237,1.237,0,0,1,1.019-1.506c.659-.082,1.148.352,1.3,1.157.208,1.08.888,1.61,1.781,1.374a1.315,1.315,0,0,0,1.056-1.377,1.3,1.3,0,0,0-1.011-1.332,4.655,4.655,0,0,0-.774-.114,3.765,3.765,0,0,1-1.369-7.079c.331-.174.579-.3.617-.763a1.148,1.148,0,0,1,2.27-.008c.045.456.282.583.612.765a3.712,3.712,0,0,1,2.02,3.18" transform="translate(-49.781 -191.437)"/>
  </g>
</svg>
