<svg xmlns="http://www.w3.org/2000/svg" xmlns:xlink="http://www.w3.org/1999/xlink" width="152" height="162" viewBox="0 0 152 162">
  <defs>
    <clipPath id="clip-path">
      <ellipse id="Elipse_5608" data-name="Elipse 5608" cx="73" cy="78.5" rx="73" ry="78.5" transform="translate(727 1117)" fill="#fff"/>
    </clipPath>
    <clipPath id="clip-path-2">
      <rect id="Rectángulo_90321" data-name="Rectángulo 90321" width="131.445" height="149.921" fill="none"/>
    </clipPath>
  </defs>
  <g id="Grupo_149663" data-name="Grupo 149663" transform="translate(-1140 -5709)">
    <g id="Elipse_5606" data-name="Elipse 5606" transform="translate(1140 5719)" fill="#fff" stroke="#fec0c2" stroke-width="6">
      <circle cx="76" cy="76" r="76" stroke="none"/>
      <circle cx="76" cy="76" r="73" fill="none"/>
    </g>
    <g id="Enmascarar_grupo_117498" data-name="Enmascarar grupo 117498" transform="translate(416 4592)" clip-path="url(#clip-path)">
      <g id="Grupo_149093" data-name="Grupo 149093" transform="translate(734.277 1134.207)">
        <g id="Grupo_149093-2" data-name="Grupo 149093" clip-path="url(#clip-path-2)">
          <path id="Trazado_249363" data-name="Trazado 249363" d="M89.939,9.921c3.266-2.189,6.479-4.454,9.612-6.831A15.06,15.06,0,0,1,105.217.518c.4-.1.887-.105,1.165-.518h2.934c.731,1.178.408,2.445.319,3.691-.547,1.093-1.722,1.515-2.535,2.344-4.3,4.379-8.653,8.7-13.013,13.014a8.516,8.516,0,0,0-2.027,2.814,21.1,21.1,0,0,1-4.625,2.478,69.363,69.363,0,0,1-13.677,4.691,2.985,2.985,0,0,1-1.861.139c-.71-.868.1-1.322.558-1.784,2.794-2.842,5.66-5.613,8.441-8.468,2.472-2.538,5.191-4.838,7.393-7.638.448-.569,1.342-.614,1.652-1.36" transform="translate(-43.592)" fill="#a7dbfd"/>
          <path id="Trazado_249364" data-name="Trazado 249364" d="M167.222,4.1q.006-2.049.012-4.1h2.64l2.348.867c.376.479.053.918-.085,1.363a24.756,24.756,0,0,1-2.07,4.628c-.866,1.57-1.417,3.271-2.174,4.886a.656.656,0,0,1-.712.017,1.242,1.242,0,0,1-.262-.456,47.306,47.306,0,0,1-.111-5.986,1.8,1.8,0,0,1,.414-1.221" transform="translate(-101.51)" fill="#86c6e7"/>
          <path id="Trazado_249365" data-name="Trazado 249365" d="M218.631,243.275a98.283,98.283,0,0,1-5.411,11.268c-.248.408-.34.922-.792,1.2-.8-.113-1.051.62-1.462,1.03q-16.258,16.176-32.479,32.389c-.346.345-.7.68-1.039,1.033a1.809,1.809,0,0,1-2.716.142c-2.246-1.636-2.261-1.6-4.265.384-2.288,2.263-4.52,4.583-6.854,6.8a7.976,7.976,0,0,0-1.915.122h-.621c-.865-.308-1.8.1-2.658-.238l-1.136-.059c-.4-.785.282-1.138.68-1.548,1.65-1.7,3.333-3.359,5.017-5.021a5.83,5.83,0,0,0,1.407-1.994,7.033,7.033,0,0,1,2.684-1.873,1.071,1.071,0,0,0,.889-.814,1.243,1.243,0,0,1,1.028-.576c.484.043.968.09,1.453.13a1.662,1.662,0,0,1,.895.457c1.57,1.4,1.65,1.406,3.169-.108q11.66-11.625,23.31-23.261,9.375-9.357,18.752-18.711a4.471,4.471,0,0,1,1.33-1.129c.319-.133.8-.335.735.38" transform="translate(-95.663 -147.768)" fill="#7ee0f8"/>
          <path id="Trazado_249366" data-name="Trazado 249366" d="M46.581,25.353c0,.34.047.694-.242.955C40.333,31.74,34.862,37.714,29.049,43.341c-.315.3-.661.6-.638,1.1-.154.779-.857.7-1.374.8A73.111,73.111,0,0,1,16.775,46.58,4.857,4.857,0,0,0,11.983,50.1c-.445,1.775.018,3.6-.283,5.377-.354.851-1.182,1.265-1.788,1.881q-3.839,3.9-7.749,7.731c-.445.437-.846,1.172-1.7.7-.15-2.433-.024-4.868-.07-7.3a1.709,1.709,0,0,1,.679-1.384c2.9-2.54,5.488-5.407,8.264-8.079a8.611,8.611,0,0,1,2.6-2.088c.818-.335.8-1.388,1.431-1.966,1.15-1.053,2.239-2.176,3.323-3.3,2.234-2.315,4.678-4.426,6.722-6.925a4.18,4.18,0,0,1,1.176-.857,76.62,76.62,0,0,0,19.54-7.261,9,9,0,0,1,2.452-1.28" transform="translate(-0.234 -15.432)" fill="#abdbfd"/>
          <path id="Trazado_249367" data-name="Trazado 249367" d="M238.149,225.258c-.489-.627-.758-.037-1.029.22-.781.738-1.529,1.51-2.29,2.27L194.38,268.118c-1.959,1.955-1.957,1.953-3.971-.035-.091-.09-.27-.09-.409-.131-.326-.247-.765-.4-.772-.916a1.076,1.076,0,0,1,.1-.406,31.9,31.9,0,0,1,5.067-4.4c4.741-3.833,9.613-7.509,13.822-11.947a94.027,94.027,0,0,0,11.807-14.859,6.29,6.29,0,0,1,1.518-1.95,3.093,3.093,0,0,0,.92-.7c5.65-6.731,12.294-12.5,18.372-18.812.425-.441.871-.962,1.625-.75a69.383,69.383,0,0,1-4.313,12.046" transform="translate(-115.181 -129.75)" fill="#82def7"/>
          <path id="Trazado_249368" data-name="Trazado 249368" d="M24.355,47.179c-3.212,4.063-7.177,7.4-10.731,11.139-.461.484-1.075.875-1.017,1.682.018.248-.067.553-.348.561-1.608.048-2.228,1.449-3.2,2.335C6.227,65.491,3.77,68.481.752,70.89.265,71.278.3,71.82.3,72.36q.006,3.36,0,6.719a3.062,3.062,0,0,1,.453,2.193c0,1.482.047,2.965-.034,4.447A1.92,1.92,0,0,1,.289,87.3C-.129,86.848.03,86.284.03,85.766q-.017-13.755,0-27.509a9.39,9.39,0,0,1,9.1-9.568,94.581,94.581,0,0,0,15.227-1.51" transform="translate(0 -28.717)" fill="#afdbfd"/>
          <path id="Trazado_249369" data-name="Trazado 249369" d="M298.9,51.382c3.523.142,7.137,3.33,7.869,6.959a15.787,15.787,0,0,1,.311,3.182c-.023,8.812-.013,17.624-.027,26.436a2.872,2.872,0,0,1-.24,1.842,2.334,2.334,0,0,1-.487-1.912c0-4.612-.041-9.225.013-13.835.115-4.079.024-8.162.045-12.245,0-.331.1-.771-.23-.939-.432-.223-.705.213-.968.469-1.813,1.764-3.589,3.567-5.383,5.351-.794.789-1.569,1.6-2.385,2.364-.411.386-.829,1.024-1.457.731-.524-.245-.385-.938-.414-1.465A10.327,10.327,0,0,0,295.415,66a5.238,5.238,0,0,0-2.175-3.013,5.613,5.613,0,0,0-2.917-.67c-.608-.005-1.269.122-1.759-.416-.085-.8.529-1.218,1-1.659,2.309-2.151,4.475-4.446,6.732-6.648a5.576,5.576,0,0,0,1.312-1.726.84.84,0,0,1,1.287-.488" transform="translate(-175.642 -31.192)" fill="#8fdefa"/>
          <path id="Trazado_249370" data-name="Trazado 249370" d="M12.962,94.147c.168-1.95-.32-3.928.26-5.859.686.673.5,1.547.5,2.353.019,6.343.045,12.687,0,19.03a88.138,88.138,0,0,0,.561,9.923c.1,2.008.566,3.967.82,5.955a3.09,3.09,0,0,1-.065.933c-.189.715-.844,1.035-1.307,1.516-2.354,2.445-4.9,4.7-7.121,7.278-.247.286-.5.623-.972.448a66.6,66.6,0,0,1-2.65-13.164c-.084-.663.489-.9.847-1.261,2.554-2.545,5.087-5.111,7.664-7.633a3.329,3.329,0,0,0,1.089-2.588c-.049-3.407.027-6.814-.049-10.223-.046-1.643-.024-3.284-.019-4.925a2.51,2.51,0,0,1,.446-1.783" transform="translate(-1.811 -53.74)" fill="#a3dcfc"/>
          <path id="Trazado_249371" data-name="Trazado 249371" d="M278.363,49.323c-.283.029-.635-.045-.8.236-2.107,3.552-5.48,5.922-8.279,8.827-.394.409-.633.99-1.224,1.2a1.661,1.661,0,0,1-1.182.406c-1.656-.069-3.274-.448-4.919-.61-1.9-.347-3.794-.724-5.661-1.222a2.665,2.665,0,0,1-1.437-.619c-.014-.044-.053-.12-.038-.133,3.248-2.769,5.12-6.756,8.421-9.477a.7.7,0,0,1,.128-.068,82,82,0,0,0,12.869,1.2c.706-.005,1.465-.226,2.123.256" transform="translate(-155.106 -29.133)" fill="#93defa"/>
          <path id="Trazado_249372" data-name="Trazado 249372" d="M35.782,259.526A61.249,61.249,0,0,1,29.9,249.3c-.175-.652.334-.972.691-1.333q2.977-3.013,5.995-5.986c.443-.437.871-.955,1.619-.8,1,.883,1.206,2.228,1.9,3.29q1.184,2.182,2.378,4.359a9.5,9.5,0,0,1,1.171,2.455,1.571,1.571,0,0,1-.57,1.276c-2.205,2.232-4.415,4.458-6.666,6.643a1.083,1.083,0,0,1-.633.323" transform="translate(-18.177 -146.788)" fill="#97ddfb"/>
          <path id="Trazado_249373" data-name="Trazado 249373" d="M11.592,120.872q0,5.177.007,10.354a2.13,2.13,0,0,1-.516,1.741c-3.17,3.084-6.316,6.192-9.469,9.293a46.988,46.988,0,0,1-.884-10.232q.009-.744.018-1.49c3-3.14,6.125-6.162,9.2-9.225.434-.432.913-.968,1.64-.441" transform="translate(-0.441 -73.44)" fill="#a7dbfd"/>
          <path id="Trazado_249374" data-name="Trazado 249374" d="M30.856,224.235c-.223.083-.508.1-.659.257-2.531,2.555-5.205,4.97-7.577,7.682a57.478,57.478,0,0,1-4.678-10.564c-.164-.579.265-.892.59-1.221q3.268-3.3,6.572-6.557a2.117,2.117,0,0,1,1.483-.817c.769.475.73,1.367,1.075,2.062.617,1.527,1.078,3.112,1.725,4.628.475,1.412,1.286,2.693,1.651,4.149a.634.634,0,0,1-.181.38" transform="translate(-10.898 -129.66)" fill="#9bddfb"/>
          <path id="Trazado_249375" data-name="Trazado 249375" d="M173.961,316.911c-.005-.564.428-.852.767-1.191,2.278-2.281,4.573-4.545,6.837-6.84.862-.874,1.648-1.4,2.6-.1.247.336.74.483,1.03.8.961,1.048,1.651.509,2.43-.272q9.416-9.441,18.867-18.847,7.467-7.452,14.954-14.885c.256-.252.553-1.288,1.209-.3l-2.574,4.184Q204.42,295,188.831,310.615a5.961,5.961,0,0,1-1.706,1.105,3.8,3.8,0,0,0-2.314,2.273,23.267,23.267,0,0,1-10.228,2.943.459.459,0,0,1-.623-.025" transform="translate(-105.888 -167.301)" fill="#7ce0f8"/>
          <path id="Trazado_249376" data-name="Trazado 249376" d="M66.957,303.143a56.9,56.9,0,0,1-7.087-8.117c-.121-.9.531-1.416,1.037-1.968.95-1.037,1.959-2.023,2.98-2.992A15.515,15.515,0,0,0,66.9,286.4c1.035-.036,1.226.96,1.8,1.485.424.391.709.911,1.1,1.34,1.347,1.921,3.292,3.355,4.457,5.428a1.88,1.88,0,0,1-.587,1.848c-2.229,2.22-4.394,4.505-6.706,6.642" transform="translate(-36.434 -174.328)" fill="#8fdefa"/>
          <path id="Trazado_249377" data-name="Trazado 249377" d="M21.519,196.782c-2.941,2.748-5.821,5.555-8.531,8.534a51.686,51.686,0,0,1-3.22-9.966c2.332-2.376,4.658-4.759,7-7.126.677-.684,1.4-1.321,2.106-1.979.984.339.626,1.325.962,1.978a47.115,47.115,0,0,0,1.349,5.382c.068,1.063,1.019,2.036.332,3.177" transform="translate(-5.946 -113.366)" fill="#9fdcfc"/>
          <path id="Trazado_249378" data-name="Trazado 249378" d="M103.373,338.523c-2.353-1.94-4.833-3.727-7.052-5.829-.592-1.02.007-1.758.633-2.443.977-1.069,2.031-2.065,3.06-3.084a22.375,22.375,0,0,0,2.967-3.337c.689-.17,1,.4,1.445.724,1.754,1.461,3.6,2.81,5.312,4.325.467.482,1.135.779,1.374,1.474a2.372,2.372,0,0,1-.8,1.521c-2.047,2.16-4.176,4.238-6.3,6.32a1.141,1.141,0,0,1-.64.329" transform="translate(-58.482 -197.094)" fill="#87dff9"/>
          <path id="Trazado_249379" data-name="Trazado 249379" d="M57.907,274.714a5.841,5.841,0,0,1-1.9,2.955c-1.775,1.825-3.835,3.393-5.188,5.608a49.944,49.944,0,0,1-5.832-7.959q3.345-3.414,6.685-6.831c.394-.4.942-.718.952-1.39,1.124.109,1.234,1.177,1.764,1.849.727,1.292,1.686,2.425,2.524,3.641.319.714,1.22,1.16.992,2.128" transform="translate(-27.386 -162.579)" fill="#93defa"/>
          <path id="Trazado_249380" data-name="Trazado 249380" d="M92.081,313.828a5.01,5.01,0,0,1-1.624,2.36c-1.4,1.358-2.753,2.765-4.153,4.122a2.824,2.824,0,0,0-.984,2.331A59.239,59.239,0,0,1,78,315.856c0-.617.5-.912.861-1.279,1.8-1.816,3.606-3.635,5.441-5.42a1.978,1.978,0,0,0,.735-1.779.393.393,0,0,1,.375-.077c1.561,1.152,2.716,2.741,4.243,3.931.858.818,1.932,1.436,2.422,2.6" transform="translate(-47.48 -187.041)" fill="#8bdff9"/>
          <path id="Trazado_249381" data-name="Trazado 249381" d="M114.721,348.663c1.867-1.914,3.721-3.84,5.608-5.734a12.377,12.377,0,0,0,2.022-2.47c1.489.31,2.329,1.591,3.5,2.375a26.062,26.062,0,0,1,2.238,1.824c.583.815,1.906,1,1.955,2.27a101.528,101.528,0,0,0-7.115,7.324,33.623,33.623,0,0,1-8.208-5.59" transform="translate(-69.83 -207.235)" fill="#84dff9"/>
          <path id="Trazado_249382" data-name="Trazado 249382" d="M201.118,321.154c-.263-.029-.486-.065-.3-.429a4.069,4.069,0,0,1,2.194-2.053,7.208,7.208,0,0,0,2.688-1.941q14.246-14.222,28.49-28.445a8.493,8.493,0,0,1,2.194-1.668,74.03,74.03,0,0,1-7.606,10.5,88.942,88.942,0,0,1-14.338,14.11c-3.607,2.751-6.946,5.84-10.722,8.368-.839.562-1.733,1.044-2.6,1.563" transform="translate(-122.195 -174.462)" fill="#7ae1f8"/>
          <path id="Trazado_249383" data-name="Trazado 249383" d="M253.265,44.246c-.028.142-.005.34-.091.419-2.69,2.481-4.583,5.634-7.035,8.315a1.562,1.562,0,0,1-1.39.649c-.938.7-1.776-.12-2.665-.171-1.327-.483-2.787-.669-3.868-1.709a7.9,7.9,0,0,1,2.038-4.371c1.2-1.259,1.881-2.92,2.972-4.282.361-.45.621-.993,1.234-1.173l8.805,2.324" transform="translate(-145 -25.518)" fill="#99dcfa"/>
          <path id="Trazado_249384" data-name="Trazado 249384" d="M320.825,108.146q.014,8.075.028,16.152l-.028,1.414c-.479.2-.713-.2-1.02-.415-.409-.412-.817-.824-1.24-1.223-.539-.47-.874-1.123-1.432-1.575a4.468,4.468,0,0,1-1.142-1.244,2.657,2.657,0,0,0-.66-.592,10.156,10.156,0,0,1-.909-.865,11.1,11.1,0,0,1-1.088-1.236,5.12,5.12,0,0,0-1-.861,1.489,1.489,0,0,1-.69-1.415c2.4-2.819,5.161-5.287,7.769-7.9.38-.382.855-.7,1.417-.236" transform="translate(-189.682 -65.689)" fill="#87dff9"/>
          <path id="Trazado_249385" data-name="Trazado 249385" d="M135.694,364.161a1.472,1.472,0,0,1,.423-1.182c1.958-1.937,3.9-3.892,5.863-5.822a2.524,2.524,0,0,1,.765-.349c.59-.231,1.014.155,1.467.4a7.317,7.317,0,0,0,5.964.938,1.286,1.286,0,0,1,1.37.122,3.009,3.009,0,0,1-1.091,1.826q-2.687,2.664-5.354,5.347c-.365.369-.865.66-.887,1.274a25.393,25.393,0,0,1-8.519-2.557" transform="translate(-82.595 -217.142)" fill="#80e0f8"/>
          <path id="Trazado_249386" data-name="Trazado 249386" d="M216.133,28.512l5.3,2.629c.578.289.414.749.363,1.252a13.944,13.944,0,0,1-2.213,5.491,7.634,7.634,0,0,0-1.3,4.064c-.637.435-1.213.053-1.775-.173-.941-.377-1.813-.909-2.765-1.269a6.381,6.381,0,0,1-2.179-1.517,3.315,3.315,0,0,1,.4-2.386c.891-2.376,2.288-4.525,3.119-6.93a1.916,1.916,0,0,1,1.053-1.162" transform="translate(-128.709 -17.355)" fill="#99d9f8"/>
          <path id="Trazado_249387" data-name="Trazado 249387" d="M228.293,46.052a3.287,3.287,0,0,1,.5-3.28,19.912,19.912,0,0,0,2.918-6.86c.044-.205-.115-.453-.179-.681l6.739,2.618c-1.975,3.273-4.736,6.045-6.172,9.661-1.4.569-2.4-.472-3.555-.874a.545.545,0,0,1-.249-.583" transform="translate(-138.81 -21.444)" fill="#9adbf9"/>
          <path id="Trazado_249388" data-name="Trazado 249388" d="M292.7,208.106a5,5,0,0,0-1.52,1.108q-8.153,8.156-16.311,16.308a21.491,21.491,0,0,0-1.806,2.267c-.3.4-.582.786-1.141.8-.314-.354-.105-.677.056-1,1.3-2.23,2.45-4.549,3.84-6.73,4.428-5.025,9.787-9.1,14.336-14a12.163,12.163,0,0,1,2.039-2.077c.587.078.982.32.866,1,.143.817-.382,1.531-.36,2.329" transform="translate(-165.414 -124.644)" fill="#82dbf5"/>
          <path id="Trazado_249389" data-name="Trazado 249389" d="M209.37,24.422c-1.343,2.886-2.7,5.765-4.017,8.664a3.307,3.307,0,0,0-.372,1.83c-1.195.252-1.857-.871-2.867-1.1-.724-.367-1.512-.663-1.772-1.557-.021-1.841,1.151-3.259,1.761-4.875.58-1.536,1.485-2.938,1.947-4.533a1.428,1.428,0,0,1,.918-1.057l4.4,2.629" transform="translate(-121.946 -13.265)" fill="#97d4f5"/>
          <path id="Trazado_249390" data-name="Trazado 249390" d="M317,151.9l.875.585a24.4,24.4,0,0,1-.34,4.979c-3.051,3.308-5.855,6.824-8.687,10.317-.665.1-1-.43-1.462-.737a1.837,1.837,0,0,1-.605-1.116,2.234,2.234,0,0,1,.559-1.466c3.06-4.143,6.077-8.319,9.283-12.353A.686.686,0,0,1,317,151.9" transform="translate(-186.733 -92.457)" fill="#85daf6"/>
          <path id="Trazado_249391" data-name="Trazado 249391" d="M311.829,176.363a60.013,60.013,0,0,1,6.841-8.57c.572-.634.958-1.476,1.91-1.678a43.989,43.989,0,0,1-1.113,7.611,52.671,52.671,0,0,1-3.847,4.476c-.343.328-.571.787-1.068.941-1.1-.115-1.526-1.116-2.272-1.7-.241-.322-.639-.58-.451-1.08" transform="translate(-189.778 -101.113)" fill="#85dff7"/>
          <path id="Trazado_249392" data-name="Trazado 249392" d="M169.462,13.051a8.678,8.678,0,0,1,1.054-3.283,43.028,43.028,0,0,0,3.346-7.55,5.838,5.838,0,0,1,2.637.941c.374.442.184.907.072,1.379a15.494,15.494,0,0,1-2.113,5.073,41.51,41.51,0,0,0-2,4.345,4.23,4.23,0,0,1-3-.9" transform="translate(-103.15 -1.349)" fill="#8bc9eb"/>
          <path id="Trazado_249393" data-name="Trazado 249393" d="M200.954,19.046c-1.305,3.568-3.391,6.81-4.39,10.505-1.146.17-1.741-.794-2.586-1.248a.833.833,0,0,1-.231-.371,15.8,15.8,0,0,1,1.916-5.6,17.8,17.8,0,0,0,1.846-4.1,1.142,1.142,0,0,1,.8-.955l2.641,1.766" transform="translate(-117.932 -10.518)" fill="#95d2f3"/>
          <path id="Trazado_249394" data-name="Trazado 249394" d="M194.492,14.4c-1.157,3.721-3.646,6.9-4.389,10.79a3.466,3.466,0,0,1-2.624-2.126,4.959,4.959,0,0,1,.491-2.4c1.087-2.369,2.568-4.565,3.076-7.188a1.181,1.181,0,0,1,.852-.923,14.239,14.239,0,0,1,2.593,1.851" transform="translate(-114.111 -7.638)" fill="#93d0f2"/>
          <path id="Trazado_249395" data-name="Trazado 249395" d="M188.126,9.573c-.812,3.767-3.538,6.789-4.153,10.633a.71.71,0,0,1-.625.184,4.086,4.086,0,0,1-2-2.019,3.46,3.46,0,0,1,.43-2.52,28.252,28.252,0,0,0,3.085-6.707,2.884,2.884,0,0,1,.878-1.483,9.853,9.853,0,0,1,2.385,1.912" transform="translate(-110.338 -4.663)" fill="#90cdef"/>
          <path id="Trazado_249396" data-name="Trazado 249396" d="M183.117,5.811a28.2,28.2,0,0,1-2.965,7.148A5.339,5.339,0,0,0,179,16.594c-.536.364-.885-.095-1.295-.29-.331-.241-.688-.463-.75-.922a9.412,9.412,0,0,1,1.709-4.419,18.73,18.73,0,0,0,2.394-6.342c.82.164,1.315.886,2.054,1.19" transform="translate(-107.714 -2.813)" fill="#8ecbed"/>
          <path id="Trazado_249397" data-name="Trazado 249397" d="M318.557,190.838c1.324-1.65,2.992-3.008,4.124-4.824a.985.985,0,0,1,.873-.447,64.435,64.435,0,0,1-1.442,7.3c-.128.459-.082.971-.606,1.222a1.865,1.865,0,0,0-.895-.905c-.846-.266-1.28-1.021-1.881-1.579-.158-.232-.328-.462-.173-.764" transform="translate(-193.866 -112.953)" fill="#81e0f8"/>
          <path id="Trazado_249398" data-name="Trazado 249398" d="M170.79,382.317l.622.025a5.382,5.382,0,0,1-2.661.237c.627-.493,1.363-.141,2.039-.262" transform="translate(-102.717 -232.707)" fill="#80e0f8"/>
          <path id="Trazado_249399" data-name="Trazado 249399" d="M160.371,382.331c.885.091,1.811-.271,2.658.238a5.362,5.362,0,0,1-2.658-.238" transform="translate(-97.616 -232.696)" fill="#80e0f8"/>
          <path id="Trazado_249400" data-name="Trazado 249400" d="M29.818,84.177c-.954-6.333-.565-12.711-.627-19.074-.041-4.186-.022-8.372-.029-12.558a5.007,5.007,0,0,1,4.855-3.813A56.152,56.152,0,0,0,45.927,47a63.158,63.158,0,0,0,13.651-4.2,64.1,64.1,0,0,0,6.587-3.177c.905-1.159,2.293-1.608,3.491-2.324,3.1-1.852,5.933-4.071,8.824-6.215a5.952,5.952,0,0,1,5-1.4l-.013.063c.838,1.568.449,3.215.279,4.837-.049.471-.5.69-.9.886-2.895.64-4.906,2.746-7.207,4.362a71.656,71.656,0,0,1-33.87,12.873c-1.118.122-2.234.2-3.355.281-2.731.191-4.338,1.647-4.342,4.368-.008,6.919-.35,13.843.188,20.757a9.839,9.839,0,0,1-.11,3.2,32.2,32.2,0,0,1-2.9,2.871c-.422.412-.965.791-1.432-.014" transform="translate(-17.751 -17.997)" fill="#48b1e2"/>
          <path id="Trazado_249401" data-name="Trazado 249401" d="M141.032,18.07c-3.98.142-6.406,3.123-9.36,5.125a70.789,70.789,0,0,1-7.951,4.814A2.668,2.668,0,0,1,124.738,26q7.284-7.257,14.555-14.527a2.9,2.9,0,0,1,1.726-1q.006,3.8.012,7.595" transform="translate(-75.307 -6.376)" fill="#a4dcfc"/>
          <path id="Trazado_249402" data-name="Trazado 249402" d="M165.705,35.428a1.293,1.293,0,0,0,.9-1.417c-.082-1.346-.029-2.7-.033-4.052l.6-.055a8.627,8.627,0,0,1,2.934.868l.871.623a1.354,1.354,0,0,1-.365,1.312c-.747,1.036-1.556,2.024-2.4,2.983a3.79,3.79,0,0,1-1.651.162,1.064,1.064,0,0,1-.856-.422" transform="translate(-100.863 -18.202)" fill="#55b0db"/>
          <path id="Trazado_249403" data-name="Trazado 249403" d="M159.321,349.841a9.165,9.165,0,0,1-8.8-1.463c-.4-.968-1.605-1.13-2.054-2.049a30.252,30.252,0,0,1,3.05-3.08,1.347,1.347,0,0,1,.97.231,6.96,6.96,0,0,0,7.6-.247,2.522,2.522,0,0,1,.8-.346c1.454-.052,1.963,1.271,2.9,1.98a4.544,4.544,0,0,1,.814.875v.293a1.265,1.265,0,0,1-.88.585l-.88.586a2.212,2.212,0,0,1-.881.878,13.1,13.1,0,0,0-2.64,1.757" transform="translate(-90.37 -208.712)" fill="#82d7f6"/>
          <path id="Trazado_249404" data-name="Trazado 249404" d="M187.451,351.518a.887.887,0,0,1,.88-.585l.587.879c-.495-.071-1.057.2-1.467-.293" transform="translate(-114.1 -213.61)" fill="#80e0f8"/>
          <path id="Trazado_249405" data-name="Trazado 249405" d="M182.952,354.8a1.845,1.845,0,0,1,.881-.878q.1.976-.881.878" transform="translate(-111.361 -215.431)" fill="#80e0f8"/>
          <path id="Trazado_249406" data-name="Trazado 249406" d="M11.623,110.285c-.745-.107-1.145.417-1.591.862q-3.926,3.92-7.858,7.834c-.4.4-.718.952-1.4.969l0-6.736c.678-.013.993-.565,1.395-.964,2.692-2.669,5.367-5.355,8.059-8.025.4-.4.716-.952,1.393-.966v7.025" transform="translate(-0.472 -62.853)" fill="#abdbfd"/>
          <path id="Trazado_249407" data-name="Trazado 249407" d="M188.286,297.134a.886.886,0,0,1-.88-.586c-.169-.718.418-1.039.8-1.428q5.229-5.258,10.491-10.484a3.05,3.05,0,0,1,1.559-1.014,1.483,1.483,0,0,0,.889-.466c3-3.9,6.744-7.118,9.836-10.932a72.5,72.5,0,0,1,5.223-5.073,36.642,36.642,0,0,0,3.2-3.39c.33-.431.714-1,1.44-.592l-.293.878c-2.219,2.884-3.986,6.076-6.312,8.9-4.121,5-8.339,9.88-13.45,13.935-4.223,3.35-8.343,6.828-12.509,10.25" transform="translate(-114.054 -160.104)" fill="#86d7f5"/>
          <path id="Trazado_249408" data-name="Trazado 249408" d="M317.027,87.321c-.748-.114-1.14.421-1.594.858-2.525,2.429-4.86,5.051-7.516,7.346-.308.126-.537-.038-.769-.2-.484-.53-1.177-.85-1.532-1.514a2.355,2.355,0,0,1-.134-.73c-.106-3.091-.066-6.181-.028-9.271.1-1.47-.427-3,.433-4.4.675,1.218.016,2.572.391,3.845.528.009.729-.445,1.019-.732,2.6-2.575,5.188-5.169,7.784-7.751.477-.474.977-1.267,1.64-1.026s.29,1.127.294,1.719c.027,3.951.013,7.9.012,11.853" transform="translate(-185.885 -44.863)" fill="#8bdff9"/>
          <path id="Trazado_249409" data-name="Trazado 249409" d="M297.4,83.741q0,2.2-.007,4.392a36,36,0,0,1-2.981,2.985c-.43.385-.911.965-1.613.375a4.839,4.839,0,0,1-.2-2.016,8.651,8.651,0,0,0-1.164-4.308c.187-.829.965-1.156,1.491-1.683.851-.852,1.6-1.785,2.411-2.671a4.55,4.55,0,0,1,2.059,2.927" transform="translate(-177.395 -49.191)" fill="#76caf0"/>
          <path id="Trazado_249410" data-name="Trazado 249410" d="M285.5,78.993a8.284,8.284,0,0,1-3.816,4.1,19.671,19.671,0,0,0-5.946-.841,1.2,1.2,0,0,1-.4-.168c-.279-.915.5-.722.909-.8,1.5-.272,2.187-1.528,3.117-2.485.275-.283-.148-.641-.016-.971l1.166-.007c.674.557,1.47.238,2.207.276a4.237,4.237,0,0,1,2.783.894" transform="translate(-167.558 -47.37)" fill="#72c7ef"/>
          <path id="Trazado_249411" data-name="Trazado 249411" d="M30.839,165.013c.594.436.93.011,1.351-.342.908-.76,1.466-1.935,2.709-2.3a2.649,2.649,0,0,1,.711,2.234c.024.905.055,1.812.061,2.717-1.141,1.37-2.149,2.893-3.951,3.53q-.441-2.919-.881-5.838" transform="translate(-18.771 -98.833)" fill="#4cb3e3"/>
          <path id="Trazado_249412" data-name="Trazado 249412" d="M33.061,179.049c1.4-.892,2.135-2.57,3.755-3.211,1.128,1,.6,2.379.82,3.587a14.582,14.582,0,0,1-2.814,2.78.678.678,0,0,1-1.176-.211c-.324-.659-.152-1.462-.6-2.084q.009-.431.019-.862" transform="translate(-20.112 -107.031)" fill="#4fb5e4"/>
          <path id="Trazado_249413" data-name="Trazado 249413" d="M243.174,70.362c.894.119,1.688.685,2.632.578,2.257.953,4.7,1.152,7.046,1.757a.633.633,0,0,1-.07.911,17.319,17.319,0,0,1-3.3,3.186,28.683,28.683,0,0,1-9.524-2.29c-.107-1.139.873-1.506,1.532-2.066.7-.595,1.533-1.048,1.681-2.076" transform="translate(-146.057 -42.829)" fill="#6cc3ec"/>
          <path id="Trazado_249414" data-name="Trazado 249414" d="M264.629,80.141c.931-1.4,2.585-2.182,3.244-3.81l4.991.591c.685.361,1.035.688.237,1.393-1.3,1.147-2.294,2.739-4.349,2.616a4.521,4.521,0,0,1-4.123-.79" transform="translate(-161.077 -46.462)" fill="#70c6ee"/>
          <path id="Trazado_249415" data-name="Trazado 249415" d="M64.143,260.853a6.375,6.375,0,0,0-1.477-2.055l-1.185-2.328c.968-1.039,1.953-2.062,3.017-3.007a10.706,10.706,0,0,1,2.806,4.452,3.764,3.764,0,0,1-3.161,2.938" transform="translate(-37.423 -154.281)" fill="#6ac2ec"/>
          <path id="Trazado_249416" data-name="Trazado 249416" d="M60.754,246.754a6.074,6.074,0,0,1-2.937,2.886,30.871,30.871,0,0,1-2.355-4.389c.96-1.04,1.966-2.035,3-3.009.87.272.923,1.163,1.355,1.769.34.905,1.061,1.681.943,2.743" transform="translate(-33.759 -147.451)" fill="#66c0ea"/>
          <path id="Trazado_249417" data-name="Trazado 249417" d="M55.7,237.673a5.885,5.885,0,0,1-2.949,2.932c-.8-.958-1.072-2.2-1.746-3.226,0-.1.009-.2.014-.294,1.207-.695,1.832-2.171,3.332-2.475.879.832,1.615,1.728,1.347,3.062" transform="translate(-31.044 -142.806)" fill="#63bee9"/>
          <path id="Trazado_249418" data-name="Trazado 249418" d="M38.783,203.1c.076-1.117-.691-2.062-.65-3.172a31.684,31.684,0,0,1,3.447-3.3c.769.626.643,1.608.97,2.41.217.947.447,1.892.606,2.851-.248,1.46-2.195,3.294-3.487,3.29l-.886-2.079" transform="translate(-23.21 -119.688)" fill="#57b8e6"/>
          <path id="Trazado_249419" data-name="Trazado 249419" d="M42.061,213.446a6.8,6.8,0,0,0,3.209-3.231.386.386,0,0,1,.468.23c.516,1.629,1.406,3.139,1.577,4.88-.424,1.354-1.594,2.077-2.556,2.969a.551.551,0,0,1-.946-.158,37.885,37.885,0,0,1-1.751-4.69" transform="translate(-25.602 -127.951)" fill="#5bbae8"/>
          <path id="Trazado_249420" data-name="Trazado 249420" d="M46.537,226.289c.606.374.876-.148,1.181-.474a13.636,13.636,0,0,0,2.056-2.213c.933.209.853,1.105,1.181,1.726.156.911,1.105,1.635.646,2.693a8.163,8.163,0,0,0-1.926,1.723,1.64,1.64,0,0,1-1.377.641,27.534,27.534,0,0,1-1.761-4.1" transform="translate(-28.327 -136.105)" fill="#5fbce8"/>
          <path id="Trazado_249421" data-name="Trazado 249421" d="M89.424,294.656l-.291,0c-1.343-1.859-3.161-3.323-4.408-5.263.648-1.189,1.928-1.829,2.608-2.991.489-.112.78.222,1.1.485,1.2,1.782,3.164,2.938,4.107,4.939-.473,1.552-1.9,2.844-3.12,2.834" transform="translate(-51.571 -174.314)" fill="#76caf0"/>
          <path id="Trazado_249422" data-name="Trazado 249422" d="M81.459,278.666c-.329,1.5-1.59,2.165-2.675,2.99-1.039-.835-1.534-2.157-2.632-2.939-.2-.794-1.069-1.2-1.187-2.036.607-1.246,1.781-1.995,2.653-3.01.988.112,1.178,1.076,1.753,1.63.551.716,1.139,1.4,1.683,2.124.274.362.722.68.4,1.24" transform="translate(-45.631 -166.582)" fill="#71c7ef"/>
          <path id="Trazado_249423" data-name="Trazado 249423" d="M39.269,189.914a7.013,7.013,0,0,1-3.295,3.283,25.928,25.928,0,0,1-1.39-5.28c.592.434.949.041,1.347-.346a7.433,7.433,0,0,1,2.431-2,4.56,4.56,0,0,1,.906,4.346" transform="translate(-21.051 -112.954)" fill="#53b6e5"/>
          <path id="Trazado_249424" data-name="Trazado 249424" d="M140.45,335.423a6.333,6.333,0,0,1-2.934,2.924l-5.574-4.391-1.465-1.173a31.911,31.911,0,0,0,3.235-3.009c2.032.607,3.3,2.3,4.9,3.5.747.558,1.676,1.05,1.834,2.148" transform="translate(-79.42 -200.731)" fill="#80d3f5"/>
          <path id="Trazado_249425" data-name="Trazado 249425" d="M125.485,322.5a5.278,5.278,0,0,1-3.224,2.9l-5.282-4.392c.589-1.323,2-2,2.612-3.3.97-.293,1.319.608,1.935,1,1.349,1.233,3.1,2.051,3.959,3.794" transform="translate(-71.204 -193.35)" fill="#7ed1f3"/>
          <path id="Trazado_249426" data-name="Trazado 249426" d="M113.708,312.874c-.2,1.644-1.662,2.267-2.657,3.268l-1.175-.874-2.636-2.348c.824-1.208,2.174-1.953,2.879-3.266.988-.062,1.318.859,1.966,1.306.536.641,1.606.835,1.623,1.914" transform="translate(-65.276 -188.482)" fill="#7ccff3"/>
          <path id="Trazado_249427" data-name="Trazado 249427" d="M73.566,268.282c-.461,1.375-1.68,2.076-2.668,2.982a19.654,19.654,0,0,1-2.615-3.527,6.091,6.091,0,0,0,2.925-2.94.515.515,0,0,1,.545.183c.7,1.048,1.643,1.963,1.813,3.3" transform="translate(-41.563 -161.165)" fill="#6ec4ed"/>
          <path id="Trazado_249428" data-name="Trazado 249428" d="M103.772,303.831c-.377,1.608-1.712,2.335-2.928,3.171a33.967,33.967,0,0,1-4.111-4.1,6.15,6.15,0,0,0,2.931-2.871c.284-.229.509-.034.743.1,1.116,1.237,2.6,2.137,3.365,3.7" transform="translate(-58.881 -182.563)" fill="#79ccf1"/>
          <path id="Trazado_249429" data-name="Trazado 249429" d="M231.177,66.267c.276.5.432.954-.166,1.394-1.051.775-2.062,1.605-3.089,2.413a.906.906,0,0,1-.842.213,36.007,36.007,0,0,1-4.736-1.7c-.718-.422-1.708-.428-2.1-1.352,1.2-1.2,2.32-2.477,3.6-3.6,1.181.354,2.234,1.092,3.509,1.164a16.1,16.1,0,0,0,3.829,1.469" transform="translate(-134.06 -38.733)" fill="#6ac0eb"/>
          <path id="Trazado_249430" data-name="Trazado 249430" d="M314.677,150.073c-1.406,2.688-3.649,4.758-5.357,7.226-1.351,1.952-2.813,3.827-4.2,5.757a4.629,4.629,0,0,0-.421,1.073c-1.011.037-1.359-.708-1.714-1.446a1.585,1.585,0,0,1,.45-1.325q4.309-5.6,8.582-11.234c.376-.5.65-1.234,1.485-1.222a3.026,3.026,0,0,1,1.173,1.171" transform="translate(-184.41 -90.635)" fill="#84d7f3"/>
          <path id="Trazado_249431" data-name="Trazado 249431" d="M313.029,146.175q-4.967,6.428-9.948,12.844a1.388,1.388,0,0,0-.322.919.292.292,0,0,1-.41-.057,1.1,1.1,0,0,1-.168-.429c.013-1.293.538-2.518.511-3.817a1.623,1.623,0,0,1,.2-.629,7.291,7.291,0,0,0,1.821-1.857c1.9-2.6,3.881-5.128,5.835-7.682a4.177,4.177,0,0,1,1.012-1.044,8.463,8.463,0,0,1,1.47,1.752" transform="translate(-183.936 -87.909)" fill="#81d4f0"/>
          <path id="Trazado_249432" data-name="Trazado 249432" d="M312.644,142.6c-.972,2.087-2.714,3.621-3.977,5.5-1,1.486-2.2,2.834-3.242,4.292-.348.486-.674.808-1.286.743-.439-1.013.052-1.914.34-2.84,2.222-2.626,4.187-5.451,6.29-8.171.205-.265.332-.6.7-.7.434.348.6.962,1.174,1.172" transform="translate(-185.02 -86.087)" fill="#7ed0ed"/>
          <path id="Trazado_249433" data-name="Trazado 249433" d="M312.169,140.527a3.93,3.93,0,0,1-1.235,2.034c-2.015,2.11-3.12,4.953-5.51,6.747a.758.758,0,0,1-.25-.355,1.908,1.908,0,0,1,.034-1.079c1.759-2.408,3.465-4.857,5.31-7.2a2.114,2.114,0,0,1,1.062-.724.968.968,0,0,1,.589.58" transform="translate(-185.718 -85.185)" fill="#7bcdea"/>
          <path id="Trazado_249434" data-name="Trazado 249434" d="M311.622,138.576c-2.286,2.451-3.8,5.5-6.155,7.9a.851.851,0,0,1-.286-.6,6.983,6.983,0,0,1,.4-1.942c1.348-1.775,2.77-3.494,4.087-5.3a2.165,2.165,0,0,1,1.071-.942l.879.881" transform="translate(-185.761 -83.814)" fill="#78cae8"/>
          <path id="Trazado_249435" data-name="Trazado 249435" d="M311.1,135.878c-1.435,1.891-2.875,3.778-4.3,5.678a.892.892,0,0,1-.686.465l-.156-.153a2.132,2.132,0,0,1-.191-1.063,2.058,2.058,0,0,1,.177-.839c1.579-1.561,2.621-3.528,3.979-5.256l1.173,1.168" transform="translate(-186.122 -81.997)" fill="#74c7e5"/>
          <path id="Trazado_249436" data-name="Trazado 249436" d="M309.931,133.365a11.733,11.733,0,0,1-3.81,5.262,1.46,1.46,0,0,1-.336-1.278,2.226,2.226,0,0,1,.083-.432,13.337,13.337,0,0,1,3.179-4.417,1.692,1.692,0,0,1,.883.865" transform="translate(-186.122 -80.652)" fill="#70c3e2"/>
          <path id="Trazado_249437" data-name="Trazado 249437" d="M308.941,130.208c-.7,1.642-2.153,2.779-2.927,4.37-.423-.385-.366-.907-.406-1.4a6.987,6.987,0,0,1,.58-3.374,1.771,1.771,0,0,1,1.284-1.067l.576.287c.257.426.395.941.893,1.186" transform="translate(-186.015 -78.36)" fill="#6abedd"/>
          <path id="Trazado_249438" data-name="Trazado 249438" d="M200.6,51.669,203.25,53.1l2.05,1.2c.013,1.338-1.518,3.168-3.161,3.784a3.355,3.355,0,0,1-1.6-.628,20.874,20.874,0,0,1-3-1.846,1.04,1.04,0,0,1-.034-.416,9.218,9.218,0,0,1,3.1-3.526" transform="translate(-120.216 -31.45)" fill="#64bbe7"/>
          <path id="Trazado_249439" data-name="Trazado 249439" d="M209.148,61.9a6.767,6.767,0,0,0,3.244-3.508c1.55.375,2.8,1.495,4.4,1.757l.3.293a8,8,0,0,1-3.58,3.532c-.484.407-.955.215-1.426-.028a13.038,13.038,0,0,0-1.822-.967c-.416-.311-1.1-.355-1.109-1.078" transform="translate(-127.307 -35.545)" fill="#67bde8"/>
          <path id="Trazado_249440" data-name="Trazado 249440" d="M238.978,244.916a1.358,1.358,0,0,0-1.085.659c-2.194,2.8-5,4.985-7.476,7.5-2.381,2.416-4.553,5.036-6.813,7.569-1.416,1.588-3.175,2.871-4.222,4.789-.18.33-.6.268-.941.274-.52-.333-1.136-.57-1.284-1.277a1.633,1.633,0,0,1,.707-1.064,87.361,87.361,0,0,0,15.466-17.638c.889-1.343,1.473-2.862,2.47-4.138a2.574,2.574,0,0,1,.748-.736c2.348-1.512,3.868-3.829,5.687-5.854a15.136,15.136,0,0,1,1.4-1.492c.367-.311.747-.682,1.291-.307.256.519,0,.988-.141,1.469a14.373,14.373,0,0,1-1.995,3.513l-3.814,6.734" transform="translate(-132.182 -141.85)" fill="#86d3f3"/>
          <path id="Trazado_249441" data-name="Trazado 249441" d="M282.668,218.393a15.648,15.648,0,0,1,1.76-3.514A16.532,16.532,0,0,1,287.708,211c3.092-3.256,5.829-6.819,8.891-10.1a1.488,1.488,0,0,1,.444-.373,6.345,6.345,0,0,1,1.76,1.757,4.361,4.361,0,0,1-.988,1.432c-3.481,3.333-6.706,6.925-10.486,9.961a55.38,55.38,0,0,0-4.662,4.711" transform="translate(-172.058 -122.062)" fill="#82dbf5"/>
          <path id="Trazado_249442" data-name="Trazado 249442" d="M195.111,47.6l-3,3.534c-.894.329-1.445-.354-2.109-.708-.543-.526-1.378-.79-1.521-1.678.383-1.562,1.8-2.431,2.529-3.765l2.349,1.432a3.114,3.114,0,0,0,1.754,1.186" transform="translate(-114.725 -27.379)" fill="#60b8e3"/>
          <path id="Trazado_249443" data-name="Trazado 249443" d="M301.146,190.939l.588.877c.115.851-.52,1.365-1,1.845a59.965,59.965,0,0,0-5.4,6.153,1.193,1.193,0,0,1-.814.572.439.439,0,0,1-.292-.282c-.052-1.416.713-2.631.974-3.971a17.98,17.98,0,0,1,.988-2.6c1.334-1.075,2.068-2.8,3.778-3.47l1.174.878" transform="translate(-179.095 -115.688)" fill="#82d2ef"/>
          <path id="Trazado_249444" data-name="Trazado 249444" d="M303.054,186.413c-1.235,1.109-2.126,2.561-3.519,3.513-.46-.485-.126-1.025-.113-1.543.16-.971.476-1.906.664-2.87.167-.5.188-1.061.623-1.444H301a4.538,4.538,0,0,0,1.466,1.465l.586.879" transform="translate(-182.177 -112.041)" fill="#7fcdec"/>
          <path id="Trazado_249445" data-name="Trazado 249445" d="M290.1,203.038l7.334-8.491,2.052,1.757.295.585a2.77,2.77,0,0,1-.922,1.613c-3.746,3.737-6.836,8.063-10.632,11.752-.346.336-.707.656-1.062.983l.293-1.464a22.035,22.035,0,0,1,2.641-6.734" transform="translate(-174.795 -118.419)" fill="#83d7f2"/>
          <path id="Trazado_249446" data-name="Trazado 249446" d="M185.575,41.754a3.17,3.17,0,0,1-1.221,2.194,4.9,4.9,0,0,0-1.14,1.642c-.354.225-.654.041-.957-.123a13.1,13.1,0,0,1-1.612-1.165c-.356-.382-.975-.513-1.091-1.128a7.03,7.03,0,0,1,2.794-3.494l.581.016a15.815,15.815,0,0,0,2.357,2.009l.29.049" transform="translate(-109.292 -24.153)" fill="#5db5e1"/>
          <path id="Trazado_249447" data-name="Trazado 249447" d="M178.014,36.047l-2.641,3.525c-.3.127-.526-.027-.76-.171-.595-.7-1.775-.592-2.178-1.561.069-1.232,1.219-1.753,1.765-2.672.289-.487.585-.971.877-1.456.425.13.678.6,1.174.589l1.764,1.746" transform="translate(-104.959 -20.52)" fill="#58b3de"/>
          <path id="Trazado_249448" data-name="Trazado 249448" d="M42.946,103.755a26.142,26.142,0,0,0-.906-4.346c-.378-1.241-.126-2.583-.607-3.807-.483-1.725-.045-3.55-.576-5.27-.339-7.888-.2-15.781-.216-23.672-.007-3.494,1.565-5.078,5.012-5.3A70.537,70.537,0,0,0,81.883,48.638c1.682-1.166,3.279-2.454,4.954-3.631a6.9,6.9,0,0,1,2.734-.988l.869.075A2.523,2.523,0,0,1,90.912,46c0,2.263.044,4.526-.033,6.788.061,2.118.045,4.236-.01,6.353a6.894,6.894,0,0,1-.213,2.652.842.842,0,0,1-.368.35c-.856.335-1.791.035-2.654.323A40.178,40.178,0,0,0,71.76,67.293,38.379,38.379,0,0,0,52.213,96.444c-.1.878-.078,1.753-.108,2.629-.02.579.051,1.186-.44,1.642-2.04.98-3.289,2.86-4.91,4.316-.435.39-.824.828-1.264,1.215a1.118,1.118,0,0,1-1.774-.079l-.771-2.412" transform="translate(-24.728 -26.795)" fill="#ecf4fe"/>
          <path id="Trazado_249449" data-name="Trazado 249449" d="M167.953,52.967q-.012-4.378-.025-8.756l1.763.02c.767.5,1.788.561,2.392,1.352a25.749,25.749,0,0,1-3.046,7.028c-.207.37-.568.71-1.084.357" transform="translate(-102.216 -26.911)" fill="#bedcef"/>
          <path id="Trazado_249450" data-name="Trazado 249450" d="M132.377,315.281l-4.076-3.55a81.806,81.806,0,0,1,6.066-5.928c.642-.089.952.416,1.355.754q.6.626,1.221,1.227.732.756,1.493,1.483c.454.464.917.92,1.376,1.379.3.32.614.637.933.945s.624.628.947.932q.688.691,1.385,1.373c.484.508.984,1,1.488,1.491.483.5.977.99,1.478,1.474.577.6,1.167,1.178,1.763,1.756.419.5,1.031.854,1.163,1.565a.461.461,0,0,1-.187.335c-3.147,2.34-6.371,2.285-9.656.308a49.536,49.536,0,0,0-6.749-5.544" transform="translate(-78.096 -186.133)" fill="#d4e7fd"/>
          <path id="Trazado_249451" data-name="Trazado 249451" d="M180.64,325.061c.014-.09.026-.181.035-.272.685-1.235,1.945-1.858,2.969-2.719,3.337-2.806,6.78-5.485,10.134-8.272a3.044,3.044,0,0,1,.868-.527.431.431,0,0,1,.39.086,3,3,0,0,1,1.179,1.173c-.223.083-.508.1-.661.257-4.086,4.108-8.312,8.078-12.248,12.333-1.028-.507-1.431-1.819-2.666-2.06" transform="translate(-109.954 -190.676)" fill="#84d4f3"/>
          <path id="Trazado_249452" data-name="Trazado 249452" d="M294.712,103.032c1.26-.49,1.963-1.636,2.929-2.473.456-.4.757-1.017,1.477-1.041q-.011,4.845-.022,9.691a.378.378,0,0,1-.358.049c-.5-.289-.85-.758-1.348-1.046a20,20,0,0,0-2.627-2.614,1.134,1.134,0,0,1-.49-.9c.1-.565-.032-1.193.439-1.661" transform="translate(-179.121 -60.576)" fill="#78ccf1"/>
          <path id="Trazado_249453" data-name="Trazado 249453" d="M300.687,126.884a5.132,5.132,0,0,0-1.458,4.378c-.889,1.807-2.436,3.1-3.64,4.668-.214.278-.541.635-.947.164a2.565,2.565,0,0,1-.055-1.786c.915-1.37,1.942-2.662,2.975-3.94a5.025,5.025,0,0,0,1.309-3.862,1.1,1.1,0,0,1,.361-.813,2.138,2.138,0,0,1,1.455,1.191" transform="translate(-179.231 -76.508)" fill="#62b5d9"/>
          <path id="Trazado_249454" data-name="Trazado 249454" d="M299.112,124.823q0,.442,0,.884c-.749,2.143-2.453,3.624-3.756,5.382a.5.5,0,0,1-.754.135c-.379-.589-.22-1.274-.342-1.909a2.1,2.1,0,0,1,.817-1.462c.958-.5,1.322-1.537,2.053-2.239.517-.5.909-1.16,1.678-1.348.094,0,.188,0,.282.007l.026.552" transform="translate(-179.111 -75.638)" fill="#57add1"/>
          <path id="Trazado_249455" data-name="Trazado 249455" d="M262.731,96.166c-.113.572.161,1.194-.219,1.733a10,10,0,0,1-2.142-1.228,5.911,5.911,0,0,0-3.984-1.007c-2.225-.169-3.9.917-5.418,2.362-2.138,2.034-4.077,4.272-6.35,6.17-.561.2-.968-.14-1.4-.4-.613-.481-1.3-.9-1.488-1.744a.9.9,0,0,1,.11-.4c4.485-4.408,9.076-8.713,13.268-13.411,2.117.065,4.311-.264,6.157,1.194,1.863,1.947,1.338,4.411,1.462,6.734" transform="translate(-147.141 -53.71)" fill="#ddecfd"/>
          <path id="Trazado_249456" data-name="Trazado 249456" d="M246.231,83.154a2.815,2.815,0,0,1-.981,1.736q-5.54,5.516-11.069,11.043c-.343.342-.659.733-1.211.734-1.281-.313-1.949-1.426-2.883-2.193a11.36,11.36,0,0,0-1.926-1.746c-.378-.36-.883-.625-.944-1.23a4.364,4.364,0,0,0,0-2.438,1.189,1.189,0,0,1,.072-1c1.2-2.152,1.375-4.655,2.385-6.866.309-.675.536-1.538,1.619-1.251l.825.023a40.025,40.025,0,0,0,9.689,2.339l4.123.791.3.058" transform="translate(-138.26 -48.626)" fill="#dfedfd"/>
          <path id="Trazado_249457" data-name="Trazado 249457" d="M70.068,246.715l-.347-.309a35.173,35.173,0,0,0-2.65-4.329l-1.232-2.65c1.765-1.641,3.168-3.679,5.346-4.869.856.27.91,1.173,1.386,1.744a28.213,28.213,0,0,0,2.331,3.542,4.63,4.63,0,0,1,.911,1.649,1.811,1.811,0,0,1-.716,1.372c-1.122,1.142-2.244,2.284-3.4,3.386-.441.419-.895.977-1.626.465" transform="translate(-40.076 -142.773)" fill="#e2effe"/>
          <path id="Trazado_249458" data-name="Trazado 249458" d="M65.87,221.636c-1.209,1.155-2.43,2.3-3.62,3.471a5.149,5.149,0,0,1-1.732,1.247L59.4,224.568a12.83,12.83,0,0,0-1.377-2.951q-.465-1.308-.932-2.616c1.118-1.322,2.4-2.483,3.637-3.691.719-.7,1.295-1.525,2.006-2.23.592.213.535.8.731,1.246a33.6,33.6,0,0,0,1.463,4.279,8.009,8.009,0,0,1,.938,3.032" transform="translate(-34.753 -129.7)" fill="#e5f0fe"/>
          <path id="Trazado_249459" data-name="Trazado 249459" d="M57.426,198.22c-.031.239.028.564-.106.7-1.737,1.8-3.265,3.826-5.438,5.17l-.894-1.8-1.78-5.234q-.339-1.446-.678-2.891a1.348,1.348,0,0,0,1.794-.383c1.336-1.415,2.745-2.759,4.118-4.14a2.8,2.8,0,0,1,1.849-1.053c.665.5.636,1.237.664,1.947a16.153,16.153,0,0,0,.176,2.989c.128,1.014.25,2.028.457,3.032.115.559.315,1.151-.162,1.663" transform="translate(-29.539 -114.792)" fill="#e8f2fe"/>
          <path id="Trazado_249460" data-name="Trazado 249460" d="M98.367,283.408l-.548-.255c-1.267-1.67-2.976-2.958-4.118-4.738a87.252,87.252,0,0,1,6.421-6.219c1.362.188,1.851,1.49,2.811,2.193.5.536,1.03,1.046,1.554,1.561a1.934,1.934,0,0,1,.614,1.085.945.945,0,0,1-.092.568,23.848,23.848,0,0,1-5.82,5.829.683.683,0,0,1-.823-.023" transform="translate(-57.035 -165.683)" fill="#dbebfd"/>
          <path id="Trazado_249461" data-name="Trazado 249461" d="M95.273,266.771c-2.086,2.115-3.915,4.5-6.467,6.126l-.838-.648-2.309-3.168a72.856,72.856,0,0,1,6.02-5.932c.459-.1.751.2,1.075.436a4.046,4.046,0,0,1,.993.9,9.079,9.079,0,0,0,1.1,1.254,1.426,1.426,0,0,1,.423,1.032" transform="translate(-52.14 -160.165)" fill="#ddecfd"/>
          <path id="Trazado_249462" data-name="Trazado 249462" d="M86.266,256.527c-1.966,2.011-3.718,4.245-6.093,5.83l-1.517-1.8-2.01-3.176c.146-.007.34.044.431-.031a21.182,21.182,0,0,0,5.094-5.27c1.1,0,1.217,1.155,1.925,1.614.71.954,1.99,1.474,2.17,2.832" transform="translate(-46.654 -153.439)" fill="#dfedfd"/>
          <path id="Trazado_249463" data-name="Trazado 249463" d="M128.934,300.372c-1.942,2.065-3.734,4.286-6.141,5.865-.688-.259-.994-1.08-1.773-1.205l-1.767-1.714c.459-1.122,1.488-1.753,2.272-2.59,1.224-1.307,2.564-2.5,3.746-3.852a.642.642,0,0,1,.382-.109c.6.211.931.738,1.383,1.125.364.373.732.742,1.1,1.11A5.709,5.709,0,0,1,129,300.02a.36.36,0,0,1-.068.352" transform="translate(-72.588 -180.639)" fill="#d6e8fd"/>
          <path id="Trazado_249464" data-name="Trazado 249464" d="M117.121,289.175c0,.615-.47.934-.844,1.3q-2.651,2.595-5.319,5.173l-1.773-1.412a36.462,36.462,0,0,1-3.559-3.542,16.746,16.746,0,0,0,6.511-6.506c.461-.109.713.229,1.012.469.405.408.81.817,1.228,1.212.452.459.91.91,1.365,1.365.3.322.617.637.932.95.232.292.578.535.447.991" transform="translate(-64.294 -172.971)" fill="#d8e9fd"/>
          <path id="Trazado_249465" data-name="Trazado 249465" d="M224.422,77.267a1.142,1.142,0,0,0-1.1,1.007c-.374,1.439-1.344,2.681-1.318,4.263a4.1,4.1,0,0,1-.552,1.48c-.438,1.024-1.336,1.924-.394,3.2.373.506-.491,1.107-.478,1.755a.393.393,0,0,1-.385.109c-1.357-1.009-3.056-1.5-4.234-2.789a1.665,1.665,0,0,1-.116-.446,11.076,11.076,0,0,1,1.4-5.456,11.356,11.356,0,0,0,1-3.346c.179-.712.231-1.74,1.465-1.526l4.714,1.748" transform="translate(-131.384 -45.95)" fill="#dcecfd"/>
          <path id="Trazado_249466" data-name="Trazado 249466" d="M214.256,73.218c-.967.317-1.075,1.164-1.173,1.977a6.5,6.5,0,0,1-.859,2.905c-1.154,1.737-1.286,3.72-1.508,5.69A4.753,4.753,0,0,1,206.956,82a3.714,3.714,0,0,1,.684-2.766,11.784,11.784,0,0,0,1.642-4.486c.156-1.1.3-2.356,1.463-3.037a2.026,2.026,0,0,0,1.386.371l2.124,1.136" transform="translate(-125.933 -43.649)" fill="#daebfb"/>
          <path id="Trazado_249467" data-name="Trazado 249467" d="M293.336,182.585a2.434,2.434,0,0,1-.3,1.465,69.479,69.479,0,0,1-4.554,5.64c-.329.347-.7.942-1.241.19a1.7,1.7,0,0,1-.022-.866,15.8,15.8,0,0,1,.632-2.521,1.042,1.042,0,0,1,.284-.307c1.648-1.287,2.7-3.138,4.248-4.518.571-.177.693.322.945.625q0,.146,0,.291" transform="translate(-174.803 -110.558)" fill="#79c3e5"/>
          <path id="Trazado_249468" data-name="Trazado 249468" d="M299.251,163.04q0,.147,0,.293l-.587,2.928v.585a11.389,11.389,0,0,1-2.3,2.445.82.82,0,0,1-.415-.007,1.682,1.682,0,0,1-.979-1.318c1.127-1.707,2.562-3.177,3.754-4.836a.416.416,0,0,1,.524-.089" transform="translate(-179.547 -99.209)" fill="#78c6e8"/>
          <path id="Trazado_249469" data-name="Trazado 249469" d="M298.378,175.19c.758-.805,1.208-1.917,2.346-2.343.128,1.413-.454,2.725-.589,4.1l-.877-.587c-.547-.2-1.006-.466-.88-1.171" transform="translate(-181.607 -105.21)" fill="#7cc9eb"/>
          <path id="Trazado_249470" data-name="Trazado 249470" d="M297.779,160.359c-1.453,1.591-2.511,3.505-4.107,4.978-.53.174-.764-.2-1.02-.542a1.262,1.262,0,0,1-.1-.413,1.043,1.043,0,0,1,.348-.749c1.53-1.237,2.3-3.141,3.853-4.362.32-.253.457-.791,1.024-.668q0,.293,0,.586,0,.585,0,1.17" transform="translate(-178.076 -96.529)" fill="#74c3e6"/>
          <path id="Trazado_249471" data-name="Trazado 249471" d="M297.961,155.441c-1.752,1.592-2.885,3.733-4.7,5.269a2.521,2.521,0,0,1-.233-2.346.752.752,0,0,1,.3-.328c.274.259.44.5.844.014.983-1.186,1.853-2.454,2.825-3.644.339-.415.539-1.052,1.259-1.015h0a5.509,5.509,0,0,1-.294,2.049" transform="translate(-178.257 -93.367)" fill="#71c0e3"/>
          <path id="Trazado_249472" data-name="Trazado 249472" d="M298.774,144.414q0,.733,0,1.465,0,.438,0,.877a52.514,52.514,0,0,1-3.429,4.3c-.371.375-.689,1-1.413.587a2.535,2.535,0,0,1-.122-1.783,2.2,2.2,0,0,1,.4-.794,17.751,17.751,0,0,0,2.217-2.7c.589-.843,1.094-1.863,2.344-1.944" transform="translate(-178.777 -87.904)" fill="#69bade"/>
          <path id="Trazado_249473" data-name="Trazado 249473" d="M294.374,155.369a20.174,20.174,0,0,0,3.717-4.342c.293-.393.474-.679.972-.635q0,.586,0,1.172c-1.319,1.658-2.628,3.323-3.961,4.969-.481.594-.775.525-.734-.291a.6.6,0,0,1,.006-.873" transform="translate(-179.067 -91.539)" fill="#6ebee1"/>
          <path id="Trazado_249474" data-name="Trazado 249474" d="M299.316,141.681c-1.611.969-2.3,2.733-3.484,4.068-.271.3-.473.61-.916.617a1,1,0,0,1,0-1.465l4.4-4.977q0,.733,0,1.465c0,.1,0,.195,0,.292" transform="translate(-179.318 -85.171)" fill="#66b8db"/>
          <path id="Trazado_249475" data-name="Trazado 249475" d="M183.694,58.132l1.908.946a1.076,1.076,0,0,1,0,.29,8.47,8.47,0,0,1-.98,3.751c-.888,1.772-1.473,3.673-2.347,5.454a8.754,8.754,0,0,0-.783,2.886,5.463,5.463,0,0,1-2.49-.148,2.356,2.356,0,0,1-1.045-.518,1.625,1.625,0,0,1,.063-1.533c1.107-2.621,1.766-5.427,3.268-7.887a13.831,13.831,0,0,0,.945-2.272c.242-.625.525-1.324,1.46-.969" transform="translate(-108.219 -35.326)" fill="#cde4f6"/>
          <path id="Trazado_249476" data-name="Trazado 249476" d="M199.427,66.309l1.236.844a44.512,44.512,0,0,1-3.294,7.98c-.445.74-.092,1.768-.849,2.4a5.208,5.208,0,0,1-2.659-.52,1.255,1.255,0,0,1-.482-.511,2.708,2.708,0,0,1,.095-2.265c1.308-2.349,1.814-5.014,3-7.406.3-.612.472-1.472,1.512-1.122l1.443.6" transform="translate(-117.586 -39.95)" fill="#d4e8f9"/>
          <path id="Trazado_249477" data-name="Trazado 249477" d="M193.809,63.161c-.675.006-.857.532-1.088,1.016-1.184,2.485-1.663,5.254-3.094,7.642-.4.667-.172,1.423-.224,2.139a2.113,2.113,0,0,1-2.641-.6c-.355-.277-.59-.5-.34-1.066,1.037-2.341,1.888-4.77,3.025-7.06.612-1.232.549-2.657,1.348-3.789a14.307,14.307,0,0,1,3.013,1.722" transform="translate(-113.411 -37.397)" fill="#d1e6f7"/>
          <path id="Trazado_249478" data-name="Trazado 249478" d="M201.7,79.784a12.4,12.4,0,0,1,2.087-5.478,7.49,7.49,0,0,0,.854-2.6c.138-.864.281-1.745,1.21-2.181a4.471,4.471,0,0,1,1.736.857,11.38,11.38,0,0,0-1.234,4.143,7.032,7.032,0,0,1-1.4,3.321,5.046,5.046,0,0,0-.916,2.859.713.713,0,0,1-.6.158c-.661-.227-1.426-.287-1.739-1.075" transform="translate(-122.772 -42.316)" fill="#d7e9fa"/>
          <path id="Trazado_249479" data-name="Trazado 249479" d="M216.373,277.557l-.286.009a.786.786,0,0,1-.349-.943c3.312-3.928,6.716-7.781,9.762-11.929a20.792,20.792,0,0,1,2.5-2.855,73.021,73.021,0,0,0,5.829-6.518c.349-.417.589-1.048,1.339-.839.023.006.041.073.04.11a.547.547,0,0,1-.044.139c-4.349,8.166-10.406,14.966-17.09,21.261-.56.527-1.329.83-1.7,1.565" transform="translate(-131.291 -154.876)" fill="#bfddf7"/>
          <path id="Trazado_249480" data-name="Trazado 249480" d="M277.731,215.927c-.871,2.248-1.375,4.64-2.641,6.734-1.922.835-2.749,2.758-4.119,4.141-1.308,1.319-2.319,2.955-4.1,3.765-.2-1.085.676-1.793.949-2.713.687-1.134.954-2.473,1.731-3.565.661-.747.626-1.84,1.284-2.59a1.943,1.943,0,0,1,.356-.226,12.805,12.805,0,0,0,3.341-3.163,24.114,24.114,0,0,1,1.828-2.056c.388-.361.772-.8,1.366-.328Z" transform="translate(-162.427 -131.308)" fill="#84cff0"/>
          <path id="Trazado_249481" data-name="Trazado 249481" d="M236.065,246.192l-1.183,2.623-.579.6c-.54-.286-.646.227-.835.491a41.905,41.905,0,0,1-4.947,5.712c-2.473,2.383-4.209,5.348-6.509,7.83-2.242,2.42-4.071,5.157-6.3,7.569a1.066,1.066,0,0,1-.779.349c-.5.093-.657-.169-.649-.61,1.813-2.336,3.564-4.72,5.556-6.919,4.58-5.056,8.677-10.53,13.386-15.476.641-.674,1.12-1.481,1.758-2.152.3-.311.716-.949,1.081-.012" transform="translate(-130.432 -149.557)" fill="#badaf5"/>
          <path id="Trazado_249482" data-name="Trazado 249482" d="M179.635,55.587a1.082,1.082,0,0,0-1,.728c-1.5,3.777-3.354,7.407-4.592,11.288a2.679,2.679,0,0,0-.054.578.752.752,0,0,1-.639.23c-2.479-.318-2.7-.576-1.608-2.885,1.323-2.806,2.22-5.788,3.66-8.54a10.158,10.158,0,0,0,.641-1.926c.17-.587.322-1.259,1.18-1.2l.855.359,1.554,1.37" transform="translate(-104.16 -32.781)" fill="#c9e2f4"/>
          <path id="Trazado_249483" data-name="Trazado 249483" d="M284.466,209.622c-1.477.294-2,1.66-2.9,2.6-1.119,1.165-2,2.576-3.563,3.258-.38-1.406.539-2.5.88-3.741a4.416,4.416,0,0,1,.5-.931,4.28,4.28,0,0,0,1.812-1.6,31.633,31.633,0,0,1,3.206-3.331c.324-.316.689-.743,1.245-.347l-1.174,4.1" transform="translate(-169.163 -125.003)" fill="#82cced"/>
          <path id="Trazado_249484" data-name="Trazado 249484" d="M287.942,199.3c-1.733.877-2.81,2.457-4.113,3.8-.586.6-.824,1.722-2.037,1.471-.269-.6.083-1.083.31-1.589.436-.607.326-1.468.923-2a5.6,5.6,0,0,0,2.321-2.169c.768-1.2,1.914-2.072,2.768-3.2a.828.828,0,0,1,1-.41l-.293,1.465-.881,2.635" transform="translate(-171.465 -118.785)" fill="#7fc9eb"/>
          <path id="Trazado_249485" data-name="Trazado 249485" d="M291.1,190.741a22.776,22.776,0,0,0-3.33,3.667c-.731.862-1.24,1.981-2.538,2.188a.889.889,0,0,1-.278-.582,3.3,3.3,0,0,1,.324-1.264c.268-.367.092-1.078.832-1.084,1.252-.461,1.824-1.626,2.587-2.567a14.949,14.949,0,0,1,2.989-3.285l-.587,2.928" transform="translate(-173.447 -114.32)" fill="#7cc6e8"/>
          <path id="Trazado_249486" data-name="Trazado 249486" d="M175.306,52.091a1.151,1.151,0,0,0-.659.743c-1.237,3.93-3.058,7.622-4.616,11.422-.683,1.667-.614,1.691,1.08,1.927a1.216,1.216,0,0,1,.375.211,2.862,2.862,0,0,1-3.518-.212q0-1.334.006-2.668c1.476-3.627,3.02-7.226,4.458-10.868.27-.682.359-1.553,1.34-1.693l1.534,1.139" transform="translate(-102.24 -31.014)" fill="#c6e0f2"/>
          <path id="Trazado_249487" data-name="Trazado 249487" d="M173.78,48.984c-1.511,2.167-1.96,4.8-3.143,7.117a21.9,21.9,0,0,0-1.63,4.174c-.138.5-.277,1.18-1.026,1.27q0-3.221,0-6.443c.754-.01.9-.645,1.145-1.147,1.007-2.073,1.992-4.157,2.986-6.237l.547.379c.275.418.931.358,1.118.887" transform="translate(-102.249 -29.046)" fill="#c3def1"/>
          <path id="Trazado_249488" data-name="Trazado 249488" d="M107.34,89.871a17.1,17.1,0,0,0,3.517.212l.587.02.918.3c-.062.934-.8,1.413-1.375,1.984q-12.856,12.857-25.733,25.7a4.422,4.422,0,0,0-1.444,1.973,33.494,33.494,0,0,0-3.267,3.113c-2.922,2.144-5.2,4.967-7.816,7.427-.815.765-1.567,1.6-2.389,2.356-.4.372-.781.949-1.488.536-.523-1.627-.095-3.346-.485-4.986a76.983,76.983,0,0,1,1.136-8.8c3.175-14.321,15.942-26.515,30.454-29,1.488-.254,2.989-.432,4.483-.646.873-.2,1.779.1,2.647-.177a.285.285,0,0,0,.255-.008" transform="translate(-41.613 -54.704)" fill="#b8dc39"/>
          <path id="Trazado_249489" data-name="Trazado 249489" d="M163.2,89.787a7.187,7.187,0,0,1-2.648.176,5.782,5.782,0,0,1,2.648-.176" transform="translate(-97.725 -54.612)" fill="#c6e0f2"/>
          <path id="Trazado_249490" data-name="Trazado 249490" d="M192.08,307.692a1.011,1.011,0,0,0,.587.586q.148.442.3.885-6.893,5.889-14.075,11.423l-1.184-1.474a2.226,2.226,0,0,1,.834-1.167q5.328-5.335,10.673-10.654a2.816,2.816,0,0,1,1.283-.935,1.083,1.083,0,0,1,.765.247,2.126,2.126,0,0,1,.822,1.089" transform="translate(-108.167 -186.473)" fill="#c4dff8"/>
          <path id="Trazado_249491" data-name="Trazado 249491" d="M187.877,303.768q-5.341,5.257-10.684,10.511c-.725.711-1.483,1.388-2.226,2.08a6.385,6.385,0,0,1-1.759-1.757,1.7,1.7,0,0,1,.625-.956q5.565-5.572,11.148-11.127a2.427,2.427,0,0,1,.942-.669,1.073,1.073,0,0,1,.4,0,3.267,3.267,0,0,1,1.063.845,2.937,2.937,0,0,1,.586.741.323.323,0,0,1-.1.336" transform="translate(-105.43 -183.721)" fill="#bfddf6"/>
          <path id="Trazado_249492" data-name="Trazado 249492" d="M183.839,299.735q-4.62,4.537-9.242,9.072c-1.212,1.185-2.446,2.347-3.67,3.521a4.515,4.515,0,0,1-1.466-1.465,1.7,1.7,0,0,1,.625-.956q5.567-5.574,11.152-11.13a2.387,2.387,0,0,1,.945-.666,1.081,1.081,0,0,1,.41,0,2.323,2.323,0,0,1,.815.6c.228.305.629.541.43,1.024" transform="translate(-103.15 -181.445)" fill="#bcdaf4"/>
          <path id="Trazado_249493" data-name="Trazado 249493" d="M163.43,305.371a4.555,4.555,0,0,1-1.467-1.464c3.843-3.948,7.78-7.8,11.683-11.69a2.18,2.18,0,0,1,1.391-.742,2.136,2.136,0,0,1,1.107.533,1.774,1.774,0,0,1,.6.832.646.646,0,0,1-.126.389c-3.888,3.674-7.578,7.548-11.413,11.277-.47.457-.837,1.3-1.775.866" transform="translate(-98.585 -177.418)" fill="#b3d6f0"/>
          <path id="Trazado_249494" data-name="Trazado 249494" d="M165.713,307.751c.678-.011.992-.563,1.393-.961q5.216-5.182,10.418-10.38c.4-.4.719-.947,1.4-.959.291-.165.5.014.721.164.255.288.637.521.452,1.007q-4.517,4.434-9.037,8.866c-1.282,1.253-2.584,2.486-3.877,3.727a4.52,4.52,0,0,1-1.467-1.464" transform="translate(-100.868 -179.798)" fill="#b7d8f2"/>
          <path id="Trazado_249495" data-name="Trazado 249495" d="M155.19,298.673a4.538,4.538,0,0,1-1.465-1.464c3.357-3.536,6.939-6.85,10.285-10.4a3.294,3.294,0,0,1,1.262-.717,2.84,2.84,0,0,1,2.141-.179c.609.643.066,1.1-.317,1.485-3.563,3.618-7.169,7.2-10.776,10.771-.3.3-.6.673-1.129.5" transform="translate(-93.571 -173.941)" fill="#a8cfea"/>
          <path id="Trazado_249496" data-name="Trazado 249496" d="M162.882,286.919a4.323,4.323,0,0,0-1.3,1.081c-3.036,3.068-6.1,6.109-9.153,9.16a1.351,1.351,0,0,1-.985.546,4.569,4.569,0,0,1-1.466-1.464c2.894-3.046,5.971-5.912,8.862-8.964a8.426,8.426,0,0,1,1.288-.409c.918-.007,1.85-.68,2.754.05" transform="translate(-91.29 -174.438)" fill="#a1cce7"/>
          <path id="Trazado_249497" data-name="Trazado 249497" d="M157.469,298.466l12.006-11.846a1.015,1.015,0,0,0,.3-.79c-.023-.254.129-.357.347-.406a.927.927,0,0,1,.4.09c.486.454,1.21.758,1.048,1.629-3.866,3.724-7.6,7.58-11.438,11.332-.471.46-.839,1.3-1.781.871a1.849,1.849,0,0,1-.88-.879" transform="translate(-95.85 -173.734)" fill="#abd1ec"/>
          <path id="Trazado_249498" data-name="Trazado 249498" d="M159.718,301.775c.678-.011.992-.564,1.393-.961q5.217-5.183,10.418-10.38c.4-.4.72-.947,1.4-.958.288-.152.492.017.7.18.169.207.324.418.168.7a4.894,4.894,0,0,0-1.64,1.2q-5.066,5.078-10.155,10.134c-.4.4-.719.956-1.4.968a1.851,1.851,0,0,1-.879-.879" transform="translate(-97.219 -176.165)" fill="#afd3ee"/>
          <path id="Trazado_249499" data-name="Trazado 249499" d="M156.954,288.235c-.032.141-.018.33-.1.417q-4.125,4.137-8.275,8.25c-.086.085-.277.065-.42.094a3.057,3.057,0,0,1-1.172-1.171c2.6-2.669,5.2-5.33,7.912-7.889.719-.115,1.447-.293,2.06.3" transform="translate(-89.467 -175.192)" fill="#9cc9e4"/>
          <path id="Trazado_249500" data-name="Trazado 249500" d="M152.781,288.2c-.011.555-.441.839-.777,1.176q-2.824,2.831-5.661,5.65c-.338.336-.627.761-1.187.754l-1.17-.9q0-.136,0-.273c1.946-2.183,4.127-4.137,6.151-6.246a1.908,1.908,0,0,1,2.648-.162" transform="translate(-87.641 -175.149)" fill="#98c7e2"/>
          <path id="Trazado_249501" data-name="Trazado 249501" d="M207.634,109.131a5.511,5.511,0,0,1,1.892,1.437l.481.635a.514.514,0,0,1,.179.572,4.735,4.735,0,0,1-1.134,1.324q-24.138,24.1-48.273,48.2c-.9.9-1.8,1.653-3.166,1.5a4.29,4.29,0,0,1-2.782-.677c-.338-.581-.031-1.022.324-1.448.282-.338.6-.638.915-.949q24.785-24.737,49.584-49.459c.528-.526.9-1.492,1.98-1.135" transform="translate(-94.155 -66.38)" fill="#085973"/>
          <path id="Trazado_249502" data-name="Trazado 249502" d="M300.068,122.475c-1.274,1.164-2.035,2.8-3.505,3.786-.586-1,.112-1.876.284-2.8a6.932,6.932,0,0,1,.423-.984c.443-.513.833-1.1,1.611-1.152a2.5,2.5,0,0,1,1.187,1.152" transform="translate(-180.375 -73.848)" fill="#51a9cd"/>
          <path id="Trazado_249503" data-name="Trazado 249503" d="M298.717,117.2c-.567.274-.758,1.033-1.463,1.128-.931-.889-.9-2.1-1.109-3.24q-.041-.269-.082-.539c1.145.623,1.759,1.777,2.653,2.651" transform="translate(-180.212 -69.724)" fill="#48a2c6"/>
          <path id="Trazado_249504" data-name="Trazado 249504" d="M294.845,133.514l4.4-5.562a4.47,4.47,0,0,1-1.276,3.831c-1.1,1.205-1.77,2.772-3.121,3.78a1.18,1.18,0,0,1-.369-.9,1.363,1.363,0,0,1,.368-1.151" transform="translate(-179.245 -77.883)" fill="#5cb1d5"/>
          <path id="Trazado_249505" data-name="Trazado 249505" d="M294.328,145.073l.007.877q0,1.025,0,2.05,0,.732,0,1.464a.619.619,0,0,1-.286.589,1.189,1.189,0,0,1-.382-.876c-.05-.48-.012-.962-.023-1.443s.013-.951,0-1.427a2.169,2.169,0,0,1,.263-1.163.3.3,0,0,1,.422-.071" transform="translate(-178.735 -88.27)" fill="#74bada"/>
          <path id="Trazado_249506" data-name="Trazado 249506" d="M225.793,125.768l-.614,2.882-.814,1.2c-.005.719-.57,1.08-1,1.516-1.179,1.2-2.381,2.38-3.565,3.576-.914.873-1.8,1.775-2.685,2.677q-2.23,2.192-4.42,4.425-12.873,12.809-25.706,25.657a19.66,19.66,0,0,1-6.328,4.147,1.743,1.743,0,0,1-1.541.2c-.283-.949.448-1.427.969-1.957,2.328-2.366,4.691-4.7,7.04-7.045q18.246-18.211,36.493-36.419a6.1,6.1,0,0,1,1.305-1.168c.344-.185.823-.486.864.3" transform="translate(-108.991 -76.238)" fill="#08536c"/>
          <path id="Trazado_249507" data-name="Trazado 249507" d="M279.115,141.922l4.777-4.909c.437.632.128,1.347.226,2.016l-.006,1.172h-.289a.86.86,0,0,1-.3-.537c-.1-.322.052-.661-.025-.916-1.786,2.432-3.607,4.882-5.45,7.318a.594.594,0,0,1-.411.087,1.27,1.27,0,0,1-.778-1c.3-1.395,1.7-2.023,2.26-3.233" transform="translate(-168.519 -83.399)" fill="#76b4d3"/>
          <path id="Trazado_249508" data-name="Trazado 249508" d="M202.607,107.333c-.616.035-.908.538-1.278.907q-25.259,25.2-50.5,50.405c-.4.4-.955.723-.964,1.4-1.418.341-2.409-.427-3.365-1.287-.22-.6.115-1.027.479-1.435s.748-.769,1.128-1.148q24.549-24.5,49.1-49.007c.346-.345.706-.671,1.073-.992a5.105,5.105,0,0,1,4.335,1.155" transform="translate(-89.128 -64.582)" fill="#095c78"/>
          <path id="Trazado_249509" data-name="Trazado 249509" d="M195.045,106.242c-.041.729-.653,1.06-1.087,1.494q-24.7,24.669-49.4,49.33c-.468.467-1.125.826-1.157,1.616-.652.34-1.036-.218-1.519-.448a2.09,2.09,0,0,1-.693-.794c-.27-.941.421-1.437.958-1.978q3.919-3.944,7.866-7.859a11.944,11.944,0,0,0,1.449-1.643,41.729,41.729,0,0,0,3.2-2.993q13.192-13.175,26.393-26.341a10.175,10.175,0,0,1,1.5-1.388c.222-.138.551.016.723-.262,2.2-2.2,4.371-4.417,6.6-6.581,1.423-1.381,3.043-2.4,5.17-2.155" transform="translate(-85.902 -64.646)" fill="#095f7b"/>
          <path id="Trazado_249510" data-name="Trazado 249510" d="M185.954,116.594l2.64,2.363a.506.506,0,0,1-.006.285,2.8,2.8,0,0,1-1.009,1.4q-14.376,14.357-28.762,28.7a2.969,2.969,0,0,1-1.509,1.1c-1.3-.365-1.917-1.554-2.844-2.371a.808.808,0,0,1-.18-.792c9.981-9.837,19.843-19.8,29.8-29.661.5-.5.866-1.389,1.873-1.019" transform="translate(-93.884 -70.917)" fill="#a4d42b"/>
          <path id="Trazado_249511" data-name="Trazado 249511" d="M161.661,154.543c.442-.376.911-.725,1.321-1.134q14.453-14.409,28.9-28.828c.378-.377.787-.725,1.181-1.086l1.463,1.481a2.428,2.428,0,0,1,.666.895c-.387.434-.753.89-1.163,1.3q-14.034,14.019-28.075,28.03a4.486,4.486,0,0,1-1.871,1.354c-1.267.141-1.783-.876-2.485-1.606a.615.615,0,0,1,.067-.407" transform="translate(-98.354 -75.171)" fill="#a1d228"/>
          <path id="Trazado_249512" data-name="Trazado 249512" d="M246.424,128.177a1.694,1.694,0,0,1-.666-.895c.475.009.678.638,1.206.525a.645.645,0,0,1-.54.369" transform="translate(-149.591 -77.475)" fill="#69abc7"/>
          <path id="Trazado_249513" data-name="Trazado 249513" d="M182.277,112.571c-.72.068-1.048.676-1.483,1.11q-14.3,14.249-28.59,28.511c-.47.468-.837,1.114-1.625,1.147-1.055-.125-1.46-1.082-2.154-1.671a.886.886,0,0,1-.2-.776,6.516,6.516,0,0,1,1.35-1.528c9.752-9.784,19.6-19.476,29.3-29.312a.761.761,0,0,1,.247-.154,1.8,1.8,0,0,0,.286.02c.868.98,2.166,1.5,2.872,2.653" transform="translate(-90.206 -66.893)" fill="#a7d52d"/>
          <path id="Trazado_249514" data-name="Trazado 249514" d="M84.652,223.772a13.133,13.133,0,0,1-2.329-3.519c-.4-.929.409-1.311.876-1.787,3.476-3.539,7.044-6.985,10.493-10.552,1.172-.036,1.526,1.087,2.3,1.617.462.523,1.066.94,1.255,1.668a1.843,1.843,0,0,1-.718,1.658q-5.181,5.2-10.4,10.369c-.385.381-.767.958-1.476.545" transform="translate(-50.043 -126.555)" fill="#aad62f"/>
          <path id="Trazado_249515" data-name="Trazado 249515" d="M90.231,202.8c-.009.677-.551,1.005-.954,1.41q-4.76,4.77-9.531,9.529c-.4.4-.957.72-.97,1.4l-1.162-1.761a11.415,11.415,0,0,1-1.183-2.926c-.164-.52.2-.821.5-1.118,3.159-3.168,6.31-6.343,9.5-9.475a1.627,1.627,0,0,1,.484-.321.935.935,0,0,1,.785.211c.8.733,1.564,1.509,2.313,2.3a.778.778,0,0,1,.212.755" transform="translate(-46.498 -121.444)" fill="#aed832"/>
          <path id="Trazado_249516" data-name="Trazado 249516" d="M88.442,228.734c.617,0,.928-.482,1.3-.852q5.113-5.09,10.217-10.187c.453-.451.928-.875.838-1.6a.841.841,0,0,1,.767.228,18.016,18.016,0,0,1,2.279,2.394,1.088,1.088,0,0,1,.059.413,2.354,2.354,0,0,1-.805,1.183q-5.458,5.463-10.932,10.91a1.915,1.915,0,0,1-1.064.718l-1.749-1.782-.909-1.424" transform="translate(-53.834 -131.517)" fill="#a7d52d"/>
          <path id="Trazado_249517" data-name="Trazado 249517" d="M69.593,184.911c.672-.01,1.006-.537,1.411-.939q3.876-3.85,7.731-7.72a10.76,10.76,0,0,1,2.372-1.9.866.866,0,0,1,.057.956,9.513,9.513,0,0,0-.557,4.111c0,.225,0,.451-.019.675a3.152,3.152,0,0,1-1.243,2.211c-2.851,2.836-5.687,5.687-8.552,8.509l-.549-1.26c-.1-1.565-.726-3.056-.65-4.645" transform="translate(-42.357 -106.128)" fill="#b5db37"/>
          <path id="Trazado_249518" data-name="Trazado 249518" d="M72.667,199.841a1.431,1.431,0,0,1,.425-1.014c2.747-2.662,5.453-5.364,8.18-8.046a1.94,1.94,0,0,0,.836-1.6c1.036.477.962,1.72,1.679,2.418.252.6,1.039.9.953,1.69-2.38,2.774-5.132,5.185-7.657,7.818q-1.463,1.525-2.918,3.057a14.222,14.222,0,0,1-1.5-4.322" transform="translate(-44.232 -115.152)" fill="#b1d934"/>
          <path id="Trazado_249519" data-name="Trazado 249519" d="M122.211,281.36l-.872-.628-.6-.835a3.365,3.365,0,0,1,1.827-1.409,2.489,2.489,0,0,1,2.068,1.045c-.595.891-1,2.032-2.427,1.827" transform="translate(-73.495 -169.513)" fill="#72b2cf"/>
          <path id="Trazado_249520" data-name="Trazado 249520" d="M109.315,270.416l-.586-.905a.487.487,0,0,1,.394-.393c.565.053.9.538,1.378.744,1,.768,2.418,1.008,2.958,2.351-.424.385-.8.916-1.493.515-1.017-.618-1.577-1.758-2.651-2.311" transform="translate(-66.182 -163.809)" fill="#63aac3"/>
          <path id="Trazado_249521" data-name="Trazado 249521" d="M117,277.181l1.493-.6c.335-.283.659-.1.987.018.332.219.824.3.759.867-.684.253-.934,1.159-1.775,1.177A4.96,4.96,0,0,1,117,277.181" transform="translate(-71.217 -168.263)" fill="#6baeca"/>
          <path id="Trazado_249522" data-name="Trazado 249522" d="M95.234,236.542q5.693-5.751,11.383-11.506c.441-.447.834-.939,1.249-1.411,1.346.222,1.84,1.5,2.785,2.227a2.188,2.188,0,0,1,.55,1.1,2.251,2.251,0,0,1-.874,1.306Q105,233.593,99.662,238.906c-.34.338-.644.747-1.184.8l-.9-.5-2.347-2.664" transform="translate(-57.968 -136.119)" fill="#a4d42b"/>
          <path id="Trazado_249523" data-name="Trazado 249523" d="M103.524,244.835q5.709-5.746,11.416-11.495c.409-.413.788-.856,1.181-1.285,1.228.022,1.645,1,2.174,1.84.116.413.509.606.742.927a.471.471,0,0,1,.113.372,3.65,3.65,0,0,1-1.08,1.361c-3.49,3.554-7.115,6.974-10.522,10.61a.913.913,0,0,1-.5.283l-1.208-.72c-.695-.09-1-.7-1.469-1.093l-.848-.8" transform="translate(-63.014 -141.25)" fill="#a0d228"/>
          <path id="Trazado_249524" data-name="Trazado 249524" d="M105.692,266.76l1.469,1.093-.28.222a2.8,2.8,0,0,1-1.189-1.316" transform="translate(-64.334 -162.374)" fill="#54a2c0"/>
          <path id="Trazado_249525" data-name="Trazado 249525" d="M151.409,287.685a3.1,3.1,0,0,0-3.181,1.168c-1.338,1.606-2.932,3-4.423,4.479-.34.338-.63.769-1.195.761a1.887,1.887,0,0,1-.882-.879c.544-1.255,1.679-2,2.6-2.91,1.135-1.12,2.077-2.466,3.544-3.231a6.588,6.588,0,0,1,1.722-.13c1.25-.054,2.5-.058,3.747-.025.567.015,1.171-.027,1.583.5-.332.351-.776.191-1.17.256l-2.347.009" transform="translate(-86.269 -174.632)" fill="#94c5e1"/>
          <path id="Trazado_249526" data-name="Trazado 249526" d="M145.775,287.123a64.956,64.956,0,0,1-5.863,5.866,3.074,3.074,0,0,1-1.169-1.172,50.536,50.536,0,0,1,5.431-5.214c.629-.119,1.242-.187,1.6.52" transform="translate(-84.452 -174.407)" fill="#90c3df"/>
          <path id="Trazado_249527" data-name="Trazado 249527" d="M142.186,286.392c-1.7,1.714-3.129,3.71-5.272,4.951a3.105,3.105,0,0,1-1.176-1.171,47.281,47.281,0,0,1,4.426-4.29,1.816,1.816,0,0,1,.646-.133,1.492,1.492,0,0,1,1.376.643" transform="translate(-82.623 -173.933)" fill="#8bc0dd"/>
          <path id="Trazado_249528" data-name="Trazado 249528" d="M138.773,285.567c-1.354,1.5-2.558,3.163-4.4,4.143q-.145-.011-.288-.034l-.593-.844c1.119-1.593,2.286-3.134,4.218-3.842.432.052.962-.074,1.069.578" transform="translate(-81.252 -173.47)" fill="#87bedb"/>
          <path id="Trazado_249529" data-name="Trazado 249529" d="M128.961,286.388a4.729,4.729,0,0,1-1.468-1.461,16.469,16.469,0,0,1,2.613-2.463,1.288,1.288,0,0,1,.416-.038c.611.133,1.306.058,1.722.682a5.208,5.208,0,0,1-3.283,3.279" transform="translate(-77.604 -171.908)" fill="#7db8d5"/>
          <path id="Trazado_249530" data-name="Trazado 249530" d="M131.245,287.261a23.853,23.853,0,0,0,3.218-3.174c.763-.379,1.4-.345,1.8.529-1.274.325-1.806,1.539-2.735,2.279-.489.389-.936.83-1.4,1.247a1.884,1.884,0,0,1-.877-.881" transform="translate(-79.888 -172.781)" fill="#83bbd7"/>
          <path id="Trazado_249531" data-name="Trazado 249531" d="M128.3,281.674c-.784.889-1.408,1.957-2.635,2.35a3.24,3.24,0,0,1-1.174-1.172c1.1-.158,1.429-1.34,2.337-1.753.679-.288,1.225-.237,1.472.575" transform="translate(-75.778 -171.005)" fill="#78b5d2"/>
          <path id="Trazado_249532" data-name="Trazado 249532" d="M173.739,105.782c.006.558-.4.864-.743,1.206q-14.666,14.64-29.339,29.275a7.673,7.673,0,0,1-.8.618c-.929-.041-1.267-.9-1.9-1.358-.528-.75-1.613-1.107-1.594-2.245q15.027-14.878,29.924-29.888a1.175,1.175,0,0,1,.354-.253c1.352.905,2.96,1.414,4.1,2.646" transform="translate(-84.827 -62.778)" fill="#aad62f"/>
          <path id="Trazado_249533" data-name="Trazado 249533" d="M164.533,99.955c-.012.673-.545,1.006-.949,1.41q-13.963,13.948-27.937,27.884c-.406.4-.747.927-1.42.938a.86.86,0,0,1-.74-.246c-.686-.636-1.336-1.31-2.005-1.966-.269-.318-.583-.617-.493-1.1.492-.818,1.358-1.242,2.011-1.9q12.525-12.547,25.086-25.057a15.169,15.169,0,0,0,1.177-1.3c.29-.366.54-.85,1.159-.677l.566.035,3.518,1.757a2.013,2.013,0,0,1,.028.217" transform="translate(-79.722 -59.597)" fill="#aed832"/>
          <path id="Trazado_249534" data-name="Trazado 249534" d="M266.208,200.355c-.469.256-.113.92-.585,1.175a52.822,52.822,0,0,0-3.805,4.311c-2.792,2.96-5.31,6.162-8.047,9.172a1.37,1.37,0,0,1-1.393.6.891.891,0,0,1,.086-.992,10.015,10.015,0,0,1,1.232-1.916,16.823,16.823,0,0,0,4.189-4.769,20.514,20.514,0,0,1,2.788-3.15,10.572,10.572,0,0,0,2.048-2.808,13.26,13.26,0,0,1,2.65-2.812c.337-.3.934-.758.841.319q0,.437,0,.873" transform="translate(-153.546 -121.01)" fill="#a0cce9"/>
          <path id="Trazado_249535" data-name="Trazado 249535" d="M272.162,189.605l-.288,0a1.358,1.358,0,0,0-1.172.743,36.653,36.653,0,0,1-5.9,6.943c-1.044,1.037-1.417,2.526-2.455,3.562-.511.434-.783,1.284-1.716.986-.205-1.224.529-2.234.766-3.358a1.343,1.343,0,0,1,.27-.338,22.447,22.447,0,0,0,4.523-4.707,57.588,57.588,0,0,1,5.146-5.957c.318-.311.69-.923,1.29-.312a3.7,3.7,0,0,1-.464,2.434" transform="translate(-158.622 -113.771)" fill="#95c6e4"/>
          <path id="Trazado_249536" data-name="Trazado 249536" d="M264.673,204.491A23.228,23.228,0,0,1,266.86,201c2.184-2.241,4.468-4.388,6.029-7.16.487-.866.961-.938,1.467-.474a6.471,6.471,0,0,1-.588,2.632c-.032-.43-.222-.513-.522-.2-.909.94-1.8,1.891-2.706,2.838-1.561,1.734-3.166,3.429-4.672,5.214-.292.346-.583.83-1.2.642" transform="translate(-161.104 -117.529)" fill="#9ac8e6"/>
          <path id="Trazado_249537" data-name="Trazado 249537" d="M290.138,184.689a7.083,7.083,0,0,1,.3-2.634c-.154-.3.016-.516.178-.736.985-.665,1.507-1.789,2.463-2.485h.293l.88,1.171a18.5,18.5,0,0,1-4.111,4.684" transform="translate(-176.597 -108.854)" fill="#75bfe2"/>
          <path id="Trazado_249538" data-name="Trazado 249538" d="M293.55,176.1a5.04,5.04,0,0,1-2.347,2.635,1.162,1.162,0,0,1-.269-1.106,13.519,13.519,0,0,0,.249-1.818,2.641,2.641,0,0,1,.609-1.467l.876.585.881,1.17" transform="translate(-177.073 -106.123)" fill="#70bbdf"/>
          <path id="Trazado_249539" data-name="Trazado 249539" d="M276.246,173.282a2.46,2.46,0,0,1-.3,1.463c-.967,1.471-2.384,2.54-3.474,3.911-1.605,2.018-3.19,4.06-4.946,5.951-.5.535-.913,1.536-2,.9a1.374,1.374,0,0,1,.1-1.474c2.737-3.4,5.97-6.39,8.467-10a4.313,4.313,0,0,1,1.458-1.41c.356-.118.521.124.687.363q0,.145,0,.29" transform="translate(-161.525 -105.059)" fill="#86bedc"/>
          <path id="Trazado_249540" data-name="Trazado 249540" d="M290.978,168.487l-.592-.288c-.622.063-.665-.436-.814-.833a2.172,2.172,0,0,1,1.494-2.169l.207.067q0,1.317-.008,2.633a.631.631,0,0,0-.286.59" transform="translate(-176.259 -100.553)" fill="#9bcae6"/>
          <path id="Trazado_249541" data-name="Trazado 249541" d="M289.222,155.406q.006.44.012.879,0,1.024,0,2.047l-.006.873c-.1,0-.192.006-.288.007h-.007c-.354-.226-.2-.7-.455-.989-.75.781-1.1,1.838-1.935,2.526-.543-.081-.679-.506-.806-.941.281-1.956,1.744-3.139,2.965-4.476.136-.149.363-.059.525.074" transform="translate(-173.923 -94.503)" fill="#92c3e0"/>
          <path id="Trazado_249542" data-name="Trazado 249542" d="M107.208,120.822c-.119-.817.5-1.222.97-1.7q12.909-12.89,25.82-25.779c.687-.686,1.334-1.413,2-2.122l2.6.259,2.641.6.389.286q-9.423,9.416-18.856,18.822-4.764,4.756-9.526,9.517c-.608.209-1.2-.137-1.8-.059-1.426-.285-2.81.521-4.238.167" transform="translate(-65.247 -55.528)" fill="#b5db37"/>
          <path id="Trazado_249543" data-name="Trazado 249543" d="M122.915,122.4c0-.675.526-1.018.932-1.424Q136.8,108.035,149.77,95.1c.41-.409.767-.907,1.429-.94l2.544.621,1.773.882c-.924.523-1.336,1.515-2.061,2.233q-12.521,12.411-24.969,24.895a10.653,10.653,0,0,1-2.393,1.891c-.628.135-.988-.281-1.366-.66-.467-.693-1.531-.726-1.813-1.624" transform="translate(-74.817 -57.316)" fill="#b1d934"/>
          <path id="Trazado_249544" data-name="Trazado 249544" d="M209.779,254.506a1.013,1.013,0,0,1-.586-.586c.254-.958,1.159-1.411,1.676-2.145,2.662-3.779,6.164-6.876,8.7-10.754a16.925,16.925,0,0,1,2.247-2.49c3.625-3.683,6.568-7.931,9.945-11.817,1.4-1.616,3.087-2.973,4.391-4.687.277-.364.62-.788,1.215-.608l-1.192,3.8-.281.007a96.464,96.464,0,0,0-8.3,9.35c-1.233,1.618-2.862,2.963-4.045,4.586-2.464,3.383-5.751,6.058-7.963,9.654-1.3,2.112-3.271,3.71-5.016,5.469a.677.677,0,0,1-.788.218" transform="translate(-127.334 -134.749)" fill="#b0d4f0"/>
          <path id="Trazado_249545" data-name="Trazado 249545" d="M210.691,260.3a39.793,39.793,0,0,0,7.217-8.3c.967-1.489,2.523-2.438,3.519-3.891,2.55-3.716,6.015-6.657,8.667-10.308a49.438,49.438,0,0,1,6.231-6.744c.147-.139.3-.265.479-.036-.409.871-.389,1.932-1.172,2.637a19.984,19.984,0,0,0-3.469,4.275c-1.363,1.964-3.375,3.381-4.749,5.354-2.182,3.134-5.125,5.6-7.522,8.539-1.879,2.3-3.78,4.587-5.638,6.907a17.148,17.148,0,0,1-1.714,1.8c-.339.317-.7.745-1.264.355l-.585-.294q0-.146,0-.292" transform="translate(-128.246 -140.547)" fill="#b4d7f2"/>
          <path id="Trazado_249546" data-name="Trazado 249546" d="M212.189,265c1.769-.787,2.752-2.39,3.909-3.8,2.79-3.393,5.366-6.986,8.616-9.957,2.1-1.923,3.242-4.616,5.4-6.414,2.3-1.921,3.363-4.819,5.65-6.709.213-.176.317-.706.785-.349-.729,1.1-.864,2.5-1.755,3.519-.457-.5-.627-.043-.876.244-3.454,4-7,7.92-10.34,12.012-2.14,2.624-4.306,5.224-6.6,7.7a43.389,43.389,0,0,0-2.758,3.823c-.3.4-.581.789-1.142.8a1.853,1.853,0,0,1-.882-.877" transform="translate(-129.158 -144.657)" fill="#b8d9f3"/>
          <path id="Trazado_249547" data-name="Trazado 249547" d="M236,217.193a122.438,122.438,0,0,0-8.962,9.917,52.487,52.487,0,0,1-5.737,6.713c-1.851,1.7-3.115,3.954-4.771,5.843-2.262,2.58-4.469,5.192-6.533,7.933a18.54,18.54,0,0,1-2.17,2.1,1.858,1.858,0,0,1-.881-.878c3.152-4.28,7.1-7.894,10.272-12.143,1.37-1.833,2.73-3.669,4.178-5.44a7.274,7.274,0,0,1,1.457-1.427,22.872,22.872,0,0,0,5.239-6.11c2.607-2.823,4.8-6.013,7.616-8.646.3-.284.615-1.112,1.165-.2q-.289.731-.578,1.462c-.024.318.043.666-.3.879" transform="translate(-125.964 -130.525)" fill="#abd2ee"/>
          <path id="Trazado_249548" data-name="Trazado 249548" d="M263.531,210.9c-.125-.184-.31-.279-.475-.109a32.563,32.563,0,0,0-3.2,3.39c-1.484,2.048-3.264,3.832-4.837,5.795-1.227.77-1.73,2.2-2.822,3.094-.4.328-.653.873-1.3.76-.417-.789.112-1.338.581-1.781a76.549,76.549,0,0,0,5.68-6.225c2.1-2.468,4.251-4.891,6.3-7.4.315-.386.516-.773.948-.159q0,.293.007.585c-.529.583-.273,1.5-.879,2.052" transform="translate(-152.627 -126.57)" fill="#a7d0ec"/>
          <path id="Trazado_249549" data-name="Trazado 249549" d="M246.086,206.191c-.178-.011-.458-.1-.52-.022-1.814,2.305-3.781,4.48-5.669,6.72-2.073,2.461-4.144,4.912-6.408,7.2a2.7,2.7,0,0,0-.889,1.624c.16.437-.169.641-.419.884a31.1,31.1,0,0,0-4.609,5.255,50.321,50.321,0,0,1-5.536,6.2c-.331.32-.646.776-1.24.546-.331-.521-.006-.907.254-1.323a22.589,22.589,0,0,1,2.9-3.445,11.152,11.152,0,0,0,1.88-2.4,82.554,82.554,0,0,0,6.7-8.068.589.589,0,0,1,.616-.3,28.2,28.2,0,0,0,5.355-5.593c1.882-2.3,3.98-4.388,5.839-6.691.509-.63.944-1.321,1.43-1.971.391-.522.524-.2.611.209l-.3,1.171" transform="translate(-134.31 -124.501)" fill="#a4ceea"/>
          <path id="Trazado_249550" data-name="Trazado 249550" d="M100.718,165.856a8.537,8.537,0,0,1,4.411-.533c.749.385.469.908.089,1.307-2.356,2.473-4.781,4.88-7.248,7.242-.355.34-.8.607-1.3.182a8.286,8.286,0,0,1,.836-5.265,11.259,11.259,0,0,1,3.211-2.933" transform="translate(-58.758 -100.562)" fill="#0b779b"/>
          <path id="Trazado_249551" data-name="Trazado 249551" d="M211.149,262.216a50.32,50.32,0,0,0,7.347-8.146,18.2,18.2,0,0,1,3.8-4.152c.628.86-.379,1.175-.587,1.757a27.669,27.669,0,0,0-4.684,5.494c-1.5,2.134-3.192,4.1-4.871,6.079-1.776,2.092-3.872,3.911-5.316,6.289a1.535,1.535,0,0,1-1.266.879l-.289,0-.59-.876a45.37,45.37,0,0,1,4.786-5.983c.507-.5.906-1.15,1.669-1.337" transform="translate(-124.595 -152.123)" fill="#a6cfec"/>
          <path id="Trazado_249552" data-name="Trazado 249552" d="M210.235,270.244a49.912,49.912,0,0,0-5.7,6.943.857.857,0,0,1-.751.377l-.587-.585c.481-2.123,2.233-3.372,3.493-4.939,1.824-2.269,3.663-4.532,5.615-6.7.986-.847,1.694-2.088,3.175-2.234-.654,1.87-2.372,2.892-3.52,4.37a7.684,7.684,0,0,0-1.721,2.767" transform="translate(-123.682 -160.151)" fill="#9fcbe8"/>
          <path id="Trazado_249553" data-name="Trazado 249553" d="M211.191,269.2c-2.311,2.775-4.568,5.6-6.959,8.3-.894,1.01-1.494,2.21-2.407,3.186l-.286,0-.595-.874c.047-.419.369-.662.611-.958,2-2.451,4.079-4.841,5.91-7.427,1.127-.932,2.123-2.086,3.726-2.223" transform="translate(-122.313 -163.861)" fill="#9ac9e6"/>
          <path id="Trazado_249554" data-name="Trazado 249554" d="M206.754,274.891c.108.7-.451,1.087-.83,1.465-2.135,2.131-3.495,4.923-5.888,6.825l-.579-.3q0-.146-.005-.29c1.569-2.546,3.711-4.657,5.408-7.107a2.329,2.329,0,0,1,1.277-.739.83.83,0,0,1,.618.142" transform="translate(-121.404 -167.232)" fill="#97c7e3"/>
          <path id="Trazado_249555" data-name="Trazado 249555" d="M204.112,276.949a27.056,27.056,0,0,1-3.86,4.972c-.622.625-.548,1.852-1.715,1.954a1.015,1.015,0,0,1-.588-.585,42.142,42.142,0,0,1,3.918-5.46c.65-.541,1.233-1.26,2.245-.88" transform="translate(-120.49 -168.512)" fill="#92c4e1"/>
          <path id="Trazado_249556" data-name="Trazado 249556" d="M200.221,279.695a41.154,41.154,0,0,1-4.1,5.28l-.886-.585-.292-.584c.841-1.091,2.1-1.811,2.733-3.087a3.074,3.074,0,0,1,1.559-.928c.322-.1.639-.285.99-.1" transform="translate(-118.658 -170.198)" fill="#8dc1df"/>
          <path id="Trazado_249557" data-name="Trazado 249557" d="M166.79,278.035l-5.566-.091c-.072-.951.623-1.484,1.179-2.063,1.418-1.475,2.911-2.877,4.3-4.377.84-.163,1.138.589,1.654.974.392.417.8.824,1.208,1.223.385.4.781.8,1.181,1.185q.455.47.928.922c.288.393.859.635.686,1.275l-.307.26-2.332.386-2.934.306" transform="translate(-98.132 -165.248)" fill="#90cb1c"/>
          <path id="Trazado_249558" data-name="Trazado 249558" d="M188.329,237.948l-.879-1.155c1.753-1.892,3.628-3.665,5.452-5.488q11.472-11.472,22.976-22.911c.591-.587,1.09-1.59,2.254-1.051a2.962,2.962,0,0,1-.08,1.979,4.565,4.565,0,0,1-.694,1.408,1.128,1.128,0,0,1-.2.032c-8.583,8.447-17.057,17-25.6,25.492a7.633,7.633,0,0,0-1.06,1.392,1.627,1.627,0,0,1-1.878.381l-.294-.078" transform="translate(-114.099 -126.114)" fill="#7dc410"/>
          <path id="Trazado_249559" data-name="Trazado 249559" d="M190.449,283.751l1.788-.574a3.257,3.257,0,0,1,2.863-.792,5.12,5.12,0,0,1-2.894,3.062l-.575-.3-1.182-1.4" transform="translate(-115.925 -171.839)" fill="#85bddb"/>
          <path id="Trazado_249560" data-name="Trazado 249560" d="M215.73,120.093c-.207-.324-.454-.325-.717-.076-.318.3-.63.611-.94.921q-21.79,21.746-43.582,43.491a6.253,6.253,0,0,0-1.44,1.82c-1.377,1.327-3.139.988-4.789,1.061-.626.028-1.406.177-1.736-.675a2.924,2.924,0,0,0,2.529-1.144q24.227-24.227,48.493-48.415c.411-.41.874-.767,1.314-1.149.835.921.7,2.175,1.109,3.24-.04.319.02.665-.242.927" transform="translate(-98.929 -70.563)" fill="#08556f"/>
          <path id="Trazado_249561" data-name="Trazado 249561" d="M150.625,197.94a12.448,12.448,0,0,0,6.525-.386A16.086,16.086,0,0,0,164.829,193q12.307-12.281,24.614-24.562c.378-.377.784-.725,1.177-1.087.711.2.579.807.641,1.321.059,1.17-.749,1.846-1.475,2.571l-29.758,29.7c-1.486,1.483-2.967,2.972-4.462,4.446-.446.44-.858.961-1.584.943a2.7,2.7,0,0,1-1.377-.909c-1.064-1.1-2.159-2.173-3.25-3.249-1.06-1.09-2.146-2.157-3.23-3.224-.98-1.164-2.338-1.992-3.044-3.4v0c-.093-.068-.125-.138-.1-.21s.059-.108.089-.108l1.451.661a8.209,8.209,0,0,0,3.237,1.43,5.6,5.6,0,0,0,2.865.605" transform="translate(-87.027 -101.868)" fill="#66ba00"/>
          <path id="Trazado_249562" data-name="Trazado 249562" d="M286.185,143.659q0,.292,0,.584,0,.586,0,1.173a17.837,17.837,0,0,1-4.707,5.976.757.757,0,0,1-.741-.675c.176-1.119,1.046-1.822,1.649-2.679.834-1.185,1.719-2.336,2.619-3.472.3-.384.5-.985,1.18-.906" transform="translate(-170.883 -87.44)" fill="#83bbd9"/>
          <path id="Trazado_249563" data-name="Trazado 249563" d="M282.452,154.017l4.695-5.858q0,.732,0,1.463c-1.116,1.856-2.635,3.428-3.738,5.3a.8.8,0,0,1-.827-.126c-.236-.226-.386-.466-.13-.774" transform="translate(-171.845 -90.183)" fill="#88bedc"/>
          <path id="Trazado_249564" data-name="Trazado 249564" d="M284.821,157.171a12.838,12.838,0,0,1,3.814-5.273q0,.732,0,1.465a9.5,9.5,0,0,0-3.224,4.394.324.324,0,0,1-.351.069c-.212-.17-.389-.353-.236-.654" transform="translate(-173.333 -92.459)" fill="#8dc1de"/>
          <path id="Trazado_249565" data-name="Trazado 249565" d="M265.028,162.11a2.473,2.473,0,0,0-.293-1.5l4.355-4.336c.286.142.326.429.412.69a32.886,32.886,0,0,1-4.142,5.263.236.236,0,0,1-.332-.119" transform="translate(-161.142 -95.124)" fill="#58a4c5"/>
          <path id="Trazado_249566" data-name="Trazado 249566" d="M276.176,152.82c-.256-.136-.285-.383-.312-.632a19.035,19.035,0,0,1,2.648-2.629c-.157,1.412-1.551,2.053-2.04,3.258-.1.123-.2.118-.3,0" transform="translate(-167.916 -91.035)" fill="#70b1cf"/>
          <path id="Trazado_249567" data-name="Trazado 249567" d="M285.433,140.739l-5.28,7.028a.324.324,0,0,1-.353.07c-.209-.171-.4-.349-.235-.654-.13-1.183.992-1.595,1.512-2.365,1.295-1.915,2.719-3.742,4.356-5.963Z" transform="translate(-170.13 -84.52)" fill="#7db8d6"/>
          <path id="Trazado_249568" data-name="Trazado 249568" d="M271.369,160.131l.3.581a2.011,2.011,0,0,1-.641,2.088c-1.239,1.31-2.4,2.683-3.609,4.02-.3.327-.609.673-1.121.352a1.355,1.355,0,0,1-.253-.821c-.067-1.064.733-1.653,1.314-2.354a25.186,25.186,0,0,1,3.722-3.869l.292,0" transform="translate(-161.934 -97.469)" fill="#64abcb"/>
          <path id="Trazado_249569" data-name="Trazado 249569" d="M270.784,158.764c-1.055,1.814-2.785,3.054-4.024,4.716a2.357,2.357,0,0,0-.711,1.516.384.384,0,0,1-.4-.185,2.663,2.663,0,0,1,.122-1.6,41.877,41.877,0,0,1,3.469-4.562c.21-.261.441-.507.662-.76l.3,0,.587.878" transform="translate(-161.642 -96.104)" fill="#5ea7c9"/>
          <path id="Trazado_249570" data-name="Trazado 249570" d="M136.855,216.66a6.718,6.718,0,0,0-2.065-1.978l-.595-.913c3.182-3.271,6.447-6.459,9.676-9.683.3-.3.6-.664,1.115-.553.85.517,1.388,1.467,2.421,1.728,0,.677-.554.994-.953,1.394q-4.209,4.226-8.439,8.432c-.441.441-.983.828-.877,1.574q-.144.22-.284,0" transform="translate(-81.684 -123.877)" fill="#09617e"/>
          <path id="Trazado_249571" data-name="Trazado 249571" d="M140.992,237.111a.507.507,0,0,0,.284,0l.591.589.007.317a1.61,1.61,0,0,1-.882-.908" transform="translate(-85.821 -144.327)" fill="#9dd126"/>
          <path id="Trazado_249572" data-name="Trazado 249572" d="M140.851,199.243q-4.7,4.643-9.4,9.283c-.4.4-.718.944-1.394.952l-2.615-2.385a1.225,1.225,0,0,0-.044-.24,2.261,2.261,0,0,1,.836-1.159c2.779-2.785,5.554-5.574,8.363-8.327.433-.425.786-1.22,1.663-.767l2.591,2.359a.629.629,0,0,1,0,.284" transform="translate(-77.548 -119.586)" fill="#096482"/>
          <path id="Trazado_249573" data-name="Trazado 249573" d="M134.643,193.106c-.68.013-.983.579-1.391.971-3.188,3.062-6.157,6.347-9.472,9.281a15.414,15.414,0,0,1-2.327-2.352c3.193-3.29,6.476-6.491,9.721-9.728.3-.3.6-.68,1.123-.513l2,1.772.343.569" transform="translate(-73.928 -116.093)" fill="#0a6786"/>
          <path id="Trazado_249574" data-name="Trazado 249574" d="M129.561,187.658q-4.722,4.644-9.447,9.284c-.4.4-.72.947-1.4.957l-.564-.338-1.2-1.418a1.707,1.707,0,0,1,.628-.953q4.477-4.487,8.973-8.955a1.671,1.671,0,0,1,.961-.616l1.7,1.468.345.571" transform="translate(-71.191 -112.985)" fill="#0a6a89"/>
          <path id="Trazado_249575" data-name="Trazado 249575" d="M123.861,181.976c-3.412,3.616-6.913,7.145-10.562,10.524l-2.033-1.8-.319-.543a1.716,1.716,0,0,1,.63-.952q4.479-4.487,8.975-8.957a1.673,1.673,0,0,1,.961-.616l.524.3,1.823,2.044" transform="translate(-67.532 -109.342)" fill="#0a6c8d"/>
          <path id="Trazado_249576" data-name="Trazado 249576" d="M117.869,176.365c-3.414,3.616-6.913,7.148-10.567,10.525a13.952,13.952,0,0,1-2.343-2.344c3.193-3.29,6.476-6.49,9.721-9.728.3-.3.595-.68,1.123-.514a10.175,10.175,0,0,1,2.065,2.061" transform="translate(-63.888 -106.073)" fill="#0a7091"/>
          <path id="Trazado_249577" data-name="Trazado 249577" d="M113.163,171.628q-4.722,4.644-9.447,9.284c-.4.4-.72.947-1.4.957l-.564-.338-1.134-1.425c3.172-3.378,6.527-6.573,9.8-9.851a.963.963,0,0,1,.906-.371,3.386,3.386,0,0,0,1.2.88l.639.863" transform="translate(-61.247 -103.396)" fill="#0a7294"/>
          <path id="Trazado_249578" data-name="Trazado 249578" d="M109,167.225q-4.661,4.615-9.328,9.225c-.4.4-.709.955-1.378,1-.807-.723-.993-1.791-1.5-2.682.013-.179.025-.357.038-.536.615.084.984-.3,1.368-.689q3.35-3.356,6.712-6.7c.383-.382.838-.73.378-1.343l1.726.324c.637.5,1.517.661,1.982,1.4" transform="translate(-58.917 -100.737)" fill="#0b7497"/>
          <path id="Trazado_249579" data-name="Trazado 249579" d="M133.9,247.633a23.142,23.142,0,0,1,3.228,3.224c.155.792-.4,1.28-.852,1.741-2.918,2.972-5.849,5.932-8.843,8.829l-.142-.03-.144,0a3.05,3.05,0,0,0-1.472-.575,6.627,6.627,0,0,0-2.03-.887l-.9-.627c-.365-.495,0-.842.291-1.136,3.422-3.46,6.845-6.92,10.341-10.306a.9.9,0,0,1,.523-.236" transform="translate(-74.619 -150.732)" fill="#9acf23"/>
          <path id="Trazado_249580" data-name="Trazado 249580" d="M127.775,242.635q-5.08,5.146-10.154,10.3c-.4.4-.959.711-1,1.381l-.847-.257-3.242-2.122a5.781,5.781,0,0,1,1.337-1.713q5.348-5.392,10.681-10.8a22.758,22.758,0,0,1,3.226,3.213" transform="translate(-68.497 -145.734)" fill="#9dd126"/>
          <path id="Trazado_249581" data-name="Trazado 249581" d="M155.35,264.1l1.161.893a5.133,5.133,0,0,1,1.617,1.327c.147.217.31.432.152.714-.086.882-.87,1.243-1.375,1.8-1.393,1.542-3.1,2.8-4.193,4.613l-1.768.02a3.34,3.34,0,0,0-1.76-.257l-1.481-.384c-.661-.306-.532-.811-.166-1.176,2.566-2.558,4.9-5.36,7.815-7.553" transform="translate(-89.619 -160.758)" fill="#93cc1e"/>
          <path id="Trazado_249582" data-name="Trazado 249582" d="M147.879,259.093q-3.575,3.644-7.147,7.291c-.382.392-1.024.72-.5,1.438l-.561.022a1.568,1.568,0,0,0-1.149-.262,4.66,4.66,0,0,0-1.8-.529c-.491-.482-1.281-.106-1.764-.611,0-.619.484-.927.853-1.3,2.267-2.274,4.534-4.549,6.821-6.8a12.013,12.013,0,0,0,2.02-2.469,22.833,22.833,0,0,1,3.225,3.221" transform="translate(-82.149 -155.747)" fill="#96ce21"/>
          <path id="Trazado_249583" data-name="Trazado 249583" d="M206.892,247.848l-.877.3c-.421-.936.405-1.315.871-1.783q7.576-7.617,15.2-15.189c1.035-1.033,2.043-2.093,3.117-3.083.47-.433.917-1.077,1.739-.679.2,1.246-.714,1.982-1.321,2.858l-1.124,1.77c-3.9,3.992-7.886,7.9-11.821,11.854a18.352,18.352,0,0,1-2.545,2.163l-1.178.725a6.48,6.48,0,0,0-2.059,1.06" transform="translate(-125.329 -138.352)" fill="#86c716"/>
          <path id="Trazado_249584" data-name="Trazado 249584" d="M216.708,253.457q6.794-6.835,13.587-13.671a1.108,1.108,0,0,1,.779-.346l-.324.87A53.469,53.469,0,0,1,223.7,248.7l-2.916,2.385-3.529,2.317-.55.054" transform="translate(-131.908 -145.745)" fill="#88c817"/>
          <path id="Trazado_249585" data-name="Trazado 249585" d="M256.293,218.086l1.232-2.913c-.01-.416-.068-.863.554-.886l1.494-1.164c1.5-1.086,2.426-2.7,3.7-4.007a14.433,14.433,0,0,1,2.173-1.849c-.475,1.669-1.813,2.766-2.959,3.853-1.574,1.494-2.38,3.5-3.905,5.006a23.557,23.557,0,0,1-2.283,1.96" transform="translate(-156.003 -126.162)" fill="#9dcae7"/>
          <path id="Trazado_249586" data-name="Trazado 249586" d="M220.769,219.784l-.554.887a4.6,4.6,0,0,0-1.541,1.083q-9.209,9.211-18.431,18.41c-.37.37-.864.673-.863,1.3l-1.51.745-2.863.791c-.076-.64.418-.952.787-1.321q12.313-12.3,24.635-24.587c.37-.369.682-.861,1.325-.783l-.984,3.478" transform="translate(-118.694 -131.658)" fill="#81c513"/>
          <path id="Trazado_249587" data-name="Trazado 249587" d="M263.879,195.274l.346-1.467c2.428-2.908,4.565-6.057,7.239-8.76.765-.773,1.093-1.862,1.956-2.541.393-.309.667-.892,1.332-.651.025.009.044.072.043.109a.551.551,0,0,1-.042.139q0,.585,0,1.169l-.3.586a47.749,47.749,0,0,0-6.14,6.909,17.955,17.955,0,0,1-4.438,4.506" transform="translate(-160.621 -110.659)" fill="#90c3e1"/>
          <path id="Trazado_249588" data-name="Trazado 249588" d="M275.291,179.844c-.972-.015-1.43.829-1.764,1.416a31.54,31.54,0,0,1-4.319,5.233c-1.5,1.669-2.268,4-4.445,5.055,0-.686.414-1.329.211-2.034-.086-.322.072-.5.358-.593,1.908-.929,2.863-2.8,4.175-4.3,1.96-2.242,3.6-4.773,6.076-6.536-.093.587.232,1.243-.292,1.758" transform="translate(-161.159 -108.399)" fill="#8dc1df"/>
          <path id="Trazado_249589" data-name="Trazado 249589" d="M216.9,201.208l-.359.592a5.5,5.5,0,0,0-1.728,1.321q-13.609,13.595-27.234,27.174c-.434.433-.767,1.044-1.5,1.071a1.856,1.856,0,0,1-.88-.879c.121-.626.631-.968,1.037-1.374q14.276-14.263,28.56-28.519a7.949,7.949,0,0,0,1.966-2.133c.133-.29.389-.213.578.017a1.064,1.064,0,0,1-.2,1.254,2.241,2.241,0,0,0-.236,1.475" transform="translate(-112.731 -120.688)" fill="#7ac20e"/>
          <path id="Trazado_249590" data-name="Trazado 249590" d="M266.8,182.772l-.011-1.46c.017-.066.035-.132.051-.2,1.087-1.552,2.506-2.821,3.685-4.287,1.694-2.106,3.423-4.189,5.036-6.362a.29.29,0,0,1,.371.025l.585.882a79.326,79.326,0,0,1-7.606,8.913c-.783.758-.94,2.052-2.111,2.488" transform="translate(-162.395 -103.726)" fill="#81bbda"/>
          <path id="Trazado_249591" data-name="Trazado 249591" d="M288.7,164.761c-.1,0-.194,0-.29-.005a.777.777,0,0,1-.481-.148c-.127-.121-.233-.249-.108-.433a7.649,7.649,0,0,1,2.1-3.176,3.271,3.271,0,0,1,.248,1.71,2.844,2.844,0,0,0-1.465,2.052" transform="translate(-175.162 -97.998)" fill="#97c7e2"/>
          <path id="Trazado_249592" data-name="Trazado 249592" d="M275.008,167.742l.291.3a.859.859,0,0,1-.307.914c-2.208,2.13-3.6,4.963-6.005,6.925a6.06,6.06,0,0,0-1.022,1.233c-.277.387-.612.67-1.057.176a2.4,2.4,0,0,1-.051-1.768c1.99-1.99,3.644-4.287,5.675-6.239.726-.7.939-1.7,1.6-2.42l.291,0,.587.878" transform="translate(-162.346 -101.566)" fill="#78b6d6"/>
          <path id="Trazado_249593" data-name="Trazado 249593" d="M248.18,244.844c.006-.649.767-1.046.586-1.757a1.008,1.008,0,0,0,.587-.585,16.951,16.951,0,0,0,2.443-2.551c.464-.508.843-1.193,1.664-1.255a23.18,23.18,0,0,1-5.28,6.149" transform="translate(-151.065 -145.292)" fill="#a8d0ed"/>
          <path id="Trazado_249594" data-name="Trazado 249594" d="M175,213.245l-.3-.579a14.839,14.839,0,0,1,1.836-1.875q15.525-15.518,31.068-31.017c1.193-1.19,2.541-2.265,2.907-4.046q.119.06.234.127.035.4.071.794a3.045,3.045,0,0,1,.362,2.036c.2,1.609-.6,2.68-1.713,3.785-10.367,10.262-20.669,20.59-31.015,30.873-.523.52-.9,1.511-1.989,1.077L175,213.245" transform="translate(-106.34 -106.965)" fill="#70bf07"/>
          <path id="Trazado_249595" data-name="Trazado 249595" d="M179.205,219.387c.736-.028,1.069-.64,1.5-1.073q15.719-15.666,31.444-31.326c.917-.91,1.642-1.738,1.406-3.091a.377.377,0,0,1,.427.174,1.432,1.432,0,0,1-.162,1.644q-.022,1.019-.045,2.039a.85.85,0,0,1-.245.769,22.566,22.566,0,0,0-1.82,1.694q-14.718,14.691-29.448,29.368c-.5.5-.88,1.389-1.887.975a3.065,3.065,0,0,1-1.171-1.173" transform="translate(-109.081 -111.929)" fill="#74c009"/>
          <path id="Trazado_249596" data-name="Trazado 249596" d="M182.2,227.505c.735-.028,1.068-.638,1.5-1.071q15.081-15.029,30.151-30.069c.434-.433.767-1.044,1.5-1.069.37.38.212.78.044,1.181l-.1-.016c-.158,1.249-1.265,1.745-2.023,2.5q-14.288,14.286-28.6,28.549c-.412.41-.869.775-1.3,1.161a3.079,3.079,0,0,1-1.176-1.17" transform="translate(-110.902 -118.875)" fill="#77c10c"/>
          <path id="Trazado_249597" data-name="Trazado 249597" d="M208.225,172.963a3.192,3.192,0,0,1-1.142,2.814q-16.612,16.5-33.165,33.052c-.435.433-.768,1.044-1.5,1.071a4.767,4.767,0,0,1-1.471-1.462c.623,0,.93-.492,1.3-.862q17.378-17.333,34.749-34.673c.486-.484,1.029-.926.944-1.718l.243.12q.022.829.044,1.658" transform="translate(-104.051 -104.199)" fill="#6bbc03"/>
          <path id="Trazado_249598" data-name="Trazado 249598" d="M267.216,170.475a1.4,1.4,0,0,1-.221-.129q0-1.142,0-2.282c1.9-2.027,4.229-3.7,5.252-6.442l.292,0,.586.587a.613.613,0,0,0,.291.587c.167.442-.135.748-.337,1.065a22.773,22.773,0,0,1-5.863,6.611" transform="translate(-162.518 -98.378)" fill="#6aaecf"/>
          <path id="Trazado_249599" data-name="Trazado 249599" d="M267.561,172.306c1.6-1.846,3.22-3.674,4.785-5.548a22.522,22.522,0,0,0,1.415-2.127l.589.292.3.581a2.819,2.819,0,0,1-.767,2.008c-1.719,2.014-3.515,3.963-5.286,5.933a1.287,1.287,0,0,1-.989.551q-.022-.844-.043-1.688" transform="translate(-162.862 -100.209)" fill="#72b2d3"/>
          <path id="Trazado_249600" data-name="Trazado 249600" d="M266.976,181q-.022-.59-.044-1.181l.243-.6c1.91-2.188,4.3-3.953,5.782-6.515.644-1.116,1.81-1.754,2.475-2.837l.3.285c.128,1.132-.911,1.543-1.442,2.247a84.614,84.614,0,0,1-7.312,8.6" transform="translate(-162.479 -103.399)" fill="#7db9d7"/>
        </g>
      </g>
    </g>
  </g>
</svg>
