<svg id="Grupo_149105" data-name="Grupo 149105" xmlns="http://www.w3.org/2000/svg" xmlns:xlink="http://www.w3.org/1999/xlink" width="64.87" height="64.836" viewBox="0 0 64.87 64.836">
  <defs>
    <clipPath id="clip-path">
      <rect id="Rectángulo_90329" data-name="Rectángulo 90329" width="64.87" height="64.836" fill="none"/>
    </clipPath>
  </defs>
  <g id="Grupo_149105-2" data-name="Grupo 149105" clip-path="url(#clip-path)">
    <path id="Trazado_249768" data-name="Trazado 249768" d="M0,64.765V6.325a1.446,1.446,0,0,1,1.029-.2q5.659-.007,11.318,0c.977,0,.988-.014.99-.983,0-1.412,0-2.823,0-4.234a1.255,1.255,0,0,1,.2-.9H53.285a1.661,1.661,0,0,1,.2,1.156q.006,16.085.006,32.169c0,1.888-.2,1.509,1.381,2.567,2.565,1.72,1.9,1.456,4.851,1.475,1.433.009,2.867-.007,4.3.006.8.007.844.061.844.869,0,.463,0,.927,0,1.39-.074.229-.279.252-.462.251-2.338,0-4.679.116-7.014-.063A5.583,5.583,0,0,1,54.7,38.778c-2.206-1.479-4.42-2.944-6.627-4.422a4.242,4.242,0,0,0-1.793-.741c-.47-.065-.77.052-.884.555-.126.554-.288,1.1-.452,1.645a.575.575,0,0,0,.4.828A3.173,3.173,0,0,1,47.4,38.951,3.3,3.3,0,0,1,44.925,42.9a7.824,7.824,0,0,1-1.631.171q-5.28-.01-10.561,0a2.816,2.816,0,0,0-2.783,1.891c-.217.6-.116.771.524.774,2.15.01,4.3.025,6.45,0a22.3,22.3,0,0,1,8.064,1.287,13.684,13.684,0,0,0,8.452.33,49.847,49.847,0,0,1,5.911-1.367,28.351,28.351,0,0,1,4.979-.231c.2.007.433,0,.531.253.005.57-.013,1.14.007,1.708a.456.456,0,0,1-.472.537,7.3,7.3,0,0,1-1.264.02c-3.142-.217-6.091.732-9.078,1.466-.515.127-.566.486-.566.913q0,3.225,0,6.451c0,1.537-.011,1.547-1.548,1.547q-5.505,0-11.011,0c-.958,0-.981.025-.983,1,0,1.434.009,2.867-.006,4.3-.008.837-.065.881-.91.881q-19.205,0-38.41,0A1.174,1.174,0,0,1,0,64.765"/>
    <path id="Trazado_249769" data-name="Trazado 249769" d="M22.083,22.193c.077,1.017.077,1.017,1.115,1.017q9.08,0,18.161-.011c.484,0,.626.106.625.612q-.027,10.877,0,21.755c0,.525-.131.67-.659.655a6.174,6.174,0,0,0-3.526.438,5.218,5.218,0,0,1-2.956.584c-2.657-.011-5.315.01-7.973-.016-.485,0-.593.13-.586.6.022,1.512,0,1.512,1.508,1.512,1.983,0,3.965,0,5.948,0a.97.97,0,0,1,.667.107c-.638.635-1.258,1.252-1.879,1.868-.176.174-.4.1-.6.1-1.687.006-3.375.016-5.062-.006-.414-.005-.584.064-.581.537.011,1.572-.01,1.571,1.576,1.573q1.106,0,2.214.015c.029,0,.059.043.3.231a18.264,18.264,0,0,0-1.942,1.724,3.2,3.2,0,0,0,1.607,5.2,2.812,2.812,0,0,0,1.374.067c.357-.074.387.032.437.341a2.079,2.079,0,0,0,2.159,1.817q1.55.027,3.1,0c.384-.007.47.085.347.464a9.044,9.044,0,0,0-.365,1.532,3.368,3.368,0,0,0,1.226,3.214c.533.435.71.818.442,1.413-.155.343-.049.5.306.54a3.843,3.843,0,0,1,.43.1c.368.09.784.329,1.09.229s.238-.626.345-.961c.153-.478.562-.3.853-.306.345-.013.181.318.182.486.012,2.445-.007,4.891.021,7.336.006.486-.136.583-.6.581q-8.7-.025-17.4-.011c-5.632,0-11.263-.008-16.895.013-.539,0-.65-.153-.65-.667q.021-26.529,0-53.058c0-.5.138-.618.625-.615,3.965.02,7.931.011,11.9.011,1.047,0,1.047,0,1.1-1.014a2.365,2.365,0,0,1,2.019,0" transform="translate(-4.357 -14.858)" fill="#e5e8ec"/>
    <path id="Trazado_249770" data-name="Trazado 249770" d="M50.489,11.69l-2.019,0c-.007-1.623-.006-3.245-.028-4.867,0-.322.122-.409.408-.376a2.194,2.194,0,0,0,.253,0q17.085,0,34.169-.013c.573,0,.733.136.732.724q-.029,15.114-.014,30.228v.679c-.692-.454-1.3-.843-1.9-1.251a5.449,5.449,0,0,0-2.976-1.1c-.538-.012-.282-.358-.227-.568.626-2.357,1.268-4.71,1.9-7.065.75-2.781,1.508-5.56,2.244-8.345a3.773,3.773,0,0,0-2.648-4.794,3.9,3.9,0,0,0-4.967,2.624c-.933,3.232-1.776,6.489-2.658,9.735a1.425,1.425,0,0,1-.272.586V11.514c0-.884,0-.884-.916-.884H51.643c-1.074,0-1.074,0-1.154,1.059" transform="translate(-32.762 -4.354)" fill="#cbd0d8"/>
    <path id="Trazado_249771" data-name="Trazado 249771" d="M126.618,109.506l0,6.256c-3.976-.288-7.785.6-11.576,1.63a13.106,13.106,0,0,1-8.082-.331,21.843,21.843,0,0,0-8.118-1.311c-2.277.055-4.556-.007-6.833.025-.534.007-.646-.164-.554-.64a3.052,3.052,0,0,1,2.717-2.44c1.368-.065,2.741-.04,4.111-.043,2.468-.005,4.936.006,7.4,0a3.19,3.19,0,0,0,3.391-2.516,3.074,3.074,0,0,0-2.216-3.61c-.377-.1-.479-.187-.36-.57.239-.762.45-1.535.628-2.313.079-.348.244-.425.567-.419a3.861,3.861,0,0,1,2.135.673c2.238,1.5,4.494,2.979,6.723,4.5a6.324,6.324,0,0,0,3.741,1.133c2.109-.025,4.218-.012,6.327-.015" transform="translate(-61.831 -69.809)" fill="#efcfb3"/>
    <path id="Trazado_249772" data-name="Trazado 249772" d="M128.446,157.587c-1.707,0-3.414-.026-5.12.015-.551.013-.694-.158-.635-.667a9.877,9.877,0,0,0,.008-1.073,4.465,4.465,0,0,1,.506-2.585,10.386,10.386,0,0,0,.967-3.181c.137-.557.35-.558.812-.44,1.588.407,3.1,1.068,4.719,1.369a15.563,15.563,0,0,0,3.961.226c.4-.029.55.059.544.5-.025,1.769-.028,3.538,0,5.307.007.471-.164.544-.579.539-1.728-.021-3.456-.009-5.184-.009" transform="translate(-82.971 -101.175)" fill="#cbd0d8"/>
    <path id="Trazado_249773" data-name="Trazado 249773" d="M117.555,91.94c-.485,0-.972-.029-1.454.008-.447.035-.514-.11-.4-.516.6-2.166,1.18-4.339,1.768-6.508.792-2.92,1.6-5.836,2.368-8.762.122-.464.268-.537.705-.371.843.322,1.708.587,2.57.859.326.1.467.2.354.612q-1.954,7.111-3.853,14.237c-.095.354-.244.473-.6.448-.482-.033-.969-.008-1.454-.008" transform="translate(-78.219 -51.204)" fill="#fbd670"/>
    <path id="Trazado_249774" data-name="Trazado 249774" d="M88.949,103.207c1.265,0,1.263,0,.968,1.078-.15.547-.312,1.091-.429,1.645a.572.572,0,0,1-.593.513,5.133,5.133,0,0,0-3.244,1.646Q83.2,110.544,80.736,113a2.72,2.72,0,0,1-.63.516,1.066,1.066,0,0,1-1.373-.251,1.084,1.084,0,0,1-.107-1.392,3.28,3.28,0,0,1,.5-.565c2.246-2.25,4.514-4.478,6.732-6.754a3.778,3.778,0,0,1,3.093-1.344" transform="translate(-53.039 -69.792)" fill="#efcfb3"/>
    <path id="Trazado_249775" data-name="Trazado 249775" d="M137.441,38.712a1.726,1.726,0,0,1,1.753,2.2c-.354,1.426-.765,2.838-1.135,4.26-.084.325-.189.452-.553.32q-1.391-.507-2.806-.942c-.311-.095-.334-.233-.26-.5.37-1.335.7-2.68,1.1-4.007a1.761,1.761,0,0,1,1.9-1.335" transform="translate(-90.901 -26.182)" fill="#fee9a6"/>
    <path id="Trazado_249776" data-name="Trazado 249776" d="M111.988,148.313a28.825,28.825,0,0,1-.909,3.142,1.889,1.889,0,0,1-2.41.931,1.728,1.728,0,0,1-1.134-2.063c.008-.041.023-.081.035-.121.17-.606.165-1.4.557-1.767s1.207-.1,1.834-.117c.651-.021,1.3,0,2.027,0" transform="translate(-72.701 -100.254)" fill="#fbd66f"/>
    <path id="Trazado_249777" data-name="Trazado 249777" d="M130.913,64.608c.139-.527.284-1.029.4-1.538.069-.3.234-.284.46-.207.95.324,1.9.653,2.855.957.273.086.386.173.282.48-.153.455-.268.924-.38,1.391-.065.268-.154.388-.465.278-.966-.341-1.94-.657-2.915-.975-.216-.071-.33-.172-.24-.386" transform="translate(-88.519 -42.485)" fill="#e5e8ec"/>
    <path id="Trazado_249778" data-name="Trazado 249778" d="M134.228,121.515c.163-.606.332-1.169.463-1.74.065-.284.216-.323.455-.271a1.02,1.02,0,0,1,.032,2,4.751,4.751,0,0,1-.95.011" transform="translate(-90.782 -80.811)" fill="#cacfd7"/>
    <path id="Trazado_249779" data-name="Trazado 249779" d="M104.945,119.881c-.155.6-.3,1.134-.434,1.676-.059.239-.215.265-.424.261-.524-.01-1.047,0-1.713,0a5.787,5.787,0,0,1,2.57-1.934" transform="translate(-69.239 -81.079)" fill="#e2e5e9"/>
    <path id="Trazado_249780" data-name="Trazado 249780" d="M26.474,42.707c-4.342,0-8.684-.009-13.026.012-.481,0-.584-.124-.58-.589q.033-4.644,0-9.289c0-.5.155-.572.6-.572q12.994.019,25.988,0c.5,0,.63.128.626.626q-.035,4.581,0,9.163c0,.516-.111.666-.646.663-4.32-.023-8.641-.013-12.962-.013" transform="translate(-8.701 -21.824)"/>
    <path id="Trazado_249781" data-name="Trazado 249781" d="M24.394,90.136c1.028.071,1.028.071,1.028,1.1,0,1.58-.013,3.16.009,4.74.006.394-.107.489-.495.487q-5.785-.023-11.572,0c-.394,0-.491-.105-.489-.492q.022-5.782,0-11.565c0-.459.175-.5.546-.493,2.382.013,4.764.023,7.145-.006.529-.006.8.087.684.67a1.545,1.545,0,0,0,.018.376c.331.852.12,1.2-.78,1.21-1.474.023-2.949,0-4.423.01-.767.005-.822.06-.824.833q-.008,3.158,0,6.315c0,.744.049.79.788.792q3.191.008,6.382,0c.7,0,.761-.068.773-.754.014-.842-.016-1.684.012-2.526s.4-1.053,1.2-.7" transform="translate(-8.706 -56.748)"/>
    <path id="Trazado_249782" data-name="Trazado 249782" d="M25.334,144.983c.171.2.086.446.087.668.008,1.706-.009,3.413.014,5.119.006.394-.1.487-.489.486q-5.786-.023-11.571,0c-.374,0-.5-.071-.5-.477q.026-5.782,0-11.564c0-.436.144-.508.535-.506,2.361.016,4.722.039,7.081-.011.663-.014.86.185.756.793a1.02,1.02,0,0,0,.018.251c.366.9.134,1.3-.8,1.314-1.473.021-2.947,0-4.421.009-.741.005-.806.066-.809.783q-.01,3.188,0,6.375c0,.723.063.781.806.783q3.158.01,6.315,0c.743,0,.812-.08.824-.848.013-.82-.017-1.642.013-2.462.026-.716.328-.973,1.009-.8a8.422,8.422,0,0,0,1.125.093" transform="translate(-8.709 -93.803)"/>
    <path id="Trazado_249783" data-name="Trazado 249783" d="M28.8,92.322c-1.043.07-1.043.07-1.043,1.164,0,.843-.023,1.686.01,2.528.017.432-.142.524-.543.521q-3.668-.025-7.335,0c-.381,0-.506-.094-.5-.491q.026-3.7,0-7.394c0-.4.145-.489.515-.485,1.644.017,3.289-.022,4.932.022.628.017.951-.109.819-.8a.948.948,0,0,1,.019-.251l2.624.017c.065.284-.16.418-.315.574q-1.936,1.952-3.888,3.888c-.487.484-.586.48-1.082,0-.828-.808-.639-.924-1.638.063-.285.282-.31.5-.01.788.608.583,1.21,1.174,1.786,1.789.31.33.525.293.826-.014,1.179-1.2,2.379-2.388,3.571-3.579.253-.253.5-.515.764-.755.132-.119.25-.3.481-.206l.011,2.623" transform="translate(-13.109 -58.935)" fill="#fe816e"/>
    <path id="Trazado_249784" data-name="Trazado 249784" d="M29.735,147.164c-.461.006-.925.043-1.383.01s-.63.082-.609.579c.041,1.008,0,2.019.02,3.029.009.41-.067.6-.543.59-2.441-.024-4.884-.018-7.325,0-.378,0-.512-.1-.509-.493q.023-3.692,0-7.384c0-.393.118-.5.5-.494,1.663.019,3.327-.025,4.988.025.64.019.892-.149.776-.788a1.3,1.3,0,0,1,.018-.313l2.644.018c.015.271-.193.41-.352.57q-1.918,1.927-3.847,3.845c-.516.512-.608.511-1.129,0-.8-.792-.679-.85-1.548.028-.486.491-.488.545-.023,1.017.547.555,1.119,1.089,1.648,1.66.361.389.63.355.989-.01,1.344-1.369,2.706-2.72,4.068-4.071.188-.186.34-.444.659-.442.006.622.053,1.247.008,1.866-.041.566.134.812.715.717a.685.685,0,0,1,.233.049" transform="translate(-13.11 -95.985)" fill="#fe816e"/>
    <path id="Trazado_249785" data-name="Trazado 249785" d="M31.833,134.578c-1.6,1.585-3.213,3.16-4.8,4.764-.33.335-.508.355-.833,0-.671-.728-1.383-1.419-2.1-2.1-.252-.242-.291-.4-.01-.649.4-.344.723-.952,1.15-1.023s.736.6,1.093.948c.211.206.325.231.544.006,1.486-1.521,2.987-3.027,4.483-4.538,1.525-1.51,3.061-3.011,4.569-4.539.31-.314.5-.338.777,0,.319.387.929.716.962,1.108s-.609.726-.959,1.081q-2.434,2.477-4.884,4.937" transform="translate(-16.165 -86.031)"/>
    <path id="Trazado_249786" data-name="Trazado 249786" d="M31.85,79.678c-1.614,1.6-3.238,3.191-4.836,4.807-.3.306-.463.343-.772.008-.671-.727-1.381-1.419-2.1-2.1-.267-.254-.341-.425-.021-.695.385-.324.691-.918,1.1-.99.451-.079.731.593,1.1.918.189.166.3.3.548.047,1.483-1.522,2.984-3.027,4.479-4.538,1.536-1.521,3.083-3.033,4.6-4.573.311-.315.488-.33.768.01.318.385.961.726.961,1.088s-.6.739-.957,1.1q-2.437,2.465-4.881,4.922" transform="translate(-16.173 -48.913)"/>
    <path id="Trazado_249787" data-name="Trazado 249787" d="M74.544,89.2c-2.086,0-4.171-.01-6.257.008-.406,0-.541-.1-.542-.525-.006-1.565-.023-1.565,1.562-1.565,3.813,0,7.626.008,11.439-.01.472,0,.646.085.634.606-.034,1.485-.008,1.486-1.463,1.486H74.544" transform="translate(-45.817 -58.917)"/>
    <path id="Trazado_249788" data-name="Trazado 249788" d="M67.119,177.454c1.747,0,3.494.01,5.24-.008.379,0,.5.087.5.486.016,1.634.031,1.634-1.625,1.634-3.115,0-6.23-.009-9.344.01-.443,0-.561-.115-.557-.556.011-1.567-.006-1.567,1.552-1.567h4.23" transform="translate(-41.484 -120.011)" fill="#010101"/>
    <path id="Trazado_249789" data-name="Trazado 249789" d="M105.411,178.534c0,1.048,0,1.048-1.052,1.048s-1.064,0-1.064-1.038c0-1.076,0-1.076,1.084-1.076,1.031,0,1.031,0,1.031,1.066" transform="translate(-69.861 -120.027)" fill="#030303"/>
    <path id="Trazado_249790" data-name="Trazado 249790" d="M30.844,44.977c-3.586,0-7.171-.016-10.757.016-.6.005-.729-.184-.717-.743.034-1.686.022-3.373,0-5.059,0-.37.076-.51.484-.509q11.009.018,22.019,0c.406,0,.487.131.483.5-.017,1.749-.024,3.5,0,5.248.007.458-.146.554-.575.552-3.649-.016-7.3-.009-10.946-.009" transform="translate(-13.1 -26.162)" fill="#b3dc7e"/>
    <path id="Trazado_249791" data-name="Trazado 249791" d="M78.509,47.289c-1.042,0-1.042,0-1.042-1.061,0-1.01,0-1.01,1.038-1.01,1.077,0,1.077,0,1.077,1.1,0,.97,0,.97-1.073.97" transform="translate(-52.393 -30.582)" fill="#010101"/>
    <path id="Trazado_249792" data-name="Trazado 249792" d="M65.576,45.182c1.047,0,1.047,0,1.047,1.068,0,1,0,1-.978,1-1.136,0-1.136,0-1.135-1.155a1.851,1.851,0,0,0,0-.314c-.092-.519.154-.671.628-.605a3.224,3.224,0,0,0,.441,0" transform="translate(-43.615 -30.546)" fill="#010101"/>
    <path id="Trazado_249793" data-name="Trazado 249793" d="M52.667,47.289c-1.024,0-1.024,0-1.024-1.012,0-1.058,0-1.058,1.048-1.058,1.065,0,1.065,0,1.065,1.052,0,1.019,0,1.019-1.089,1.019" transform="translate(-34.928 -30.582)" fill="#010101"/>
    <path id="Trazado_249794" data-name="Trazado 249794" d="M40.841,46.276c0,1.015,0,1.015-1.281,1.015-.83,0-.83,0-.829-1.331,0-.741,0-.747,1.365-.737.891.006.73-.124.746,1.054" transform="translate(-26.194 -30.584)" fill="#010101"/>
    <path id="Trazado_249795" data-name="Trazado 249795" d="M26.874,47.289c-1.055,0-1.055,0-1.055-1.04s0-1.031,1.008-1.031c1.1,0,1.1,0,1.1,1.079,0,.992,0,.992-1.053.992" transform="translate(-17.462 -30.582)" fill="#010101"/>
  </g>
</svg>
