<svg xmlns="http://www.w3.org/2000/svg" xmlns:xlink="http://www.w3.org/1999/xlink" width="171" height="183" viewBox="0 0 171 183">
  <defs>
    <clipPath id="clip-path">
      <ellipse id="Elipse_5607" data-name="Elipse 5607" cx="73" cy="78.5" rx="73" ry="78.5" transform="translate(727 1117)" fill="#fff"/>
    </clipPath>
    <clipPath id="clip-path-2">
      <rect id="Rectángulo_90320" data-name="Rectángulo 90320" width="161.711" height="153.843" fill="none"/>
    </clipPath>
  </defs>
  <g id="Grupo_149662" data-name="Grupo 149662" transform="translate(-724 -5708)">
    <g id="Grupo_149661" data-name="Grupo 149661">
      <g id="Elipse_5605" data-name="Elipse 5605" transform="translate(724 5719)" fill="#fff" stroke="#ffe4e5" stroke-width="6">
        <circle cx="76" cy="76" r="76" stroke="none"/>
        <circle cx="76" cy="76" r="73" fill="none"/>
      </g>
      <g id="Enmascarar_grupo_117497" data-name="Enmascarar grupo 117497" transform="translate(0 4591)" clip-path="url(#clip-path)">
        <g id="Grupo_149091" data-name="Grupo 149091" transform="translate(733.289 1146.157)">
          <g id="Grupo_149091-2" data-name="Grupo 149091" clip-path="url(#clip-path-2)">
            <path id="Trazado_249345" data-name="Trazado 249345" d="M75.529,117.024c-.379.02-.758.059-1.137.059-18.025,0-36.05.038-54.075-.016A19.947,19.947,0,0,1,.538,101.343C-.767,95.888.378,90.83,3.168,86.036,8.49,76.895,13.752,67.719,19.041,58.558Q32.874,34.6,46.713,10.645C50.326,4.4,55.66.766,62.923.125c6.5.936,11.1,4.579,14.33,10.119,8.916,15.274,17.7,30.625,26.547,45.938,1.276,2.208,2.61,4.383,3.812,6.632.262.489.769,1,.151,1.6a8.714,8.714,0,0,1-2.562-.17,18.368,18.368,0,0,0-3.665-.2,2.263,2.263,0,0,1-.743-.174c-1.414-1.05-1.946-2.712-2.773-4.147C89.984,45.773,81.892,31.86,73.876,17.9c-1.215-2.116-2.325-4.3-4.563-5.589a8.041,8.041,0,0,0-1.91-.88c-4.723-1.324-8.6.172-11.1,4.434-7,11.938-13.856,23.955-20.778,35.936Q24.085,71.607,12.65,91.414c-2.183,3.782-2.475,7.424.211,11.1a8.956,8.956,0,0,0,7.122,3.663,48.314,48.314,0,0,0,6.025-.046c14.011-.065,28.019-.025,42.027-.026a7.508,7.508,0,0,1,1.133.07,1.677,1.677,0,0,1,1.4,1.179,33.388,33.388,0,0,0,4.633,8.509c.251.319.587.671.325,1.16" transform="translate(0 -0.071)" fill="#fc4b52"/>
            <path id="Trazado_249346" data-name="Trazado 249346" d="M163.3,198.76a39.467,39.467,0,0,1-5.771-10.433c-1.33-1.892-1.413-4.139-1.76-6.3a30.853,30.853,0,0,1,.677-11.7c.335-1.172.643-2.354,1.067-3.5a33.4,33.4,0,0,1,14.37-17.317,34.1,34.1,0,0,1,13.814-4.54,5.631,5.631,0,0,1,2.732.234l.691.153c.965.342,2,.044,2.97.321,15.527,2.615,26.978,16.95,26.753,32.8-.229,16.159-12.22,29.8-27.1,32.033-1.075.181-2.175.071-3.246.285a32.019,32.019,0,0,1-21.685-8.436c-1.246-1.116-2.344-2.4-3.511-3.6" transform="translate(-87.772 -81.807)" fill="#89c8fd"/>
            <path id="Trazado_249347" data-name="Trazado 249347" d="M308.224,285.473c.576-.314.984-.9,1.681-1.019,3.839,3.808,7.916,7.367,11.685,11.248,2,2.055,4.1,4,6.2,5.948,2.248,2.079,2.227,4.015.107,6.173-2.159,2.2-4.266,4.453-6.586,6.489A5.611,5.611,0,0,1,319.492,313q-8.319-8.114-16.637-16.231c-1.939-1.9-2.029-3.1-.452-5.215a22.968,22.968,0,0,1,3.72-4.406c.693-.566,1.156-1.421,2.1-1.672" transform="translate(-170.1 -160.588)" fill="#f0b983"/>
            <path id="Trazado_249348" data-name="Trazado 249348" d="M189.453,64.129q-4.378-7.672-8.759-15.341-5.9-10.271-11.826-20.523c-3.77-6.5-7.455-13.058-11.405-19.45A18.293,18.293,0,0,0,145.984.639,12.22,12.22,0,0,1,144.5.055C153.019-.485,159.47,3,163.744,10.3c7.754,13.232,15.372,26.544,23.044,39.824q4.148,7.18,8.279,14.37a2.736,2.736,0,0,1,.645,1.629,14.427,14.427,0,0,1-6.258-1.991" transform="translate(-81.577 0)" fill="#fc4755"/>
            <path id="Trazado_249349" data-name="Trazado 249349" d="M242.661,146.7a43.759,43.759,0,0,1,6.258,1.991c8.7,4.114,14.9,10.538,17.956,19.74,3.257,9.79,1.967,19.094-3.314,27.9-.25.416-.49.839-.735,1.259,0,1.092-1.041,1.56-1.439,2.413-1.344,1.288-2.39,2.9-4.117,3.773a34.572,34.572,0,0,1-15.6,7.333c-.632.109-1.28.128-1.921.189-.4.081-.9.474-1-.337,9.542-1.788,16.742-7,21.866-15.134a31.053,31.053,0,0,0,4.8-17.572,32.867,32.867,0,0,0-26.333-31.5c.125-.813.657-.388,1.061-.349l2.523.292" transform="translate(-134.785 -82.575)" fill="#60b6fe"/>
            <path id="Trazado_249350" data-name="Trazado 249350" d="M332.468,314.18c.179-1.01,1.084-1.45,1.7-2.1,1.3-1.381,2.672-2.7,4.014-4.042,2.8-2.8,2.75-4.183-.081-6.875q-8.006-7.612-15.942-15.3c-.452-.435-1.077-.782-1.1-1.539a3.378,3.378,0,0,1,3.357,1.089c5.694,5.564,11.438,11.075,17.145,16.626,1.871,1.819,1.857,3.294.053,5.175s-3.618,3.734-5.392,5.633a3.622,3.622,0,0,1-3.753,1.334" transform="translate(-181.253 -160.457)" fill="#e2a66f"/>
            <path id="Trazado_249351" data-name="Trazado 249351" d="M281.281,273.149l3.9-3.936c.513-.224.832.135,1.127.426,2.82,2.78,5.635,5.566,8.4,8.405a1.325,1.325,0,0,1,.348.722c-1.4,1.3-2.4,2.985-3.948,4.142l-9.819-9.758" transform="translate(-158.797 -151.944)" fill="#a69aa6"/>
            <path id="Trazado_249352" data-name="Trazado 249352" d="M300.1,275.939q-4.212-4.137-8.427-8.269c-.46-.45-.962-.856-1.445-1.283a10.035,10.035,0,0,1,1.661-2.251L301.972,274a9.221,9.221,0,0,1-1.872,1.936" transform="translate(-163.848 -149.118)" fill="#837683"/>
            <path id="Trazado_249353" data-name="Trazado 249353" d="M234.55,294.842c.241.388.648.284,1,.337-1.382.589-2.823.241-4.24.264l3.238-.6" transform="translate(-130.587 -166.453)" fill="#74bffe"/>
            <path id="Trazado_249354" data-name="Trazado 249354" d="M89.194,102.365c-.22,1.5-.444,2.99-.661,4.486-.679,4.706.17,9.266,1.327,13.8l-44.345-.019c-1.209-.315-2.474.071-3.689-.382-3.305-1.233-6.342-5.418-6.214-8.8a13.128,13.128,0,0,1,1.716-6.321q16.444-28.444,32.864-56.9C73.835,41.94,77.4,35.611,81.106,29.36a11.387,11.387,0,0,1,3.3-3.53,3.328,3.328,0,0,1,3.18-.635c2.709.6,4.382,2.478,5.693,4.723,3.362,5.758,6.668,11.548,10,17.324q8.736,15.142,17.477,30.282a35.011,35.011,0,0,0-13.478,3.145A32.668,32.668,0,0,0,90.827,97.826c-.188.442-.406.871-.611,1.306-.534-.4-.473-1.049-.651-1.593a5.33,5.33,0,0,0-5.878-3.618c-2.793.934-4.236,2.742-4.178,5.24.054,2.35,1.555,4.106,4.176,4.881a4.745,4.745,0,0,0,3.977-.894c.491-.3.832-.893,1.532-.782" transform="translate(-20.103 -14.125)" fill="#feca2e"/>
            <path id="Trazado_249355" data-name="Trazado 249355" d="M81.041,24.6c-2.761.038-4.55,1.786-5.795,3.861-4.2,7-8.2,14.124-12.288,21.193q-5.645,9.76-11.314,19.506Q45.836,79.2,40.058,89.261c-3.049,5.3-6.008,10.647-9.161,15.881a9.894,9.894,0,0,0,5.231,14.487c.937.316,1.964-.217,2.839.4-2.594,0-5.207.348-7.768-.312-5.77-1.488-8.968-8.165-6.152-13.4,3.514-6.534,7.33-12.906,11.033-19.338q8.8-15.282,17.619-30.55c5.334-9.244,10.633-18.508,16.024-27.719A9.158,9.158,0,0,1,81.041,24.6" transform="translate(-13.554 -13.528)" fill="#cba124"/>
            <path id="Trazado_249356" data-name="Trazado 249356" d="M236.749,146.177c-.371.065-.8-.047-1.061.35-.926-.463-2.046-.032-2.942-.635,1.339.031,2.7-.236,4,.286" transform="translate(-131.396 -82.34)" fill="#6cbafc"/>
            <path id="Trazado_249357" data-name="Trazado 249357" d="M205.492,166.947c10.881-.228,21.18,8.61,22.845,19.543,1.239,8.139-1.008,15.166-6.855,20.9a21.786,21.786,0,0,1-15.007,6.478,14.205,14.205,0,0,1-8.3-1.718c-8.668-4.463-13.333-11.46-13.689-21.4-.357-9.986,6.544-19.425,15.471-22.683a27.468,27.468,0,0,1,5.532-1.121" transform="translate(-104.146 -94.248)" fill="#ebeef0"/>
            <path id="Trazado_249358" data-name="Trazado 249358" d="M201.72,166.945c-1.807.694-3.762.839-5.563,1.592-8.363,3.494-13.57,9.695-14.828,18.611-1.382,9.8,2.767,18.581,11.568,23.73a19.926,19.926,0,0,0,9.806,2.985c-3.013.715-5.921-.038-8.678-1.012-8.776-3.1-14.247-9.266-15.841-18.474a22.194,22.194,0,0,1,4.445-18.2c4.849-6.127,11.16-9.4,19.091-9.234" transform="translate(-100.374 -94.246)" fill="#d0d0d5"/>
            <path id="Trazado_249359" data-name="Trazado 249359" d="M145.921,182.3c2.459-.969,6.685,1.531,6.568,5.509l-1.022,3.232c-1.562,1.444-3.193,2.7-5.532,2.016-.055-.734.626-.79,1.027-1.068a5.041,5.041,0,0,0-.028-8.622c-.4-.271-1.09-.324-1.013-1.068" transform="translate(-82.377 -102.797)" fill="#c93c41"/>
            <path id="Trazado_249360" data-name="Trazado 249360" d="M140.038,118.062a3.927,3.927,0,0,1-3.253-3.9c-.351-6.116-.417-12.245-.727-18.359-.186-3.677-.013-7.368-.471-11.039a4.509,4.509,0,0,1,4.132-5.4,5.433,5.433,0,0,1,3.344.168.919.919,0,0,0,.1,1.184,5.386,5.386,0,0,1,.977,3.525c-.076,9.95-.542,19.886-1.025,29.822-.11,2.267-1.161,3.535-3.078,4" transform="translate(-76.516 -44.7)" fill="#fc4b52"/>
            <path id="Trazado_249361" data-name="Trazado 249361" d="M145.876,118.514c2.154-1.19,2.6-3.086,2.695-5.425.253-6.365.395-12.734.685-19.094.143-3.133.088-6.263.25-9.389a4.288,4.288,0,0,0-2.193-4.324c.555-.426,1.12-.163,1.589-.3a4.2,4.2,0,0,1,3.46,4.456c-.227,6.766-.545,13.528-.845,20.291-.149,3.356.029,6.721-.363,10.072a4.142,4.142,0,0,1-5.278,3.715" transform="translate(-82.354 -45.152)" fill="#c93c41"/>
            <path id="Trazado_249362" data-name="Trazado 249362" d="M140.026,182.566c1.059.71,2.267,1.179,3,2.369,1.673,2.735,1.147,6.416-2.981,8.389a5.452,5.452,0,0,1-.014-10.758" transform="translate(-76.481 -103.068)" fill="#fc4b52"/>
          </g>
        </g>
      </g>
      <g id="Grupo_149092" data-name="Grupo 149092" transform="translate(733.289 5737.157)">
        <g id="Grupo_149091-3" data-name="Grupo 149091" clip-path="url(#clip-path-2)">
          <path id="Trazado_249346-2" data-name="Trazado 249346" d="M163.3,198.76a39.467,39.467,0,0,1-5.771-10.433c-1.33-1.892-1.413-4.139-1.76-6.3a30.853,30.853,0,0,1,.677-11.7c.335-1.172.643-2.354,1.067-3.5a33.4,33.4,0,0,1,14.37-17.317,34.1,34.1,0,0,1,13.814-4.54,5.631,5.631,0,0,1,2.732.234l.691.153c.965.342,2,.044,2.97.321,15.527,2.615,26.978,16.95,26.753,32.8-.229,16.159-12.22,29.8-27.1,32.033-1.075.181-2.175.071-3.246.285a32.019,32.019,0,0,1-21.685-8.436c-1.246-1.116-2.344-2.4-3.511-3.6" transform="translate(-87.772 -81.807)" fill="#89c8fd"/>
          <path id="Trazado_249347-2" data-name="Trazado 249347" d="M308.224,285.473c.576-.314.984-.9,1.681-1.019,3.839,3.808,7.916,7.367,11.685,11.248,2,2.055,4.1,4,6.2,5.948,2.248,2.079,2.227,4.015.107,6.173-2.159,2.2-4.266,4.453-6.586,6.489A5.611,5.611,0,0,1,319.492,313q-8.319-8.114-16.637-16.231c-1.939-1.9-2.029-3.1-.452-5.215a22.968,22.968,0,0,1,3.72-4.406c.693-.566,1.156-1.421,2.1-1.672" transform="translate(-170.1 -160.588)" fill="#f0b983"/>
          <path id="Trazado_249348-2" data-name="Trazado 249348" d="M189.453,64.129q-4.378-7.672-8.759-15.341-5.9-10.271-11.826-20.523c-3.77-6.5-7.455-13.058-11.405-19.45A18.293,18.293,0,0,0,145.984.639,12.22,12.22,0,0,1,144.5.055C153.019-.485,159.47,3,163.744,10.3c7.754,13.232,15.372,26.544,23.044,39.824q4.148,7.18,8.279,14.37a2.736,2.736,0,0,1,.645,1.629,14.427,14.427,0,0,1-6.258-1.991" transform="translate(-81.577 0)" fill="#fc4755"/>
          <path id="Trazado_249349-2" data-name="Trazado 249349" d="M242.661,146.7a43.759,43.759,0,0,1,6.258,1.991c8.7,4.114,14.9,10.538,17.956,19.74,3.257,9.79,1.967,19.094-3.314,27.9-.25.416-.49.839-.735,1.259,0,1.092-1.041,1.56-1.439,2.413-1.344,1.288-2.39,2.9-4.117,3.773a34.572,34.572,0,0,1-15.6,7.333c-.632.109-1.28.128-1.921.189-.4.081-.9.474-1-.337,9.542-1.788,16.742-7,21.866-15.134a31.053,31.053,0,0,0,4.8-17.572,32.867,32.867,0,0,0-26.333-31.5c.125-.813.657-.388,1.061-.349l2.523.292" transform="translate(-134.785 -82.575)" fill="#60b6fe"/>
          <path id="Trazado_249350-2" data-name="Trazado 249350" d="M332.468,314.18c.179-1.01,1.084-1.45,1.7-2.1,1.3-1.381,2.672-2.7,4.014-4.042,2.8-2.8,2.75-4.183-.081-6.875q-8.006-7.612-15.942-15.3c-.452-.435-1.077-.782-1.1-1.539a3.378,3.378,0,0,1,3.357,1.089c5.694,5.564,11.438,11.075,17.145,16.626,1.871,1.819,1.857,3.294.053,5.175s-3.618,3.734-5.392,5.633a3.622,3.622,0,0,1-3.753,1.334" transform="translate(-181.253 -160.457)" fill="#e2a66f"/>
          <path id="Trazado_249351-2" data-name="Trazado 249351" d="M281.281,273.149l3.9-3.936c.513-.224.832.135,1.127.426,2.82,2.78,5.635,5.566,8.4,8.405a1.325,1.325,0,0,1,.348.722c-1.4,1.3-2.4,2.985-3.948,4.142l-9.819-9.758" transform="translate(-158.797 -151.944)" fill="#a69aa6"/>
          <path id="Trazado_249352-2" data-name="Trazado 249352" d="M300.1,275.939q-4.212-4.137-8.427-8.269c-.46-.45-.962-.856-1.445-1.283a10.035,10.035,0,0,1,1.661-2.251L301.972,274a9.221,9.221,0,0,1-1.872,1.936" transform="translate(-163.848 -149.118)" fill="#837683"/>
          <path id="Trazado_249353-2" data-name="Trazado 249353" d="M234.55,294.842c.241.388.648.284,1,.337-1.382.589-2.823.241-4.24.264l3.238-.6" transform="translate(-130.587 -166.453)" fill="#74bffe"/>
          <path id="Trazado_249355-2" data-name="Trazado 249355" d="M81.041,24.6c-2.761.038-4.55,1.786-5.795,3.861-4.2,7-8.2,14.124-12.288,21.193q-5.645,9.76-11.314,19.506Q45.836,79.2,40.058,89.261c-3.049,5.3-6.008,10.647-9.161,15.881a9.894,9.894,0,0,0,5.231,14.487c.937.316,1.964-.217,2.839.4-2.594,0-5.207.348-7.768-.312-5.77-1.488-8.968-8.165-6.152-13.4,3.514-6.534,7.33-12.906,11.033-19.338q8.8-15.282,17.619-30.55c5.334-9.244,10.633-18.508,16.024-27.719A9.158,9.158,0,0,1,81.041,24.6" transform="translate(-13.554 -13.528)" fill="#cba124"/>
          <path id="Trazado_249356-2" data-name="Trazado 249356" d="M236.749,146.177c-.371.065-.8-.047-1.061.35-.926-.463-2.046-.032-2.942-.635,1.339.031,2.7-.236,4,.286" transform="translate(-131.396 -82.34)" fill="#6cbafc"/>
          <path id="Trazado_249357-2" data-name="Trazado 249357" d="M205.492,166.947c10.881-.228,21.18,8.61,22.845,19.543,1.239,8.139-1.008,15.166-6.855,20.9a21.786,21.786,0,0,1-15.007,6.478,14.205,14.205,0,0,1-8.3-1.718c-8.668-4.463-13.333-11.46-13.689-21.4-.357-9.986,6.544-19.425,15.471-22.683a27.468,27.468,0,0,1,5.532-1.121" transform="translate(-104.146 -94.248)" fill="#ebeef0"/>
          <path id="Trazado_249358-2" data-name="Trazado 249358" d="M201.72,166.945c-1.807.694-3.762.839-5.563,1.592-8.363,3.494-13.57,9.695-14.828,18.611-1.382,9.8,2.767,18.581,11.568,23.73a19.926,19.926,0,0,0,9.806,2.985c-3.013.715-5.921-.038-8.678-1.012-8.776-3.1-14.247-9.266-15.841-18.474a22.194,22.194,0,0,1,4.445-18.2c4.849-6.127,11.16-9.4,19.091-9.234" transform="translate(-100.374 -94.246)" fill="#d0d0d5"/>
          <path id="Trazado_249359-2" data-name="Trazado 249359" d="M145.921,182.3c2.459-.969,6.685,1.531,6.568,5.509l-1.022,3.232c-1.562,1.444-3.193,2.7-5.532,2.016-.055-.734.626-.79,1.027-1.068a5.041,5.041,0,0,0-.028-8.622c-.4-.271-1.09-.324-1.013-1.068" transform="translate(-82.377 -102.797)" fill="#c93c41"/>
          <path id="Trazado_249360-2" data-name="Trazado 249360" d="M140.038,118.062a3.927,3.927,0,0,1-3.253-3.9c-.351-6.116-.417-12.245-.727-18.359-.186-3.677-.013-7.368-.471-11.039a4.509,4.509,0,0,1,4.132-5.4,5.433,5.433,0,0,1,3.344.168.919.919,0,0,0,.1,1.184,5.386,5.386,0,0,1,.977,3.525c-.076,9.95-.542,19.886-1.025,29.822-.11,2.267-1.161,3.535-3.078,4" transform="translate(-76.516 -44.7)" fill="#fc4b52"/>
          <path id="Trazado_249361-2" data-name="Trazado 249361" d="M145.876,118.514c2.154-1.19,2.6-3.086,2.695-5.425.253-6.365.395-12.734.685-19.094.143-3.133.088-6.263.25-9.389a4.288,4.288,0,0,0-2.193-4.324c.555-.426,1.12-.163,1.589-.3a4.2,4.2,0,0,1,3.46,4.456c-.227,6.766-.545,13.528-.845,20.291-.149,3.356.029,6.721-.363,10.072a4.142,4.142,0,0,1-5.278,3.715" transform="translate(-82.354 -45.152)" fill="#c93c41"/>
          <path id="Trazado_249362-2" data-name="Trazado 249362" d="M140.026,182.566c1.059.71,2.267,1.179,3,2.369,1.673,2.735,1.147,6.416-2.981,8.389a5.452,5.452,0,0,1-.014-10.758" transform="translate(-76.481 -103.068)" fill="#fc4b52"/>
        </g>
      </g>
    </g>
  </g>
</svg>
