<svg xmlns="http://www.w3.org/2000/svg" xmlns:xlink="http://www.w3.org/1999/xlink" width="105" height="105" viewBox="0 0 105 105">
  <defs>
    <clipPath id="clip-path">
      <rect id="Rectángulo_90497" data-name="Rectángulo 90497" width="105" height="105" transform="translate(0 0.19)" fill="none"/>
    </clipPath>
  </defs>
  <g id="Grupo_149642" data-name="Grupo 149642" transform="translate(0 0.106)">
    <g id="Grupo_149624" data-name="Grupo 149624" transform="translate(0 -0.296)" clip-path="url(#clip-path)">
      <path id="Trazado_262481" data-name="Trazado 262481" d="M91.452,33.5a8.879,8.879,0,0,1,10.9,13.869c-3.224,3.309-6.507,6.563-9.807,9.8A3.351,3.351,0,0,0,91.423,59.8c.044,14.249.029,28.5.029,42.748,0,1.95-.487,2.441-2.422,2.441q-41.695,0-83.39,0c-3.6,0-5.638-2.04-5.639-5.632Q0,72.8,0,46.24c0-3.525,2.059-5.588,5.568-5.6.917,0,1.978.277,2.711-.092.8-.4.481-1.632.726-2.482a16.834,16.834,0,0,1,3.932-7.14,2.2,2.2,0,0,0,.622-1.689q-.031-7.724-.009-15.448A13.538,13.538,0,0,1,27.343.007q31.906-.014,63.812,0a13.552,13.552,0,0,1,13.779,12.152,8.707,8.707,0,0,1,.058,1.056c.008,1.367-.614,2.022-1.979,2.026-3.527.012-7.055.025-10.582-.013-.74-.008-1.01.1-1,.945.046,5.713.024,11.427.024,17.324" transform="translate(0 0.199)" fill="#cba124"/>
      <path id="Trazado_262482" data-name="Trazado 262482" d="M83.639,44.163H121.55c1.946,0,2.436-.488,2.436-2.428q0-6.138,0-12.276c0-1.664-.558-2.227-2.211-2.227q-26.566,0-53.133,0c-1.672,0-2.229.552-2.235,2.2,0,1.341,0,2.681,0,4.022,0,.319.051.654-.418.7A17.4,17.4,0,0,0,59.6,36.278c.179-5.4-.386-10.672.263-15.884a9.919,9.919,0,0,1,10.652-8.382A10.209,10.209,0,0,1,79.937,21.6c.087,1.8.568,2.242,2.426,2.242q23.656,0,47.311-.028c1,0,1.109.313,1.1,1.173q-.052,9.577,0,19.155a2.223,2.223,0,0,1-.73,1.741Q114.013,61.878,98,77.894a5.666,5.666,0,0,0-1.323,2C95.7,82.4,94.685,84.9,93.5,87.385V86.4c0-6.985.013-13.97-.019-20.954,0-.773.156-1,.967-.988,3.457.052,6.915.025,10.372.021,1.661,0,2.223-.561,2.227-2.212q.007-2.911,0-5.821c-.006-1.524-.592-2.121-2.1-2.124-3.493-.007-6.986-.016-10.478.01-.633,0-.934-.04-1.06-.825a4.988,4.988,0,0,0-5.125-4.266q-1.376-.014-2.752,0c-.346,0-.63-.022-.667-.464a17.721,17.721,0,0,0-1.228-4.619" transform="translate(-42.696 -8.4)" fill="#feca2e"/>
      <path id="Trazado_262483" data-name="Trazado 262483" d="M50.248,158.941c.168-.949.336-1.844.481-2.743a.629.629,0,0,1,.731-.583c.988.008,1.977-.039,2.962.017A1.574,1.574,0,0,1,56,157.182a7.329,7.329,0,0,1,.01.846q0,26.925.026,53.85c0,1.076-.269,1.339-1.339,1.336q-20.209-.058-40.419-.026c-1.809,0-2.3-.5-2.3-2.331q0-26.449,0-52.9c0-1.876.478-2.342,2.392-2.344,3,0,2.984,0,3.346,2.921.054.436-.115.433-.436.474-1.55.2-1.913.617-1.914,2.179q0,6.3,0,12.59c0,1.609.546,2.155,2.156,2.156q16.453,0,32.906,0c1.666,0,2.193-.536,2.194-2.225q0-6.136,0-12.272c0-1.932-.367-2.329-2.371-2.5" transform="translate(-8.587 -111.385)" fill="#feca2e"/>
      <path id="Trazado_262484" data-name="Trazado 262484" d="M216.8,218.423v24.95c0,4.618-.014,9.236.015,13.854,0,.669-.141.88-.854.879q-17.769-.036-35.538,0c-.773,0-.906-.234-.9-.943.037-3.525.046-7.051-.006-10.575-.011-.745.262-1,.9-1.251,4.709-1.855,9.4-3.766,14.1-5.627a6.223,6.223,0,0,0,2.173-1.437q9.556-9.588,19.135-19.154a8.512,8.512,0,0,0,.693-.9l.279.205" transform="translate(-128.731 -156.286)" fill="#feca2e"/>
      <path id="Trazado_262485" data-name="Trazado 262485" d="M127.519,11.98h1q27.025,0,54.049,0a10.211,10.211,0,0,1,10.152,7.533c.21.765.088.947-.713.946q-29.563-.029-59.126,0c-.694,0-.926-.172-1.059-.892a13.647,13.647,0,0,0-4.3-7.589" transform="translate(-91.445 -8.39)" fill="#feca2e"/>
      <path id="Trazado_262486" data-name="Trazado 262486" d="M121,77.78c8.147,0,16.294.012,24.442-.019.777,0,1,.162.988.971-.057,2.785-.046,5.572,0,8.357.01.7-.187.867-.873.866q-18.675-.031-37.35-.009a1.325,1.325,0,0,1-1.181-.49,16.49,16.49,0,0,0-10.76-6.1c-.456-.065-.646-.2-.675-.711-.161-2.868-.178-2.867,2.665-2.867Z" transform="translate(-68.503 -55.563)" fill="#feca2e"/>
      <path id="Trazado_262487" data-name="Trazado 262487" d="M68.744,108.455c6.755,3.514,8.837,12.831,4.33,19.38a13.561,13.561,0,0,1-21.774.626,5.957,5.957,0,0,1-.33-.529.656.656,0,0,1,.4-.466c1.1-.466,2.139-1.069,3.206-1.607a.648.648,0,0,1,.7-.022,2.064,2.064,0,0,1,.448.828,4.917,4.917,0,0,0,3.533,3.2c.7.178,1.279.374,1.311,1.241.016.44.352.567.746.574.423.008.846,0,1.269,0,.453,0,.764-.178.784-.66.031-.763.538-.964,1.168-1.126a4.717,4.717,0,0,0,3.835-4.031c.34-2.4.2-4.759-2.1-6.343a5.688,5.688,0,0,0-1.737-.75c-.33-.092-.715-.078-.928-.43.384-.933.745-1.885,1.824-2.259.747.557,1.607.332,2.429.331.448,0,.558-.335.584-.719a5.218,5.218,0,0,0-.595-2.931,2.663,2.663,0,0,1-.473-1.038c.5-1.074.787-2.235,1.375-3.27" transform="translate(-36.551 -77.574)" fill="#feca2e"/>
      <path id="Trazado_262488" data-name="Trazado 262488" d="M48.655,121l-4.2,2.105C40.5,118.161,41.2,110.23,46,105.595c4.43-4.279,11.323-5.112,16.237-1.963a5.873,5.873,0,0,1-1.257,3.2c-.322.142-.547-.068-.754-.242a5.144,5.144,0,0,0-2.361-1.129,1.073,1.073,0,0,1-1-1.033c-.091-.929-.833-.7-1.385-.691s-1.319-.288-1.423.636c-.084.749-.536.975-1.171,1.135a4.683,4.683,0,0,0-3.817,3.927c-.367,2.351-.3,4.686,1.91,6.319a5.693,5.693,0,0,0,1.808.846c.36.107.789.081,1.021.472-.286.979-1.11,1.388-1.918,1.816a7.321,7.321,0,0,1-1.88.09c-.686-.017-1.057.221-1.036.962A1.221,1.221,0,0,1,48.655,121" transform="translate(-30.041 -72.751)" fill="#feca2e"/>
      <path id="Trazado_262489" data-name="Trazado 262489" d="M227.595,205.784c-.11-.085-.247-.185-.378-.292-2.461-2.014-2.461-2.014-.242-4.232q11.78-11.779,23.546-23.572c.643-.647.988-.714,1.649-.019,1.816,1.91,1.85,1.876,0,3.727Q240.312,193.25,228.455,205.1a2.026,2.026,0,0,1-.86.683" transform="translate(-161.593 -126.854)" fill="#feca2e"/>
      <path id="Trazado_262490" data-name="Trazado 262490" d="M236.171,161.51c-.068.433-.4.618-.64.858q-11.586,11.6-23.181,23.188c-.623.623-1.272,1.224-1.862,1.877-.418.463-.689.379-1.11-.019-2.166-2.049-2.177-2.037-.047-4.167q11.743-11.741,23.468-23.5c.7-.708,1.126-.72,1.718.029a17.062,17.062,0,0,0,1.259,1.282c.145.148.272.312.394.453" transform="translate(-148.974 -113.974)" fill="#feca2e"/>
      <path id="Trazado_262491" data-name="Trazado 262491" d="M50.944,189.736c-4.762,0-9.523-.019-14.285.02-.759.006-.923-.206-.911-.933.045-2.785.008-5.572.033-8.358,0-.288-.288-.748.253-.876.412-.1.508.294.676.545,7.064,10.576,21.43,10.566,28.607-.021.172-.255.285-.629.689-.523.452.118.231.527.233.792.018,2.856-.014,5.714.03,8.569.01.68-.2.8-.829.8-4.832-.026-9.664-.014-14.5-.014" transform="translate(-25.605 -128.573)" fill="#feca2e"/>
      <path id="Trazado_262492" data-name="Trazado 262492" d="M335.754,131.066a5.393,5.393,0,0,1-1.161,3.336c-.323.443-.6.592-1.074.107q-3.332-3.4-6.73-6.726c-.645-.629-.186-.905.248-1.2a5.49,5.49,0,0,1,8.718,4.486" transform="translate(-234.113 -89.797)" fill="#feca2e"/>
      <path id="Trazado_262493" data-name="Trazado 262493" d="M318.626,148.358c-.061.367-.324.521-.523.7-.7.634-1.257,1.838-2.065,1.8-.692-.036-1.341-1.12-1.988-1.762-1.728-1.714-3.43-3.454-5.176-5.15-.452-.439-.551-.718-.022-1.162a15.277,15.277,0,0,0,1.573-1.567c.381-.428.637-.493,1.084-.036,2.221,2.268,4.479,4.5,6.722,6.746.145.145.277.3.4.433" transform="translate(-221.223 -100.816)" fill="#feca2e"/>
      <path id="Trazado_262494" data-name="Trazado 262494" d="M184.706,173.575c1.442,0,2.884.018,4.325-.01.491-.009.645.127.671.642.135,2.755.152,2.754-2.558,2.754-2.286,0-4.571-.018-6.857.012-.58.008-.767-.141-.778-.75-.048-2.649-.07-2.648,2.56-2.648h2.637" transform="translate(-128.719 -124.265)" fill="#feca2e"/>
      <path id="Trazado_262495" data-name="Trazado 262495" d="M202.645,269.073c-1.258.51-2.334.919-3.385,1.387-.436.194-.643-.029-.9-.285-1.115-1.123-2.226-2.249-3.362-3.349a.762.762,0,0,1-.209-1.007c.392-.861.737-1.744,1.061-2.633.164-.448.3-.587.695-.19,1.982,1.992,3.978,3.97,6.1,6.079" transform="translate(-139.611 -188.228)" fill="#feca2e"/>
      <path id="Trazado_262496" data-name="Trazado 262496" d="M184.516,291.863c.463-1.2.818-2.11,1.165-3.024.133-.349.314-.462.6-.156.53.559,1.394,1.077,1.476,1.7.063.477-1.1.6-1.714.884-.407.187-.835.329-1.531.6" transform="translate(-132.318 -206.689)" fill="#feca2e"/>
      <path id="Trazado_262497" data-name="Trazado 262497" d="M32.434,252.983c-2.152,0-4.3.007-6.456,0-1.46-.006-2.033-.586-2.036-2.063q-.01-4.709,0-9.418c0-1.477.575-2.059,2.037-2.061q6.456-.01,12.912,0c1.392,0,1.979.6,1.983,2.008q.013,4.762,0,9.524c0,1.407-.592,2-1.984,2.009-2.152.011-4.3,0-6.456,0" transform="translate(-17.166 -171.5)" fill="#cba124"/>
      <path id="Trazado_262498" data-name="Trazado 262498" d="M104.243,252.982c-2.152,0-4.3.007-6.456,0-1.408-.006-2-.59-2.009-1.982q-.015-4.815,0-9.629c0-1.327.613-1.926,1.954-1.929q6.509-.014,13.017,0c1.341,0,1.951.6,1.956,1.928q.018,4.868,0,9.735a1.668,1.668,0,0,1-1.9,1.876c-2.187.015-4.374,0-6.561,0" transform="translate(-68.677 -171.499)" fill="#cba124"/>
      <path id="Trazado_262499" data-name="Trazado 262499" d="M32.434,312.841c-2.152,0-4.3.006-6.456,0-1.46-.006-2.033-.586-2.036-2.063q-.01-4.709,0-9.418c0-1.477.575-2.059,2.037-2.061q6.456-.01,12.912,0c1.392,0,1.979.6,1.983,2.009q.013,4.762,0,9.524c0,1.407-.592,2-1.983,2.009-2.152.011-4.3,0-6.456,0" transform="translate(-17.166 -214.424)" fill="#cba124"/>
      <path id="Trazado_262500" data-name="Trazado 262500" d="M104.241,312.84c-2.152,0-4.3.007-6.456,0-1.407-.006-2-.592-2.007-1.984q-.014-4.815,0-9.629c.005-1.325.615-1.924,1.956-1.927q6.509-.014,13.017,0c1.34,0,1.948.6,1.953,1.93q.018,4.868,0,9.735a1.668,1.668,0,0,1-1.9,1.873c-2.187.015-4.374,0-6.561,0" transform="translate(-68.678 -214.423)" fill="#cba124"/>
      <path id="Trazado_262501" data-name="Trazado 262501" d="M194.71,323.145a7.852,7.852,0,0,1,5.671,2.038,6.27,6.27,0,0,0,8.027.05,7.765,7.765,0,0,1,10.945.285c1.53,1.5,1.473,1.447.05,3.022-.779.863-1.241.763-1.913-.058a4.544,4.544,0,0,0-5.05-1.764,3.609,3.609,0,0,0-1.784,1.077c-2.561,2.918-9.774,2.839-12.448.066-1.925-2-4.446-1.793-6.447.194-1.377,1.368-1.377,1.368-2.775-.017-1.016-1.006-.987-.979-.006-2.029a7.813,7.813,0,0,1,5.729-2.864" transform="translate(-134.985 -231.508)" fill="#cba124"/>
      <path id="Trazado_262502" data-name="Trazado 262502" d="M70.823,121.416c-.3-.442-.814-.261-1.218-.373a5.091,5.091,0,0,1-3.815-4.755,11.087,11.087,0,0,1,.093-2.842,4.912,4.912,0,0,1,4.119-4c.7-.132.991-.32.857-1.028-.107-.571.1-.843.725-.774a5.99,5.99,0,0,0,1.371,0c.908-.111,1.514.043,1.292,1.166-.077.391.1.534.511.569a5.388,5.388,0,0,1,3.323,1.667,6.318,6.318,0,0,1,1.258,4.437c-.025.506-.167.669-.665.645a19.315,19.315,0,0,0-2.209,0c-.538.036-.538-.289-.562-.644-.4-.464-.153-1.1-.419-1.6-.149-.28-.306-.633-.673-.552-.34.075-.249.452-.27.719-.094,1.179.207,2.386-.263,3.537.108.414.465.211.7.257a5.126,5.126,0,0,1,4.341,5.2,8.639,8.639,0,0,1-.265,3.142,4.936,4.936,0,0,1-3.984,3.378c-.651.111-.95.287-.827.953.136.734-.231.91-.882.84a5.656,5.656,0,0,0-1.162,0c-.918.093-1.619-.007-1.35-1.223.078-.352-.123-.457-.47-.506a5.206,5.206,0,0,1-4.619-4.415c.056-2.332.056-2.332,2.444-2.328.316,0,.632.012.948.019.358.326.278.769.3,1.179a2.5,2.5,0,0,0,.215,1.123c.136.241.291.538.624.455.3-.074.248-.391.255-.623.025-.84.009-1.68.011-2.52a2.415,2.415,0,0,1,.262-1.113" transform="translate(-47.146 -76.972)" fill="#cba124"/>
      <path id="Trazado_262503" data-name="Trazado 262503" d="M95.793,130.647c-.012-1.41,0-2.821-.045-4.23-.02-.661.218-.718.736-.452,1.115.573,1,1.579.934,2.576l-1.625,2.105" transform="translate(-68.661 -90.024)" fill="#feca2e"/>
      <path id="Trazado_262504" data-name="Trazado 262504" d="M79.463,156.4c.011,1.406,0,2.813.044,4.218.027.808-.345.687-.817.428a1.618,1.618,0,0,1-.882-1.459c-.015-.562-.011-1.125-.015-1.688l1.67-1.5" transform="translate(-55.786 -111.954)" fill="#feca2e"/>
      <path id="Trazado_262505" data-name="Trazado 262505" d="M41.078,251.385c1.446,0,2.892.021,4.337-.011.509-.011.657.139.649.648q-.044,2.749,0,5.5c.008.51-.142.652-.649.648q-4.443-.034-8.886,0c-.508,0-.657-.139-.649-.648q.043-2.749,0-5.5c-.008-.509.141-.658.65-.648,1.515.031,3.032.011,4.548.011" transform="translate(-25.73 -180.062)" fill="#feca2e"/>
      <path id="Trazado_262506" data-name="Trazado 262506" d="M112.722,258.15c-1.41,0-2.822-.023-4.231.011-.554.014-.808-.073-.791-.723.047-1.8.044-3.6,0-5.393-.014-.6.215-.681.728-.678,2.927.02,5.854.028,8.78-.005.594-.007.686.211.679.726-.025,1.8-.037,3.6.006,5.394.014.6-.214.687-.728.678-1.481-.027-2.962-.01-4.443-.01" transform="translate(-77.232 -180.053)" fill="#feca2e"/>
      <path id="Trazado_262507" data-name="Trazado 262507" d="M40.97,311.243c1.481,0,2.962.02,4.443-.011.506-.011.659.136.651.647q-.044,2.749,0,5.5c.008.508-.139.653-.648.649q-4.443-.034-8.886,0c-.506,0-.659-.136-.651-.647q.044-2.749,0-5.5c-.008-.508.138-.661.648-.649,1.48.032,2.962.011,4.443.011" transform="translate(-25.729 -222.986)" fill="#feca2e"/>
      <path id="Trazado_262508" data-name="Trazado 262508" d="M112.872,318.007c-1.446,0-2.892-.025-4.337.012-.592.015-.875-.057-.85-.774.061-1.761.049-3.526,0-5.288-.016-.63.209-.741.778-.736,2.891.026,5.783.031,8.674,0,.627-.008.748.206.737.777-.034,1.762-.041,3.526,0,5.288.016.63-.208.751-.779.736-1.409-.037-2.82-.012-4.231-.012" transform="translate(-77.221 -222.977)" fill="#feca2e"/>
      <path id="Trazado_262509" data-name="Trazado 262509" d="M79.436,128.43c0,.56-.043,1.123.01,1.678.086.9-.318.839-.893.506a1.38,1.38,0,0,1-.7-.882,7.04,7.04,0,0,1,0-2.8,1.268,1.268,0,0,1,.53-.761c.257-.184.548-.422.85-.328.4.124.18.532.2.809.035.592.01,1.188.01,1.783" transform="translate(-55.726 -90.025)" fill="#feca2e"/>
      <path id="Trazado_262510" data-name="Trazado 262510" d="M95.753,158.34c0-.7.019-1.41-.006-2.114-.019-.561.235-.58.643-.384.064.03.131.055.192.09,1.078.621.831,1.673.87,2.64a1.908,1.908,0,0,1-.889,1.992c-.47.257-.869.386-.817-.427.039-.6.008-1.2.008-1.8" transform="translate(-68.656 -111.474)" fill="#feca2e"/>
    </g>
  </g>
</svg>
