<svg id="Grupo_149645" data-name="Grupo 149645" xmlns="http://www.w3.org/2000/svg" xmlns:xlink="http://www.w3.org/1999/xlink" width="110.164" height="109.886" viewBox="0 0 110.164 109.886">
  <defs>
    <clipPath id="clip-path">
      <rect id="Rectángulo_90498" data-name="Rectángulo 90498" width="110.164" height="109.886" fill="none"/>
    </clipPath>
  </defs>
  <g id="Grupo_149626" data-name="Grupo 149626" clip-path="url(#clip-path)">
    <path id="Trazado_262511" data-name="Trazado 262511" d="M3.828,192.049c-1.177,0-2.674.427-3.439-.135-.726-.534-.214-2.128-.216-3.252q-.024-20.1-.008-40.206a18.3,18.3,0,0,1,14.87-18.245c1.624-.338,1.615-.339,1.628-2.016a20.4,20.4,0,0,1,.1-3.076c.586-3.619,3.266-5.894,7.23-6.245a1.774,1.774,0,0,1,1.189-.307c1.33-.01,2.662-.039,3.991.009,1.619.059,2.266.7,2.488,2.361.019,1.205,0,2.412.018,3.618s.111,1.3,1.28,1.322c.642.014,1.284-.007,1.928.014,1.679-.08,3.358-.032,5.036-.033q17-.008,33.994,0a11.912,11.912,0,0,1,1.485.033c.716-.024,1.435-.031,2.152-.007.77.026,1.094-.3,1.084-1.072-.015-1.282-.02-2.565.013-3.849.205-1.673.857-2.325,2.473-2.385,1.371-.051,2.744-.024,4.116-.008a1.63,1.63,0,0,1,1.078.3c4.648.412,7.322,3.315,7.332,7.952,0,.989-.3,2.151.12,2.918s1.719.473,2.619.715a18.3,18.3,0,0,1,13.749,17.772c.026,14.277,0,28.554.03,42.83,0,.861-.205,1.128-1.059,1.042s-1.751-.041-2.628-.054a2.345,2.345,0,0,1-.344-1.746c-.011-4.192,0-8.384-.007-12.576,0-1.72-.036-1.754-1.7-1.756-3.017,0-6.033-.011-9.05,0-1.259.006-1.372.118-1.377,1.38a11.393,11.393,0,0,1-.818,5.249,7.581,7.581,0,0,1-6.777,4.324c-1.141.08-2.29.014-3.436.018-1.8.006-1.8.006-1.806,1.756,0,.724.011,1.448-.008,2.172a1.57,1.57,0,0,1-.342,1.174c-1.178,0-2.677.426-3.44-.138-.724-.535-.194-2.129-.214-3.256-.037-2.057-.011-2.058-2.075-2.058q-20.389,0-40.778-.024c-.949,0-1.246.208-1.171,1.169.094,1.212,0,2.438.035,3.656.018.552-.15.727-.7.7-.99-.052-1.983-.036-2.975-.048-.524-.628-.329-1.383-.343-2.089-.067-3.435.461-2.971-3.073-3.013-.726-.009-1.451.016-2.177-.011a7.71,7.71,0,0,1-7.577-7.524c-.035-.838,0-1.676-.024-2.515a.816.816,0,0,0-.913-.915q-5.155-.031-10.309,0c-.81.005-.891.556-.893,1.171-.011,2.477,0,4.954,0,7.431,0,1.982.007,3.963-.006,5.945a2.006,2.006,0,0,1-.345,1.517" transform="translate(0 -82.317)" fill="#cba124"/>
    <path id="Trazado_262512" data-name="Trazado 262512" d="M140.822,44.177l-5,.037c-1.611.013-2.143.482-2.373,2.09a1.5,1.5,0,0,1-.729.673,4.351,4.351,0,0,0-2.387,3.7,1.061,1.061,0,0,1-.3.819c-5.419.012-10.838.035-16.257.034q-12.251,0-24.5-.034a1.074,1.074,0,0,1-.295-.82,4.349,4.349,0,0,0-2.387-3.7,1.49,1.49,0,0,1-.729-.673c-.234-1.608-.767-2.077-2.375-2.089l-5-.037q0-1.792,0-3.585c1.488-.276,1.629-1.3,1.556-2.571-.067-1.172.226-1.388,1.407-1.425.916-.029,1.833.01,2.749-.013a6.525,6.525,0,0,0,4.849-10.971c-.666-.785-1.467-1.447-2.157-2.211-.744-.822-.753-1.254.016-2.066q1.691-1.787,3.482-3.477c.845-.8,1.265-.776,2.148.046.642.6,1.238,1.243,1.873,1.849a6.317,6.317,0,0,0,7.38,1.422,6.349,6.349,0,0,0,3.885-6.21c.007-.953-.012-1.905.016-2.858a1.018,1.018,0,0,1,1.145-1.119c1.871-.02,3.742-.015,5.613,0,.821.006,1.158.436,1.168,1.218.012.953-.005,1.906.011,2.858a6.548,6.548,0,0,0,11.094,4.845c.715-.63,1.344-1.353,2.042-2,.882-.822,1.3-.846,2.148-.046q1.786,1.691,3.482,3.477c.769.813.759,1.244.016,2.066-.64.707-1.368,1.332-2,2.041a6.537,6.537,0,0,0,4.81,11.143q1.374.016,2.749,0c.909-.007,1.345.411,1.317,1.318,0,.152.019-.035,0,.114-.179,1.27.045,2.294,1.534,2.57q0,1.792,0,3.585" transform="translate(-54.508 -7.621)" fill="#feca2e"/>
    <path id="Trazado_262513" data-name="Trazado 262513" d="M136.648,32.971c-1.835-.094-1.835-.094-1.835-2.007a3.745,3.745,0,0,1,0-.571c.136-.869-.165-1.171-1.1-1.146a17.342,17.342,0,0,1-4.335-.142A6.789,6.789,0,0,1,125.848,17.8c.777-.838,1.594-1.643,2.428-2.425.429-.4.456-.676.014-1.1q-2.061-1.983-4.049-4.041c-.438-.453-.733-.516-1.186-.02-.718.788-1.48,1.541-2.264,2.266a6.58,6.58,0,0,1-7.511,1.4,6.539,6.539,0,0,1-4.125-6.306c-.023-1.067-.028-2.135.005-3.2.017-.539-.152-.729-.708-.721q-2.977.042-5.955,0c-.583-.009-.7.227-.687.741.028,1.142.056,2.289,0,3.429a6.534,6.534,0,0,1-4.238,6.11,6.443,6.443,0,0,1-7.22-1.293c-.847-.768-1.642-1.594-2.433-2.421-.372-.389-.641-.549-1.1-.072-1.376,1.428-2.788,2.821-4.207,4.207-.361.353-.342.6.009.933.772.737,1.526,1.494,2.271,2.26A6.823,6.823,0,0,1,80,29.272c-1.031.016-2.063.038-3.092-.01-.624-.029-.818.207-.754.788a8.357,8.357,0,0,1,.005.914c0,1.913,0,1.913-1.835,2.007-1.831-.094-1.831-.094-1.831-1.976,0-1.1-.016-2.21,0-3.314a1.843,1.843,0,0,1,2.041-2.059c1.794-.022,3.588,0,5.382-.009a3.178,3.178,0,0,0,2.306-5.545c-1.245-1.236-2.493-2.469-3.721-3.72-1.062-1.082-1.062-1.976.015-3.059q3.629-3.65,7.288-7.272a1.868,1.868,0,0,1,3.067-.01c1.283,1.251,2.545,2.524,3.807,3.8a2.969,2.969,0,0,0,3.446.766,3.044,3.044,0,0,0,2.021-3.022c.017-1.79-.005-3.581.008-5.371.012-1.49.677-2.163,2.166-2.168q5.153-.018,10.306,0c1.5,0,2.173.669,2.186,2.148.015,1.752-.006,3.5.007,5.257a3.182,3.182,0,0,0,5.55,2.307c1.238-1.243,2.476-2.486,3.729-3.712,1.089-1.065,1.977-1.07,3.066.007q3.66,3.62,7.287,7.273c1.078,1.085,1.082,1.973.017,3.062-1.226,1.254-2.475,2.487-3.722,3.72a3.175,3.175,0,0,0,2.3,5.543c1.756.013,3.512-.008,5.267.006,1.484.012,2.145.682,2.159,2.175.013,1.333-.068,2.671.027,4,.068.961-.222,1.317-1.172,1.149a3.049,3.049,0,0,0-.683.03" transform="translate(-50.333 0)" fill="#cba124"/>
    <path id="Trazado_262514" data-name="Trazado 262514" d="M12.458,321.522c0-5.063.039-10.126-.029-15.188-.015-1.1.341-1.283,1.326-1.262,2.859.062,5.721.015,8.581.026.945,0,2.178-.3,2.757.173.617.5.146,1.781.189,2.719a13.114,13.114,0,0,0,.2,2.381,7.311,7.311,0,0,0,6.868,5.684c1.639.048,3.281.055,4.919,0,.74-.027.889.226.867.9-.048,1.521-.014,3.045-.014,4.567H12.458" transform="translate(-8.63 -211.791)" fill="#fec331"/>
    <path id="Trazado_262515" data-name="Trazado 262515" d="M264.389,321.672c0-1.523.034-3.046-.014-4.567-.021-.677.127-.932.867-.9,1.561.062,3.127.039,4.69.013a7.322,7.322,0,0,0,7.284-7.276,17.007,17.007,0,0,0-.017-2.509c-.141-1.076.317-1.222,1.261-1.206q5.148.083,10.3,0c.986-.016,1.34.167,1.325,1.263-.068,5.062-.029,10.125-.029,15.187H264.389" transform="translate(-183.576 -211.94)" fill="#fec331"/>
    <path id="Trazado_262516" data-name="Trazado 262516" d="M101.261,208.642q-15.405,0-30.811,0c-2.823,0-4.641-2.417-3.731-4.905a3.618,3.618,0,0,1,3.426-2.4c1.6-.028,3.207-.005,4.81-.008,1.958,0,2.531-.566,2.531-2.5q0-20.976-.022-41.953c0-1.017.223-1.309,1.285-1.307q22.564.058,45.128,0c1.051,0,1.295.271,1.292,1.3q-.054,20.919-.024,41.839c0,2.1.529,2.619,2.639,2.621,1.374,0,2.749,0,4.123,0,2.543,0,4.218,1.445,4.231,3.634s-1.665,3.681-4.183,3.682q-15.348,0-30.7,0" transform="translate(-46.165 -108.02)" fill="#feca2e"/>
    <path id="Trazado_262517" data-name="Trazado 262517" d="M281.474,168.311c4.958.25,10.088,4.31,11.91,9.356a15.324,15.324,0,0,1,.921,5.253c0,7.542-.016,15.084.019,22.625,0,.811-.209,1-1,.992q-5.438-.068-10.877,0c-.819.011-1.011-.218-.99-1.008.057-2.168.02-4.339.02-6.692.757.547,1.421,1,2.057,1.5.421.326.689.314.982-.177.467-.784,1.345-1.5,1.413-2.3.072-.84-1.181-1.091-1.81-1.652a15.34,15.34,0,0,1-4.309-6.09,6.242,6.242,0,0,0-1.092-1.853q-3.793-4.5-7.543-9.041c-1.174-1.422-.761-3.174.832-3.7a2.355,2.355,0,0,1,2.4.684c3.558,3.055,7.138,6.083,10.678,9.157.557.484.822.48,1.31-.087,1.817-2.11,1.838-2.086-.288-3.886q-2.008-1.7-4-3.418c-.275-.238-.633-.412-.631-.884.012-2.927.006-5.853.006-8.783" transform="translate(-187.828 -116.872)" fill="#feca2e"/>
    <path id="Trazado_262518" data-name="Trazado 262518" d="M25.334,198.8c0,2.453-.009,4.768.008,7.082,0,.436-.123.594-.578.593q-5.839-.022-11.678,0c-.567,0-.593-.27-.588-.7.015-1.485.006-2.971.006-4.456,0-6.208-.033-12.417.01-18.625a14.61,14.61,0,0,1,11.534-14.3c1.286-.293,1.287-.293,1.287,1.045,0,2.362-.022,4.723.014,7.084a1.66,1.66,0,0,1-.669,1.45c-1.818,1.51-3.575,3.092-5.4,4.588-.568.465-.567.747-.072,1.231.65.636,1.193,1.814,1.863,1.875.643.058,1.4-1,2.087-1.588q4.613-3.932,9.217-7.874c1.2-1.025,2.347-1.107,3.268-.249.95.885.927,2.114-.1,3.354q-3.76,4.531-7.543,9.041a4.947,4.947,0,0,0-.875,1.454,14.814,14.814,0,0,1-5.762,7.324c-.572.379-.639.622-.236,1.223,1.625,2.418,1.6,2.436,3.844.655a4.062,4.062,0,0,1,.372-.209" transform="translate(-8.674 -116.824)" fill="#feca2e"/>
    <path id="Trazado_262519" data-name="Trazado 262519" d="M73.73,220.077v1.066c0,6.775-.013,13.551.018,20.326,0,.777-.158,1.036-.986,1.017-2.119-.05-4.276-.249-6.365.972V236.61c0-1.218.087-2.443-.017-3.652-.245-2.852,1.006-5.136,2.671-7.251,1.436-1.824,2.964-3.575,4.678-5.63" transform="translate(-46.072 -152.817)" fill="#feca2e"/>
    <path id="Trazado_262520" data-name="Trazado 262520" d="M270.4,220.039c2.685,3.389,5.705,6.126,7.181,9.988a2.093,2.093,0,0,1,.15.767c0,4.147,0,8.294,0,12.622-2.106-1.214-4.331-.99-6.523-.965-.649.008-.824-.183-.822-.825.022-7.076.014-14.152.014-21.588" transform="translate(-187.748 -152.791)" fill="#feca2e"/>
    <path id="Trazado_262521" data-name="Trazado 262521" d="M73.835,146.734c-2.966-1.038-5.2.06-7.332,2.185v-1.8c0-3.806-.006-7.612,0-11.418a3.694,3.694,0,0,1,3.961-4.012c.877-.007,1.755.019,2.631-.009.494-.016.754.053.751.66-.024,4.754-.013,9.509-.013,14.4" transform="translate(-46.177 -91.432)" fill="#feca2e"/>
    <path id="Trazado_262522" data-name="Trazado 262522" d="M277.739,148.725c-3.831-2.6-3.831-2.6-7.33-2.119q0-7.144-.008-14.27c0-.472.1-.684.628-.666,1.1.038,2.214-.034,3.316.031a3.608,3.608,0,0,1,3.384,3.647c.029,4.413.009,8.827.009,13.377" transform="translate(-187.762 -91.428)" fill="#feca2e"/>
    <path id="Trazado_262523" data-name="Trazado 262523" d="M102.5,126.57a4.889,4.889,0,0,1,3.41,5.192c-.914.012-1.829,0-2.741.046-.522.026-.741-.1-.721-.676.052-1.519.039-3.041.052-4.562" transform="translate(-71.137 -87.888)" fill="#feca2e"/>
    <path id="Trazado_262524" data-name="Trazado 262524" d="M247.14,131.762a4.889,4.889,0,0,1,3.413-5.191c.013,1.521,0,3.043.051,4.563.02.583-.2.7-.723.675-.912-.046-1.827-.034-2.741-.046" transform="translate(-171.609 -87.889)" fill="#feca2e"/>
    <path id="Trazado_262525" data-name="Trazado 262525" d="M170.473,96c-4,4.845-10.511,4.85-14.6.011a.5.5,0,0,1,.137-.421c.755-.594.587-1.215.24-2a7.56,7.56,0,0,1,7.6-10.692,7.463,7.463,0,0,1,6.512,9.938c-.421,1.171-.786,2.131.105,3.163" transform="translate(-108.026 -57.538)" fill="#feca2e"/>
    <path id="Trazado_262526" data-name="Trazado 262526" d="M162.769,88.359c-1.143-.656-1.29-1.351-.64-2.634a7.014,7.014,0,0,0-2.075-8.6,7.3,7.3,0,0,0-9.081-.056,7.022,7.022,0,0,0-2.2,8.57c.629,1.283.7,2.053-.6,2.73-1.687,1.086-1.687,1.086-2.585-.754a10.984,10.984,0,1,1,19.816-.092c-.921,1.936-.921,1.936-2.634.836" transform="translate(-100.322 -49.898)" fill="#cba124"/>
    <path id="Trazado_262527" data-name="Trazado 262527" d="M138.226,211.752a2.893,2.893,0,0,0-2.581.544c-1.162.86-2.434,1.572-3.606,2.421a2.219,2.219,0,0,1-2.925.026c-1.045-.764-2.195-1.389-3.218-2.179a4.618,4.618,0,0,0-3.068-.936c-.79.009-1.076.295-1.178.992a9.079,9.079,0,0,1-.287,1.221,1.853,1.853,0,0,1-1.919,1.477c-2.978,0-5.956.026-8.934-.01a1.827,1.827,0,0,1-1.832-2.491c.519-2.144,1.061-4.282,1.607-6.419.444-1.737.85-2.1,2.608-2.03.942.04,1.237-.2,1.193-1.17-.086-1.939-.036-3.886-.022-5.829.011-1.5.67-2.158,2.168-2.168,2.138-.015,4.277-.024,6.414.009a1.165,1.165,0,0,0,1.233-.709,5.355,5.355,0,0,1,4.93-2.957c1.221-.02,2.444-.026,3.665,0a5.481,5.481,0,0,1,.044,10.959q-1.889.051-3.78,0a5.35,5.35,0,0,1-4.84-2.917,1.152,1.152,0,0,0-1.21-.751c-1.372.055-2.749.044-4.122,0-.614-.018-.883.114-.855.8.053,1.332.038,2.667,0,4-.014.547.158.731.71.711.991-.037,1.987-.048,2.977,0a1.839,1.839,0,0,1,1.777,2.281c-.072.442-.553,1.076-.075,1.287a1.938,1.938,0,0,0,1.853-.209c1.379-.954,2.807-1.838,4.174-2.81a2.188,2.188,0,0,1,2.831-.016c1.305.925,2.661,1.778,3.994,2.665a2.173,2.173,0,0,0,1.137.457c2.056.1,2.055.117,2.6-1.919a1.929,1.929,0,0,1,2.266-1.75q4.181-.012,8.362,0c1.751.008,2.476.957,2.059,2.668q-.757,3.1-1.537,6.2c-.453,1.788-.859,2.145-2.69,2.08-.9-.031-1.245.217-1.112,1.12a6.787,6.787,0,0,1,.007,1.256c-.036.869.457,1.249,1.24,1.3.723.043,1.451,0,2.176.013a1.852,1.852,0,0,1,2.079,2.028c.025,1.676.023,3.354,0,5.03a1.867,1.867,0,0,1-2.142,2.082q-4.238.022-8.476,0c-1.553-.007-2.156-.671-2.226-2.248-.02-.463.359-1.251-.32-1.346-.749-.1-1.645-.444-2.221.718a5.121,5.121,0,0,1-4.738,2.869c-1.3.038-2.6.041-3.894,0a5.479,5.479,0,0,1,.058-10.954c1.3-.034,2.6-.039,3.894,0a5.1,5.1,0,0,1,4.651,2.817c.448.882,1.041.754,1.738.851.739.1.84-.347,1.082-.839.5-1.018,1.64-1.17,2.513-1.674a2.681,2.681,0,0,0,.9-2.8c-.147-.254-.39-.19-.607-.192-.84-.007-1.68,0-2.52,0-1.9-.013-2.585-.9-2.157-2.777.058-.257.1-.519.145-.79" transform="translate(-75.405 -132.993)" fill="#cba124"/>
    <path id="Trazado_262528" data-name="Trazado 262528" d="M167.912,171.251c-1.56,0-3.121-.025-4.681.012-.613.015-.842-.121-.855-.8-.056-2.874-.082-2.873,2.76-2.873,2.474,0,4.947.017,7.421-.012.612-.007.842.121.855.8.056,2.874.082,2.873-2.76,2.873h-2.74" transform="translate(-112.741 -116.365)" fill="#cba124"/>
    <path id="Trazado_262529" data-name="Trazado 262529" d="M140.342,167.621c1.8,0,1.8,0,1.8,1.746,0,1.913,0,1.913-1.863,1.913-1.8,0-1.8,0-1.8-1.746,0-1.913,0-1.913,1.863-1.913" transform="translate(-96.157 -116.393)" fill="#cba124"/>
    <path id="Trazado_262530" data-name="Trazado 262530" d="M212.173,171.28c-1.723,0-1.723,0-1.723-1.712,0-1.946,0-1.946,1.943-1.946,1.723,0,1.723,0,1.723,1.712,0,1.946,0,1.946-1.943,1.946" transform="translate(-146.133 -116.393)" fill="#cba124"/>
    <path id="Trazado_262531" data-name="Trazado 262531" d="M172.131,207.137c-.646,0-1.3.043-1.937-.01a1.8,1.8,0,0,1-1.7-1.8,1.765,1.765,0,0,1,1.681-1.814c1.327-.062,2.662-.066,3.988,0a1.808,1.808,0,0,1,.022,3.6,15.954,15.954,0,0,1-2.049.017v0" transform="translate(-116.996 -141.283)" fill="#feca2e"/>
    <path id="Trazado_262532" data-name="Trazado 262532" d="M172.175,290.944c-.646,0-1.295.04-1.937-.007a1.808,1.808,0,0,1-1.748-1.872,1.777,1.777,0,0,1,1.749-1.751c1.29-.051,2.586-.056,3.874,0a1.772,1.772,0,0,1,1.693,1.8,1.809,1.809,0,0,1-1.695,1.81c-.641.054-1.291.01-1.937.012" transform="translate(-116.995 -199.478)" fill="#feca2e"/>
    <path id="Trazado_262533" data-name="Trazado 262533" d="M125,249.037c-.714-.117-1.94.418-2.393-.22-.339-.477.322-1.619.449-2.478.118-.8.5-1.031,1.29-.98a29.8,29.8,0,0,0,3.539,0c.746-.041.824.255.631.838-.036.108-.067.218-.095.328-.641,2.51-.641,2.51-3.421,2.51" transform="translate(-85.073 -170.368)" fill="#feca2e"/>
    <path id="Trazado_262534" data-name="Trazado 262534" d="M221.256,249.1h-.8c-1.9,0-1.9,0-1.425-1.893.447-1.766.447-1.766,2.246-1.766h1.714c1.891,0,1.891,0,1.45,1.782-.465,1.877-.465,1.877-3.185,1.877" transform="translate(-151.907 -170.428)" fill="#feca2e"/>
    <path id="Trazado_262535" data-name="Trazado 262535" d="M224.838,292.4h-1.028c-1.68,0-2.189-.675-1.719-2.28a1.372,1.372,0,0,1,1.853-.59,4.111,4.111,0,0,0,2.941,1.026c.824-.07.7.437.7.924s.137,1.013-.691.934c-.68-.065-1.37-.013-2.056-.013" transform="translate(-154.1 -200.929)" fill="#feca2e"/>
    <path id="Trazado_262536" data-name="Trazado 262536" d="M173.417,248.7c.357-.253.594-.426.837-.59,1.337-.9,1.917-.843,3.091.3.108.1.256.173.221.352a3.248,3.248,0,0,1-2.481,1.057c-.512-.323-1.007-.673-1.667-1.119" transform="translate(-120.418 -171.848)" fill="#feca2e"/>
  </g>
</svg>
