<svg xmlns="http://www.w3.org/2000/svg" xmlns:xlink="http://www.w3.org/1999/xlink" width="525" height="259" viewBox="0 0 525 259">
  <defs>
    <clipPath id="clip-path">
      <rect id="Rectángulo_90324" data-name="Rectángulo 90324" width="88.967" height="88.982" fill="none"/>
    </clipPath>
  </defs>
  <g id="Grupo_149656" data-name="Grupo 149656" transform="translate(-790 -4266)">
    <rect id="Image_Place_Holder" data-name="Image Place Holder" width="525" height="259" transform="translate(790 4266)" fill="#d9eaea"/>
    <g id="Grupo_149100" data-name="Grupo 149100" transform="translate(1101.033 4339)">
      <g id="Grupo_149099" data-name="Grupo 149099" clip-path="url(#clip-path)">
        <path id="Trazado_249645" data-name="Trazado 249645" d="M6.042,73.286v-2.9c1.157-.339,1.2-1.207,1.2-2.229Q7.2,40.637,7.222,13.12c0-2.374,0-2.375,2.359-2.375H66.287c2.332,0,2.333,0,2.333,2.294q0,39.515,0,79.031c0,2.3-.005,2.308-2.325,2.308H9.5c-2.236,0-2.274-.037-2.274-2.275,0-5.528-.02-11.057.018-16.585.007-1.022-.037-1.893-1.2-2.231" transform="translate(-4.545 -8.083)" fill="#a7e446"/>
        <path id="Trazado_249646" data-name="Trazado 249646" d="M268.464,21.067l2.9.529c.095,1.375,1.118,1.46,2.161,1.637,4.254.719,8.5,1.477,12.749,2.239,1.378.247,1.472.416,1.253,1.789-.292,1.826-.586,3.653-.959,5.463-.208,1.01-.341,1.915.817,2.428q-.219,1.452-.439,2.9c-1.312.091-1.457,1.038-1.628,2.076-1.29,7.86-2.656,15.708-3.993,23.561q-3.141,18.444-6.3,36.885c-.239,1.385-.4,1.514-1.811,1.529-.216,0-.433.012-.648,0-.537-.029-.9.139-.946.744a.591.591,0,0,1-.258.471h-2.906a1.156,1.156,0,0,1-.321-.93c-.021-.308-.012-.617-.012-.926q0-39.272.008-78.543c0-.626-.185-1.309.325-1.855" transform="translate(-201.698 -15.849)" fill="#feca2e"/>
        <path id="Trazado_249647" data-name="Trazado 249647" d="M66.765,5.218c-.01.215-.028.431-.028.646q0,40.435,0,80.87c0,.246.018.493.028.739-.317,1.174-.691,1.481-1.87,1.481q-31.529,0-63.057,0c-1.277,0-1.82-.529-1.821-1.781C.012,80.106.022,73.038,0,65.971c0-.608.159-.829.759-.744A4.145,4.145,0,0,0,1.5,65.2c1.483.078,1.483.078,1.483,1.619,0,6.023.018,12.046-.02,18.068-.005.849.135,1.126,1.071,1.124q29.375-.049,58.75-.006c.8,0,1.012-.163,1.011-.994q-.039-40.538,0-81.076c0-.833-.218-.993-1.013-.992Q33.4,2.982,4.029,2.941c-.939,0-1.07.28-1.069,1.126Q3,32.373,2.98,60.681c0,1.542,0,1.542-1.483,1.619C.014,62.223.014,62.223.014,60.7q0-29.225,0-58.45C.015.366.386,0,2.3,0H64.551c1.775,0,2.181.406,2.186,2.163,0,1.018.018,2.037.028,3.055" transform="translate(0 0)"/>
        <path id="Trazado_249648" data-name="Trazado 249648" d="M281.256,154.452c.077-1.484.077-1.484,1.614-1.484s1.556,0,1.821-1.548q2.389-13.945,4.759-27.894,2.364-13.856,4.731-27.711c.327-1.914.721-3.82.957-5.745.118-.962.45-1.236,1.332-.907a1.266,1.266,0,0,0,.365.023c1.41.306,1.413.307,1.161,1.785q-3.983,23.382-7.968,46.765-1.42,8.341-2.824,16.685a1.559,1.559,0,0,1-1.753,1.51c-1.081.012-2.166-.054-3.241.022-.78.055-1.067-.18-.931-.948a2.479,2.479,0,0,0-.025-.552" transform="translate(-211.585 -66.978)"/>
        <path id="Trazado_249649" data-name="Trazado 249649" d="M297.058,32.85c-1.383-.345-1.4-.348-1.161-1.8.362-2.221.728-4.443,1.135-6.656.107-.581.014-.781-.617-.888C291.7,22.7,287,21.856,282.3,21.013c-1.435-.257-1.432-.273-1.26-1.72.337-1.415.339-1.428,2.016-1.135q7.863,1.377,15.722,2.776c1.291.23,1.719.842,1.51,2.049-.524,3.031-1.1,6.055-1.546,9.1-.134.91-.437,1.1-1.225.8a1.562,1.562,0,0,0-.456-.029" transform="translate(-211.368 -13.547)"/>
        <path id="Trazado_249650" data-name="Trazado 249650" d="M77.873,31.51a1.526,1.526,0,0,1,.97-1.481Q85.428,27.1,92.01,24.156a1.752,1.752,0,0,1,1.515.06q6.415,2.863,12.826,5.732a1.561,1.561,0,0,1,1.053,2.068c-.585,3.3-.813,6.677-1.866,9.893a23.885,23.885,0,0,1-8.171,11.635c-1.191.93-2.436,1.792-3.653,2.689a1.441,1.441,0,0,1-1.8.145c-3.088-2.209-6.189-4.4-8.486-7.515a26.119,26.119,0,0,1-4.809-12.545c-.2-1.621-.5-3.23-.742-4.809" transform="translate(-58.584 -18.063)"/>
        <path id="Trazado_249651" data-name="Trazado 249651" d="M46.248,185.343c1.683.088,1.739.166,1.345,1.881a5.122,5.122,0,0,1-4.967,4.07c-2.531.033-5.063.038-7.594,0a5.142,5.142,0,0,1-5.081-5.087q-.055-3.8,0-7.594a5.146,5.146,0,0,1,5.078-5.09c1.913-.035,3.83.036,5.741-.03.836-.029,1.187.193,1.037,1.044a1.984,1.984,0,0,0,.025.46c.5,1.253.193,1.734-1.142,1.753-1.636.024-3.273-.008-4.909.011-1.858.021-2.581.744-2.594,2.6-.014,2.068-.021,4.137,0,6.205.02,1.739.766,2.479,2.5,2.493,2.161.016,4.323.028,6.484-.006a2.08,2.08,0,0,0,2.285-1.85c.258-1.118.65-1.307,1.787-.857" transform="translate(-22.511 -130.518)"/>
        <path id="Trazado_249652" data-name="Trazado 249652" d="M46.248,275.127c1.683.088,1.739.166,1.345,1.881a5.122,5.122,0,0,1-4.967,4.07c-2.531.033-5.063.038-7.594,0a5.142,5.142,0,0,1-5.081-5.087q-.055-3.8,0-7.594a5.146,5.146,0,0,1,5.078-5.09c1.913-.035,3.83.036,5.741-.03.836-.029,1.187.193,1.037,1.044a1.984,1.984,0,0,0,.025.46c.5,1.253.193,1.734-1.142,1.753-1.636.024-3.273-.008-4.909.011-1.858.021-2.581.744-2.594,2.6-.014,2.068-.021,4.137,0,6.205.02,1.739.766,2.479,2.5,2.493,2.161.016,4.323.028,6.484-.006a2.08,2.08,0,0,0,2.285-1.85c.258-1.118.65-1.307,1.787-.857" transform="translate(-22.511 -198.063)"/>
        <path id="Trazado_249653" data-name="Trazado 249653" d="M55.27,189.862a3.644,3.644,0,0,1-.553.026c-.622-.062-.979.007-.966.833a2.083,2.083,0,0,1-2.125,2.12q-3.751.058-7.5,0a2.148,2.148,0,0,1-2.181-2.182q-.052-3.7,0-7.411A2.187,2.187,0,0,1,44.248,181c1.853-.024,3.708-.055,5.558.015.848.032,1.166-.211,1.022-1.044a2.013,2.013,0,0,1,.026-.46,4.068,4.068,0,0,1,3.885,1.719c-.054.978-.918,1.42-1.433,2.071-1.031,1.3-2.159,2.531-3.231,3.805-.646.769-.893.776-1.638.054-.665-.643-1.314-1.3-1.966-1.96a.668.668,0,0,0-1.107,0c-.042.045-.088.087-.133.129-1.172,1.1-1.172,1.1-.055,2.216.96.96,1.912,1.928,2.882,2.877,1.03,1.008,1.7.956,2.612-.13,1.205-1.443,2.457-2.846,3.662-4.29a1.442,1.442,0,0,1,.879-.634q.031,2.247.061,4.494" transform="translate(-31.533 -135.037)" fill="#fbfdfe"/>
        <path id="Trazado_249654" data-name="Trazado 249654" d="M55.27,279.646a3.642,3.642,0,0,1-.553.026c-.622-.062-.979.007-.966.833a2.083,2.083,0,0,1-2.125,2.12q-3.751.058-7.5,0a2.148,2.148,0,0,1-2.181-2.182q-.052-3.7,0-7.411a2.187,2.187,0,0,1,2.311-2.247c1.853-.024,3.708-.055,5.558.015.848.032,1.166-.211,1.022-1.044a2.013,2.013,0,0,1,.026-.46,4.068,4.068,0,0,1,3.885,1.719c-.054.978-.918,1.42-1.433,2.071-1.031,1.3-2.159,2.531-3.231,3.805-.646.769-.893.776-1.638.054-.665-.643-1.314-1.3-1.966-1.96a.668.668,0,0,0-1.107,0c-.042.045-.088.087-.133.129-1.172,1.1-1.172,1.1-.055,2.216.96.96,1.912,1.927,2.882,2.877,1.03,1.008,1.7.956,2.611-.13,1.205-1.443,2.457-2.846,3.662-4.29a1.441,1.441,0,0,1,.879-.634q.031,2.247.061,4.494" transform="translate(-31.533 -202.582)" fill="#fbfdfe"/>
        <path id="Trazado_249655" data-name="Trazado 249655" d="M136.919,173.542c3.424,0,6.847.014,10.271-.013.593,0,.775.14.773.756-.006,2.222.019,2.222-2.162,2.222-6.415,0-12.831-.011-19.246.016-.679,0-.882-.145-.869-.852.039-2.129,0-2.129,2.165-2.129h9.068" transform="translate(-94.554 -130.547)"/>
        <path id="Trazado_249656" data-name="Trazado 249656" d="M136.929,263.324c3.424,0,6.847.015,10.271-.014.605-.005.767.16.765.764-.006,2.215.018,2.215-2.168,2.215-6.415,0-12.831-.012-19.246.017-.693,0-.873-.166-.861-.86.037-2.122,0-2.122,2.171-2.122h9.068" transform="translate(-94.557 -198.09)"/>
        <path id="Trazado_249657" data-name="Trazado 249657" d="M61.561,182.906q-2.239,2.591-4.479,5.181c-.936,1.082-1.705,1.115-2.721.108-1.249-1.239-2.481-2.5-3.742-3.724-.336-.327-.355-.514-.012-.874,1.639-1.718,1.626-1.73,3.292-.063a12.018,12.018,0,0,1,1.039,1.055c.459.591.763.635,1.28-.007,1.584-1.969,3.243-3.878,4.873-5.81.671-.754,1.361-1.493,2-2.269.283-.341.472-.378.8-.062.549.533,1.482.95,1.612,1.554.133.62-.807,1.172-1.28,1.749-.874,1.066-1.774,2.11-2.664,3.163" transform="translate(-37.885 -132.575)"/>
        <path id="Trazado_249658" data-name="Trazado 249658" d="M61.561,272.69q-2.239,2.591-4.479,5.181c-.936,1.082-1.705,1.115-2.721.108-1.249-1.239-2.481-2.5-3.742-3.724-.336-.327-.355-.514-.012-.874,1.639-1.718,1.626-1.73,3.292-.063a12.019,12.019,0,0,1,1.039,1.055c.459.591.763.635,1.28-.007,1.584-1.969,3.243-3.878,4.873-5.81.671-.754,1.361-1.493,2-2.269.282-.341.472-.378.8-.062.549.533,1.482.95,1.612,1.555.133.62-.807,1.171-1.28,1.749-.874,1.066-1.774,2.11-2.664,3.163" transform="translate(-37.885 -200.12)"/>
        <path id="Trazado_249659" data-name="Trazado 249659" d="M173.529,206.436c-1.756,0-3.513-.018-5.268.011-.51.008-.671-.125-.68-.658-.041-2.318-.06-2.318,2.245-2.318,2.958,0,5.916.016,8.873-.013.589-.006.777.134.775.753-.006,2.225.019,2.225-2.155,2.225h-3.79" transform="translate(-126.065 -153.062)"/>
        <path id="Trazado_249660" data-name="Trazado 249660" d="M173.652,293.257c1.725,0,3.451.02,5.176-.012.528-.01.661.147.67.669.037,2.308.056,2.308-2.254,2.308-2.958,0-5.916-.017-8.873.014-.606.007-.765-.162-.764-.764.006-2.215-.018-2.215,2.163-2.215h3.882" transform="translate(-126.092 -220.61)"/>
        <path id="Trazado_249661" data-name="Trazado 249661" d="M34.191,26.872c-1.262,0-2.525-.017-3.787.009-.441.009-.557-.131-.577-.57-.111-2.4-.125-2.4,2.247-2.4,2,0,4,.017,6-.012.524-.008.663.141.672.666.038,2.311.057,2.31-2.249,2.31H34.191" transform="translate(-22.411 -17.976)"/>
        <path id="Trazado_249662" data-name="Trazado 249662" d="M129.5,203.482c1.016,0,2.032.019,3.046-.009.442-.012.557.131.577.571.111,2.4.125,2.4-2.245,2.4-1.508,0-3.016-.022-4.524.012-.524.011-.663-.142-.672-.667-.038-2.311-.057-2.311,2.247-2.311h1.57" transform="translate(-94.545 -153.074)"/>
        <path id="Trazado_249663" data-name="Trazado 249663" d="M129.318,296.225c-1.046,0-2.093-.018-3.139.009-.435.011-.561-.12-.583-.565-.115-2.409-.129-2.408,2.24-2.408,1.508,0,3.016.02,4.524-.011.514-.011.667.133.676.661.041,2.316.059,2.315-2.242,2.315h-1.477" transform="translate(-94.458 -220.613)"/>
        <path id="Trazado_249664" data-name="Trazado 249664" d="M32.9,47.863c.8,0,1.6.016,2.4-.007.39-.011.588.1.527.515a.5.5,0,0,0,0,.092c.1,2.365.1,2.365-2.267,2.365-1.046,0-2.092-.014-3.137.007-.39.008-.587-.1-.527-.515a.477.477,0,0,0,0-.092c-.1-2.365-.1-2.365,2.267-2.365H32.9" transform="translate(-22.465 -36.002)"/>
        <path id="Trazado_249665" data-name="Trazado 249665" d="M210.976,26.908c-1.4,0-1.4,0-1.4-1.377,0-1.588,0-1.588,1.562-1.588,1.4,0,1.4,0,1.4,1.377,0,1.588,0,1.588-1.562,1.588" transform="translate(-157.663 -18.012)"/>
        <path id="Trazado_249666" data-name="Trazado 249666" d="M235.006,23.943c1.476,0,1.476,0,1.476,1.49s0,1.475-1.49,1.475-1.475,0-1.475-1.49,0-1.475,1.49-1.475" transform="translate(-175.676 -18.012)"/>
        <path id="Trazado_249667" data-name="Trazado 249667" d="M113.89,42.47c-.6,4.356-1.151,8.791-3.6,12.716a25.806,25.806,0,0,1-7.639,7.557.482.482,0,0,1-.645,0c-5.215-3.45-8.987-7.951-10.294-14.215-.415-1.99-.674-4.012-1.023-6.016-.071-.409.051-.587.438-.757q5.366-2.359,10.708-4.771a1.036,1.036,0,0,1,.952-.011c3.562,1.607,7.134,3.193,10.7,4.782.289.128.62.216.4.72" transform="translate(-68.211 -27.729)" fill="#fbfdfe"/>
        <path id="Trazado_249668" data-name="Trazado 249668" d="M115.41,73.571a1.622,1.622,0,0,1-1.21-.578c-1.282-1.29-2.56-2.585-3.863-3.854-.326-.317-.39-.49-.036-.861,1.657-1.736,1.639-1.747,3.353-.037.564.563,1.115,1.5,1.733,1.551.65.056,1.169-.962,1.734-1.519,1.888-1.862,3.768-3.732,5.62-5.629.393-.4.628-.462,1.006-.007.468.564,1.369,1.047,1.409,1.613.043.6-.895,1.077-1.412,1.6q-3.485,3.513-6.994,7a1.852,1.852,0,0,1-1.34.72" transform="translate(-82.801 -46.882)"/>
      </g>
    </g>
  </g>
</svg>
