<svg xmlns="http://www.w3.org/2000/svg" xmlns:xlink="http://www.w3.org/1999/xlink" width="362.198" height="312.422" viewBox="0 0 362.198 312.422">
  <defs>
    <clipPath id="clip-path">
      <rect id="Rectángulo_90241" data-name="Rectángulo 90241" width="362.198" height="312.422" transform="translate(-12.604)" fill="none"/>
    </clipPath>
  </defs>
  <g id="Grupo_149011" data-name="Grupo 149011" transform="translate(-4612.396 10415.465)">
    <g id="Grupo_149009" data-name="Grupo 149009" transform="translate(4625 -10415.465)">
      <g id="Grupo_149008" data-name="Grupo 149008" clip-path="url(#clip-path)">
        <path id="Trazado_249250" data-name="Trazado 249250" d="M196.412,104.481l-5.766-3.94a3.95,3.95,0,0,1,.332-6.726l6.127-3.352a.171.171,0,0,0,.085-.191l-4.585-19.049a.171.171,0,0,0-.163-.131l-6.981-.2A3.97,3.97,0,0,1,182,68.62a3.9,3.9,0,0,1,.109-3.566l3.342-6.132a.173.173,0,0,0-.032-.207L171.26,45.169a.173.173,0,0,0-.208-.023l-5.979,3.609a3.875,3.875,0,0,1-2.781.5,3.92,3.92,0,0,1-3.2-3.6l-.5-6.966a.171.171,0,0,0-.139-.156l-19.232-3.743a.172.172,0,0,0-.187.093l-3.079,6.269a3.919,3.919,0,0,1-4.315,2.135,3.872,3.872,0,0,1-2.391-1.507l-4.19-5.588a.173.173,0,0,0-.2-.057l-18.2,7.249a.172.172,0,0,0-.107.18l.8,6.938a3.905,3.905,0,0,1-1.237,3.347,3.963,3.963,0,0,1-4.065.807L95.5,52.222a.173.173,0,0,0-.2.06L83.9,68.222a.171.171,0,0,0,.007.209l4.423,5.4a3.95,3.95,0,0,1-2.215,6.36l-6.823,1.49a.172.172,0,0,0-.135.16l-.968,19.569a.172.172,0,0,0,.119.172l6.643,2.156a3.95,3.95,0,0,1,1.575,6.548l-4.935,4.943a.172.172,0,0,0-.027.207l9.766,16.986a.172.172,0,0,0,.193.08l6.754-1.777a3.93,3.93,0,0,1,1.761-.063,3.994,3.994,0,0,1,2.551,1.72,3.9,3.9,0,0,1,.553,3l-1.479,6.826a.171.171,0,0,0,.089.189l17.4,9.01a.172.172,0,0,0,.206-.036l4.721-5.147a3.95,3.95,0,0,1,6.61,1.287l2.446,6.541a.17.17,0,0,0,.128.108.174.174,0,0,0,.049,0l19.508-1.827a.172.172,0,0,0,.154-.142l1.189-6.882a3.9,3.9,0,0,1,1.637-2.573,3.993,3.993,0,0,1,3.011-.637,3.925,3.925,0,0,1,1.608.719L166.014,147a.173.173,0,0,0,.209,0l15.423-12.083a.173.173,0,0,0,.052-.2l-2.72-6.432a3.95,3.95,0,0,1,3.916-5.479l6.966.493a.173.173,0,0,0,.175-.115l6.442-18.5a.172.172,0,0,0-.066-.2" transform="translate(-33.559 -14.931)" fill="#a7e446"/>
        <path id="Trazado_249251" data-name="Trazado 249251" d="M97.867,16.57a.32.32,0,0,1-.578-.123L96.107,9.176l-.035.015c-3.054,1.133-6.106,2.129-9.043,3.528a57.756,57.756,0,0,0-8.746,5.2A63.662,63.662,0,0,0,64.309,31.763C54.954,44.35,50.442,59.831,49.448,75.319a.881.881,0,0,1-1.754-.1c.38-16.031,4.428-32.076,13.629-45.364A66.722,66.722,0,0,1,75.537,14.987c5.4-4.142,11.912-8,18.706-9.709L90.253.484a.3.3,0,0,1,.292-.478l15.434,2.821a.305.305,0,0,1,.219.455Z" transform="translate(-42.967 97.083) rotate(-42)" fill="#fc4b52"/>
        <path id="Trazado_249252" data-name="Trazado 249252" d="M144.392,349.157l8.554-17.472a.171.171,0,0,0-.041-.2l-5.214-4.57a3.921,3.921,0,0,1,1.13-6.59l6.439-2.574a.172.172,0,0,0,.106-.179l-2.25-19.322a.174.174,0,0,0-.144-.149l-6.858-1.026a3.893,3.893,0,0,1-1.631-.632,3.965,3.965,0,0,1-1.654-2.57,3.874,3.874,0,0,1,.671-2.952l4.025-5.647a.17.17,0,0,0-.007-.207l-12.34-15.039a.173.173,0,0,0-.035-.033.171.171,0,0,0-.166-.015l-6.324,2.844a3.922,3.922,0,0,1-5.526-3.765l.334-6.926a.171.171,0,0,0-.119-.171l-18.511-5.98a.171.171,0,0,0-.2.069l-3.782,5.812a3.877,3.877,0,0,1-2.5,1.706,3.967,3.967,0,0,1-3-.6,3.891,3.891,0,0,1-1.186-1.286L90.7,255.671a.171.171,0,0,0-.192-.079l-18.806,4.976a.172.172,0,0,0-.127.164l-.039,6.934a3.921,3.921,0,0,1-5.72,3.463l-6.162-3.18a.171.171,0,0,0-.2.037l-13.13,14.354a.17.17,0,0,0-.018.207L50.02,288.4a3.922,3.922,0,0,1-2.94,6.006l-6.9.656a.172.172,0,0,0-.152.142l-3.285,19.173a.172.172,0,0,0,.1.184l6.291,2.916a3.937,3.937,0,0,1,2.27,3.431,3.877,3.877,0,0,1-1.5,3.211L38.448,328.4a.17.17,0,0,0-.052.2L46,346.51a.173.173,0,0,0,.181.1l6.869-.948a3.847,3.847,0,0,1,2.734.634,3.891,3.891,0,0,1,1.508,4.536l-2.271,6.552a.17.17,0,0,0,.065.2l16.076,10.954a.172.172,0,0,0,.208-.011l5.266-4.511a3.891,3.891,0,0,1,4.773-.256A3.847,3.847,0,0,1,83,366.071l1.631,6.739a.171.171,0,0,0,.162.131l19.446.523a.172.172,0,0,0,.168-.122L106.4,366.7a3.877,3.877,0,0,1,2.44-2.568,3.941,3.941,0,0,1,4.024.857l5.016,4.788a.171.171,0,0,0,.207.023l16.642-10.073a.17.17,0,0,0,.075-.193l-1.915-6.665a3.922,3.922,0,0,1,4.513-4.934l6.808,1.316a.17.17,0,0,0,.186-.093" transform="translate(-15.767 -109.697)" fill="#85b638"/>
        <path id="Trazado_249253" data-name="Trazado 249253" d="M17.25,345.754a.317.317,0,0,0-.49-.323L10.8,349.678c-.005-.012-.009-.023-.014-.035-1.334-2.946-2.764-5.8-3.828-8.845a57.294,57.294,0,0,1-2.441-9.8,63.2,63.2,0,0,1,0-19.529c2.345-15.393,10.115-29.392,20.347-40.913.714-.8-.545-1.948-1.293-1.171C12.533,280.849,4.042,294.914,1.1,310.688a66.256,66.256,0,0,0-.562,20.418c.848,6.7,2.681,13.989,6.218,19.98l-6.169.533a.293.293,0,0,0-.134.54l12.773,8.917a.3.3,0,0,0,.474-.163Z" transform="matrix(0.951, 0.309, -0.309, 0.951, 98.994, -128.959)" fill="#fc4b52"/>
        <path id="Trazado_249254" data-name="Trazado 249254" d="M415.313,244.731l-8.044-5.5a5.511,5.511,0,0,1,.464-9.384l8.547-4.676a.24.24,0,0,0,.118-.267L410,198.335a.239.239,0,0,0-.227-.184l-9.739-.275a5.538,5.538,0,0,1-4.834-3.17,5.448,5.448,0,0,1,.151-4.975l4.662-8.553a.241.241,0,0,0-.045-.289l-19.747-18.9a.242.242,0,0,0-.29-.032l-8.342,5.034a5.409,5.409,0,0,1-3.88.7,5.468,5.468,0,0,1-4.462-5.019l-.7-9.718a.241.241,0,0,0-.193-.219l-26.829-5.221a.241.241,0,0,0-.261.13l-4.3,8.744a5.468,5.468,0,0,1-6.019,2.98,5.4,5.4,0,0,1-3.335-2.1l-5.845-7.795a.241.241,0,0,0-.281-.078L290.1,159.5a.24.24,0,0,0-.15.251l1.114,9.679a5.448,5.448,0,0,1-1.725,4.669,5.533,5.533,0,0,1-5.67,1.125l-9.132-3.4a.242.242,0,0,0-.279.085L258.36,194.151a.239.239,0,0,0,.01.292l6.169,7.54a5.51,5.51,0,0,1-3.089,8.873l-9.519,2.079a.238.238,0,0,0-.188.223l-1.35,27.3a.238.238,0,0,0,.166.24l9.267,3.008a5.51,5.51,0,0,1,2.2,9.135l-6.884,6.894a.24.24,0,0,0-.038.289l13.623,23.7a.241.241,0,0,0,.269.113l9.423-2.48a5.471,5.471,0,0,1,2.456-.087,5.572,5.572,0,0,1,3.56,2.4,5.446,5.446,0,0,1,.771,4.184l-2.063,9.522a.24.24,0,0,0,.124.264L307.537,310.2a.24.24,0,0,0,.287-.051l6.585-7.18a5.51,5.51,0,0,1,9.221,1.795l3.413,9.126a.239.239,0,0,0,.179.151.25.25,0,0,0,.068,0l27.213-2.549a.241.241,0,0,0,.215-.2l1.658-9.6a5.446,5.446,0,0,1,2.284-3.589,5.572,5.572,0,0,1,4.2-.889,5.472,5.472,0,0,1,2.244,1l7.8,5.832a.241.241,0,0,0,.292,0l21.515-16.856a.24.24,0,0,0,.073-.283l-3.8-8.973a5.51,5.51,0,0,1,5.463-7.642l9.718.687a.239.239,0,0,0,.244-.16l8.987-25.812a.241.241,0,0,0-.091-.278" transform="translate(-102.469 -1.622)" fill="#64892a"/>
        <path id="Trazado_249255" data-name="Trazado 249255" d="M503.247,196.678a.446.446,0,0,1,.313-.763l10.275.208c0-.018-.009-.034-.012-.053-.787-4.476-1.385-8.914-2.568-13.3a80.562,80.562,0,0,0-4.937-13.31,88.786,88.786,0,0,0-15.479-22.654c-14.919-16-35.025-26.087-56.027-31.346a1.229,1.229,0,0,1,.574-2.383c21.9,4.553,42.9,14.143,58.818,30.111a93.084,93.084,0,0,1,16.831,23.244c4.326,8.447,7.975,18.355,8.618,28.109l7.581-4.27a.412.412,0,0,1,.583.521l-7.754,20.467a.426.426,0,0,1-.68.187Z" transform="translate(-178.253 13.937)" fill="#fc4b52"/>
      </g>
    </g>
    <text id="Tercer_momento" data-name="Tercer
momento" transform="translate(4730 -10343)" fill="#12263f" font-size="16" font-family="Roboto-Regular, Roboto"><tspan x="-22.391" y="0">Tercer</tspan><tspan x="-34.336" y="24">momento</tspan></text>
    <text id="Primer_momento" data-name="Primer
momento" transform="translate(4853 -10197)" fill="#fff" font-size="16" font-family="Roboto-Regular, Roboto"><tspan x="-23.652" y="0">Primer</tspan><tspan x="-34.336" y="24">momento</tspan></text>
    <text id="Segundo_momento" data-name="Segundo
momento" transform="translate(4706 -10215)" fill="#fff" font-size="16" font-family="Roboto-Regular, Roboto"><tspan x="-31.371" y="0">Segundo</tspan><tspan x="-34.336" y="24">momento</tspan></text>
    <rect id="Rectángulo_90243" data-name="Rectángulo 90243" width="138" height="35" rx="17.5" transform="translate(4759 -10384)" fill="#ffe4e5"/>
    <text id="Posventa" transform="translate(4795 -10360)" fill="#12263f" font-size="16" font-family="Roboto-Bold, Roboto" font-weight="700"><tspan x="0" y="0">Posventa</tspan></text>
    <rect id="Rectángulo_90244" data-name="Rectángulo 90244" width="138" height="35" rx="17.5" transform="translate(4719 -10152)" fill="#ffe4e5"/>
    <text id="Preventa" transform="translate(4755 -10128)" fill="#12263f" font-size="16" font-family="Roboto-Bold, Roboto" font-weight="700"><tspan x="0" y="0">Preventa</tspan></text>
    <rect id="Rectángulo_90245" data-name="Rectángulo 90245" width="114" height="35" rx="17.5" transform="translate(4679 -10271.465)" fill="#ffe4e5"/>
    <text id="Venta" transform="translate(4715 -10247.465)" fill="#12263f" font-size="16" font-family="Roboto-Bold, Roboto" font-weight="700"><tspan x="0" y="0">Venta</tspan></text>
  </g>
</svg>
